<svg width="54" height="71" viewBox="0 0 54 71" fill="none" xmlns="http://www.w3.org/2000/svg">
<path d="M50.4927 67.3601C48.504 69.3539 46.6046 70.3519 44.7944 70.3543C42.9841 70.2661 41.1727 69.3181 39.3602 67.5102C38.0914 66.2447 37.2298 64.8429 36.7752 63.3048C36.3659 61.7214 36.1374 60.0021 36.0898 58.1467L35.5154 33.8455C35.3749 30.1801 34.9865 27.3069 34.3503 25.226C33.7592 23.0998 32.784 21.3587 31.4246 20.0028C29.7027 18.2854 27.8463 17.5637 25.8555 17.8378C23.8646 18.1119 21.8071 19.3138 19.6828 21.4435C18.5981 22.531 17.6042 23.8447 16.7011 25.3845C15.7527 26.8791 14.9404 28.6904 14.2643 30.8182C13.5878 32.584 12.6391 33.8524 11.4182 34.6233C10.2425 35.3489 8.9305 35.6674 7.48223 35.5787C6.07916 35.4448 4.78878 34.9712 3.61111 34.1582C2.47863 33.2998 1.66259 32.1695 1.16298 30.7672C0.618055 29.3198 0.615956 27.6906 1.15668 25.8797C2.10289 22.6654 3.43409 19.6995 5.15028 16.982C6.91166 14.2191 8.92226 11.7049 11.1821 9.43926C14.8882 5.72358 18.5279 3.16199 22.1012 1.75449C25.7198 0.301668 29.2266 -0.0422618 32.6217 0.722698C35.9715 1.44246 39.1643 3.31642 42.2003 6.34459C44.1035 8.24284 45.6675 10.3904 46.8925 12.7874C48.1627 15.139 49.0713 17.8531 49.6183 20.9297C50.2105 23.961 50.4866 27.5358 50.4467 31.6541L50.3391 53.5123L47.2125 50.3938L63.9578 33.6053C65.63 31.9287 67.326 31.0893 69.0457 31.087C70.8106 31.0395 72.5087 31.8293 74.1399 33.4564C75.7712 35.0834 76.588 36.8021 76.5903 38.6123C76.5926 40.332 75.7575 42.0301 74.0852 43.7067L50.4927 67.3601Z" fill="#BDC3C7" fill-opacity="0.1"/>
</svg>
