<svg width="42" height="40" viewBox="0 0 42 40" fill="none" xmlns="http://www.w3.org/2000/svg">
<path d="M18.3328 39.2648C15.7916 38.9687 13.2789 38.4291 10.7944 37.6458C8.31002 36.8625 6.19709 35.925 4.45567 34.8333C2.94635 33.9167 1.93025 32.8848 1.40737 31.7375C0.934324 30.596 0.812904 29.4708 1.04311 28.3618C1.27332 27.2529 1.7883 26.3006 2.58805 25.5049C3.43762 24.715 4.45245 24.2407 5.63253 24.0819C6.86811 23.8801 8.19641 24.183 9.61743 24.9906C11.3702 25.9849 13.0019 26.7182 14.5125 27.1904C16.0231 27.6627 17.5507 27.9888 19.0953 28.1688C20.8891 28.3778 22.4066 28.3571 23.6478 28.1066C24.8891 27.8562 25.8541 27.3761 26.5429 26.6662C27.2373 25.9076 27.6554 24.9194 27.7973 23.7014C27.996 21.9962 27.5179 20.6813 26.3631 19.7566C25.2637 18.789 23.5431 18.1688 21.2012 17.896L17.1652 17.4258C15.2718 17.2052 13.8807 16.574 12.9921 15.5322C12.1034 14.4904 11.7583 13.1169 11.957 11.4117C12.1557 9.70656 12.8072 8.44918 13.9116 7.63961C15.016 6.83004 16.5149 6.53555 18.4083 6.75615L21.099 7.06963C22.544 7.23798 23.7874 7.18533 24.8294 6.91168C25.9212 6.64383 26.7837 6.17643 27.4169 5.5095C28.0558 4.79384 28.4406 3.87573 28.5711 2.75518C28.7584 1.14743 28.3024 -0.140231 27.2031 -1.10779C26.1535 -2.06955 24.4827 -2.68394 22.1907 -2.95098C20.7955 -3.11353 19.3584 -3.13282 17.8794 -3.00885C16.4004 -2.88489 14.7961 -2.55329 13.0667 -2.01407C11.7087 -1.62908 10.4987 -1.64661 9.43657 -2.06665C8.42426 -2.48087 7.61757 -3.14274 7.01648 -4.05225C6.4709 -5.00467 6.18297 -6.00115 6.15269 -7.04168C6.12809 -8.13093 6.42452 -9.15808 7.04199 -10.1231C7.65946 -11.0882 8.70551 -11.8305 10.1801 -12.35C12.3921 -13.1293 14.75 -13.6447 17.254 -13.8962C19.8078 -14.1418 22.3303 -14.1195 24.8217 -13.8293C28.758 -13.3707 32.0561 -12.4185 34.7158 -10.9729C37.3756 -9.52723 39.3031 -7.6484 40.4983 -5.33638C41.7491 -3.06727 42.2013 -0.446769 41.8551 2.52514C41.628 4.47392 41.0443 6.23301 40.1039 7.80241C39.1635 9.3718 37.9055 10.6326 36.33 11.5848C34.7601 12.4883 32.9752 13.0704 30.9752 13.3312L31.0944 12.3081C34.5198 13.2504 37.0679 15.004 38.7387 17.569C40.465 20.091 41.1267 23.0816 40.7237 26.5407C40.3604 29.6587 39.2232 32.2669 37.3122 34.3651C35.4011 36.4634 32.83 37.9416 29.5988 38.7996C26.3733 39.609 22.618 39.764 18.3328 39.2648Z" fill="#BDC3C7" fill-opacity="0.1"/>
</svg>
