<svg width="31" height="39" viewBox="0 0 31 39" fill="none" xmlns="http://www.w3.org/2000/svg">
<path d="M20.757 39C19.2395 39 18.0472 38.5864 17.1801 37.7593C16.3491 36.9322 15.9336 35.7095 15.9336 34.0913V32.1494H5.04021C3.45047 32.1494 2.20396 31.7898 1.3007 31.0705C0.433566 30.3513 0 29.2545 0 27.7801C0 26.917 0.162587 26.0899 0.487762 25.2988C0.812937 24.4716 1.39103 23.4827 2.22203 22.3319L15.4458 3.12863C16.1684 2.04979 16.9814 1.25864 17.8846 0.755187C18.7879 0.251729 19.8537 0 21.0822 0C22.4551 0 23.539 0.413555 24.3339 1.24066C25.1288 2.03181 25.5262 3.2545 25.5262 4.90871V24.6515H26.8269C28.1999 24.6515 29.2296 24.9751 29.9161 25.6224C30.6387 26.2697 31 27.1867 31 28.3734C31 29.5961 30.6387 30.5311 29.9161 31.1784C29.2296 31.8257 28.1999 32.1494 26.8269 32.1494H25.5262V34.0913C25.5262 35.6736 25.1107 36.8963 24.2797 37.7593C23.4848 38.5864 22.3106 39 20.757 39ZM15.9336 24.6515V11.9212H17.451L7.26224 26.971V24.6515H15.9336Z" fill="#BDC3C7" fill-opacity="0.1"/>
</svg>
