<svg width="80" height="147" viewBox="0 0 80 147" fill="none" xmlns="http://www.w3.org/2000/svg">
<path d="M-5.64251 142.961C-11.5742 141.009 -17.5924 138.279 -23.697 134.772C-29.8016 131.264 -35.1691 127.182 -39.7997 122.524C-42.5699 119.705 -44.1897 116.72 -44.659 113.568C-44.9644 110.333 -44.4665 107.363 -43.1653 104.658C-41.7406 101.993 -39.7991 99.8387 -37.3408 98.1951C-34.759 96.5922 -32.0076 95.9307 -29.0866 96.2106C-26.0016 96.4083 -23.074 97.9166 -20.3038 100.736C-16.873 104.045 -13.1568 106.902 -9.15525 109.309C-5.0301 111.757 -1.05208 113.611 2.77881 114.871C6.98043 116.254 10.7664 116.818 14.1368 116.565C17.5072 116.311 20.3182 115.261 22.5697 113.413C24.9449 111.606 26.6583 109.104 27.7101 105.908C29.3283 100.99 28.9343 96.5686 26.5281 92.6431C24.122 88.7176 20.1384 85.8399 14.5774 84.01C12.1059 83.1967 9.26584 82.6709 6.05727 82.4326C2.97227 82.235 -0.458799 82.6728 -4.23594 83.7461C-5.83801 84.0365 -7.97485 84.2871 -10.6464 84.498C-13.2776 84.5859 -15.8289 84.2232 -18.3005 83.41C-22.7492 81.946 -25.6802 79.8235 -27.0933 77.0422C-28.5064 74.261 -28.5859 70.9649 -27.3318 67.1538L-9.00628 11.4629C-7.46903 6.79126 -5.0601 3.6327 -1.77948 1.98722C1.62471 0.38241 5.61299 0.332292 10.1853 1.83686L68.3902 20.9897C72.9625 22.4942 76.1002 24.8211 77.8031 27.9702C79.506 31.1193 79.6091 34.9682 78.1123 39.5169C76.656 43.9426 74.3077 46.9168 71.0675 48.4393C67.8274 49.9619 63.9211 49.9709 59.3488 48.4663L18.7537 35.1081L9.22681 64.06L1.44145 61.4982C5.54001 59.0318 10.2822 57.7311 15.6681 57.5958C21.0944 57.3377 26.6498 58.1439 32.3344 60.0144C40.614 62.7389 47.3185 66.9207 52.4478 72.5598C57.6175 78.0759 60.9009 84.5382 62.2979 91.9466C63.8185 99.3957 63.2034 107.3 60.4525 115.66C57.5398 124.511 52.8702 131.627 46.4436 137.006C40.1811 142.302 32.5503 145.514 23.5514 146.64C14.7164 147.684 4.98513 146.458 -5.64251 142.961Z" fill="#BDC3C7" fill-opacity="0.1"/>
</svg>
