<svg width="30" height="26" viewBox="0 0 30 26" fill="none" xmlns="http://www.w3.org/2000/svg">
<path d="M4.16513 25.1505C3.06033 24.9424 2.21262 24.5305 1.62201 23.9146C1.03752 23.2662 0.776072 22.5104 0.837663 21.6472C0.899253 20.784 1.30108 19.9007 2.04315 18.9974L20.1607 -2.97742L19.6743 -0.394125L5.97797 -2.97295C4.77568 -3.19932 3.89147 -3.68545 3.32534 -4.43132C2.7917 -5.17108 2.63806 -6.1421 2.86444 -7.34439C3.09081 -8.54668 3.58706 -9.39534 4.35319 -9.89037C5.15182 -10.3793 6.15228 -10.5105 7.35457 -10.2842L25.6814 -6.8335C26.8837 -6.60713 27.8135 -6.09558 28.471 -5.29886C29.161 -4.49602 29.3928 -3.49345 29.1665 -2.29116C28.9707 -1.25134 28.6369 -0.372092 28.1651 0.346588C27.732 1.03889 27.2084 1.76465 26.5944 2.52384L9.76653 23.2779C9.05695 24.1873 8.25316 24.793 7.35515 25.095C6.49575 25.3706 5.43241 25.3891 4.16513 25.1505Z" fill="#BDC3C7" fill-opacity="0.1"/>
</svg>
