<svg width="43" height="62" viewBox="0 0 43 62" fill="none" xmlns="http://www.w3.org/2000/svg">
<path d="M9.63258 59.874C5.17494 58.5991 1.50195 56.8619 -1.38639 54.6624C-4.25961 52.41 -6.21355 49.8196 -7.24821 46.8913C-8.28287 43.963 -8.32362 40.8324 -7.37047 37.4998C-6.59887 34.8019 -5.39362 32.5714 -3.75472 30.8083C-2.06338 29.0602 -0.0921813 27.8213 2.15886 27.0917C4.42504 26.3091 6.80213 26.1306 9.29015 26.556L8.63202 28.8571C5.57725 27.2395 3.39034 24.8687 2.07128 21.7445C0.75222 18.6204 0.599526 15.2862 1.6132 11.7419C2.53609 8.51503 4.13568 5.99673 6.41197 4.187C8.68826 2.37728 11.5212 1.29904 14.9109 0.952272C18.3005 0.605507 22.0406 1.01707 26.1312 2.18698C30.2742 3.37187 33.6663 5.00013 36.3075 7.07175C39.0012 9.15837 40.8357 11.5715 41.8108 14.3111C42.786 17.0508 42.8121 20.0341 41.8892 23.2609C41.2084 25.6414 40.1086 27.7018 38.5897 29.442C37.1384 31.1443 35.4183 32.3977 33.4295 33.2024C31.4931 34.022 29.4231 34.317 27.2195 34.0873L27.8549 31.8656C31.2697 33.4145 33.7264 35.8339 35.225 39.1238C36.7911 42.3758 37.0144 45.9591 35.8948 49.8737C34.9417 53.2064 33.2518 55.8419 30.8252 57.7804C28.3987 59.7188 25.3706 60.8843 21.7409 61.2769C18.1788 61.6315 14.1427 61.1639 9.63258 59.874ZM12.7644 48.9238C15.5438 49.7187 17.8191 49.7972 19.59 49.1592C21.3762 48.4682 22.5642 47.0912 23.1543 45.0281C23.7595 42.9122 23.4791 41.1152 22.3133 39.6372C21.1475 38.1593 19.1749 37.0228 16.3954 36.2279C13.6159 35.433 11.3407 35.3545 9.56974 35.9925C7.79875 36.6306 6.61067 38.0076 6.0055 40.1236C5.41545 42.1866 5.69577 43.9836 6.84645 45.5145C8.01226 46.9924 9.9849 48.1289 12.7644 48.9238ZM19.5499 25.1983C21.0707 25.6333 22.4237 25.7627 23.6087 25.5866C24.7937 25.4105 25.777 24.9477 26.5587 24.1984C27.4079 23.4112 28.0064 22.4093 28.3544 21.1926C28.8839 19.3411 28.6707 17.7064 27.7147 16.2884C26.7737 14.8176 25.202 13.7671 22.9994 13.1372C20.7968 12.5073 18.9073 12.5677 17.331 13.3187C15.8222 14.0317 14.8031 15.3139 14.2735 17.1654C13.744 19.0169 13.9235 20.6706 14.8119 22.1265C15.768 23.5444 17.3473 24.5684 19.5499 25.1983Z" fill="#BDC3C7" fill-opacity="0.1"/>
</svg>
