<svg width="52" height="59" viewBox="0 0 52 59" fill="none" xmlns="http://www.w3.org/2000/svg">
<path d="M40.9143 68.3947C38.5392 69.5101 35.999 70.3494 33.2939 70.9127C30.5888 71.476 27.8635 71.6952 25.1181 71.5704C23.4013 71.5281 22.0102 71.0501 20.9447 70.1363C19.8521 69.1646 19.0644 68.0143 18.5818 66.6855C18.1299 65.2714 18.0492 63.8952 18.3399 62.5567C18.6033 61.1603 19.248 59.9737 20.2741 58.9969C21.3582 57.9929 22.8455 57.4712 24.7361 57.4319C26.8548 57.4268 28.7353 57.2154 30.3775 56.7977C32.0197 56.3801 33.536 55.8448 34.9263 55.1919C37.8229 53.8317 39.9549 52.1234 41.3225 50.0671C42.7209 47.9256 43.3258 45.4496 43.1373 42.6392C42.9796 39.7437 42.0574 36.5001 40.3707 32.9084L38.2488 28.3898L39.5522 27.7777C40.2313 30.4284 40.2684 32.9917 39.6635 35.4677C39.1165 37.9164 38.0179 40.0939 36.3677 42.0002C34.7754 43.8792 32.7048 45.4172 30.1558 46.6142C26.7959 48.1921 23.3601 48.7803 19.8484 48.3789C16.3675 47.8924 13.1376 46.5102 10.1589 44.2323C7.15295 41.8965 4.76584 38.8459 2.99756 35.0804C1.03886 30.9094 0.209308 26.8092 0.508915 22.7797C0.808522 18.7502 2.12975 15.0894 4.47259 11.7973C6.84615 8.42012 10.0895 5.76576 14.2025 3.83426C19.59 1.30426 24.7089 0.385264 29.559 1.07727C34.467 1.74207 38.9941 3.92921 43.14 7.63869C47.2588 11.2902 50.8688 16.4181 53.9701 23.0221C56.3369 28.0621 57.8216 32.8799 58.4242 37.4756C59.0268 42.0713 58.7645 46.3307 57.6372 50.254C56.4828 54.1193 54.5077 57.5922 51.7119 60.6727C48.9162 63.7532 45.317 66.3272 40.9143 68.3947ZM28.7008 32.4493C30.207 31.742 31.3472 30.7823 32.1214 29.5703C32.9264 28.2731 33.3329 26.8802 33.3409 25.3916C33.3796 23.8179 33.0045 22.1911 32.2156 20.5111C31.3995 18.7732 30.3736 17.4166 29.1378 16.4414C27.96 15.439 26.6422 14.8912 25.1843 14.798C23.7572 14.6197 22.2906 14.8843 20.7844 15.5916C19.2782 16.2989 18.138 17.2586 17.3637 18.4706C16.5623 19.6247 16.1422 20.9886 16.1035 22.5624C16.0647 24.1361 16.4534 25.7919 17.2696 27.5298C18.0585 29.2098 19.0708 30.5374 20.3065 31.5126C21.5151 32.4299 22.8465 33.0066 24.3008 33.2428C25.728 33.4211 27.1946 33.1566 28.7008 32.4493Z" fill="#BDC3C7" fill-opacity="0.1"/>
</svg>
