<svg width="95" height="139" viewBox="0 0 95 139" fill="none" xmlns="http://www.w3.org/2000/svg">
<path d="M60.9098 138.102C55.4623 137.447 51.4606 135.492 48.9044 132.238C46.3701 128.802 45.4303 124.36 46.085 118.913L50.4713 82.4149L14.7906 78.1268C9.52474 77.494 5.60283 75.6411 3.02487 72.5682C0.628491 69.5172 -0.253274 65.3587 0.379577 60.0929C1.01243 54.827 2.85438 50.9959 5.90543 48.5995C9.13806 46.225 13.3873 45.3541 18.6532 45.987L54.3338 50.2751L58.5565 15.1392C59.2111 9.69173 61.1657 5.68995 64.4202 3.1338C67.6746 0.57767 72.1164 -0.362148 77.7454 0.314347C83.1928 0.969021 87.1038 2.91267 89.4784 6.1453C92.0345 9.39976 92.9852 13.7507 92.3306 19.1981L88.1079 54.3341L123.789 58.6222C129.054 59.255 132.886 61.097 135.282 64.148C137.86 67.2209 138.832 71.3903 138.2 76.6561C137.567 81.922 135.634 85.7422 132.401 88.1167C129.35 90.5131 125.192 91.3949 119.926 90.762L84.2453 86.4739L79.859 122.972C79.2044 128.419 77.2389 132.512 73.9626 135.249C70.8897 137.827 66.5388 138.778 60.9098 138.102Z" fill="#BDC3C7" fill-opacity="0.1"/>
</svg>
