<svg width="239" height="101" viewBox="0 0 239 101" fill="none" xmlns="http://www.w3.org/2000/svg">
<path d="M0.43441 94.5533C0.315619 94.5533 0.315604 94.5533 0.196813 94.4599C-0.0407695 94.3665 -0.0407586 94.1796 0.0780326 93.9927C0.0780326 93.9927 0.671989 93.2453 1.8599 92.0307C1.97869 91.8438 2.33507 91.8438 2.45386 91.9372C2.57265 92.0307 2.69143 92.311 2.57264 92.4044C1.50352 93.5256 0.909568 94.273 0.909568 94.273C0.790776 94.4599 0.553201 94.5533 0.43441 94.5533Z" fill="#ECF0F1" fill-opacity="0.4"/>
<path d="M95.2298 100.999C94.9922 100.999 94.7547 100.906 94.7547 100.719C94.7547 100.532 94.8734 100.345 95.111 100.345C96.8929 100.252 98.6748 99.5045 99.8627 98.3834C99.9815 98.1965 100.338 98.1965 100.457 98.3834C100.575 98.5702 100.694 98.7571 100.457 98.8505C99.2687 100.065 97.2493 100.906 95.2298 100.999ZM90.3594 98.9439C90.2406 98.9439 90.003 98.8505 90.003 98.7571C89.1715 97.6359 88.8151 96.2344 88.8151 94.6461C88.8151 94.4592 88.8151 94.2723 88.8151 94.0855C88.8151 93.8986 89.0527 93.7117 89.2903 93.7117C89.5278 93.7117 89.7654 93.8986 89.7654 94.0855C89.7654 94.2723 89.7654 94.4592 89.7654 94.5526C89.7654 95.9541 90.1218 97.2622 90.8346 98.2899C90.9534 98.4768 90.8346 98.6636 90.7158 98.7571C90.4782 98.9439 90.4782 98.9439 90.3594 98.9439ZM102.357 94.7395C102.12 94.7395 101.882 94.5526 101.882 94.3658C101.882 93.0577 101.288 91.6562 100.1 90.2547C99.9815 90.0679 99.9815 89.881 100.219 89.7876C100.457 89.6941 100.694 89.6941 100.813 89.881C102.001 91.3759 102.595 92.8708 102.714 94.3658C102.832 94.5526 102.595 94.7395 102.357 94.7395ZM154.863 94.7395C154.625 94.7395 154.388 94.5526 154.388 94.3658C154.388 94.1789 154.507 93.992 154.863 93.992C156.882 93.8986 158.783 93.7117 160.565 93.4314C160.803 93.4314 161.04 93.5249 161.04 93.7117C161.04 93.8986 160.921 94.0855 160.684 94.0855C158.902 94.3658 156.882 94.646 154.863 94.7395ZM148.923 94.6461C147.023 94.5526 145.003 94.3658 142.984 94.0855C142.746 94.0855 142.628 93.8986 142.628 93.7117C142.628 93.5249 142.865 93.4314 143.103 93.4314C145.122 93.7117 147.023 93.8986 148.923 93.992C149.161 93.992 149.399 94.1789 149.28 94.3658C149.399 94.4592 149.161 94.6461 148.923 94.6461ZM137.401 93.0577C135.381 92.684 133.481 92.2168 131.699 91.6562C131.461 91.5628 131.342 91.3759 131.461 91.189C131.58 91.0022 131.818 90.9088 132.055 91.0022C133.956 91.4693 135.738 91.9365 137.638 92.3102C137.876 92.4037 137.995 92.5905 137.995 92.7774C137.757 92.9643 137.638 93.0577 137.401 93.0577ZM166.267 92.684C166.148 92.684 165.911 92.5905 165.911 92.4971C165.792 92.3102 165.911 92.1234 166.148 92.0299C167.93 91.3759 169.593 90.6285 171.019 89.6941C171.256 89.6007 171.494 89.6007 171.613 89.7876C171.731 89.9744 171.731 90.1613 171.494 90.2547C169.95 91.189 168.286 92.0299 166.386 92.684H166.267ZM90.597 90.0679C90.4782 90.0679 90.4782 90.0679 90.3594 90.0679C90.1218 89.9744 90.003 89.7876 90.1218 89.6007C90.9533 88.1058 92.1413 86.7977 93.5667 85.77C93.6855 85.6766 94.0419 85.6766 94.1607 85.77C94.2795 85.9568 94.2795 86.1437 94.1607 86.2371C92.854 87.2649 91.6661 88.4795 90.8346 89.881C90.9534 89.9744 90.8345 90.0679 90.597 90.0679ZM126.353 89.9744H126.234C124.452 89.3204 122.671 88.6664 120.889 88.0124C120.651 87.9189 120.532 87.7321 120.651 87.5452C120.77 87.3583 121.008 87.2649 121.245 87.3583C122.908 88.0124 124.69 88.6664 126.472 89.3204C126.71 89.4138 126.828 89.6007 126.709 89.7876C126.709 89.881 126.472 89.9744 126.353 89.9744ZM5.89882 89.1335C5.78003 89.1335 5.66124 89.1335 5.54244 89.0401C5.30486 88.9467 5.30486 88.6664 5.54244 88.573C6.84915 87.4518 8.27465 86.3306 9.81894 85.3028C10.0565 85.2094 10.2941 85.2094 10.4129 85.3028C10.5317 85.4897 10.5317 85.6766 10.4129 85.77C8.9874 86.7977 7.5619 87.8255 6.2552 88.9467C6.13641 89.1335 6.01761 89.1335 5.89882 89.1335ZM96.6553 86.8912C96.5365 86.8912 96.4177 86.8912 96.4177 86.7977C95.111 85.8634 93.5667 84.9291 91.7849 84.0882C91.5473 83.9948 91.5473 83.8079 91.6661 83.621C91.7849 83.4342 92.0225 83.4342 92.26 83.5276C94.0419 84.4619 95.705 85.3962 97.0117 86.3306C97.2493 86.424 97.2493 86.7043 97.0117 86.7977C96.8929 86.8912 96.7741 86.8912 96.6553 86.8912ZM175.295 86.8912C175.176 86.8912 175.058 86.8912 175.058 86.7977C174.82 86.7043 174.82 86.424 174.939 86.3306C176.008 85.1159 176.958 83.8079 177.79 82.4064C177.909 82.2195 178.146 82.1261 178.384 82.2196C178.621 82.313 178.74 82.4998 178.621 82.6867C177.79 84.1816 176.839 85.5831 175.651 86.7977C175.533 86.8912 175.414 86.8912 175.295 86.8912ZM115.899 85.8634C115.781 85.8634 115.781 85.8634 115.662 85.8634C113.88 85.1159 112.098 84.5554 110.316 84.0882C110.079 83.9948 109.96 83.8079 110.079 83.621C110.198 83.4342 110.435 83.3407 110.673 83.4342C112.455 83.9013 114.236 84.4619 116.137 85.2094C116.375 85.3028 116.493 85.4897 116.375 85.6765C116.256 85.77 116.018 85.8634 115.899 85.8634ZM98.9124 83.9013C98.6748 83.9013 98.556 83.8079 98.4372 83.621C98.3184 83.4342 98.4372 83.2473 98.6748 83.1539C100.457 82.6867 102.476 82.4064 104.614 82.4998C104.852 82.4998 105.09 82.6867 105.09 82.8736C105.09 83.0604 104.852 83.2473 104.614 83.2473C102.595 83.1539 100.694 83.4342 99.0312 83.9013C99.0312 83.9013 99.0311 83.9013 98.9124 83.9013ZM14.6894 82.967C14.5706 82.967 14.4518 82.8736 14.333 82.7801C14.2142 82.5933 14.2142 82.4064 14.4518 82.313C15.9961 81.3786 17.6592 80.5378 19.3222 79.6969C19.5598 79.6034 19.7974 79.6969 19.9162 79.7903C20.035 79.9772 19.9162 80.164 19.7974 80.2575C18.1343 81.0049 16.4712 81.8458 14.927 82.7801C14.927 82.967 14.8082 82.967 14.6894 82.967ZM86.9144 81.8458C86.7956 81.8458 86.7957 81.8458 86.6769 81.8458C85.0138 81.1918 83.2319 80.5378 81.3313 79.8837C81.0937 79.7903 80.9749 79.6034 81.0937 79.4166C81.2125 79.2297 81.45 79.1363 81.6876 79.2297C83.5883 79.8837 85.3702 80.5378 87.0332 81.1918C87.2708 81.2852 87.3896 81.4721 87.2708 81.659C87.2708 81.8458 87.0332 81.8458 86.9144 81.8458ZM179.928 78.5757C179.928 78.5757 179.809 78.5757 179.928 78.5757C179.572 78.4822 179.453 78.2954 179.453 78.1085C179.809 76.707 180.166 75.2121 180.403 73.6238C180.403 73.4369 180.641 73.25 180.878 73.3435C181.116 73.3435 181.353 73.5303 181.235 73.7172C180.997 75.3055 180.759 76.8939 180.284 78.2954C180.284 78.3888 180.166 78.5757 179.928 78.5757ZM24.7866 78.2954C24.6678 78.2954 24.4303 78.202 24.4303 78.1085C24.3115 77.9217 24.4303 77.7348 24.6678 77.6413C26.4497 76.9873 28.3504 76.4267 30.1322 75.8661C30.3698 75.7727 30.6074 75.8661 30.7262 76.053C30.845 76.2399 30.7262 76.4267 30.4886 76.5202C28.7067 76.9873 26.8061 77.6414 25.143 78.202C24.9054 78.2954 24.7866 78.2954 24.7866 78.2954ZM76.1044 78.2954H75.9857C74.4414 77.8282 72.7783 77.4545 71.234 76.9873L70.5213 76.8005C70.2837 76.707 70.1649 76.5202 70.2837 76.3333C70.4025 76.1464 70.64 76.053 70.8776 76.1464L71.5904 76.3333C73.2534 76.8005 74.9165 77.1742 76.4608 77.6413C76.6984 77.7348 76.8172 77.9217 76.6984 78.1085C76.4608 78.202 76.342 78.2954 76.1044 78.2954ZM64.9381 75.5858C64.9381 75.5858 64.8193 75.5858 64.9381 75.5858C62.9186 75.2121 61.018 74.9318 59.1173 74.6515C58.8797 74.6515 58.7609 74.4647 58.7609 74.2778C58.7609 74.0909 58.9985 73.9975 59.2361 73.9975C61.1368 74.1844 63.0374 74.5581 65.0569 74.9318C65.2944 74.9318 65.4132 75.1187 65.4132 75.399C65.2944 75.399 65.1756 75.5858 64.9381 75.5858ZM35.8342 75.2121C35.5966 75.2121 35.4778 75.1187 35.359 74.9318C35.359 74.745 35.4778 74.5581 35.7154 74.4647C37.6161 74.0909 39.5167 73.8106 41.5362 73.6238C41.7738 73.6238 42.0114 73.7172 42.0114 73.9041C42.0114 74.0909 41.8926 74.2778 41.655 74.2778C39.7543 74.6515 37.8537 74.9318 35.8342 75.2121C35.953 75.2121 35.8342 75.2121 35.8342 75.2121ZM53.2965 74.1844C51.871 74.0909 50.4455 74.0909 49.02 74.0909C48.4261 74.0909 47.9509 74.0909 47.357 74.0909C47.1194 74.0909 46.8818 73.9041 46.8818 73.7172C46.8818 73.5303 47.1194 73.3435 47.357 73.3435C47.9509 73.3435 48.5449 73.3435 49.1388 73.3435C50.4455 73.3435 51.871 73.3435 53.2965 73.4369C53.5341 73.4369 53.7717 73.6238 53.6529 73.8106C53.7717 73.9975 53.5341 74.1844 53.2965 74.1844ZM181.116 69.4193C180.878 69.4193 180.641 69.2324 180.641 69.0456V68.5784C180.641 67.1769 180.522 65.7754 180.522 64.374C180.522 64.1871 180.76 64.0002 180.997 64.0002C181.235 64.0002 181.472 64.1871 181.472 64.374C181.591 65.7754 181.591 67.1769 181.591 68.5784V69.0456C181.472 69.2324 181.353 69.4193 181.116 69.4193ZM180.641 60.1695C180.403 60.1695 180.166 59.9826 180.166 59.7958C180.047 58.2074 179.928 56.7125 179.809 55.2176C179.809 55.0307 179.928 54.8439 180.166 54.8439C180.403 54.8439 180.641 54.9373 180.641 55.1242C180.759 56.6191 180.878 58.114 180.997 59.7023C181.116 59.9826 180.997 60.1695 180.641 60.1695ZM179.809 50.9197C179.572 50.9197 179.334 50.8263 179.334 50.6394L178.859 46.0612C178.859 45.8744 178.978 45.6875 179.215 45.6875C179.453 45.6875 179.69 45.7809 179.69 45.9678L180.166 50.546C180.284 50.7328 180.047 50.9197 179.809 50.9197ZM178.859 41.7633C178.621 41.7633 178.384 41.5765 178.384 41.483C178.265 39.7078 178.146 38.2129 178.027 36.9048C178.027 36.718 178.265 36.5311 178.502 36.5311C178.74 36.5311 178.978 36.718 178.978 36.9048C178.978 38.2129 179.096 39.7078 179.334 41.483C179.334 41.5765 179.096 41.7633 178.859 41.7633ZM178.502 32.5135C178.265 32.5135 178.027 32.3266 178.027 32.1398C178.146 30.458 178.384 28.8696 178.621 27.4682C178.621 27.2813 178.859 27.1879 179.096 27.1879C179.334 27.1879 179.453 27.3747 179.453 27.5616C179.096 28.9631 178.859 30.3646 178.859 32.1398C178.978 32.4201 178.74 32.5135 178.502 32.5135ZM180.878 23.544C180.759 23.544 180.759 23.544 180.641 23.544C180.403 23.4506 180.284 23.2637 180.403 23.0768C181.235 21.5819 182.304 20.3673 183.61 19.1527C183.729 18.9658 184.086 18.9658 184.204 19.1527C184.442 19.2461 184.442 19.5264 184.204 19.6198C182.898 20.741 181.947 22.0491 181.116 23.4506C181.235 23.4506 180.997 23.544 180.878 23.544ZM188.362 16.63C188.243 16.63 188.125 16.5366 188.006 16.4431C187.887 16.2563 187.887 16.0694 188.125 15.976C189.669 15.1351 191.332 14.3876 193.233 13.6402C193.47 13.5467 193.708 13.6402 193.827 13.827C193.945 14.0139 193.827 14.2008 193.589 14.2942C191.688 14.9482 190.025 15.7891 188.6 16.5366C188.6 16.63 188.481 16.63 188.362 16.63Z" fill="#ECF0F1" fill-opacity="0.4"/>
<path d="M199.053 12.5198C198.816 12.5198 198.697 12.4263 198.578 12.2395C198.46 12.0526 198.578 11.8657 198.816 11.7723C199.766 11.492 200.717 11.3051 201.667 11.0249C201.904 10.9314 202.142 11.1183 202.261 11.3051C202.38 11.492 202.142 11.6789 201.905 11.7723C200.954 11.9592 200.004 12.2395 199.053 12.5198C199.172 12.5198 199.172 12.5198 199.053 12.5198Z" fill="#ECF0F1" fill-opacity="0.4"/>
<path d="M214.975 21.1C214.875 21.1 214.875 21.1 214.775 21C214.675 20.9 214.575 20.8 214.575 20.6L216.075 11.1C216.075 11 216.175 10.8 216.375 10.8L234.475 6.5L214.375 6.39999C214.275 6.39999 214.175 6.39999 214.075 6.29999L209.075 0.599991C208.975 0.499991 208.975 0.299997 209.075 0.199997C209.175 0.0999969 209.275 0 209.475 0L238.575 6C238.775 6 238.875 6.19999 238.875 6.29999C238.875 6.49999 238.875 6.6 238.675 6.7L215.075 21C215.075 21.1 214.975 21.1 214.975 21.1ZM216.775 11.6L215.475 20L237.475 6.7L216.775 11.6ZM214.675 5.79999L233.875 5.89999L210.475 1.09999L214.675 5.79999Z" fill="#ECF0F1" fill-opacity="0.4"/>
<path d="M209.575 16.3C209.475 16.3 209.375 16.3 209.375 16.2C209.275 16.1 209.175 15.9 209.275 15.8L214.175 5.99998C214.275 5.79998 214.475 5.69997 214.675 5.79997C214.875 5.89997 214.975 6.09997 214.875 6.29997L210.675 14.8L216.375 11C216.575 10.9 216.775 10.9 216.875 11.1C216.975 11.3 216.975 11.5 216.775 11.6L209.975 16.2C209.775 16.3 209.675 16.3 209.575 16.3Z" fill="#ECF0F1" fill-opacity="0.4"/>
<path d="M209.575 16.3C209.375 16.3 209.275 16.2 209.175 16C209.175 15.8 209.275 15.6 209.475 15.6L215.775 14.3C215.975 14.3 216.175 14.4 216.175 14.6C216.175 14.8 216.075 15 215.875 15L209.575 16.3C209.675 16.3 209.675 16.3 209.575 16.3Z" fill="#ECF0F1" fill-opacity="0.4"/>
</svg>
