<svg width="70" height="70" viewBox="0 0 70 70" fill="none" xmlns="http://www.w3.org/2000/svg">
<circle cx="35" cy="35" r="35" fill="#E2CE96"/>
<path d="M25.0902 29.9093C25.0902 29.9093 33.477 16.1832 50.4632 31.0359C59.0505 38.5324 57.2015 55.1444 45.3268 59.231C33.452 63.3176 22.9337 35.8723 25.0902 29.9093Z" fill="white"/>
<path d="M39.5741 33.8083C39.5741 33.8083 43.4011 40.4428 46.0911 41.0335C48.8894 41.6439 51.9121 33.0369 51.9121 33.0369C51.9121 33.0369 46.4397 31.1343 39.5741 33.8083Z" fill="#26192A"/>
<path d="M42.8932 53.6657C40.3972 53.211 38.7804 45.6649 38.6383 44.7465C38.5778 44.5124 38.7169 44.3146 38.9363 44.243C39.1556 44.1714 39.3357 44.3158 39.3961 44.5499C40.0434 47.7916 41.6936 52.8894 43.2305 52.9462C44.9868 52.9315 47.7675 47.8599 48.7403 45.9175C48.8795 45.7197 49.0988 45.6481 49.2985 45.6845C49.4785 45.8288 49.539 46.063 49.4997 46.2789C49.1623 46.9984 45.9867 53.6715 43.3924 53.7567C43.0928 53.7021 42.993 53.6839 42.8932 53.6657Z" fill="#26192A"/>
<path d="M43.558 53.7873C43.312 53.7425 43.1037 53.4914 43.1412 53.2851L45.3208 41.3208C45.3584 41.1145 45.6419 40.953 45.8879 40.9978C46.1339 41.0426 46.3422 41.2937 46.3046 41.5L44.1063 53.5675C44.0875 53.6706 43.8039 53.8321 43.558 53.7873Z" fill="#26192A"/>
<path d="M38.9216 13.3011C41.517 13.7739 42.822 20.1519 42.9034 20.883C42.9711 21.1 42.8312 21.2792 42.6055 21.3405C42.3798 21.4017 42.1903 21.2648 42.1225 21.0478C41.5535 18.2834 40.199 13.9431 38.4658 14.0368C38.2402 14.098 38.1183 14.1781 37.9784 14.3573C36.981 15.7107 38.0918 20.2112 38.6517 21.8482C38.7194 22.0652 38.5795 22.2444 38.3538 22.3056C38.1282 22.3669 37.9386 22.23 37.8708 22.013C37.6677 21.3619 36.0106 15.7385 37.3239 13.8287C37.6037 13.4703 37.9693 13.2299 38.4026 13.2065C38.6102 13.2444 38.8178 13.2822 38.9216 13.3011Z" fill="#26192A"/>
<path d="M23.5747 14.5705C26.6928 15.1385 26.1942 22.9281 26.1445 23.8327C26.1042 24.0538 25.9526 24.2546 25.7298 24.214C25.5071 24.1734 25.3045 24.0223 25.3448 23.8012C25.5544 20.7558 25.2155 15.6689 23.5451 15.3645C23.3224 15.324 23.0795 15.3939 22.9279 15.5947C21.5525 16.8289 21.4258 21.9452 21.529 23.9055C21.4887 24.1266 21.337 24.3274 21.1143 24.2868C20.8916 24.2463 20.689 24.0951 20.7293 23.8741C20.7387 23.1905 20.5503 16.6463 22.3604 14.9203C22.5322 14.609 23.0179 14.469 23.5747 14.5705Z" fill="#26192A"/>
</svg>
