<svg width="70" height="70" viewBox="0 0 70 70" fill="none" xmlns="http://www.w3.org/2000/svg">
<circle cx="35" cy="35" r="35" fill="#819A8C"/>
<path d="M31.0311 18.7367C31.0311 18.7367 12.3418 15.8536 10.7399 17.5169C9.13793 19.1802 10.4195 35.3698 11.9146 35.7025C13.4098 36.0351 32.9534 36.3678 32.9534 35.0371C33.0602 33.5956 33.167 19.0693 31.0311 18.7367ZM29.5359 32.4867C29.5359 33.4847 14.6913 33.2629 13.6234 32.9303C12.4486 32.7085 11.4874 21.1762 12.769 19.9564C14.0505 18.7366 28.1476 20.8435 28.1476 20.8435C29.7495 21.1762 29.6427 31.5996 29.5359 32.4867Z" fill="#E09D9F"/>
<path d="M35.0062 35.0394C35.0062 36.3669 55.4357 36.035 56.9986 35.7032C58.5615 35.3713 59.9011 19.3306 58.2266 17.5606C56.552 15.7906 37.0156 18.7775 37.0156 18.7775C34.7829 19.1094 35.0062 33.6013 35.0062 35.0394ZM40.1415 20.99C40.1415 20.99 54.8775 18.8881 56.2171 20.105C57.5568 21.3219 56.4404 32.7163 55.324 33.0482C54.096 33.2694 38.6902 33.4907 38.6902 32.6057C38.5786 31.61 38.4669 21.2113 40.1415 20.99Z" fill="#E09D9F"/>
<path d="M26.8342 31C24.9455 31 22.679 26.1408 22.0494 24.6619C21.9235 24.4506 22.0494 24.2394 22.3012 24.1337C22.553 24.0281 22.8049 24.1337 22.9308 24.345C24.0641 27.0915 25.9528 30.1549 26.7083 30.1549C27.3379 29.5211 26.8342 26.5633 26.2046 24.5563C26.2046 24.345 26.3306 24.1337 26.5824 24.0281C26.8343 23.9225 27.0861 24.1337 27.212 24.345C27.4638 25.1901 28.5971 29.4155 27.5897 30.5774C27.4638 30.8943 27.0861 31 26.8342 31Z" fill="#26192A"/>
<path d="M41.5231 31C41.3962 31 41.3962 31 41.3962 31C41.1424 30.8727 40.2539 30.7455 40 24.5091C40 24.2546 40.2539 24 40.5077 24C40.7616 24 41.0154 24.2546 41.0154 24.5091C41.1424 26.6728 41.3962 29.0909 41.6501 29.9818C42.1578 29.2182 43.3001 26.6728 44.0617 24.3818C44.1886 24.1273 44.4425 24 44.6963 24.1273C44.9502 24.2546 45.0771 24.5091 44.9502 24.7636C42.7924 30.3636 42.0309 31 41.5231 31Z" fill="#26192A"/>
<path d="M40.3539 41.0094C40.3539 41.0094 36.5269 47.644 33.8369 48.2347C31.0386 48.8451 28.0159 40.2381 28.0159 40.2381C28.0159 40.2381 33.4883 38.3355 40.3539 41.0094Z" fill="#26192A"/>
<path d="M37.0348 60.8669C39.5308 60.4122 41.1476 52.8661 41.2897 51.9477C41.3502 51.7135 41.211 51.5158 40.9917 51.4442C40.7723 51.3726 40.5923 51.5169 40.5318 51.7511C39.8845 54.9927 38.2344 60.0906 36.6975 60.1474C34.9412 60.1327 32.1605 55.0611 31.1877 53.1186C31.0485 52.9209 30.8292 52.8493 30.6295 52.8857C30.4495 53.03 30.389 53.2642 30.4283 53.4801C30.7657 54.1996 33.9413 60.8726 36.5356 60.9578C36.8351 60.9033 36.935 60.8851 37.0348 60.8669Z" fill="#26192A"/>
<path d="M36.37 60.9885C36.6159 60.9437 36.8243 60.6926 36.7867 60.4863L34.6071 48.5219C34.5696 48.3157 34.286 48.1542 34.0401 48.199C33.7941 48.2438 33.5858 48.4949 33.6233 48.7012L35.8217 60.7687C35.8405 60.8718 36.124 61.0333 36.37 60.9885Z" fill="#26192A"/>
</svg>
