<svg width="26" height="26" viewBox="0 0 26 26" fill="none" xmlns="http://www.w3.org/2000/svg">
<path d="M13 0.5C14.6415 0.5 16.267 0.823322 17.7835 1.45151C19.3001 2.07969 20.6781 3.00043 21.8388 4.16117C22.9996 5.3219 23.9203 6.69989 24.5485 8.21646C25.1767 9.73303 25.5 11.3585 25.5 13C25.5 16.3152 24.183 19.4946 21.8388 21.8388C19.4946 24.183 16.3152 25.5 13 25.5C11.3585 25.5 9.73303 25.1767 8.21646 24.5485C6.69989 23.9203 5.3219 22.9996 4.16117 21.8388C1.81696 19.4946 0.5 16.3152 0.5 13C0.5 9.68479 1.81696 6.50537 4.16117 4.16117C6.50537 1.81696 9.68479 0.5 13 0.5ZM19.25 18V16.75L18 15.5V12.2375C18 10.875 17.6625 9.675 17.0125 8.6625C16.375 7.65 15.45 7.0125 14.25 6.75V6.125C14.25 5.79348 14.1183 5.47554 13.8839 5.24112C13.6495 5.0067 13.3315 4.875 13 4.875C12.6685 4.875 12.3505 5.0067 12.1161 5.24112C11.8817 5.47554 11.75 5.79348 11.75 6.125V6.75C10.55 7.0125 9.625 7.65 8.9875 8.6625C8.3375 9.675 8 10.875 8 12.2375V15.5L6.75 16.75V18H19.25ZM14.875 19.25H11.125C11.125 19.7473 11.3225 20.2242 11.6742 20.5758C12.0258 20.9275 12.5027 21.125 13 21.125C13.4973 21.125 13.9742 20.9275 14.3258 20.5758C14.6775 20.2242 14.875 19.7473 14.875 19.25Z" fill="#34495E"/>
</svg>
