<svg width="68" height="58" viewBox="0 0 68 58" fill="none" xmlns="http://www.w3.org/2000/svg">
<path d="M18.875 57.6C18.775 57.6 18.675 57.5 18.575 57.4L0.075 29.9C-0.025 29.8 -0.025 29.6 0.075 29.5C0.175 29.4 10.175 16.3 23.075 16.3C24.775 16.3 26.375 16.5 28.075 16.9C28.675 14.6 32.475 3 47.575 0C47.675 0 47.875 1.22041e-05 47.975 0.200012L67.275 27.6C67.375 27.7 67.375 27.8 67.275 27.9C67.275 28 67.175 28.1 67.075 28.1C66.875 28.2 45.375 34.7 44.875 42.7C44.875 42.9 44.775 43 44.575 43C44.375 43 21.175 47.5 19.375 57.1C19.175 57.5 19.075 57.6 18.875 57.6ZM0.875003 29.8L18.675 56.3C21.475 47.2 41.275 43 43.975 42.5C44.875 34.8 62.875 28.7 66.175 27.7L47.375 0.900024C39.075 2.60002 34.475 7.00002 31.975 10.4C29.275 14.1 28.575 17.5 28.575 17.5C28.575 17.6 28.475 17.7 28.375 17.7C28.275 17.8 28.175 17.8 28.075 17.7C26.375 17.2 24.675 17 22.975 17C11.375 17.1 2.175 28.2 0.875003 29.8Z" fill="#ECF0F1" fill-opacity="0.4"/>
<path d="M44.375 43.2C44.275 43.2 44.175 43.1 44.075 43L28.075 17.7C27.975 17.5 27.975 17.3 28.175 17.2C28.375 17.1 28.575 17.1 28.675 17.3L44.675 42.6C44.775 42.8 44.775 43 44.575 43.1C44.475 43.2 44.475 43.2 44.375 43.2Z" fill="#ECF0F1" fill-opacity="0.4"/>
<path d="M18.875 57.6C18.775 57.6 18.675 57.6 18.675 57.5C18.475 57.4 18.475 57.1 18.675 57C18.975 56.7 25.475 49.3 44.275 42.5C45.175 41.7 55.775 32.4 66.775 27.5C66.975 27.4 67.175 27.5001 67.275 27.7001C67.375 27.9001 67.275 28.1001 67.075 28.2001C55.775 33.2001 44.775 43 44.675 43.1L44.575 43.2001C25.875 49.9001 19.275 57.4 19.175 57.5C19.075 57.6 18.975 57.6 18.875 57.6Z" fill="#ECF0F1" fill-opacity="0.4"/>
<path d="M5.175 32.3C5.075 32.3 5.07501 32.3 4.97501 32.2C4.77501 32.1 4.77502 31.9 4.87502 31.7C4.97502 31.6 6.47501 29 9.97501 26.3C13.175 23.8 18.775 20.7 26.975 20.2C27.175 20.2 27.375 20.3 27.375 20.6C27.375 20.8 27.275 21 26.975 21C11.675 21.9 5.47501 32 5.47501 32.1C5.37501 32.2 5.275 32.3 5.175 32.3Z" fill="#ECF0F1" fill-opacity="0.4"/>
<path d="M7.87497 35C7.77497 35 7.77496 35 7.67496 34.9C7.47496 34.8 7.47497 34.6 7.57497 34.4C7.67497 34.3 9.17496 31.7 12.675 29C15.875 26.5 21.475 23.4 29.675 22.9C29.875 22.9 30.075 23 30.075 23.3C30.075 23.5 29.975 23.7 29.675 23.7C14.375 24.6 8.17496 34.7 8.17496 34.8C8.07496 35 7.97497 35 7.87497 35Z" fill="#ECF0F1" fill-opacity="0.4"/>
<path d="M9.37497 38.9001C9.27497 38.9001 9.27496 38.9 9.17496 38.8C8.97496 38.7 8.97497 38.5 9.07497 38.3C9.17497 38.2 10.675 35.6001 14.175 32.9001C17.375 30.4001 22.975 27.3 31.175 26.8C31.375 26.8 31.575 26.9 31.575 27.2C31.575 27.4 31.475 27.6 31.175 27.6C15.975 28.5 9.67496 38.6 9.67496 38.7C9.67496 38.8 9.57497 38.9001 9.37497 38.9001Z" fill="#ECF0F1" fill-opacity="0.4"/>
<path d="M11.675 42.4001C11.575 42.4001 11.575 42.4 11.475 42.3C11.275 42.2 11.275 42 11.375 41.8C11.475 41.7 12.975 39.1001 16.475 36.4001C19.675 33.9001 25.275 30.8 33.475 30.3C33.675 30.3 33.875 30.4 33.875 30.7C33.875 30.9 33.775 31.1 33.475 31.1C18.175 32 11.975 42.1 11.975 42.2C11.975 42.3 11.775 42.4001 11.675 42.4001Z" fill="#ECF0F1" fill-opacity="0.4"/>
<path d="M14.575 46.8C14.475 46.8 14.475 46.8 14.375 46.7C14.175 46.6 14.175 46.4 14.275 46.2C14.375 46.1 15.875 43.5 19.375 40.8C22.575 38.3 28.175 35.2 36.375 34.7C36.575 34.7 36.775 34.8 36.775 35.1C36.775 35.3 36.675 35.5 36.375 35.5C21.075 36.4 14.875 46.5 14.875 46.6C14.775 46.8 14.675 46.8 14.575 46.8Z" fill="#ECF0F1" fill-opacity="0.4"/>
<path d="M17.275 50.9001C17.175 50.9001 17.175 50.9 17.075 50.8C16.875 50.7 16.875 50.5 16.975 50.3C17.075 50.2 18.575 47.6001 22.075 44.9001C25.275 42.4001 30.875 39.3 39.075 38.8C39.275 38.8 39.475 38.9 39.475 39.2C39.475 39.4 39.375 39.6 39.075 39.6C23.775 40.5 17.575 50.6 17.575 50.7C17.575 50.8 17.375 50.9001 17.275 50.9001Z" fill="#ECF0F1" fill-opacity="0.4"/>
<path d="M31.575 18.3H31.4749C31.2749 18.2 31.1749 18 31.2749 17.8C31.2749 17.7 35.275 5.90002 47.375 5.40002C47.575 5.40002 47.7749 5.60002 47.7749 5.80002C47.7749 6.00002 47.575 6.20001 47.375 6.20001C35.775 6.70001 31.975 18 31.875 18.1C31.875 18.2 31.775 18.3 31.575 18.3Z" fill="#ECF0F1" fill-opacity="0.4"/>
<path d="M34.275 21.3H34.175C33.975 21.2 33.875 21 33.975 20.8C33.975 20.7 38.575 9.30005 50.575 9.30005C50.675 9.30005 50.675 9.30005 50.775 9.30005C50.975 9.30005 51.175 9.50004 51.175 9.70004C51.175 9.90004 50.975 10.1 50.775 10.1C39.175 9.90004 34.775 21.1 34.675 21.2C34.575 21.2 34.475 21.3 34.275 21.3Z" fill="#ECF0F1" fill-opacity="0.4"/>
<path d="M35.775 25H35.675C35.475 24.9 35.375 24.7 35.475 24.5C35.475 24.4 40.075 12.8 52.275 13C52.475 13 52.675 13.2 52.675 13.4C52.675 13.6 52.475 13.8 52.275 13.8C52.175 13.8 52.175 13.8 52.075 13.8C40.575 13.8 36.275 24.8 36.175 24.9C36.075 24.9 35.975 25 35.775 25Z" fill="#ECF0F1" fill-opacity="0.4"/>
<path d="M38.775 28.6H38.675C38.475 28.5 38.375 28.3 38.475 28.1C38.475 28 43.075 16.6 55.075 16.6C55.175 16.6 55.175 16.6 55.275 16.6C55.475 16.6 55.675 16.8 55.675 17C55.675 17.2 55.475 17.4 55.275 17.4C55.175 17.4 55.175 17.4 55.075 17.4C43.575 17.4 39.275 28.4 39.175 28.5C39.075 28.5 38.975 28.6 38.775 28.6Z" fill="#ECF0F1" fill-opacity="0.4"/>
<path d="M41.875 32.2C41.775 32.2 41.775 32.2 41.675 32.2C41.475 32.1 41.375 31.9 41.475 31.7C41.575 31.6 46.775 20.7 58.775 20.7C58.875 20.7 58.875 20.7 58.975 20.7C59.175 20.7 59.375 20.9 59.375 21.1C59.375 21.3 59.175 21.5 58.975 21.5C58.875 21.5 58.875 21.5 58.775 21.5C47.275 21.5 42.275 32 42.175 32.1C42.075 32.1 41.975 32.2 41.875 32.2Z" fill="#ECF0F1" fill-opacity="0.4"/>
<path d="M44.275 36.2C44.175 36.2 44.175 36.2 44.175 36.2C43.975 36.1 43.875 35.9 43.975 35.7C43.975 35.6 48.775 25.1 60.675 25.1C60.775 25.1 60.875 25.1 60.875 25.1C61.075 25.1 61.275 25.3 61.275 25.5C61.275 25.7 61.075 25.9 60.875 25.9C60.775 25.9 60.775 25.9 60.675 25.9C49.175 25.9 44.675 36 44.575 36.1C44.575 36.2 44.375 36.2 44.275 36.2Z" fill="#ECF0F1" fill-opacity="0.4"/>
</svg>
