<svg width="22" height="23" viewBox="0 0 22 23" fill="none" xmlns="http://www.w3.org/2000/svg">
<path d="M3.27996 0.54L11 8.26L18.68 0.58C18.8496 0.399435 19.054 0.254989 19.2808 0.155324C19.5076 0.0556597 19.7522 0.00282869 20 0C20.5304 0 21.0391 0.210714 21.4142 0.585786C21.7892 0.960859 22 1.46957 22 2C22.0046 2.2452 21.9591 2.48877 21.8663 2.71576C21.7734 2.94275 21.6351 3.14837 21.46 3.32L13.68 11L21.46 18.78C21.7896 19.1025 21.9829 19.5392 22 20C22 20.5304 21.7892 21.0391 21.4142 21.4142C21.0391 21.7893 20.5304 22 20 22C19.7451 22.0106 19.4908 21.968 19.2532 21.8751C19.0156 21.7821 18.8 21.6408 18.62 21.46L11 13.74L3.29996 21.44C3.13097 21.6145 2.92909 21.7539 2.70596 21.85C2.48284 21.9461 2.24289 21.9971 1.99996 22C1.46953 22 0.960818 21.7893 0.585746 21.4142C0.210673 21.0391 -4.07976e-05 20.5304 -4.07976e-05 20C-0.00470379 19.7548 0.04079 19.5112 0.133649 19.2842C0.226508 19.0572 0.364773 18.8516 0.539959 18.68L8.31996 11L0.539959 3.22C0.210329 2.89752 0.0170384 2.46082 -4.07976e-05 2C-4.07976e-05 1.46957 0.210673 0.960859 0.585746 0.585786C0.960818 0.210714 1.46953 0 1.99996 0C2.47996 0.006 2.93996 0.2 3.27996 0.54Z" fill="#E74C3C"/>
</svg>
