<svg width="88" height="125" viewBox="0 0 88 125" fill="none" xmlns="http://www.w3.org/2000/svg">
<g opacity="0.05">
<path d="M19.3488 98.2179C13.614 98.2179 8.42531 96.3063 3.78282 92.4831C-7.95995 82.925 -9.59848 63.8089 -0.313496 37.5924C6.5137 17.9301 16.891 0.725565 16.891 0.452477C17.1641 -0.0936985 17.7103 -0.0937152 18.2565 0.179373L84.0706 38.9579C84.6168 39.231 84.6168 39.7771 84.3437 40.3233C82.9783 42.7811 49.9347 98.2179 19.3488 98.2179ZM17.9834 2.63715C13.3409 10.5567 -20.2489 70.6361 4.87518 91.1177C9.24458 94.6678 14.1601 96.3063 19.3488 96.3063C46.6576 96.3063 77.5165 47.4236 82.159 40.3233L17.9834 2.63715Z" fill="#26192A"/>
<path d="M-13.1488 69.272C-14.7874 69.272 -15.8797 68.7257 -16.699 68.1796C-19.4299 66.2679 -20.2491 62.4447 -19.4299 59.9869C-18.8837 58.3484 -17.7913 57.5291 -16.1528 57.2561C-15.6066 57.2561 -15.0605 57.5292 -15.0605 58.3485C-15.0605 58.8946 -15.3335 59.4408 -16.1528 59.4408C-16.4259 59.4408 -17.2452 59.4408 -17.5182 60.5331C-18.0644 62.1717 -17.2451 65.1757 -15.6066 66.5411C-14.2412 67.6335 -12.3296 67.6334 -10.1449 66.268C-8.50634 65.4487 -7.68707 64.3563 -7.68707 62.9909C-7.14089 59.7139 -10.691 55.0714 -14.5143 50.1558C-21.0684 41.6901 -28.9879 31.3127 -22.7069 20.3892C-19.1568 14.3813 -14.7874 11.1042 -9.5987 10.0119C-0.313711 8.37337 8.152 15.2006 8.42509 15.4737C8.97127 15.7467 8.97129 16.566 8.6982 16.8391C8.42511 17.3853 7.60585 17.3853 7.33276 17.1122C7.33276 17.1122 -0.859875 10.558 -9.05251 12.1966C-13.695 13.0158 -17.5182 16.2929 -20.7953 21.4816C-26.5301 31.3128 -19.1568 40.5977 -12.8757 49.0634C-8.77942 54.5252 -4.9562 59.1677 -5.77546 63.5371C-6.04855 65.4487 -7.414 66.8141 -9.32561 68.1796C-10.418 68.9988 -11.7834 69.272 -13.1488 69.272Z" fill="#26192A"/>
<path d="M42.8338 103.407C42.0145 103.407 41.4683 103.407 40.6491 103.134C39.2836 102.587 36.8258 101.222 36.5527 96.5794C36.5527 93.8485 37.0989 91.9369 38.4643 90.5715C41.4683 87.5675 47.2032 87.5675 53.7573 87.5675C63.8615 87.5675 75.0581 87.8406 81.6122 78.0094C84.6162 73.3669 85.7085 68.9975 84.3431 64.9012C82.1584 57.8009 73.6927 54.5238 73.6927 54.5238C73.1465 54.2507 72.8734 53.7046 73.1465 53.1584C73.4196 52.6122 73.9658 52.3392 74.5119 52.6123C74.785 52.8854 84.07 56.4355 86.5278 64.355C87.8932 68.9975 86.8009 73.9131 83.5238 79.1017C76.4235 89.7522 64.1346 89.4791 54.0304 89.4791C48.0224 89.4791 42.5607 89.4791 40.376 91.6638C39.2836 92.7561 39.0105 94.1216 39.0105 96.3063C39.0105 97.9448 39.5567 100.13 41.7414 100.949C43.9261 101.768 46.657 100.403 47.7493 99.0372C48.2955 98.2179 48.5686 97.6717 48.0224 97.1255C47.7493 96.5794 48.0224 96.0332 48.2955 95.7601C48.8417 95.487 49.3879 95.7601 49.661 96.0332C50.4802 97.3987 50.2071 99.0372 49.1148 100.403C47.7493 102.314 45.2916 103.407 42.8338 103.407Z" fill="#26192A"/>
<path d="M-4.13711 115.694C-4.4102 115.694 -4.41019 115.694 -4.68328 115.421C-5.22945 115.148 -5.22945 114.602 -4.95636 114.056L7.05949 93.5742C7.33257 93.028 7.87875 93.028 8.42493 93.3011C8.9711 93.5742 8.97112 94.1203 8.69803 94.6665L-3.31784 115.148C-3.31784 115.421 -3.86402 115.694 -4.13711 115.694Z" fill="#26192A"/>
<path d="M9.51768 124.434C9.24459 124.434 9.2446 124.434 8.97152 124.434L-15.3333 111.053C-15.8795 110.78 -15.8795 110.234 -15.6064 109.688C-15.3333 109.141 -14.7871 109.141 -14.2409 109.414L10.0639 122.796C10.61 123.069 10.61 123.615 10.337 124.161C10.0639 124.161 9.79077 124.434 9.51768 124.434Z" fill="#26192A"/>
<path d="M68.2318 41.4163C59.2199 41.4163 36.2806 38.4124 20.1684 11.6498C19.8953 11.3767 19.8953 10.8305 20.4415 10.2843C20.7146 10.0112 21.2607 10.0112 21.8069 10.0112L73.4205 39.2317C73.6936 39.5047 73.9667 39.7778 73.9667 40.324C73.9667 40.8702 73.4205 41.1432 73.1474 41.1432C72.8743 41.1432 70.9627 41.4163 68.2318 41.4163ZM24.2647 13.8344C39.5576 36.7738 60.0392 39.2317 68.2318 39.2317C68.5049 39.2317 68.778 39.2317 69.3242 39.2317L24.2647 13.8344Z" fill="#26192A"/>
</g>
</svg>
