<svg width="48" height="51" viewBox="0 0 48 51" fill="none" xmlns="http://www.w3.org/2000/svg">
<path d="M4.73507 27.4327C2.92025 27.0439 1.61277 26.2729 0.812623 25.1196C0.0750521 23.9798 -0.0993129 22.5025 0.289528 20.6877C0.678368 18.8729 1.4427 17.5967 2.58252 16.8591C3.78492 16.135 5.29352 15.9673 7.10834 16.3561L43.342 24.1195C45.1568 24.5084 46.433 25.2727 47.1705 26.4125C47.9707 27.5658 48.1764 29.0498 47.7875 30.8646C47.3987 32.6794 46.6031 33.9489 45.4007 34.673C44.2608 35.4106 42.7835 35.585 40.9687 35.1961L4.73507 27.4327ZM18.1857 50.3432C16.1832 49.9141 14.7394 49.0157 13.8543 47.6479C12.9692 46.2801 12.7479 44.5636 13.1904 42.4985C13.6194 40.496 14.5111 39.0834 15.8655 38.2609C17.2333 37.3758 18.9185 37.1478 20.921 37.5769C22.9236 38.006 24.3741 38.8731 25.2726 40.1783C26.1711 41.4835 26.3991 43.1687 25.9566 45.2338C25.5141 47.2989 24.609 48.774 23.2412 49.6591C21.936 50.5576 20.2509 50.7856 18.1857 50.3432ZM26.0296 13.734C24.027 13.305 22.5765 12.4378 21.678 11.1326C20.7929 9.76484 20.5716 8.04838 21.0141 5.98326C21.4432 3.98071 22.3416 2.53689 23.7094 1.6518C25.0772 0.766719 26.7623 0.538709 28.7649 0.967775C30.7674 1.39684 32.2112 2.29527 33.0963 3.66305C33.9948 4.96825 34.2228 6.65342 33.7804 8.71855C33.3379 10.7837 32.4328 12.2588 31.065 13.1439C29.7732 13.9798 28.0947 14.1765 26.0296 13.734Z" fill="#BDC3C7" fill-opacity="0.1"/>
</svg>
