<svg width="21" height="12" viewBox="0 0 21 12" fill="none" xmlns="http://www.w3.org/2000/svg">
<path d="M19.9791 2.24481L11.2291 11.0209C11.125 11.125 11.0121 11.1986 10.8906 11.2417C10.7691 11.2854 10.6389 11.3073 10.5 11.3073C10.3611 11.3073 10.2309 11.2854 10.1094 11.2417C9.98783 11.1986 9.87498 11.125 9.77081 11.0209L0.994771 2.24481C0.751715 2.00176 0.630188 1.69794 0.630188 1.33335C0.630188 0.96877 0.760396 0.65627 1.02081 0.395853C1.28123 0.135437 1.58505 0.005228 1.93227 0.00522799C2.27949 0.00522797 2.58331 0.135437 2.84373 0.395853L10.5 8.0521L18.1562 0.395852C18.3993 0.152797 18.6986 0.0312692 19.0541 0.0312692C19.4104 0.0312692 19.7187 0.161477 19.9791 0.421894C20.2396 0.68231 20.3698 0.98613 20.3698 1.33335C20.3698 1.68057 20.2396 1.98439 19.9791 2.24481Z" fill="#E74C3C"/>
</svg>
