<svg width="129" height="166" viewBox="0 0 129 166" fill="none" xmlns="http://www.w3.org/2000/svg">
<path d="M25.0676 133.426C23.3837 133.426 21.7884 132.983 20.2817 132.186C13.9005 128.64 12.2166 118.803 12.1279 118.448C12.1279 118.271 12.2166 118.094 12.3938 118.094C12.5711 118.094 12.7483 118.182 12.7483 118.36C12.7483 118.448 14.5209 128.286 20.5476 131.654C23.2064 133.16 26.397 133.16 29.8535 131.742C30.0307 131.654 30.208 131.742 30.2966 131.92C30.3852 132.097 30.2966 132.274 30.1194 132.363C28.4355 133.072 26.7515 133.426 25.0676 133.426Z" fill="#26192A"/>
<path d="M12.5713 118.981C12.4826 118.981 12.4826 118.981 12.394 118.893C12.3054 118.893 12.3054 118.804 12.3054 118.715C12.2167 118.715 12.1281 118.715 12.0395 118.715C11.7736 118.538 4.86063 115.348 6.27868 111.802C6.45593 111.359 6.72182 111.271 6.9877 111.182C7.51947 111.093 8.31712 111.714 9.02614 112.423C8.67163 111.448 8.40574 110.473 8.67162 109.853C8.76025 109.587 8.93751 109.409 9.2034 109.321C9.46928 109.232 9.73516 109.232 10.001 109.321C10.5328 109.587 10.9759 110.384 11.3305 111.271C11.3305 110.296 11.4191 109.498 11.8622 109.055C12.0395 108.789 12.394 108.7 12.6599 108.789C13.0144 108.878 13.2803 109.055 13.4575 109.321C13.9007 109.941 13.9893 110.916 13.9893 111.891C14.3438 111.182 14.787 110.65 15.2301 110.562C15.4073 110.473 15.7619 110.562 16.0277 110.828C17.2685 112.157 13.9893 117.209 13.0144 118.804C12.7485 118.893 12.6599 118.981 12.5713 118.981ZM6.9877 111.891C6.9877 111.891 6.89907 111.891 6.9877 111.891C6.89907 111.891 6.89908 111.891 6.81045 112.068C5.65829 114.993 12.2167 118.095 12.3054 118.095C12.394 118.095 12.394 118.184 12.394 118.184C14.2552 115.259 15.9391 111.891 15.4073 111.271C15.3187 111.182 15.2301 111.182 15.2301 111.182C14.787 111.271 13.9893 112.955 13.6348 114.461C13.5462 114.639 13.3689 114.727 13.2803 114.727C13.103 114.727 13.0144 114.55 13.0144 114.373C13.1917 113.398 13.4575 110.739 12.8371 109.764C12.7485 109.587 12.6599 109.587 12.4826 109.498C12.394 109.498 12.3054 109.498 12.2167 109.587C11.685 110.119 11.8622 112.777 12.1281 114.195C12.1281 114.373 12.0395 114.55 11.8622 114.55C11.685 114.55 11.5077 114.461 11.5077 114.284C11.1532 112.777 10.2669 110.296 9.5579 109.941C9.46928 109.853 9.38065 109.941 9.38065 109.941C9.29202 109.941 9.29203 110.03 9.2034 110.119C8.93751 110.916 10.001 113.309 10.7101 114.639C10.7987 114.816 10.7101 114.993 10.6214 115.082C10.4442 115.17 10.2669 115.17 10.1783 114.993C8.93752 113.575 7.51947 111.891 6.9877 111.891Z" fill="#26192A"/>
<path d="M101.11 97.6219C101.11 97.6219 112.809 109.409 98.2741 165.599H81.9666L82.6756 142.645C82.6756 142.645 66.1022 148.317 44.7429 142.29C44.7429 142.29 34.4621 156.559 21.1679 154.787L13.5459 142.645C13.5459 142.645 26.2197 139.897 29.4103 135.643C29.4103 135.643 25.5107 132.364 25.2448 128.996C25.1562 128.996 94.1086 86.3662 101.11 97.6219Z" fill="#ACDBCF"/>
<path d="M104.921 130.68C104.921 130.68 117.063 74.9328 73.0151 65.0951C12.6596 51.5351 19.7498 129.439 23.7381 130.68C33.2212 133.604 103.68 135.997 104.921 130.68Z" fill="#008EA7"/>
<path d="M33.5757 77.7678C33.5757 77.7678 48.4652 97.6205 20.1042 115.257L21.345 122.702C21.345 122.702 47.1357 115.257 48.4651 98.9499C49.9718 80.338 36.589 68.4619 36.589 68.4619L33.5757 77.7678Z" fill="#FAB217"/>
<path d="M98.2742 77.77C98.2742 77.77 85.6004 102.674 107.314 114.728L106.428 122.084C106.428 122.084 84.5368 111.183 83.4733 94.8752C82.4984 78.5677 95.2608 68.5527 95.2608 68.5527L98.2742 77.77Z" fill="#FAB217"/>
<path d="M37.83 19.0964C37.83 19.0964 42.5273 5.18184 70.5337 7.13166C91.0954 8.5497 94.4632 59.2448 107.137 57.6495C118.747 56.1428 116.354 45.0644 116.354 45.0644C116.354 45.0644 106.605 40.9875 107.314 38.24C108.91 31.9474 117.152 37.4424 117.152 37.4424C117.152 37.4424 117.595 25.6549 122.47 29.1114C125.926 31.5043 122.47 39.5694 122.47 39.5694C122.47 39.5694 143.12 66.4237 107.669 82.1994C69.4702 99.216 50.2379 64.5625 50.2379 64.5625C50.2379 64.5625 50.238 76.5272 22.1429 81.1359C-0.634409 84.8583 -8.8768 28.9341 12.0394 19.7168C26.663 13.247 37.83 19.0964 37.83 19.0964Z" fill="#ACDBCF"/>
<path d="M64.9502 11.8296C64.9502 11.8296 81.2577 -6.07318 95.7041 2.1692C110.15 10.4116 107.58 37.5317 106.073 40.1019C101.022 48.6988 82.853 44.7992 77.2695 38.418C71.6859 31.9482 64.9502 11.8296 64.9502 11.8296Z" fill="#ACDBCF"/>
<path d="M65.7475 37.4429C65.6589 37.4429 65.5703 37.4429 65.4816 37.4429C62.8228 36.9111 62.1138 29.8209 62.0251 29.0233C62.0251 28.846 62.1138 28.6687 62.291 28.6687C62.4683 28.6687 62.6455 28.7574 62.6455 28.9346C62.8228 30.9731 63.7091 36.3794 65.5703 36.7339C65.7475 36.7339 65.9248 36.7339 66.102 36.5566C67.3428 35.4931 67.3428 30.1754 67.2542 28.2256C67.2542 28.0484 67.3428 27.8711 67.6087 27.8711C67.7859 27.8711 67.9632 27.9597 67.9632 28.2256C67.9632 29.0233 68.3177 35.6703 66.6338 37.0884C66.2793 37.3543 66.0134 37.4429 65.7475 37.4429Z" fill="#26192A"/>
<path d="M76.2946 36.1138C76.206 36.1138 76.1174 36.1138 76.0287 36.1138C73.3699 35.582 72.6609 28.4918 72.5723 27.6941C72.5723 27.5169 72.6609 27.3396 72.8381 27.3396C73.0154 27.3396 73.1927 27.4283 73.1927 27.6055C73.3699 29.644 74.2562 35.0503 76.1174 35.4048C76.2946 35.4048 76.4719 35.4048 76.6492 35.2275C77.8899 34.164 77.8899 28.8463 77.8013 26.8965C77.8013 26.7192 77.8899 26.542 78.1558 26.542C78.3331 26.542 78.5103 26.6306 78.5103 26.8965C78.5103 27.6942 78.8649 34.3412 77.1809 35.7593C76.915 35.9365 76.6492 36.1138 76.2946 36.1138Z" fill="#26192A"/>
<path d="M75.5855 53.4851C75.4969 53.4851 75.3197 53.3965 75.3197 53.3078C75.231 53.1306 75.3197 52.9533 75.4083 52.8647C75.5856 52.7761 89.4115 44.7996 92.9566 41.4317C93.0452 41.3431 93.3111 41.3431 93.3997 41.4317C93.4884 41.5203 93.4884 41.7862 93.3997 41.8748C89.8546 45.42 76.2946 53.1306 75.7628 53.4851C75.6742 53.4851 75.5855 53.4851 75.5855 53.4851Z" fill="#26192A"/>
<path d="M95.2606 42.761C95.0834 42.761 94.9947 42.6724 94.9061 42.4951C84.0935 8.55064 70.6221 7.39848 70.4448 7.39848C70.2676 7.39848 70.0903 7.22122 70.0903 7.04397C70.0903 6.86671 70.2676 6.68945 70.4448 6.68945C70.9766 6.68945 84.5366 7.75298 95.5265 42.2292C95.6151 42.4065 95.5265 42.5837 95.3493 42.6723C95.3493 42.761 95.2606 42.761 95.2606 42.761Z" fill="#26192A"/>
<path d="M22.4092 67.0439C22.232 67.0439 22.1433 66.9553 22.0547 66.778C18.421 51.4454 19.13 40.4555 24.0931 34.2516C28.0814 29.2884 33.3991 29.3771 33.5763 29.3771C33.7536 29.3771 33.9308 29.5543 33.9308 29.7316C33.9308 29.9088 33.7536 30.0861 33.5763 30.0861C33.4877 30.0861 28.4359 29.9975 24.6249 34.6947C19.839 40.6328 19.13 51.7113 22.6751 66.6007C22.7637 66.778 22.6751 66.9552 22.4092 67.0439Z" fill="#26192A"/>
<path d="M102.972 34.8727C102.795 34.8727 102.706 34.784 102.617 34.6068C100.224 24.0601 94.4636 18.2106 90.1208 15.1973C85.3349 11.918 80.9922 11.1204 80.9922 11.1204C80.8149 11.1204 80.7263 10.9431 80.7263 10.7659C80.7263 10.5886 80.9036 10.5 81.0808 10.5C81.2581 10.5 98.7178 13.7792 103.326 34.4295C103.326 34.6954 103.149 34.8727 102.972 34.8727Z" fill="#26192A"/>
<path d="M80.9917 62.3474C80.8145 62.3474 80.7258 62.2587 80.6372 62.0815C80.6372 61.9042 80.7258 61.727 80.9031 61.727C81.0803 61.727 94.9063 58.625 99.249 51.6234C99.3377 51.4461 99.5149 51.4462 99.6922 51.5348C99.8694 51.6234 99.8694 51.8007 99.7808 51.9779C95.3494 59.1568 81.6121 62.2587 80.9917 62.3474C81.0803 62.3474 80.9917 62.3474 80.9917 62.3474Z" fill="#26192A"/>
<path d="M55.8215 56.94C55.8215 56.94 59.1894 71.3864 71.7745 72.2727C71.7745 72.2727 65.482 63.4985 63.798 54.9016C63.798 54.9016 58.8349 47.9886 55.8215 56.94Z" fill="white"/>
<path d="M26.8402 92.2143L39.1595 86.0104L44.8317 102.761C44.8317 102.761 39.0708 113.574 20.1045 109.585C-6.04072 104.179 30.1194 79.0088 30.1194 79.0088L26.8402 92.2143Z" fill="#ACDBCF"/>
<path d="M101.553 88.0491L91.1839 82.9087L85.5117 99.6593C85.5117 99.6593 91.2725 110.472 110.239 106.484C136.384 101.077 96.1471 79.0977 96.1471 79.0977L101.553 88.0491Z" fill="#ACDBCF"/>
<path d="M38.1846 104.446C37.0324 104.446 35.9689 104.269 35.2598 103.737C34.9053 103.472 34.6394 103.028 34.7281 102.585C34.7281 100.901 37.6528 98.4197 39.514 97.0017C38.0073 97.1789 35.7916 97.1789 33.3986 95.6723C32.6896 95.2291 32.3351 94.6087 32.3351 93.8997C32.2465 90.7977 38.7163 86.0118 38.9822 85.8346C39.1595 85.746 39.3367 85.7459 39.4254 85.9232C39.514 86.1005 39.514 86.2777 39.3367 86.3663C37.5642 87.6958 32.8669 91.5954 32.9555 93.8997C32.9555 94.4315 33.2214 94.786 33.7532 95.1405C37.4755 97.4448 40.932 95.9382 41.0206 95.9382C41.1979 95.8495 41.3752 95.9381 41.4638 96.1154C41.5524 96.2927 41.4638 96.4699 41.3752 96.5585C39.6912 97.7107 35.4371 100.99 35.3485 102.674C35.3485 102.94 35.4371 103.117 35.6143 103.294C37.4755 104.624 42.7932 103.294 44.6544 102.585C44.8316 102.497 45.0089 102.585 45.0975 102.762C45.1862 102.94 45.0975 103.117 44.9203 103.206C44.743 103.206 41.1093 104.446 38.1846 104.446Z" fill="#26192A"/>
<path d="M91.8929 100.989C89.3227 100.989 86.0435 100.103 85.5117 100.015C85.3345 99.9259 85.2458 99.7487 85.2458 99.5714C85.3345 99.3941 85.5117 99.3055 85.689 99.3055C87.5502 99.8373 92.8679 100.901 94.2859 99.7487C94.5518 99.5714 94.6404 99.3055 94.6404 98.951C94.4631 95.849 90.209 93.6333 90.209 93.6333C90.0318 93.5447 90.0318 93.3675 90.0318 93.2788C90.0318 93.1902 90.209 93.0129 90.3863 93.0129C92.3361 93.1016 97.7424 93.1902 99.0718 91.8608C99.2491 91.6835 99.3377 91.4176 99.3377 91.1518C99.1604 89.0247 93.9314 86.8976 91.9816 86.2772C91.8043 86.1886 91.7157 86.0113 91.8043 85.8341C91.893 85.6568 92.0702 85.5682 92.2475 85.6568C92.5134 85.7455 99.7808 88.1384 100.047 91.1518C100.135 91.5949 99.9581 92.038 99.6036 92.3925C98.2741 93.8106 93.9314 93.8992 91.7157 93.8106C93.1337 94.7855 95.2608 96.5581 95.438 98.951C95.438 99.4828 95.2608 100.015 94.8177 100.28C94.1086 100.812 93.0451 100.989 91.8929 100.989Z" fill="#26192A"/>
<path d="M81.8778 165.865C81.7892 165.865 81.7892 165.865 81.7005 165.865C81.5233 165.776 81.4347 165.599 81.5233 165.422C81.8778 164.624 84.8911 157.889 87.1068 157.268C87.4613 157.18 87.8159 157.18 88.0818 157.357C89.6771 158.332 91.0065 162.054 91.7155 164.093C92.07 161.965 92.8676 158.332 94.1971 157.534C94.5516 157.357 94.9061 157.268 95.2606 157.357C97.6536 158.154 98.3626 164.802 98.4512 165.511C98.4512 165.688 98.3626 165.865 98.1853 165.865C98.0081 165.865 97.8308 165.776 97.8308 165.599C97.6536 163.649 96.7673 158.509 95.0833 157.977C94.9061 157.889 94.8175 157.977 94.6402 158.066C93.3108 158.863 92.4245 163.827 92.2473 165.599C92.2473 165.776 92.07 165.865 91.9814 165.865C91.8041 165.865 91.7155 165.776 91.6269 165.599C91.6269 165.511 89.7657 159.129 87.8159 157.889C87.6386 157.8 87.55 157.8 87.3727 157.8C85.6888 158.332 83.03 163.649 82.1437 165.599C82.1437 165.865 82.0551 165.865 81.8778 165.865Z" fill="#26192A"/>
<path d="M21.0793 155.139C20.9907 155.139 20.902 155.051 20.8134 154.962C20.7248 154.785 20.7248 154.608 20.902 154.519C21.8769 153.899 24.3585 152.037 24.6244 150.708C24.6244 150.442 24.6244 150.265 24.5358 150.176C23.7381 149.113 20.193 149.644 18.1546 150.265C17.9773 150.354 17.8001 150.265 17.7114 150.088C17.6228 149.91 17.7114 149.733 17.8887 149.645C17.8887 149.645 21.4338 147.606 21.7883 145.568C21.8769 145.036 21.6997 144.593 21.3452 144.15C19.2181 141.668 13.5459 142.997 13.5459 142.997C13.3687 142.997 13.1914 142.909 13.1028 142.732C13.1028 142.554 13.1914 142.377 13.3687 142.288C13.6346 142.2 19.3954 140.87 21.8769 143.706C22.4087 144.327 22.586 144.947 22.4973 145.656C22.2315 146.986 20.902 148.315 19.8385 149.201C21.6111 148.847 24.1813 148.581 25.0675 149.733C25.3334 149.999 25.4221 150.442 25.3334 150.797C24.9789 152.569 21.6997 154.785 21.3452 155.051C21.2565 155.139 21.1679 155.139 21.0793 155.139Z" fill="#26192A"/>
<path d="M92.6019 71.3881C92.5133 71.3881 92.4247 71.2994 92.336 71.2108C92.2474 71.0336 92.2474 70.8563 92.4247 70.7677C99.958 65.9818 102.085 55.6123 102.085 55.5237C102.085 55.3464 102.262 55.2578 102.44 55.2578C102.617 55.2578 102.706 55.4351 102.706 55.6123C102.706 55.7009 100.578 66.3363 92.7792 71.2994C92.6906 71.3881 92.6019 71.3881 92.6019 71.3881Z" fill="#26192A"/>
<path d="M107.137 74.5783C107.049 74.5783 107.049 74.5783 107.137 74.5783C106.871 74.4897 106.783 74.3124 106.783 74.1352C107.935 69.172 106.783 57.8277 106.783 57.6504C106.783 57.4732 106.871 57.2959 107.049 57.2959C107.226 57.2959 107.403 57.3845 107.403 57.5618C107.492 58.0049 108.555 69.172 107.403 74.2238C107.403 74.4011 107.226 74.5783 107.137 74.5783Z" fill="#26192A"/>
<path d="M10.6217 58.0059C10.4444 58.0059 10.3558 57.9172 10.2672 57.74C10.2672 57.5627 7.78557 35.8489 28.9676 30.5312C29.1449 30.5312 29.3221 30.6199 29.4108 30.7971C29.4994 30.9744 29.3221 31.1516 29.1449 31.2403C8.58323 36.4693 10.8876 57.4741 10.8876 57.74C10.9762 57.8286 10.8876 58.0059 10.6217 58.0059Z" fill="#26192A"/>
<path d="M116.531 68.8172C116.354 68.8172 116.266 68.7286 116.177 68.5513C114.848 62.7019 110.948 56.7638 110.948 56.6752C110.859 56.4979 110.859 56.3207 111.036 56.232C111.214 56.1434 111.391 56.1434 111.48 56.3207C111.48 56.4093 115.468 62.436 116.797 68.4627C116.886 68.6399 116.797 68.8172 116.531 68.8172C116.62 68.8172 116.62 68.8172 116.531 68.8172Z" fill="#26192A"/>
<path d="M123.09 60.7517C123.001 60.7517 122.824 60.6631 122.824 60.5745C120.697 56.4976 115.025 53.4843 114.936 53.4843C114.759 53.3956 114.67 53.2184 114.759 53.0411C114.848 52.8639 115.025 52.7752 115.202 52.8639C115.468 52.9525 121.14 55.9658 123.356 60.22C123.444 60.3972 123.356 60.5745 123.179 60.6631C123.179 60.7517 123.09 60.7517 123.09 60.7517Z" fill="#26192A"/>
<path d="M122.469 52.0667C122.381 52.0667 122.381 52.0667 122.292 51.978C120.165 50.56 116.531 50.2055 116.531 50.2055C116.354 50.2055 116.177 50.0282 116.266 49.851C116.266 49.6737 116.443 49.4965 116.62 49.5851C116.797 49.5851 120.431 49.9396 122.647 51.4463C122.824 51.5349 122.824 51.7122 122.735 51.8894C122.647 52.0667 122.558 52.0667 122.469 52.0667Z" fill="#26192A"/>
<path d="M60.7846 10.2339C60.6959 10.2339 60.6073 10.1453 60.5187 10.1453C60.43 9.96801 60.43 9.79076 60.6073 9.70213C61.3163 9.17036 63.6207 9.08173 63.8865 8.9931C64.0638 8.9931 64.241 9.17036 64.241 9.34762C64.241 9.52487 64.0638 9.70213 63.8865 9.70213C63.0003 9.70213 61.4049 9.87938 60.9618 10.2339C60.9618 10.2339 60.8732 10.2339 60.7846 10.2339Z" fill="#26192A"/>
<path d="M60.6959 13.0709C60.6073 13.0709 60.5187 12.9823 60.43 12.8937C60.3414 12.7164 60.3414 12.5392 60.5187 12.4506C61.3163 12.0074 63.6207 12.096 63.8865 12.096C64.0638 12.096 64.2411 12.2733 64.2411 12.4506C64.2411 12.6278 64.0638 12.8051 63.8865 12.8051C63.0003 12.7164 61.3163 12.8051 60.8732 13.0709C60.8732 13.0709 60.7846 13.0709 60.6959 13.0709Z" fill="#26192A"/>
<path d="M70.445 14.0441C70.3564 14.0441 70.3564 14.0441 70.2678 14.0441C69.4701 13.6896 67.9634 13.0692 67.4317 13.1578C67.2544 13.1578 67.0771 13.0692 67.0771 12.8919C67.0771 12.7147 67.1658 12.5374 67.343 12.5374C68.2293 12.3601 70.3564 13.4237 70.6223 13.5123C70.7995 13.6009 70.8882 13.7782 70.7995 13.9555C70.7109 13.9555 70.5336 14.0441 70.445 14.0441Z" fill="#26192A"/>
<path d="M74.7878 12.8058C74.6991 12.8058 74.6991 12.8058 74.6105 12.8058C73.8129 12.4513 72.3062 11.8309 71.7744 11.9195C71.5972 11.9195 71.4199 11.8309 71.4199 11.6536C71.4199 11.4764 71.5085 11.2991 71.6858 11.2991C72.5721 11.1219 74.6992 12.1854 74.965 12.274C75.1423 12.3627 75.2309 12.5399 75.1423 12.7172C75.0536 12.7172 74.965 12.8058 74.7878 12.8058Z" fill="#26192A"/>
<path d="M57.328 15.5522C57.2394 15.5522 57.0621 15.4636 57.0621 15.3749C56.9735 15.1977 57.0621 15.0204 57.2394 14.9318C58.037 14.4887 60.3413 14.8432 60.6072 14.8432C60.7845 14.8432 60.8731 15.0204 60.8731 15.1977C60.8731 15.3749 60.6958 15.4636 60.5186 15.4636C59.6323 15.3749 58.037 15.1977 57.5053 15.4636C57.4166 15.5522 57.328 15.5522 57.328 15.5522Z" fill="#26192A"/>
<path d="M69.7363 10.5888H69.6476C68.7614 10.2343 67.2547 9.70254 66.7229 9.79117C66.5457 9.79117 66.3684 9.70254 66.3684 9.52529C66.3684 9.34803 66.457 9.17077 66.6343 9.17077C67.5206 8.99352 69.6476 9.8798 69.9135 9.96842C70.0908 10.0571 70.1794 10.2343 70.0908 10.4116C70.0022 10.5888 69.9135 10.5888 69.7363 10.5888Z" fill="#26192A"/>
<path d="M54.2259 13.8677C54.1373 13.8677 54.0487 13.8677 53.9601 13.7791C53.8714 13.6018 53.8714 13.4245 54.0487 13.3359C54.7577 12.8041 57.062 12.6269 57.3279 12.6269C57.5052 12.6269 57.6824 12.7155 57.6824 12.9814C57.6824 13.2473 57.5938 13.3359 57.3279 13.3359C56.4416 13.4245 54.8463 13.6018 54.4032 13.9563C54.4032 13.8677 54.3146 13.8677 54.2259 13.8677Z" fill="#26192A"/>
<path d="M47.8454 13.5136C47.7567 13.5136 47.6681 13.5136 47.6681 13.425C47.4908 13.3363 47.4908 13.0705 47.6681 12.9818C48.2885 12.2728 50.5042 11.741 50.7701 11.6524C50.9473 11.5638 51.1246 11.741 51.2132 11.9183C51.3018 12.0956 51.1246 12.2728 50.9473 12.3614C50.0611 12.5387 48.5544 13.0705 48.1999 13.5136C48.0226 13.5136 47.934 13.5136 47.8454 13.5136Z" fill="#26192A"/>
<path d="M49.2628 16.7929C49.1742 16.7929 49.0856 16.7929 49.0856 16.7043C48.9083 16.6156 48.9083 16.3498 49.0856 16.2611C49.706 15.5521 51.9217 15.0203 52.1876 14.9317C52.3648 14.8431 52.5421 15.0203 52.6307 15.1976C52.7193 15.3749 52.5421 15.5521 52.3648 15.6407C51.4785 15.818 49.9719 16.3498 49.6174 16.7929C49.4401 16.7043 49.3515 16.7929 49.2628 16.7929Z" fill="#26192A"/>
<path d="M44.6546 20.3381H44.566C44.3888 20.2495 44.3001 20.0722 44.3888 19.8949C44.7433 19.0973 46.6931 17.7679 46.959 17.6792C47.1362 17.5906 47.3135 17.5906 47.4021 17.7679C47.4907 17.9451 47.4907 18.1224 47.3135 18.211C46.5158 18.7428 45.275 19.6291 45.0092 20.1608C44.9205 20.2495 44.8319 20.3381 44.6546 20.3381Z" fill="#26192A"/>
<path d="M43.2362 17.6779H43.1476C42.9703 17.5893 42.8817 17.412 42.9703 17.2348C43.3248 16.4371 45.2746 15.1077 45.4519 15.0191C45.6291 14.9305 45.8064 14.9305 45.895 15.1077C45.9837 15.285 45.9836 15.4622 45.8064 15.5509C45.0087 16.0826 43.768 16.9689 43.5021 17.5007C43.4135 17.5893 43.3248 17.6779 43.2362 17.6779Z" fill="#26192A"/>
<path d="M54.6693 10.9434C54.5806 10.9434 54.492 10.9434 54.4034 10.8547C54.3148 10.6775 54.3148 10.5002 54.4034 10.4116C55.1124 9.79121 57.4167 9.61396 57.6826 9.52533C57.8599 9.52533 58.0371 9.61396 58.0371 9.79121C58.0371 9.96847 57.9485 10.1457 57.7712 10.1457C56.885 10.2344 55.2897 10.5002 54.8465 10.8547C54.8465 10.9434 54.7579 10.9434 54.6693 10.9434Z" fill="#26192A"/>
</svg>
