<svg width="46" height="55" viewBox="0 0 46 55" fill="none" xmlns="http://www.w3.org/2000/svg">
<path d="M-5.78408 13.6058C-7.8607 12.6613 -9.22759 11.3914 -9.88476 9.79619C-10.4703 8.23353 -10.2908 6.41389 -9.34631 4.33727C-8.40178 2.26065 -7.14819 0.929558 -5.58552 0.343994C-3.95125 -0.208999 -2.09581 -0.0132295 -0.0191853 0.931301L41.4416 19.7893C43.5182 20.7339 44.8493 21.9875 45.4349 23.5501C46.092 25.1454 45.9484 26.9813 45.0038 29.0579C44.0593 31.1345 42.7699 32.4493 41.1356 33.0023C39.573 33.5879 37.7533 33.4084 35.6767 32.4639L-5.78408 13.6058ZM-15.5551 35.0881C-17.6317 34.1436 -18.9986 32.8737 -19.6558 31.2785C-20.2088 29.6442 -20.0293 27.8246 -19.1173 25.8195C-18.1728 23.7429 -16.9192 22.4118 -15.3565 21.8263C-13.7223 21.2733 -11.8668 21.469 -9.79019 22.4136L31.6706 41.2716C33.7472 42.2161 35.0783 43.4697 35.6639 45.0324C36.321 46.6276 36.1774 48.4636 35.2328 50.5402C34.2883 52.6168 32.9989 53.9316 31.3646 54.4846C29.802 55.0702 27.9823 54.8907 25.9057 53.9461L-15.5551 35.0881Z" fill="#BDC3C7" fill-opacity="0.1"/>
</svg>
