<svg width="24" height="24" viewBox="0 0 24 24" fill="none" xmlns="http://www.w3.org/2000/svg">
<path d="M13.25 7V2C13.25 1.64583 13.37 1.34875 13.61 1.10875C13.8492 0.869583 14.1458 0.75 14.5 0.75H22C22.3542 0.75 22.6508 0.869583 22.89 1.10875C23.13 1.34875 23.25 1.64583 23.25 2V7C23.25 7.35417 23.13 7.65083 22.89 7.89C22.6508 8.13 22.3542 8.25 22 8.25H14.5C14.1458 8.25 13.8492 8.13 13.61 7.89C13.37 7.65083 13.25 7.35417 13.25 7ZM0.75 12V2C0.75 1.64583 0.87 1.34875 1.11 1.10875C1.34917 0.869583 1.64583 0.75 2 0.75H9.5C9.85417 0.75 10.1513 0.869583 10.3913 1.10875C10.6304 1.34875 10.75 1.64583 10.75 2V12C10.75 12.3542 10.6304 12.6508 10.3913 12.89C10.1513 13.13 9.85417 13.25 9.5 13.25H2C1.64583 13.25 1.34917 13.13 1.11 12.89C0.87 12.6508 0.75 12.3542 0.75 12ZM13.25 22V12C13.25 11.6458 13.37 11.3487 13.61 11.1087C13.8492 10.8696 14.1458 10.75 14.5 10.75H22C22.3542 10.75 22.6508 10.8696 22.89 11.1087C23.13 11.3487 23.25 11.6458 23.25 12V22C23.25 22.3542 23.13 22.6508 22.89 22.89C22.6508 23.13 22.3542 23.25 22 23.25H14.5C14.1458 23.25 13.8492 23.13 13.61 22.89C13.37 22.6508 13.25 22.3542 13.25 22ZM0.75 22V17C0.75 16.6458 0.87 16.3487 1.11 16.1087C1.34917 15.8696 1.64583 15.75 2 15.75H9.5C9.85417 15.75 10.1513 15.8696 10.3913 16.1087C10.6304 16.3487 10.75 16.6458 10.75 17V22C10.75 22.3542 10.6304 22.6508 10.3913 22.89C10.1513 23.13 9.85417 23.25 9.5 23.25H2C1.64583 23.25 1.34917 23.13 1.11 22.89C0.87 22.6508 0.75 22.3542 0.75 22ZM3.25 10.75H8.25V3.25H3.25V10.75ZM15.75 20.75H20.75V13.25H15.75V20.75ZM15.75 5.75H20.75V3.25H15.75V5.75ZM3.25 20.75H8.25V18.25H3.25V20.75Z" fill="#E74C3C"/>
</svg>
