<svg width="59" height="59" viewBox="0 0 59 59" fill="none" xmlns="http://www.w3.org/2000/svg">
<circle cx="29.5" cy="29.5" r="29.5" fill="#FCB82E"/>
<path d="M35.3079 35.3991L24.4739 33.2831C24.3046 33.2831 24.22 33.1138 24.22 32.9445L26.6745 11.2764C26.6745 11.1072 26.8438 10.9379 27.0131 11.0225C27.1824 11.0225 27.3517 11.1918 27.267 11.3611L24.8124 32.7752L34.9693 34.722L40.0478 13.3925C40.0478 13.2232 40.2171 13.1385 40.471 13.1385C40.6403 13.1385 40.7249 13.3925 40.7249 13.5617L35.5618 35.2298C35.5618 35.3144 35.4772 35.3991 35.3079 35.3991Z" fill="#26192A"/>
<path d="M22.8657 32.3516L37.5086 34.6369C37.5086 34.6369 34.7154 40.731 29.0445 40.4771C24.22 40.2232 22.8657 32.3516 22.8657 32.3516Z" fill="#26192A"/>
<path d="M18.2949 27.9508C18.2103 27.9508 18.041 27.9508 17.8717 27.7815C16.7714 26.8504 16.4328 21.772 16.3481 20.7563C16.3481 20.587 16.4328 20.4177 16.6867 20.4177C16.856 20.4177 17.0253 20.5024 17.0253 20.7563C17.2792 24.2266 17.8717 27.2736 18.3795 27.3583C18.8874 27.2736 19.5645 23.888 19.9031 20.0792C19.9031 19.9099 20.0724 19.7406 20.2417 19.8252C20.4109 19.8252 20.5802 19.9945 20.4956 20.1638C20.2416 22.4491 19.6492 27.8661 18.2949 27.9508Z" fill="#26192A"/>
<path d="M43.1794 32.775C43.0101 32.775 42.8408 32.6903 42.7562 32.6057C41.8251 31.6746 42.333 26.4269 42.5023 25.4112C42.5023 25.2419 42.6716 25.0726 42.8409 25.1573C43.0102 25.1573 43.1794 25.3266 43.0948 25.4958C42.7562 28.8815 42.7562 31.9286 43.1794 32.1825C43.7719 32.0978 45.634 28.7968 46.9882 25.6651C47.0729 25.4958 47.2422 25.4112 47.4114 25.4958C47.5807 25.5805 47.6654 25.7498 47.5807 25.919C46.819 27.5272 44.5337 32.6903 43.1794 32.775Z" fill="#26192A"/>
<path d="M28.0291 47.6723C27.9445 47.6723 27.9444 47.6723 27.8598 47.6723C26.5902 47.4184 26.4209 43.1863 26.4209 41.4089C26.4209 41.2396 26.5902 41.155 26.7595 41.0703C26.9288 41.0703 27.098 41.2396 27.098 41.4089C27.098 44.2867 27.5212 46.9952 27.9444 47.0798C28.0291 47.0798 28.7062 47.0798 30.399 42.2553C30.4837 42.086 30.653 42.0014 30.8222 42.086C30.9915 42.1706 31.0762 42.3399 30.9915 42.5092C29.5526 46.9105 28.7062 47.6723 28.0291 47.6723Z" fill="#26192A"/>
<path d="M18.8026 33.5369L10.7617 32.0134C10.5924 32.0134 10.5078 31.8441 10.5078 31.6748C10.5078 31.5055 10.6771 31.4209 10.8463 31.4209L18.8872 32.9444C19.0565 32.9444 19.1412 33.1137 19.1412 33.283C19.1412 33.4523 18.9719 33.5369 18.8026 33.5369Z" fill="#26192A"/>
<path d="M18.972 35.738L10.254 34.1298C10.0847 34.1298 10 33.9605 10 33.7912C10 33.6219 10.1693 33.5373 10.3386 33.5373L19.0566 35.0608C19.2259 35.0608 19.3105 35.2301 19.3105 35.3994C19.2259 35.6533 19.1412 35.738 18.972 35.738Z" fill="#26192A"/>
<path d="M18.8872 38.4471C18.8026 38.4471 18.8026 38.4471 18.8872 38.4471L10.7617 36.5004C10.5924 36.5004 10.5078 36.2464 10.5078 36.0772C10.5078 35.9079 10.6771 35.8232 10.931 35.8232L18.9719 37.77C19.1412 37.77 19.2258 38.0239 19.2258 38.1932C19.1412 38.3625 18.9719 38.4471 18.8872 38.4471Z" fill="#26192A"/>
<path d="M46.9884 38.7852L38.9475 37.2617C38.7782 37.2617 38.6936 37.0924 38.6936 36.9231C38.6936 36.7538 38.8629 36.6692 39.0322 36.6692L47.0731 38.1927C47.2424 38.1927 47.327 38.362 47.327 38.5313C47.2423 38.7006 47.1577 38.7852 46.9884 38.7852Z" fill="#26192A"/>
<path d="M47.1576 40.9859C47.0729 40.9859 47.0729 40.9859 47.1576 40.9859L38.4396 39.3777C38.2703 39.3777 38.1857 39.2084 38.1857 39.0391C38.1857 38.8699 38.3549 38.7852 38.5242 38.7852L47.2422 40.3087C47.4115 40.3087 47.4962 40.478 47.4962 40.6473C47.4115 40.8166 47.2422 40.9859 47.1576 40.9859Z" fill="#26192A"/>
<path d="M46.9883 43.6942L38.8628 41.7474C38.6935 41.7474 38.6089 41.4935 38.6089 41.3242C38.6089 41.155 38.7782 41.0703 39.0321 41.0703L47.073 43.0171C47.2423 43.0171 47.3269 43.271 47.3269 43.4403C47.3269 43.6095 47.1576 43.6942 46.9883 43.6942Z" fill="#26192A"/>
</svg>
