<svg width="12" height="21" viewBox="0 0 12 21" fill="none" xmlns="http://www.w3.org/2000/svg">
<path d="M2.24475 1.02085L11.0208 9.77085C11.125 9.87502 11.1986 9.98787 11.2416 10.1094C11.2854 10.2309 11.3073 10.3611 11.3073 10.5C11.3073 10.6389 11.2854 10.7691 11.2416 10.8906C11.1986 11.0122 11.125 11.125 11.0208 11.2292L2.24475 20.0052C2.00169 20.2483 1.69788 20.3698 1.33329 20.3698C0.968709 20.3698 0.656209 20.2396 0.395792 19.9792C0.135376 19.7188 0.00516709 19.4149 0.00516712 19.0677C0.00516715 18.7205 0.135376 18.4167 0.395792 18.1563L8.05204 10.5L0.395794 2.84377C0.152738 2.60071 0.0312106 2.30141 0.0312106 1.94585C0.0312106 1.5896 0.161419 1.28127 0.421836 1.02085C0.682252 0.760436 0.986071 0.630227 1.33329 0.630227C1.68052 0.630227 1.98434 0.760436 2.24475 1.02085Z" fill="#ECF0F1"/>
</svg>
