<svg width="37" height="80" viewBox="0 0 37 80" fill="none" xmlns="http://www.w3.org/2000/svg">
<path d="M-29.1505 66.8454C-31.2965 66.2036 -32.9005 65.0893 -33.9624 63.5025C-35.0242 61.9157 -35.4119 60.1966 -35.1254 58.3451C-34.7775 56.5119 -33.6234 54.8864 -31.663 53.4687L-4.46242 33.5471L-6.74548 41.181L-18.183 10.4055C-19.0248 8.08292 -19.0878 6.06005 -18.3721 4.33688C-17.595 2.63205 -16.3271 1.40801 -14.5684 0.664766C-12.8097 -0.0784784 -10.8573 -0.129189 -8.71124 0.512635C-6.93306 1.04443 -5.49785 1.94126 -4.40562 3.20313C-3.31338 4.46499 -2.37702 6.24805 -1.59653 8.5523L6.41384 31.6896L0.895344 30.0392L20.3855 15.1264C22.3213 13.5677 24.0828 12.5915 25.6702 12.1978C27.2759 11.7428 28.9678 11.7812 30.746 12.313C32.9534 12.9732 34.588 14.0967 35.6499 15.6834C36.7301 17.2089 37.0963 18.8883 36.7484 20.7214C36.4619 22.573 35.2894 24.2598 33.231 25.7818L6.68285 45.197L8.96591 37.5631L20.7627 69.1475C21.6842 71.4271 21.7564 73.4193 20.9793 75.1242C20.2636 76.8473 19.0263 78.0805 17.2676 78.8238C15.5089 79.567 13.5259 79.6086 11.3185 78.9484C9.60162 78.4349 8.1879 77.5779 7.07733 76.3774C5.9851 75.1155 5.02724 73.2926 4.20377 70.9087L-4.10143 47.0821L1.23312 48.6775L-18.698 64.0596C-20.6951 65.5999 -22.4965 66.5976 -24.1022 67.0526C-25.6895 67.4463 -27.3723 67.3772 -29.1505 66.8454Z" fill="#BDC3C7" fill-opacity="0.1"/>
</svg>
