<svg width="253" height="307" viewBox="0 0 253 307" fill="none" xmlns="http://www.w3.org/2000/svg">
<path fill-rule="evenodd" clip-rule="evenodd" d="M141.242 71.2829C186.711 72.8025 234.768 88.2731 249.087 131.696C263.612 175.747 235.633 218.667 199.26 247.233C157.25 280.225 103.423 310.328 58.6339 281.266C7.71026 248.225 -13.4733 180.336 8.82048 123.666C28.1111 74.6308 88.8299 69.5312 141.242 71.2829Z" fill="#EBC14D"/>
<path d="M195.106 107.006C195.106 107.006 223.309 126.869 224.37 152.949L193.135 133.389L195.106 107.006Z" fill="#DBB06C"/>
<path d="M190.86 101.699C190.86 101.699 186.311 155.224 201.929 175.087C201.929 175.087 214.363 127.324 190.86 101.699Z" fill="#23454E"/>
<path d="M64.7056 104.428C64.7056 104.428 45.9036 103.822 34.8348 127.324C23.7659 150.827 23.9175 211.63 52.1204 204.503C80.1717 197.377 81.5363 98.06 64.7056 104.428Z" fill="#23454E"/>
<path d="M204.355 213.753C204.355 213.753 200.413 19.0619 131.725 12.3902C60.9148 5.56697 71.2256 113.223 59.7018 142.487C48.178 171.752 32.5603 254.237 98.367 259.241C152.043 263.335 209.662 266.671 204.355 213.753Z" fill="#E2CE96"/>
<path d="M121.717 51.5099C121.717 51.5099 130.057 29.6754 157.957 46.5062C172.058 54.9974 173.726 79.2579 157.957 88.204C142.187 97.1501 120.201 60.6076 121.717 51.5099Z" fill="white"/>
<path d="M144.008 53.0254C144.008 53.0254 150.831 61.9714 154.622 62.1231C158.564 62.2747 160.535 48.4765 160.535 48.4765C160.535 48.4765 152.65 47.1119 144.008 53.0254Z" fill="#26192A"/>
<path d="M153.56 80.3183C149.769 80.3183 145.372 70.4625 144.917 69.2494C144.765 68.9462 144.917 68.6429 145.22 68.4913C145.523 68.3397 145.827 68.4913 145.978 68.7945C147.798 73.0401 151.589 79.5602 153.863 79.2569C156.441 78.802 159.17 71.2206 160.08 68.3397C160.231 68.0364 160.535 67.8848 160.838 67.8848C161.141 68.0364 161.293 68.3397 161.293 68.6429C160.99 69.7043 158.109 79.5602 154.318 80.3183C153.863 80.3183 153.711 80.3183 153.56 80.3183Z" fill="#26192A"/>
<path d="M153.863 80.3195C153.56 80.3195 153.256 80.0162 153.256 79.713V62.1241C153.256 61.8208 153.56 61.5176 153.863 61.5176C154.166 61.5176 154.469 61.8208 154.469 62.1241V79.8646C154.469 80.0162 154.166 80.3195 153.863 80.3195Z" fill="#26192A"/>
<path d="M136.974 24.2164C140.764 24.2164 144.252 33.3142 144.555 34.3755C144.707 34.6788 144.555 34.9821 144.252 35.1337C143.949 35.2853 143.645 35.1337 143.494 34.8304C141.977 30.8881 138.945 24.823 136.519 25.4295C136.216 25.5811 136.064 25.7327 135.912 26.036C134.851 28.3104 137.58 34.6788 138.793 36.9532C138.945 37.2565 138.793 37.5597 138.49 37.7114C138.187 37.863 137.883 37.7114 137.732 37.4081C137.277 36.4983 133.486 28.6137 134.851 25.4295C135.154 24.823 135.609 24.3681 136.216 24.2164C136.519 24.2164 136.822 24.2164 136.974 24.2164Z" fill="#26192A"/>
<path d="M115.291 30.4329C119.537 30.4329 120.75 40.8952 120.901 42.1083C120.901 42.4115 120.75 42.7148 120.446 42.7148C120.143 42.7148 119.84 42.5631 119.84 42.2599C119.385 38.1659 117.717 31.4943 115.443 31.4943C115.139 31.4943 114.836 31.6459 114.684 31.9492C113.168 33.9203 114.23 40.7436 114.836 43.3213C114.836 43.6245 114.684 43.9278 114.381 43.9278C114.078 43.9278 113.775 43.7762 113.775 43.4729C113.623 42.5631 111.804 33.9203 113.775 31.191C113.926 30.7361 114.533 30.4329 115.291 30.4329Z" fill="#26192A"/>
<path d="M94.8798 25.5808C94.8798 25.5808 82.7496 12.9957 75.9263 15.725C69.103 18.4543 84.2658 39.5306 84.2658 39.5306L94.8798 25.5808Z" fill="#E2CE96"/>
<path d="M88.663 27.7032C88.5114 27.7032 88.2081 27.5516 88.2081 27.4C84.1141 19.6669 80.6267 20.88 80.6267 20.88C80.3234 21.0316 80.0202 20.88 79.8686 20.5767C79.7169 20.2734 79.8685 19.9702 80.1718 19.8186C80.3234 19.8186 84.569 18.1507 89.1179 26.9451C89.2695 27.2484 89.1179 27.5516 88.8146 27.7032C88.8146 27.7032 88.8146 27.7032 88.663 27.7032Z" fill="#26192A"/>
<path d="M137.791 13.6025C137.791 13.6025 143.098 -1.40869 148.708 0.107595C154.318 1.62388 151.589 19.9709 151.589 19.9709L137.791 13.6025Z" fill="#E2CE96"/>
<path d="M144.614 17.3925C144.311 17.3925 144.008 17.0893 144.008 16.786C144.462 7.68833 147.495 4.65576 147.647 4.50413C147.798 4.3525 148.253 4.3525 148.405 4.50413C148.556 4.65576 148.556 5.11065 148.405 5.26227C148.405 5.26227 145.675 8.14321 145.221 16.786C145.221 17.0893 144.917 17.3925 144.614 17.3925Z" fill="#26192A"/>
<path d="M189.193 223.456C189.193 223.456 186.767 108.219 148.86 110.948C115.198 113.374 112.014 209.961 121.112 231.796C127.783 247.717 185.857 249.991 189.193 223.456Z" fill="white"/>
<path d="M116.562 260.454C116.562 260.454 84.2653 295.48 69.4057 294.267C69.4057 294.267 65.9183 294.115 58.3369 287.141C50.7554 280.166 82.5974 233.616 82.5974 233.616C82.5974 233.616 108.526 255.147 116.562 260.454Z" fill="#E2CE96"/>
<path d="M189.344 244.23C189.344 244.23 181.46 291.234 168.268 298.209C168.268 298.209 165.235 300.029 155.076 298.209C144.917 296.39 145.827 256.36 145.827 256.36C145.827 256.36 179.64 244.23 189.344 244.23Z" fill="#E2CE96"/>
<path d="M77.1393 66.3691C76.836 66.3691 76.6844 66.2174 76.5328 65.9142C76.0779 64.3979 77.4425 60.6072 77.5942 60.1523C77.7458 59.849 78.0491 59.6974 78.3523 59.849C78.6556 60.0007 78.8072 60.3039 78.6556 60.6072C78.0491 62.1235 77.2909 64.7011 77.5942 65.6109C77.8974 65.9142 77.5942 66.2174 77.1393 66.3691C77.2909 66.3691 77.2909 66.3691 77.1393 66.3691Z" fill="#26192A"/>
<path d="M110.649 20.8802C108.981 20.5769 106.252 20.122 105.494 20.5769C105.19 20.7286 104.887 20.5769 104.735 20.2737C104.584 19.9704 104.735 19.6672 105.039 19.5155C106.403 18.909 110.346 19.6672 110.801 19.8188C111.104 19.8188 111.255 20.122 111.255 20.4253C111.104 20.5769 110.952 20.8802 110.649 20.8802Z" fill="#26192A"/>
<path d="M120.808 19.3649C120.656 19.3649 120.505 19.2132 120.353 19.0616C119.443 17.6969 117.775 15.5741 116.865 15.2709C116.562 15.1193 116.411 14.816 116.562 14.5127C116.714 14.2095 117.017 14.0579 117.32 14.2095C118.837 14.816 121.111 18.0002 121.263 18.4551C121.414 18.7583 121.414 19.0616 121.111 19.2132C121.111 19.3649 120.959 19.3649 120.808 19.3649Z" fill="#26192A"/>
<path d="M124.447 27.2483C124.296 27.2483 124.144 27.0967 123.993 26.9451C123.083 25.5804 121.415 23.4576 120.505 23.1544C120.202 23.0027 120.05 22.6995 120.202 22.3962C120.353 22.093 120.657 21.9413 120.96 22.093C122.476 22.6995 124.751 25.8837 124.902 26.3386C125.054 26.6418 125.054 26.9451 124.751 27.0967C124.751 27.2483 124.599 27.2483 124.447 27.2483Z" fill="#26192A"/>
<path d="M116.714 20.8801C116.563 20.8801 116.411 20.8801 116.259 20.7284C115.046 19.667 112.923 17.9991 112.014 17.8475C111.71 17.8475 111.407 17.5442 111.559 17.241C111.559 16.9377 111.862 16.6345 112.165 16.7861C113.682 16.9377 116.714 19.667 117.017 19.9703C117.321 20.1219 117.321 20.5768 117.017 20.7284C117.017 20.8801 116.866 20.8801 116.714 20.8801Z" fill="#26192A"/>
<path d="M128.692 28.614C128.389 28.614 128.086 28.3108 128.086 28.0075C127.934 26.4912 127.631 23.7619 127.025 23.0038C126.873 22.7005 126.873 22.3973 127.176 22.2456C127.479 22.094 127.783 22.094 127.934 22.3973C128.844 23.6103 129.147 27.5526 129.147 28.0075C129.299 28.3108 129.147 28.4624 128.692 28.614C128.692 28.4624 128.692 28.614 128.692 28.614Z" fill="#26192A"/>
<path d="M125.053 20.1219C124.75 20.1219 124.447 19.8187 124.447 19.5154C124.295 17.9992 123.992 15.2698 123.386 14.5117C123.234 14.2084 123.234 13.9052 123.537 13.7536C123.84 13.6019 124.144 13.6019 124.295 13.9052C125.205 15.1182 125.508 19.0606 125.508 19.5154C125.66 19.8187 125.357 20.1219 125.053 20.1219Z" fill="#26192A"/>
<path d="M130.512 20.1224C130.057 19.9708 129.906 19.6675 129.906 19.3643C130.361 17.848 130.815 15.1187 130.512 14.3605C130.361 14.0573 130.512 13.754 130.815 13.6024C131.119 13.4507 131.422 13.6024 131.574 13.9056C132.028 15.4219 131.119 19.2126 130.967 19.6675C130.967 19.9708 130.815 20.1224 130.512 20.1224Z" fill="#26192A"/>
<path d="M81.0818 71.676C80.7785 71.676 80.6269 71.5244 80.4753 71.2211C80.0204 69.7049 81.385 65.9141 81.5367 65.4593C81.6883 65.156 81.9915 65.0044 82.2948 65.156C82.5981 65.3076 82.7497 65.6109 82.5981 65.9142C81.9915 67.4304 81.2334 70.0081 81.5367 70.9179C81.6883 71.3728 81.5367 71.676 81.0818 71.676C81.2334 71.676 81.0818 71.676 81.0818 71.676Z" fill="#26192A"/>
<path d="M81.6881 82.139C81.3849 82.139 81.2333 81.9874 81.0816 81.6841C80.6267 80.1678 81.9914 76.3771 82.143 75.9222C82.2947 75.619 82.5979 75.4673 82.9012 75.619C83.2044 75.7706 83.3561 76.0738 83.2044 76.3771C82.5979 77.8934 81.8398 80.4711 82.143 81.3808C82.2947 81.6841 82.143 81.9873 81.6881 82.139Z" fill="#26192A"/>
<path d="M72.7422 88.8097C72.439 88.8097 72.2873 88.6581 72.1357 88.3549C71.6808 86.8386 73.0455 83.0479 73.1971 82.593C73.3487 82.2897 73.652 82.1381 73.9552 82.2897C74.2585 82.4414 74.4101 82.7446 74.2585 83.0479C73.652 84.5642 72.8938 87.1418 73.1971 88.0516C73.3487 88.3549 73.1971 88.6581 72.7422 88.8097Z" fill="#26192A"/>
<path d="M77.1393 88.8097C76.836 88.8097 76.6844 88.6581 76.5328 88.3549C76.0779 86.8386 77.4425 83.0479 77.5942 82.593C77.7458 82.2897 78.0491 82.1381 78.3523 82.2897C78.6556 82.4414 78.8072 82.7446 78.6556 83.0479C78.0491 84.5642 77.2909 87.1418 77.5942 88.0516C77.8974 88.3549 77.5942 88.6581 77.1393 88.8097C77.2909 88.8097 77.2909 88.8097 77.1393 88.8097Z" fill="#26192A"/>
<path d="M175.546 192.221C175.242 192.221 174.939 191.918 174.939 191.614C175.091 190.098 175.091 187.217 174.636 186.459C174.484 186.156 174.636 185.853 174.787 185.701C175.091 185.549 175.394 185.701 175.546 185.853C176.304 187.217 176.152 191.16 176.001 191.614C176.001 191.918 175.849 192.221 175.546 192.221Z" fill="#26192A"/>
<path d="M178.578 182.213C178.275 182.213 177.972 181.909 177.972 181.606C178.123 180.09 178.123 177.209 177.668 176.451C177.517 176.147 177.668 175.844 177.82 175.693C178.123 175.541 178.427 175.693 178.578 175.844C179.336 177.209 179.185 181.151 179.033 181.606C179.185 181.909 178.881 182.213 178.578 182.213Z" fill="#26192A"/>
<path d="M172.059 207.687C171.755 207.687 171.452 207.384 171.452 207.081C171.604 205.565 171.604 202.684 171.149 201.925C170.997 201.622 171.149 201.319 171.3 201.167C171.604 201.016 171.907 201.167 172.059 201.319C172.817 202.684 172.665 206.626 172.513 207.081C172.665 207.536 172.362 207.687 172.059 207.687Z" fill="#26192A"/>
<path d="M183.279 208.445C182.976 208.445 182.672 208.142 182.672 207.839C182.824 206.323 182.824 203.442 182.369 202.684C182.217 202.38 182.369 202.077 182.521 201.925C182.824 201.774 183.127 201.925 183.279 202.077C184.037 203.442 183.885 207.384 183.734 207.839C183.885 208.142 183.582 208.445 183.279 208.445Z" fill="#26192A"/>
<path d="M174.181 235.89C174.03 235.89 173.878 235.89 173.878 235.739C173.575 235.587 173.575 235.132 173.726 234.98C174.636 233.767 176.153 231.341 176.153 230.432C176.153 230.128 176.456 229.825 176.759 229.825C177.062 229.825 177.366 230.128 177.366 230.432C177.366 231.948 174.94 235.132 174.636 235.587C174.485 235.89 174.333 235.89 174.181 235.89Z" fill="#26192A"/>
<path d="M175.697 215.42C175.394 215.42 175.091 215.117 175.091 214.813C175.243 213.297 175.243 210.416 174.788 209.658C174.636 209.355 174.788 209.051 174.939 208.9C175.243 208.748 175.546 208.9 175.697 209.051C176.456 210.416 176.304 214.358 176.152 214.813C176.304 215.117 176.001 215.42 175.697 215.42Z" fill="#26192A"/>
<path d="M178.882 202.077C178.882 202.077 178.73 202.077 178.882 202.077C178.579 202.077 178.275 201.773 178.275 201.47C178.427 199.954 178.427 197.073 177.972 196.315C177.82 196.012 177.972 195.708 178.124 195.557C178.427 195.405 178.73 195.557 178.882 195.708C179.64 197.073 179.488 201.015 179.337 201.47C179.337 201.925 179.185 202.077 178.882 202.077Z" fill="#26192A"/>
<path d="M184.341 218.149C184.037 218.149 183.734 217.846 183.734 217.542C183.886 216.026 183.886 213.145 183.431 212.387C183.279 212.084 183.431 211.78 183.582 211.629C183.886 211.477 184.189 211.629 184.341 211.78C185.099 213.145 184.947 217.087 184.795 217.542C184.947 217.846 184.644 218.149 184.341 218.149Z" fill="#26192A"/>
<path d="M181.915 230.431C181.763 230.431 181.611 230.431 181.611 230.28C181.308 230.128 181.308 229.673 181.46 229.522C182.369 228.309 184.037 226.034 184.037 225.124C184.037 224.821 184.341 224.518 184.644 224.669C184.947 224.669 185.25 224.973 185.099 225.276C184.947 226.792 182.521 229.976 182.218 230.28C182.369 230.28 182.218 230.431 181.915 230.431Z" fill="#26192A"/>
<path d="M177.668 224.972H177.517C177.214 224.821 177.062 224.517 177.214 224.214C177.82 222.698 178.73 220.12 178.427 219.21C178.427 218.907 178.578 218.604 178.881 218.604C179.185 218.604 179.488 218.756 179.488 219.059C179.791 220.575 178.275 224.214 178.123 224.669C178.123 224.821 177.972 224.972 177.668 224.972Z" fill="#26192A"/>
<path d="M172.362 227.246C172.059 227.246 171.756 226.943 171.756 226.64C171.907 225.124 171.907 222.243 171.452 221.485C171.301 221.181 171.452 220.878 171.604 220.726C171.907 220.575 172.21 220.726 172.362 220.878C173.12 222.243 172.969 226.185 172.817 226.64C172.817 226.943 172.665 227.246 172.362 227.246Z" fill="#26192A"/>
<path d="M77.7457 98.6656C77.4424 98.6656 77.2908 98.514 77.1391 98.2107C76.6842 96.6944 78.0489 92.9037 78.2005 92.4488C78.3522 92.1456 78.6554 91.9939 78.9587 92.1456C79.2619 92.2972 79.4136 92.6005 79.2619 92.9037C78.6554 94.42 77.8973 96.9977 78.2005 97.9074C78.3522 98.2107 78.2005 98.514 77.7457 98.6656C77.8973 98.6656 77.7457 98.6656 77.7457 98.6656Z" fill="#26192A"/>
<path d="M72.7422 100.485C72.439 100.485 72.2873 100.334 72.1357 100.031C71.6808 98.5143 73.0455 94.7235 73.1971 94.2687C73.3487 93.9654 73.652 93.8138 73.9552 93.9654C74.2585 94.117 74.4101 94.4203 74.2585 94.7235C73.652 96.2398 72.8938 98.8175 73.1971 99.7273C73.3487 100.031 73.1971 100.334 72.7422 100.485Z" fill="#26192A"/>
<path d="M76.0776 77.5901C75.7743 77.5901 75.6227 77.4385 75.4711 77.1353C75.0162 75.619 76.3808 71.8283 76.5325 71.3734C76.6841 71.0701 76.9874 70.9185 77.2906 71.0701C77.5939 71.2217 77.7455 71.525 77.5939 71.8283C76.9874 73.3445 76.2292 75.9222 76.5325 76.832C76.6841 77.1352 76.5325 77.4385 76.0776 77.5901Z" fill="#26192A"/>
<path d="M57.1239 215.723C56.9723 215.723 56.8206 215.723 56.669 215.571C55.6076 214.51 54.8495 210.568 54.6978 210.113C54.6978 209.81 54.8495 209.506 55.1527 209.506C55.456 209.506 55.7592 209.658 55.7592 209.961C56.0625 211.477 56.669 214.207 57.4272 214.813C57.5788 214.965 57.5788 215.42 57.4272 215.571C57.4272 215.723 57.2755 215.723 57.1239 215.723Z" fill="#26192A"/>
<path d="M63.189 218.452C63.0374 218.452 62.8858 218.452 62.7341 218.3C61.6727 217.239 60.9146 213.297 60.763 212.842C60.763 212.539 60.9146 212.235 61.2179 212.235C61.5211 212.235 61.8244 212.387 61.8244 212.69C62.1276 214.206 62.7341 216.936 63.4923 217.542C63.6439 217.694 63.6439 218.149 63.4923 218.3C63.4923 218.3 63.3407 218.452 63.189 218.452Z" fill="#26192A"/>
<path d="M68.9514 227.095C68.7997 227.095 68.6481 227.095 68.4965 226.944C67.4351 225.882 66.6769 221.94 66.5253 221.485C66.5253 221.182 66.6769 220.878 66.9802 220.878C67.2834 220.878 67.5867 221.03 67.5867 221.333C67.8899 222.85 68.4965 225.579 69.2546 226.185C69.4062 226.337 69.4062 226.792 69.2546 226.944C69.2546 226.944 69.103 227.095 68.9514 227.095Z" fill="#26192A"/>
<path d="M63.189 237.255C63.0374 237.255 62.8858 237.255 62.7341 237.103C61.6727 236.042 60.9146 232.099 60.763 231.644C60.763 231.341 60.9146 231.038 61.2179 231.038C61.5211 231.038 61.8244 231.189 61.8244 231.493C62.1276 233.009 62.7341 235.738 63.4923 236.345C63.6439 236.496 63.6439 236.951 63.4923 237.103C63.4923 237.255 63.3407 237.255 63.189 237.255Z" fill="#26192A"/>
<path d="M68.496 234.98C68.3444 234.98 68.1928 234.98 68.0411 234.828C66.9798 233.767 66.2216 229.825 66.07 229.37C66.07 229.067 66.2216 228.763 66.5249 228.763C66.8281 228.763 67.1314 228.915 67.1314 229.218C67.4346 230.735 68.0411 233.464 68.7993 234.07C68.9509 234.222 68.9509 234.677 68.7993 234.828C68.7993 234.98 68.6477 234.98 68.496 234.98Z" fill="#26192A"/>
<path d="M73.9548 243.32C73.8032 243.32 73.6515 243.32 73.4999 243.168C72.4385 242.107 71.6804 238.164 71.5287 237.709C71.5287 237.406 71.6804 237.103 71.9836 237.103C72.2869 237.103 72.5901 237.255 72.5901 237.558C72.8934 239.074 73.4999 241.803 74.258 242.41C74.4097 242.562 74.4097 243.016 74.258 243.168C74.258 243.168 74.1064 243.32 73.9548 243.32Z" fill="#26192A"/>
<path d="M71.3773 246.959C71.2256 246.959 71.2256 246.959 71.074 246.959C69.7094 246.352 67.5866 242.865 67.2833 242.562C67.1317 242.258 67.2833 241.955 67.4349 241.803C67.7382 241.652 68.0415 241.803 68.1931 241.955C68.9512 243.32 70.6191 245.594 71.3773 245.897C71.6805 246.049 71.8322 246.352 71.6805 246.656C71.8322 246.807 71.6805 246.959 71.3773 246.959Z" fill="#26192A"/>
<path d="M60.9146 227.095C60.763 227.095 60.6114 227.095 60.4597 226.944C59.3983 225.882 58.6402 221.94 58.4886 221.485C58.4886 221.182 58.6402 220.878 58.9434 220.878C59.2467 220.878 59.55 221.03 59.55 221.333C59.8532 222.85 60.4597 225.579 61.2179 226.185C61.3695 226.337 61.3695 226.792 61.2179 226.944C61.2179 226.944 61.0662 227.095 60.9146 227.095Z" fill="#26192A"/>
<path d="M63.1895 274.707C62.8862 274.707 62.583 274.555 62.583 274.252C62.4314 272.736 64.4025 269.248 64.5542 268.793C64.7058 268.49 65.009 268.49 65.3123 268.642C65.6155 268.793 65.6156 269.097 65.4639 269.4C64.7058 270.765 63.4928 273.191 63.6444 274.1C63.796 274.404 63.4928 274.707 63.1895 274.707Z" fill="#26192A"/>
<path d="M68.6483 274.707C68.345 274.707 68.0417 274.555 68.0417 274.252C67.8901 272.736 69.8613 269.248 70.0129 268.793C70.1645 268.49 70.4678 268.49 70.7711 268.642C71.0743 268.793 71.0743 269.097 70.9227 269.4C70.1645 270.765 68.9515 273.191 69.1031 274.1C69.2548 274.404 69.1031 274.707 68.6483 274.707C68.7999 274.707 68.6483 274.707 68.6483 274.707Z" fill="#26192A"/>
<path d="M68.0412 266.973C67.7379 266.973 67.4346 266.821 67.4346 266.518C67.283 265.002 69.2542 261.514 69.4058 261.059C69.5574 260.756 69.8607 260.756 70.164 260.908C70.4672 261.059 70.4672 261.363 70.3156 261.666C69.5574 263.031 68.3444 265.457 68.496 266.366C68.6477 266.67 68.3444 266.973 68.0412 266.973Z" fill="#26192A"/>
<path d="M73.1971 265.913C72.8939 265.913 72.5906 265.761 72.5906 265.458C72.439 263.942 74.4101 260.454 74.5618 259.999C74.7134 259.696 75.0167 259.696 75.3199 259.848C75.6232 259.999 75.6232 260.302 75.4715 260.606C74.7134 261.97 73.5004 264.396 73.652 265.306C73.8036 265.609 73.5004 265.913 73.1971 265.913Z" fill="#26192A"/>
<path d="M149.92 269.703C149.769 269.703 149.465 269.552 149.465 269.4C148.859 268.035 149.466 264.093 149.617 263.638C149.617 263.335 149.92 263.183 150.224 263.183C150.527 263.183 150.679 263.487 150.679 263.79C150.375 265.306 150.072 268.035 150.527 268.945C150.679 269.248 150.527 269.552 150.224 269.703C150.072 269.703 150.072 269.703 149.92 269.703Z" fill="#26192A"/>
<path d="M153.105 272.28C152.953 272.28 152.65 272.128 152.65 271.977C152.043 270.612 152.65 266.67 152.801 266.215C152.801 265.911 153.105 265.76 153.408 265.76C153.711 265.76 153.863 266.063 153.863 266.366C153.56 267.883 153.256 270.612 153.711 271.522C153.863 271.825 153.711 272.128 153.408 272.28C153.256 272.28 153.105 272.28 153.105 272.28Z" fill="#26192A"/>
<path d="M150.224 280.165C150.072 280.165 149.769 280.013 149.769 279.862C149.163 278.497 149.769 274.555 149.921 274.1C149.921 273.796 150.224 273.645 150.527 273.645C150.83 273.645 150.982 273.948 150.982 274.251C150.679 275.768 150.376 278.497 150.83 279.407C150.982 279.71 150.83 280.013 150.527 280.165C150.376 280.165 150.224 280.165 150.224 280.165Z" fill="#26192A"/>
<path d="M155.227 280.165C155.076 280.165 154.773 280.013 154.773 279.862C154.166 278.497 154.773 274.555 154.924 274.1C154.924 273.796 155.227 273.645 155.531 273.645C155.834 273.645 155.986 273.948 155.986 274.251C155.682 275.768 155.379 278.497 155.834 279.407C155.986 279.71 155.834 280.013 155.531 280.165C155.379 280.165 155.227 280.165 155.227 280.165Z" fill="#26192A"/>
<path d="M152.802 287.292C152.65 287.292 152.347 287.14 152.347 286.988C151.741 285.624 152.347 281.681 152.499 281.226C152.499 280.923 152.802 280.772 153.105 280.772C153.408 280.772 153.56 281.075 153.56 281.378C153.257 282.894 152.954 285.624 153.408 286.533C153.56 286.837 153.408 287.14 153.105 287.292C152.954 287.292 152.954 287.292 152.802 287.292Z" fill="#26192A"/>
<path d="M62.5828 113.071C62.5828 113.071 104.584 130.053 105.645 151.736C106.555 173.419 89.2694 195.557 47.42 198.893V205.109C47.42 205.109 108.829 205.413 115.046 163.563C120.808 124.443 64.7056 104.428 64.7056 104.428C64.7056 104.428 62.8861 108.674 62.5828 113.071Z" fill="#23454E"/>
<path d="M65.1602 114.131C65.1602 114.131 70.7704 149.916 86.9947 148.703C103.067 147.49 100.338 130.204 114.743 142.334C129.147 154.465 121.718 180.09 91.5435 189.946C61.3695 199.801 52.575 173.266 52.1201 169.324C49.2392 139.15 59.7016 117.316 65.1602 114.131Z" fill="#DBB06C"/>
<path d="M216.941 136.27C216.941 136.27 202.991 120.045 192.983 122.017C182.976 123.988 179.488 154.617 213.302 165.079C227.403 169.628 227.555 145.974 216.941 136.27Z" fill="#DBB06C"/>
<path d="M187.828 138.999C187.676 138.999 187.676 138.999 187.525 138.999C186.463 138.544 176.759 133.995 177.821 129.901C177.972 129.295 178.427 128.688 179.034 128.537C180.247 128.082 182.369 128.84 184.341 130.053C182.218 127.627 180.247 124.746 181.46 123.381C181.763 122.926 182.218 122.775 182.824 122.775C184.492 122.775 187.222 124.746 189.344 126.565C187.525 123.23 186.312 119.894 187.07 118.984C187.676 118.377 188.283 118.074 189.041 118.226C192.225 118.681 195.864 125.504 196.168 126.262C196.319 126.565 196.168 126.869 195.864 127.02C195.561 127.172 195.258 127.02 195.106 126.717C194.045 124.746 191.012 119.59 188.738 119.287C188.283 119.287 187.98 119.439 187.676 119.742C187.373 120.5 189.648 125.201 191.922 129.143C192.074 129.446 191.922 129.75 191.77 129.901C191.467 130.053 191.164 130.053 191.012 129.901C188.738 127.627 184.644 123.988 182.824 123.988C182.521 123.988 182.369 124.139 182.369 124.291C181.46 125.504 185.402 130.204 189.496 133.692C189.799 133.844 189.799 134.298 189.496 134.45C189.344 134.753 188.89 134.753 188.738 134.602C186.009 132.479 181.005 129.295 179.337 129.901C179.185 129.901 178.882 130.053 178.882 130.508C178.276 132.934 184.037 136.573 187.98 138.392C188.283 138.544 188.435 138.847 188.283 139.151C188.283 138.847 187.98 138.999 187.828 138.999Z" fill="#26192A"/>
<path d="M118.534 150.069C118.382 150.069 118.231 149.917 118.079 149.765C117.927 149.462 117.927 149.159 118.231 149.007C120.05 147.794 124.902 144.307 125.054 142.032C125.054 141.577 124.902 141.274 124.447 140.971C123.689 140.819 119.14 143.397 115.35 145.975C115.046 146.126 114.743 146.126 114.591 145.823C114.44 145.671 114.44 145.216 114.591 145.065C116.714 142.639 120.05 138.09 119.747 136.422C119.747 136.119 119.595 135.967 119.444 135.967C118.079 135.057 113.833 139.455 110.649 144.003C110.497 144.307 110.194 144.307 109.891 144.155C109.588 144.003 109.588 143.7 109.739 143.397C111.559 140.516 114.288 135.209 113.53 133.541C113.53 133.389 113.378 133.238 112.924 133.086C110.497 132.631 107.313 138.848 105.949 142.79C105.797 143.094 105.494 143.245 105.19 143.094C104.887 142.942 104.736 142.639 104.887 142.336C105.342 141.123 108.981 131.115 113.227 131.873C113.985 132.025 114.44 132.328 114.743 132.935C115.35 134.148 114.591 136.27 113.833 138.393C116.108 135.967 118.685 133.844 120.353 134.906C120.808 135.209 121.111 135.664 121.111 136.119C121.415 137.787 119.595 140.668 117.927 142.942C121.111 140.971 124.296 139.303 125.205 139.91C125.812 140.364 126.267 141.123 126.267 141.881C126.115 145.065 119.595 149.31 118.989 149.765C118.685 150.069 118.685 150.069 118.534 150.069Z" fill="#26192A"/>
<path d="M161.748 306.094C157.805 306.094 152.953 297.148 152.347 296.087C152.195 295.783 152.347 295.48 152.65 295.329C152.953 295.177 153.256 295.329 153.408 295.632C155.531 299.574 159.776 305.639 162.202 304.881C162.809 304.73 162.961 304.426 162.961 304.123C163.415 302.758 161.444 299.877 160.08 298.361L159.928 298.21C159.776 297.906 159.776 297.603 159.928 297.451C160.231 297.3 160.535 297.3 160.686 297.451C160.686 297.451 160.686 297.603 160.838 297.603C162.809 299.877 168.419 305.488 170.694 303.668C171.149 303.365 171.3 302.91 171.3 302.455C171.3 300.787 169.177 298.513 167.813 297.3C167.509 296.996 167.206 296.845 167.055 296.693C166.751 296.542 166.751 296.087 167.055 295.935C167.206 295.632 167.661 295.632 167.813 295.935C167.813 295.935 168.116 296.238 168.571 296.542C170.997 298.513 174.636 300.939 176.304 300.029C176.455 299.877 176.455 299.877 176.455 299.726C176.455 298.816 173.878 296.542 171.452 294.874C171.149 294.722 171.149 294.419 171.3 294.116C171.452 293.812 171.755 293.812 172.058 293.964C172.968 294.57 177.669 297.755 177.669 299.877C177.669 300.181 177.517 300.787 176.91 301.09C175.546 301.849 173.575 301.09 171.755 300.029C172.21 300.787 172.665 301.697 172.665 302.607C172.665 303.517 172.362 304.123 171.603 304.73C169.632 306.397 166.448 304.426 163.87 302.303C164.174 303.213 164.325 304.123 164.174 304.73C164.022 305.184 163.567 305.943 162.657 306.246C162.354 306.094 162.051 306.094 161.748 306.094Z" fill="#26192A"/>
<path d="M67.8895 303.364C67.5862 303.364 67.4346 303.364 67.1314 303.213C65.4634 302.606 65.0086 299.877 65.0086 297.299C64.2504 299.574 63.0374 301.697 61.6727 302.303C61.0662 302.606 60.6113 302.303 60.4597 302.151C59.2467 301.09 59.7016 296.39 60.3081 292.75C58.6402 295.177 56.2141 298.209 54.0913 298.057C53.6364 298.057 53.3332 297.754 53.0299 297.451C51.5136 295.177 55.6076 284.563 56.3657 282.591C56.5174 282.288 56.8206 282.136 57.1239 282.288C57.4271 282.44 57.5788 282.743 57.4271 283.046C55.456 288.05 53.0299 295.631 53.9397 296.996C55.9109 297.148 59.0951 292.599 60.763 289.718C60.9146 289.415 61.2178 289.415 61.5211 289.415C61.8244 289.566 61.976 289.718 61.8244 290.021C60.6113 295.631 60.1564 300.938 60.9146 301.242C62.8858 300.484 64.7053 294.418 65.3118 290.931C65.3118 290.628 65.6151 290.476 65.9183 290.476C66.2216 290.476 66.3732 290.779 66.3732 291.083C65.6151 294.873 65.3118 301.393 67.1314 302.151C67.283 302.303 67.4346 302.151 67.7379 302.151C69.1025 301.242 70.1639 295.935 70.4672 292.902C70.4672 292.599 70.7704 292.296 71.0737 292.447C71.3769 292.447 71.6802 292.75 71.5286 293.054C71.377 293.964 70.7704 301.848 68.3444 303.213C68.496 303.213 68.1928 303.364 67.8895 303.364Z" fill="#26192A"/>
<path d="M66.0699 184.488H65.9183C64.402 184.033 61.9759 180.849 61.8243 180.394C61.6727 180.09 61.6727 179.787 61.9759 179.636C62.2792 179.484 62.5825 179.484 62.7341 179.787C63.6439 181 65.4634 183.123 66.3732 183.426C66.6764 183.578 66.828 183.881 66.6764 184.184C66.5248 184.336 66.2215 184.488 66.0699 184.488Z" fill="#26192A"/>
<path d="M65.1607 177.513H65.0091C63.4928 177.058 61.0668 173.874 60.9151 173.419C60.7635 173.116 60.7635 172.813 61.0668 172.661C61.37 172.51 61.6733 172.51 61.8249 172.813C62.7347 174.026 64.5542 176.149 65.464 176.452C65.7673 176.604 65.9189 176.907 65.7673 177.21C65.6156 177.362 65.464 177.513 65.1607 177.513Z" fill="#26192A"/>
<path d="M76.3811 189.491C74.7132 189.491 71.529 187.823 71.0741 187.671C70.7708 187.519 70.6192 187.216 70.7709 186.913C70.9225 186.61 71.2257 186.458 71.529 186.61C72.8936 187.368 75.4713 188.429 76.3811 188.278C76.6844 188.278 76.9876 188.429 76.9876 188.733C76.9876 189.036 76.836 189.339 76.5327 189.339C76.5327 189.491 76.5327 189.491 76.3811 189.491Z" fill="#26192A"/>
<path d="M78.6557 185.701C78.3525 185.701 78.0492 185.398 78.0492 185.094C78.0492 184.791 78.3525 184.488 78.6557 184.488C80.172 184.488 83.0529 184.336 83.6595 183.73C83.9627 183.578 84.266 183.578 84.4176 183.881C84.5692 184.185 84.5692 184.488 84.266 184.64C83.0529 185.701 79.1106 185.701 78.6557 185.701Z" fill="#26192A"/>
<path d="M213.908 160.076C212.24 160.076 209.056 158.256 208.601 158.105C208.298 157.953 208.298 157.65 208.449 157.346C208.601 157.043 208.904 157.043 209.207 157.195C210.572 157.953 212.998 159.166 213.908 159.014C214.211 159.014 214.514 159.166 214.514 159.469C214.514 159.773 214.363 160.076 214.059 160.076H213.908Z" fill="#26192A"/>
<path d="M207.691 154.162C206.023 154.162 202.839 152.342 202.384 152.191C202.081 152.039 202.081 151.736 202.232 151.432C202.384 151.129 202.687 151.129 202.99 151.281C204.355 152.039 206.781 153.252 207.691 153.1C207.994 153.1 208.297 153.252 208.297 153.555C208.297 153.858 208.146 154.162 207.843 154.162H207.691Z" fill="#26192A"/>
<path d="M217.699 154.616C216.031 154.616 212.846 152.797 212.392 152.645C212.088 152.493 212.088 152.19 212.24 151.887C212.392 151.584 212.695 151.584 212.998 151.735C214.363 152.493 216.94 153.707 217.699 153.555C218.002 153.555 218.305 153.707 218.305 154.01C218.305 154.313 218.153 154.616 217.85 154.616H217.699Z" fill="#26192A"/>
<path d="M219.063 159.014C217.395 159.014 214.211 157.195 213.756 157.043C213.453 156.891 213.453 156.588 213.604 156.285C213.756 155.982 214.059 155.982 214.363 156.133C215.727 156.891 218.305 158.104 219.063 157.953C219.366 157.953 219.67 158.104 219.67 158.408C219.67 158.711 219.518 159.014 219.215 159.014C219.063 159.014 219.063 159.014 219.063 159.014Z" fill="#26192A"/>
<path d="M207.085 159.014C205.417 159.014 202.232 157.195 201.778 157.043C201.474 156.891 201.474 156.588 201.626 156.285C201.778 155.982 202.081 155.982 202.384 156.133C203.749 156.891 206.175 158.104 207.085 157.953C207.388 157.953 207.691 158.104 207.691 158.408C207.691 158.711 207.539 159.014 207.236 159.014C207.236 159.014 207.236 159.014 207.085 159.014Z" fill="#26192A"/>
<path d="M86.8435 182.214C86.5402 182.214 86.237 181.911 86.237 181.607C86.237 181.304 86.5402 181.001 86.8435 181.001C88.3598 181.001 91.2407 180.849 91.8472 180.243C92.1505 180.091 92.4537 180.091 92.6054 180.394C92.757 180.698 92.757 181.001 92.4537 181.152C91.2407 182.214 87.2984 182.214 86.8435 182.214Z" fill="#26192A"/>
<path d="M97.6093 180.849C97.306 180.849 97.0027 180.697 97.0027 180.394C97.0027 180.091 97.1544 179.788 97.4576 179.788C98.9739 179.636 101.703 179.181 102.461 178.575C102.765 178.423 103.068 178.423 103.22 178.575C103.371 178.878 103.371 179.181 103.22 179.333C102.158 180.394 98.2158 180.849 97.6093 180.849C97.7609 180.849 97.6093 180.849 97.6093 180.849Z" fill="#26192A"/>
<path d="M92.1505 186.004C91.8472 186.004 91.544 185.852 91.544 185.549C91.544 185.245 91.6956 184.942 91.9989 184.942C93.5151 184.791 96.2445 184.336 97.0026 183.729C97.3059 183.577 97.6091 183.577 97.7607 183.729C97.9124 184.032 97.9124 184.336 97.7607 184.487C96.6993 185.549 92.757 186.004 92.1505 186.004C92.3021 186.004 92.1505 186.004 92.1505 186.004Z" fill="#26192A"/>
<path d="M75.4713 183.275C73.8034 183.275 70.6192 181.91 70.316 181.759C70.0127 181.607 69.8611 181.304 70.0127 181C70.1643 180.697 70.4676 180.545 70.7708 180.697C72.1355 181.304 74.8648 182.365 75.6229 182.213C75.9262 182.213 76.2295 182.365 76.2295 182.668C76.2295 182.972 76.0778 183.275 75.7746 183.275C75.7746 183.275 75.6229 183.275 75.4713 183.275Z" fill="#26192A"/>
<path d="M76.3812 178.271C74.7133 178.271 71.5291 176.907 71.2259 176.755C70.9226 176.603 70.771 176.3 70.9226 175.997C71.0743 175.694 71.3775 175.542 71.6808 175.694C73.0454 176.3 75.7747 177.362 76.5329 177.21C76.8361 177.21 77.1394 177.362 77.1394 177.665C77.1394 177.968 76.9878 178.271 76.6845 178.271C76.6845 178.271 76.5329 178.271 76.3812 178.271Z" fill="#26192A"/>
<path d="M85.9333 188.885C85.7817 188.885 85.63 188.885 85.63 188.885C85.3268 188.885 85.0235 188.582 85.0235 188.279C85.0235 187.976 85.1751 187.672 85.63 187.672C87.1463 187.672 90.0273 187.521 90.7854 187.066C91.0887 186.914 91.3919 186.914 91.5435 187.218C91.6952 187.521 91.6952 187.824 91.3919 187.976C90.1789 188.885 86.9947 188.885 85.9333 188.885Z" fill="#26192A"/>
<path d="M58.4885 175.997C58.3369 175.997 58.3369 175.997 58.1853 175.845C56.8206 174.935 55.3043 171.296 55.1527 170.841C55.0011 170.538 55.1527 170.235 55.4559 170.083C55.7592 169.932 56.0625 170.083 56.2141 170.386C56.8206 171.903 58.0336 174.329 58.7918 174.784C59.095 174.935 59.095 175.239 58.9434 175.542C58.9434 175.997 58.7918 175.997 58.4885 175.997Z" fill="#26192A"/>
<path d="M183.127 194.95C182.824 194.95 182.521 194.647 182.521 194.343C182.672 192.827 182.672 189.946 182.217 189.188C182.066 188.885 182.217 188.582 182.369 188.43C182.672 188.278 182.975 188.43 183.127 188.582C183.885 189.946 183.734 193.889 183.582 194.343C183.582 194.647 183.43 194.95 183.127 194.95Z" fill="#26192A"/>
</svg>
