<svg width="273" height="315" viewBox="0 0 273 315" fill="none" xmlns="http://www.w3.org/2000/svg">
<path fill-rule="evenodd" clip-rule="evenodd" d="M116.404 30.4951C179.677 25.7619 245.834 55.0451 266.332 114.968C287.617 177.19 255.712 243.068 202.279 281.532C149.455 319.556 75.842 329.653 25.6669 288.21C-18.4412 251.778 3.70686 187.101 22.6867 133.194C39.6902 84.8999 65.2523 34.3215 116.404 30.4951Z" fill="#F39C12"/>
<path d="M102.922 136.236C102.922 136.236 76.6111 143.675 70.2745 141.884C63.8001 140.093 62.8358 107.997 46.3055 115.298C29.7752 122.736 36.9383 158.965 54.7084 169.297C72.4785 179.628 106.779 157.863 106.779 157.863L102.922 136.236Z" fill="#FCB82E"/>
<path d="M145.35 112.543C145.35 112.543 173.176 95.3243 204.583 126.181C236.129 157.038 210.093 191.476 186.951 195.608C186.951 195.471 134.329 150.839 145.35 112.543Z" fill="#F58A28"/>
<path d="M145.35 112.544C145.35 112.544 221.114 140.37 174.14 241.48L101.131 243.546C101.131 243.546 71.1011 182.109 114.355 115.574L145.35 112.544Z" fill="#FCB82E"/>
<path d="M105.264 215.308C105.264 215.308 81.7078 251.675 105.264 295.894H126.34C126.34 295.894 125.926 258.149 133.778 232.803L105.264 215.308Z" fill="#FCB82E"/>
<path d="M149.207 215.308C149.207 215.308 125.651 251.675 149.207 295.894H170.283C170.283 295.894 169.87 258.149 177.722 232.803L149.207 215.308Z" fill="#FCB82E"/>
<path d="M177.583 211.174C177.583 211.174 179.236 251.26 201.966 251.123C224.695 250.985 198.109 203.323 219.322 201.394C228.552 200.568 231.445 211.174 221.251 213.93C216.843 215.169 230.894 249.47 208.302 258.561C185.711 267.653 167.941 247.679 168.629 222.746C169.318 197.812 177.583 211.174 177.583 211.174Z" fill="#FCB82E"/>
<path d="M152.925 214.206C152.925 214.206 162.293 154.422 134.742 148.361C107.192 142.3 94.7938 199.605 112.977 220.819C131.023 241.895 150.308 228.257 152.925 214.206Z" fill="#FFFAF0"/>
<path d="M98.5136 255.119C98.2381 255.119 97.9625 254.843 97.9625 254.568C97.9625 254.155 98.238 250.573 99.0645 249.471C99.2023 249.195 99.6155 249.195 99.7533 249.333C100.029 249.471 100.029 249.884 99.8911 250.022C99.3401 250.711 99.0646 253.19 98.9268 254.568C99.0646 254.981 98.7891 255.119 98.5136 255.119Z" fill="#26192A"/>
<path d="M102.095 259.25C101.82 259.25 101.544 258.975 101.544 258.699C101.544 258.286 101.82 254.704 102.646 253.602C102.784 253.327 103.197 253.327 103.335 253.465C103.611 253.602 103.611 254.016 103.473 254.153C102.922 254.842 102.646 257.322 102.509 258.699C102.509 259.112 102.371 259.25 102.095 259.25Z" fill="#26192A"/>
<path d="M99.6151 264.9C99.3396 264.9 99.2018 264.762 99.064 264.486C98.9263 264.073 98.2376 260.492 98.7886 259.252C98.9263 258.976 99.2018 258.839 99.4774 258.976C99.7529 259.114 99.8905 259.39 99.7528 259.665C99.4773 260.354 99.7528 262.971 100.028 264.349C100.166 264.486 99.8906 264.762 99.6151 264.9Z" fill="#26192A"/>
<path d="M104.162 268.893C103.887 268.893 103.749 268.755 103.611 268.48C103.474 268.066 102.785 264.485 103.336 263.245C103.474 262.97 103.749 262.832 104.025 262.97C104.3 263.107 104.438 263.383 104.3 263.658C104.025 264.347 104.3 266.964 104.575 268.342C104.713 268.617 104.575 268.893 104.162 268.893C104.162 268.893 104.3 268.893 104.162 268.893Z" fill="#26192A"/>
<path d="M100.167 273.854C99.8915 273.854 99.7537 273.716 99.6159 273.44C99.4782 273.027 98.7894 269.446 99.3404 268.206C99.4781 267.93 99.7537 267.792 100.029 267.93C100.305 268.068 100.442 268.343 100.305 268.619C100.029 269.308 100.305 271.925 100.58 273.303C100.718 273.44 100.58 273.716 100.167 273.854C100.167 273.854 100.305 273.854 100.167 273.854Z" fill="#26192A"/>
<path d="M104.162 277.434C103.887 277.434 103.749 277.297 103.611 277.021C103.474 276.608 102.785 273.026 103.336 271.786C103.474 271.511 103.749 271.373 104.025 271.511C104.3 271.649 104.438 271.924 104.3 272.2C104.025 272.888 104.3 275.506 104.575 276.883C104.713 277.021 104.575 277.297 104.162 277.434C104.162 277.434 104.3 277.434 104.162 277.434Z" fill="#26192A"/>
<path d="M103.335 283.082C103.197 283.082 102.922 282.944 102.922 282.807C102.784 282.393 101.269 279.087 101.544 277.71C101.544 277.434 101.82 277.297 102.095 277.297C102.371 277.297 102.508 277.572 102.508 277.848C102.371 278.674 103.197 281.016 103.748 282.256C103.886 282.531 103.748 282.807 103.473 282.944C103.473 283.082 103.335 283.082 103.335 283.082Z" fill="#26192A"/>
<path d="M142.869 254.154C142.594 254.154 142.318 253.878 142.318 253.602C142.318 253.189 142.594 249.608 143.42 248.506C143.558 248.23 143.971 248.23 144.109 248.368C144.385 248.506 144.385 248.919 144.247 249.057C143.696 249.745 143.42 252.225 143.283 253.602C143.42 253.878 143.145 254.154 142.869 254.154Z" fill="#26192A"/>
<path d="M146.451 258.287C146.176 258.287 145.9 258.012 145.9 257.736C145.9 257.323 146.176 253.741 147.002 252.639C147.14 252.364 147.553 252.364 147.691 252.501C147.967 252.639 147.967 253.052 147.829 253.19C147.278 253.879 147.002 256.359 146.864 257.736C146.864 258.012 146.727 258.287 146.451 258.287Z" fill="#26192A"/>
<path d="M143.972 263.796C143.697 263.796 143.559 263.658 143.421 263.383C143.283 262.97 142.595 259.388 143.146 258.148C143.283 257.873 143.559 257.735 143.834 257.873C144.11 258.01 144.248 258.286 144.11 258.562C143.834 259.25 144.11 261.868 144.385 263.245C144.523 263.521 144.248 263.796 143.972 263.796Z" fill="#26192A"/>
<path d="M148.518 267.791C148.243 267.791 148.105 267.654 147.967 267.378C147.829 266.965 147.141 263.383 147.692 262.144C147.829 261.868 148.105 261.73 148.38 261.868C148.656 262.006 148.794 262.281 148.656 262.557C148.38 263.246 148.656 265.863 148.931 267.24C149.069 267.516 148.931 267.791 148.518 267.791C148.518 267.791 148.656 267.791 148.518 267.791Z" fill="#26192A"/>
<path d="M144.523 272.75C144.247 272.75 144.11 272.612 143.972 272.337C143.834 271.923 143.145 268.342 143.696 267.102C143.834 266.827 144.11 266.689 144.385 266.827C144.661 266.964 144.798 267.24 144.661 267.515C144.385 268.204 144.661 270.821 144.936 272.199C145.074 272.474 144.936 272.75 144.523 272.75C144.523 272.75 144.661 272.75 144.523 272.75Z" fill="#26192A"/>
<path d="M148.518 276.333C148.243 276.333 148.105 276.195 147.967 275.92C147.829 275.506 147.141 271.925 147.692 270.685C147.829 270.409 148.105 270.272 148.38 270.409C148.656 270.547 148.794 270.823 148.656 271.098C148.38 271.787 148.656 274.404 148.931 275.782C149.069 276.057 148.931 276.333 148.518 276.333C148.518 276.333 148.656 276.333 148.518 276.333Z" fill="#26192A"/>
<path d="M147.691 281.981C147.553 281.981 147.278 281.843 147.278 281.705C147.14 281.292 145.625 277.986 145.9 276.608C145.9 276.333 146.176 276.195 146.451 276.195C146.727 276.195 146.864 276.471 146.864 276.746C146.727 277.573 147.553 279.914 148.104 281.154C148.242 281.43 148.104 281.705 147.829 281.843C147.829 281.981 147.691 281.981 147.691 281.981Z" fill="#26192A"/>
<path d="M170.972 133.62C170.972 133.62 166.013 177.701 191.635 187.344L188.604 195.058C188.604 195.058 167.115 187.481 163.258 164.339C160.916 150.701 164.911 133.62 164.911 133.62C164.911 133.62 168.906 131.554 170.972 133.62Z" fill="#F58A28"/>
<path d="M169.732 129.074C169.732 129.074 215.603 122.324 217.67 159.104C219.323 186.517 167.114 181.145 161.053 168.196C154.992 155.247 161.467 147.395 167.39 146.431C173.313 145.467 201.828 156.211 200.037 148.911C198.384 141.61 174.002 145.604 174.002 145.604L169.732 129.074Z" fill="#FCB82E"/>
<path d="M163.808 169.712C163.808 169.712 163.671 169.712 163.808 169.712C163.257 169.574 152.375 167.232 153.477 162.135C153.615 161.171 154.166 160.482 154.992 160.069C155.543 159.793 156.094 159.656 156.783 159.656C154.028 158.003 151.686 155.936 151.962 153.457C152.1 152.63 152.513 152.079 153.202 151.666C154.992 150.702 158.298 151.528 161.329 152.492C159.263 150.977 157.472 149.324 157.196 147.947C157.059 147.396 157.334 146.845 157.747 146.431C160.64 143.676 170.145 150.288 171.109 150.977C171.385 151.115 171.385 151.528 171.247 151.666C171.109 151.941 170.696 151.941 170.558 151.804C166.839 149.186 160.227 145.467 158.436 147.12C158.298 147.258 158.161 147.533 158.161 147.809C158.436 149.737 163.809 153.181 167.115 154.972C167.39 155.11 167.528 155.385 167.39 155.661C167.252 155.936 166.977 156.074 166.701 155.936C163.946 154.559 156.232 151.39 153.753 152.63C153.339 152.906 153.064 153.181 153.064 153.594C152.651 156.074 156.645 158.554 160.089 160.207C162.156 160.758 163.809 161.722 163.946 161.722C164.222 161.86 164.222 162.135 164.222 162.411C164.084 162.686 163.809 162.824 163.533 162.686C163.395 162.686 161.742 162.135 159.676 161.171C158.023 160.758 156.37 160.482 155.406 160.895C154.855 161.171 154.579 161.584 154.441 162.273C153.753 165.579 161.053 167.921 163.946 168.61C164.222 168.61 164.36 168.885 164.36 169.161C164.222 169.574 164.084 169.712 163.808 169.712Z" fill="#26192A"/>
<path d="M105.126 131.555C105.126 131.555 77.5752 153.733 90.9372 194.095C90.9372 194.095 91.6259 155.524 105.126 131.555Z" fill="#F58A28"/>
<path d="M40.7947 123.702C40.5192 123.702 40.3815 123.564 40.2437 123.288C39.9682 121.911 37.3509 109.926 39.555 107.585C39.9682 107.171 40.3815 107.034 40.9325 107.171C42.7233 107.447 44.1008 109.789 44.9273 112.268C44.9273 109.789 45.2028 107.447 46.3048 106.62C46.5803 106.345 47.1313 106.069 47.9578 106.483C50.1619 107.309 51.6771 110.891 52.5037 113.921C52.6414 110.753 52.9169 107.171 54.2944 106.345C54.5699 106.207 55.121 106.069 55.8098 106.483C59.1158 108.549 58.9781 120.947 58.9781 122.324C58.9781 122.6 58.7025 122.875 58.427 122.875C58.1515 122.875 57.8761 122.6 57.8761 122.324C57.8761 118.605 57.4628 108.824 55.121 107.309C54.8455 107.171 54.7078 107.171 54.7078 107.171C53.468 107.86 53.3302 114.197 53.468 118.467C53.468 118.743 53.3302 119.018 53.0547 119.018C52.7792 119.018 52.5037 118.88 52.5037 118.605C52.0904 115.85 50.1619 108.549 47.5446 107.447C47.1313 107.309 46.9936 107.447 46.8558 107.447C45.4783 108.549 45.7538 114.886 46.3048 118.605C46.3048 118.88 46.1671 119.156 45.8916 119.156C45.616 119.156 45.3405 119.018 45.3405 118.743C44.9272 115.988 43.412 108.687 40.7947 108.273C40.6569 108.273 40.5192 108.273 40.3814 108.411C39.0039 109.926 40.2437 118.192 41.3457 123.151C41.3457 123.426 41.0702 123.702 40.7947 123.702Z" fill="#26192A"/>
<path d="M115.733 303.194C115.182 303.194 114.631 303.056 114.08 302.919C113.116 302.505 112.702 301.954 112.565 301.403C110.636 302.505 108.57 303.194 106.641 302.781C105.539 302.505 105.126 301.954 104.988 301.403C104.851 300.577 105.402 299.475 106.228 298.373C103.886 299.612 101.544 300.439 100.305 299.475C99.4782 298.924 99.3404 298.235 99.3404 297.684C99.4781 295.48 103.198 293 103.611 292.725C103.886 292.587 104.162 292.587 104.3 292.863C104.437 293.138 104.437 293.414 104.162 293.551C103.197 294.24 100.442 296.306 100.442 297.684C100.442 297.959 100.442 298.235 100.993 298.648C102.371 299.75 106.504 297.271 109.81 294.791C110.912 293.827 112.014 293 112.427 292.725C112.702 292.587 112.978 292.587 113.116 292.863C113.253 293.138 113.253 293.414 113.116 293.551C112.84 293.827 111.876 294.653 110.636 295.48C108.157 297.546 105.953 300.026 106.09 301.128C106.09 301.403 106.366 301.541 106.917 301.679C108.708 302.092 110.912 301.128 112.84 299.888C113.804 297.684 117.799 295.618 118.35 295.342C118.626 295.204 118.901 295.342 119.039 295.48C119.177 295.618 119.177 295.893 119.039 296.169C118.901 296.306 116.56 298.786 113.667 300.714C113.667 300.852 113.667 300.852 113.667 300.99C113.667 301.128 113.667 301.541 114.631 301.954C117.799 303.47 123.998 297.822 126.064 295.618C126.202 295.342 126.615 295.342 126.753 295.618C127.029 295.755 127.029 296.169 126.753 296.306C126.34 296.582 120.279 303.194 115.733 303.194Z" fill="#26192A"/>
<path d="M160.778 303.194C160.227 303.194 159.676 303.056 159.125 302.919C158.161 302.505 157.747 301.954 157.609 301.403C155.681 302.505 153.615 303.194 151.686 302.781C150.584 302.505 150.171 301.954 150.033 301.403C149.895 300.577 150.446 299.475 151.273 298.373C148.931 299.612 146.589 300.439 145.35 299.475C144.523 298.924 144.385 298.235 144.385 297.684C144.523 295.48 148.242 293 148.656 292.725C148.931 292.587 149.207 292.587 149.344 292.863C149.482 293.138 149.482 293.414 149.207 293.551C148.242 294.24 145.487 296.306 145.487 297.684C145.487 297.959 145.487 298.235 146.038 298.648C147.416 299.75 151.548 297.271 154.854 294.791C155.956 293.827 157.059 293 157.472 292.725C157.747 292.587 158.023 292.587 158.161 292.863C158.298 293.138 158.298 293.414 158.161 293.551C157.885 293.827 156.921 294.653 155.681 295.48C153.201 297.546 150.997 300.026 151.135 301.128C151.135 301.403 151.411 301.541 151.962 301.679C153.752 302.092 155.956 301.128 157.885 299.888C158.849 297.684 162.844 295.618 163.395 295.342C163.671 295.204 163.946 295.342 164.084 295.48C164.222 295.618 164.222 295.893 164.084 296.169C163.946 296.306 161.604 298.786 158.712 300.714C158.712 300.852 158.712 300.852 158.712 300.99C158.712 301.128 158.712 301.541 159.676 301.954C162.982 303.47 169.043 297.822 171.109 295.618C171.247 295.342 171.66 295.342 171.798 295.618C172.074 295.755 172.074 296.169 171.798 296.306C171.523 296.582 165.324 303.194 160.778 303.194Z" fill="#26192A"/>
<path d="M209.818 207.455C209.818 207.455 205.823 194.368 214.777 194.781C223.731 195.195 225.109 203.735 219.323 201.394C213.537 199.19 222.354 190.373 228.001 195.608C233.787 200.843 235.578 208.143 228.69 207.868C221.803 207.592 225.522 203.184 230.481 206.077C235.44 208.97 234.2 215.031 227.175 217.511C220.149 219.99 218.221 212.965 222.078 213.791C225.935 214.756 229.379 221.092 221.527 221.781C213.675 222.47 209.956 214.205 214.502 213.929C219.047 213.791 218.083 219.852 212.022 220.403C205.961 220.954 202.104 204.149 207.476 202.771C212.986 201.669 214.226 209.383 209.818 207.455Z" fill="#FFFAF0"/>
<path d="M220.563 222.469C218.359 222.469 216.293 221.78 214.64 220.541C213.813 220.816 212.987 221.092 212.16 221.229C208.303 221.643 205.272 215.857 204.584 210.347C204.033 206.077 205.135 203.184 207.476 202.633C207.752 202.495 208.165 202.495 208.441 202.495C208.303 199.602 208.854 197.398 210.094 196.021C211.196 194.781 212.711 194.23 214.777 194.368C216.43 194.505 217.946 194.781 219.185 195.332C220.563 194.23 222.354 193.541 224.007 193.541C225.66 193.541 227.175 194.092 228.415 195.332C231.859 198.362 233.925 202.22 233.649 204.975C233.649 205.939 233.236 206.765 232.685 207.454C233.787 208.832 234.201 210.485 233.787 212.138C233.236 214.755 230.757 216.959 227.175 218.199C226.9 218.337 226.762 218.337 226.624 218.337C226.762 219.163 226.486 219.852 226.073 220.541C225.247 221.643 223.731 222.331 221.527 222.469C221.114 222.469 220.838 222.469 220.563 222.469ZM215.604 219.852C217.257 220.954 219.185 221.505 221.39 221.367C223.318 221.229 224.696 220.678 225.247 219.852C225.522 219.439 225.66 219.025 225.66 218.474C223.18 218.888 220.976 218.061 220.012 216.408C219.599 215.582 219.461 214.755 219.874 214.066C220.287 213.378 221.114 213.102 222.216 213.378C224.007 213.791 225.798 215.444 226.486 217.235C226.624 217.235 226.9 217.097 227.037 217.097C230.206 215.995 232.41 214.066 232.961 211.724C233.236 210.347 232.961 208.969 231.996 207.867C231.308 208.281 230.343 208.418 229.241 208.418H228.828C224.833 208.281 224.558 206.765 224.558 206.352C224.558 205.388 225.798 204.561 227.451 204.561C228.277 204.561 229.517 204.699 230.894 205.526C231.308 205.801 231.721 206.077 232.134 206.352C232.547 205.939 232.823 205.388 232.823 204.561C232.961 202.082 231.032 198.638 227.864 195.745C226.762 194.781 225.522 194.23 224.145 194.23C222.905 194.23 221.527 194.643 220.425 195.47C222.767 196.985 223.731 199.051 223.456 200.429C223.18 201.944 221.527 202.357 219.323 201.531C217.808 200.98 217.257 199.878 217.119 199.189C216.981 198.087 217.395 196.709 218.497 195.607C217.395 195.194 216.155 194.919 214.915 194.919C213.262 194.781 211.885 195.332 211.058 196.158C209.681 197.536 209.543 200.015 209.681 201.944C212.022 202.22 213.262 204.424 213.262 205.939C213.262 207.592 211.747 208.418 209.818 207.592C209.681 207.592 209.543 207.454 209.543 207.316C209.543 207.179 208.992 205.388 208.716 203.046C208.441 203.046 208.165 203.046 207.89 203.184C205.823 203.735 205.41 206.903 205.823 209.796C206.374 214.755 209.13 220.127 212.16 219.714C212.849 219.714 213.4 219.576 213.951 219.301C212.573 217.786 211.885 215.995 212.298 214.755C212.436 214.204 212.987 213.24 214.64 213.24H214.915C216.568 213.24 217.67 214.066 218.083 215.306C218.083 217.097 217.257 218.75 215.604 219.852ZM214.64 214.617H214.502C213.675 214.617 213.262 214.893 213.124 215.444C212.849 216.27 213.4 217.923 214.777 219.301C216.43 218.337 216.981 216.959 216.844 215.995C216.568 215.031 215.742 214.617 214.64 214.617ZM221.252 214.342C220.976 214.342 220.701 214.48 220.563 214.617C220.425 214.893 220.425 215.444 220.701 215.857C220.976 216.27 221.803 217.51 224.145 217.51C224.558 217.51 224.833 217.51 225.247 217.372C224.696 215.995 223.18 214.755 221.803 214.342C221.665 214.342 221.389 214.342 221.252 214.342ZM227.175 205.663C225.935 205.663 225.384 206.077 225.384 206.352C225.384 206.628 226.211 207.316 228.69 207.316H228.966C229.792 207.316 230.481 207.179 231.032 207.041C230.757 206.903 230.481 206.628 230.206 206.49C228.828 205.801 227.864 205.663 227.175 205.663ZM210.231 207.041C210.507 207.179 210.92 207.179 211.058 207.179C211.747 207.179 212.022 206.628 212.022 206.214C212.022 205.112 211.196 203.735 209.543 203.322C209.68 205.112 210.094 206.628 210.231 207.041ZM219.323 196.434C218.359 197.398 217.808 198.5 217.946 199.327C218.083 200.015 218.634 200.566 219.461 200.842C220.976 201.393 221.94 201.255 222.216 200.429C222.354 199.464 221.39 197.674 219.323 196.434Z" fill="#26192A"/>
<path d="M79.917 27.1356C79.917 27.1356 82.8097 7.02369 101.682 7.71245C113.115 8.12571 109.396 25.207 104.299 20.799C99.2023 16.3909 113.942 -8.12911 130.197 3.99313C145.212 15.1511 137.084 22.3142 133.365 20.9367C129.646 19.5592 136.258 -0.828218 149.758 1.78908C168.905 5.64616 167.528 25.207 159.125 26.9978C150.722 28.7886 163.946 5.2329 178.135 11.9828C192.323 18.7327 191.083 33.61 183.645 34.8497C176.206 36.0895 188.328 11.5695 202.792 23.003C217.256 34.4365 215.879 57.3034 202.792 59.0942C189.706 60.885 192.599 47.9363 206.649 54.9616C220.838 61.987 214.777 85.405 199.624 85.6805C184.471 85.956 191.083 73.5583 199.9 80.9969C208.716 88.4356 212.711 109.512 194.527 112.405C176.344 115.297 178.961 97.9405 188.742 106.068C198.522 114.195 194.527 131.552 172.625 135.685C150.722 139.68 162.844 115.297 166.563 122.323C170.283 129.348 158.712 139.817 144.248 138.991C129.783 138.164 133.09 119.705 137.773 122.323C142.594 124.94 146.176 144.088 125.513 138.991C104.85 133.894 100.442 117.501 107.467 119.568C114.631 121.634 117.799 139.266 99.0645 135.685C80.3302 132.103 75.0956 104.139 85.2893 104.553C95.483 104.966 89.0086 126.18 77.1619 121.772C65.3152 117.364 59.254 98.216 71.6518 92.1549C84.0495 86.0938 69.31 110.2 58.8408 97.8027C48.3716 85.405 60.4938 62.6758 68.3457 69.0124C76.0598 75.4868 57.1877 79.0684 54.8459 67.6349C52.5041 56.2014 59.1162 38.2936 69.4477 41.0486C79.7791 43.8037 78.1262 48.3495 73.3048 50.0025C65.5907 52.8954 63.3866 29.8906 70.963 22.8653C79.9169 14.7378 91.6259 18.7327 89.4218 26.8601C87.2178 34.9875 77.9884 30.9927 79.917 27.1356Z" fill="#FFFAF0"/>
<path d="M131.988 140.37C130.059 140.37 127.993 140.095 125.651 139.544C120.417 138.304 116.009 136.237 112.289 133.482C111.049 134.998 108.57 136.788 104.024 136.788C102.647 136.788 100.993 136.651 99.3405 136.375C92.3151 134.998 86.3917 130.176 82.8101 122.875C81.0193 123.289 79.2286 123.151 77.4378 122.462C69.7237 119.569 63.938 110.064 64.9023 101.937C62.6982 101.524 60.7697 100.284 58.9789 98.2177C52.9178 91.0546 54.0199 80.4476 58.1524 73.4222C56.3617 72.0447 55.2596 70.1161 54.7086 67.7744C53.1933 60.4735 55.1218 51.1063 59.3922 45.3207C61.4585 42.5656 63.8003 40.7748 66.4176 40.3616C65.8666 34.3004 67.1064 26.3108 71.2389 22.5914C74.545 19.5609 78.402 17.9079 82.1214 17.9079C82.3969 17.9079 82.5346 17.9079 82.8101 17.9079C85.7029 12.6732 91.3508 6.74988 101.958 7.02539C103.886 7.02539 105.402 7.5764 106.779 8.54067C110.636 3.16831 116.009 0 121.381 0C124.687 0 127.855 1.10202 130.886 3.44382C132.952 4.9591 134.605 6.47438 135.983 7.98966C137.911 5.09685 141.906 0.964268 147.692 0.964268C148.518 0.964268 149.345 1.10202 150.171 1.23977C157.748 2.75505 163.12 6.88764 165.049 12.811C169.457 9.9182 174.278 9.36719 178.686 11.4335C183.507 13.7753 187.089 17.2191 188.88 21.3517C193.563 18.4589 198.798 18.8721 203.482 22.5914C209.68 27.5505 213.675 35.1269 214.088 42.8411C214.364 48.2135 212.849 53.0348 209.956 56.0654C214.364 59.5092 216.43 65.2948 215.328 71.4937C214.226 77.9681 210.094 83.3404 204.584 85.2689C207.752 90.5035 209.68 98.3555 206.925 104.554C204.859 109.1 200.864 111.855 195.079 112.819C194.803 112.819 194.665 112.957 194.39 112.957C195.354 116.814 194.803 120.947 192.461 124.528C189.018 130.314 182.13 134.309 173.176 135.962C171.523 136.237 170.008 136.375 168.63 136.375C165.737 136.375 163.533 135.686 162.018 134.447C157.748 137.477 152.1 139.268 146.314 139.268C145.763 139.268 145.212 139.268 144.661 139.268C142.733 139.13 140.942 138.717 139.427 137.89C137.36 139.681 135.018 140.37 131.988 140.37ZM112.84 132.656C116.422 135.273 120.83 137.339 125.927 138.579C131.437 139.957 135.707 139.681 138.324 137.753C133.641 134.722 133.09 128.799 133.916 125.355C134.467 123.013 135.707 121.636 137.222 121.636C137.636 121.636 138.049 121.773 138.462 121.911C140.391 122.875 141.906 126.044 142.319 129.35C142.595 131.278 142.595 134.722 140.115 137.339C141.355 137.89 142.87 138.304 144.661 138.441C145.212 138.441 145.763 138.441 146.314 138.441C151.687 138.441 157.059 136.788 161.191 133.896C159.125 131.416 159.538 127.697 160.64 125.079C161.605 122.738 163.395 120.534 165.186 120.534C165.875 120.534 166.702 120.809 167.39 122.049C169.319 125.63 167.528 130.314 162.845 134.033C164.222 135.135 166.151 135.549 168.63 135.549C170.008 135.549 171.385 135.411 173.038 135.135C181.717 133.482 188.329 129.625 191.635 124.115C193.701 120.671 194.39 116.677 193.288 113.095C192.461 113.233 191.773 113.233 191.084 113.233C184.747 113.233 182.405 110.34 181.717 109.238C180.89 107.86 180.752 106.207 181.441 104.968C181.992 104.003 183.094 103.315 184.334 103.315C185.849 103.315 187.64 104.141 189.431 105.656C191.497 107.447 193.012 109.513 193.977 111.993C194.252 111.993 194.528 111.855 194.803 111.855C200.175 111.029 204.033 108.411 205.961 104.141C208.578 98.2177 206.788 90.6413 203.619 85.5444C202.517 85.82 201.278 86.0955 200.038 86.0955H199.487C193.563 86.0955 191.635 84.1669 190.946 83.0649C190.395 82.1006 190.395 80.9986 190.946 80.0343C191.635 78.7946 193.15 78.1058 194.803 78.1058C196.181 78.1058 198.247 78.5191 200.589 80.5854C201.829 81.6874 202.931 82.9272 204.033 84.4424C209.267 82.6516 213.262 77.5548 214.226 71.3559C215.191 65.4326 213.262 60.0602 209.129 56.7541C207.476 58.2694 205.41 59.2337 203.206 59.5092C198.936 60.0602 195.767 59.2337 194.528 57.1674C193.977 56.2031 193.977 55.2388 194.528 54.4123C195.354 53.0348 197.145 52.2083 199.487 52.2083C201.691 52.2083 204.446 52.8971 207.339 54.4123C208.027 54.6878 208.578 55.1011 209.129 55.5144C211.884 52.6215 213.262 48.0757 212.986 42.9789C212.573 35.4025 208.854 28.1016 202.793 23.418C198.385 19.8364 193.563 19.5609 189.155 22.3159C190.257 25.7598 190.12 29.3413 188.604 31.8209C187.502 33.6117 185.987 34.8514 184.058 35.2647C183.783 35.2647 183.645 35.2647 183.37 35.2647C182.268 35.2647 181.579 34.7137 181.303 33.7494C180.477 31.1321 183.37 25.2088 187.915 21.9027C186.4 17.9079 182.956 14.464 178.273 12.26C174.14 10.3315 169.594 10.8825 165.462 13.7753C166.426 17.3568 166.013 21.0762 164.36 23.8312C163.258 25.7598 161.605 26.9995 159.676 27.4128C158.023 27.8261 156.921 27.275 156.508 26.0353C155.681 23.418 158.85 17.2191 164.222 13.362C162.431 7.71415 157.334 3.58157 150.033 2.20404C149.207 2.06629 148.518 1.92854 147.692 1.92854C142.182 1.92854 138.462 6.06112 136.672 8.67842C140.529 13.362 139.978 16.6681 139.151 18.3211C138.325 20.1119 136.396 21.4894 134.605 21.4894C134.192 21.4894 133.779 21.4894 133.503 21.3517C133.09 21.2139 132.677 20.9384 132.401 20.1119C131.575 17.7701 132.952 12.9488 135.432 8.95393C134.054 7.43865 132.401 5.92337 130.197 4.27034C127.304 2.06629 124.274 1.10202 121.243 1.10202C116.284 1.10202 111.187 4.13258 107.468 9.36718C110.085 11.9845 110.361 16.2548 109.259 19.1476C108.57 20.9384 107.468 22.0404 106.09 22.0404C105.402 22.0404 104.713 21.7649 104.162 21.2139C101.958 19.2854 102.784 14.464 106.09 9.50494C104.988 8.67842 103.611 8.26516 101.82 8.12741C92.0395 7.71415 86.6672 13.2243 83.7744 18.0456C86.254 18.4589 88.3203 19.5609 89.56 21.2139C90.6621 22.867 90.9375 24.7955 90.3865 26.9995C89.1468 31.5454 85.8407 32.0964 84.4632 32.0964C82.5346 32.0964 80.6061 31.1321 79.7796 29.7546C79.2285 28.7903 79.0908 27.826 79.6418 26.8618C79.7796 26.3108 80.3306 22.867 82.2592 18.8721H82.1214C78.5398 18.8721 74.9583 20.3874 71.9277 23.2802C68.0706 26.8618 66.9686 34.4382 67.5196 40.2238C68.3461 40.2238 69.3103 40.2238 70.1369 40.4993C76.6112 42.1523 78.1266 44.4941 78.1266 46.1472C78.2643 47.938 76.6113 49.591 73.994 50.5552C73.443 50.693 73.0297 50.8308 72.4787 50.8308C69.4481 50.8308 67.2441 47.2492 66.4176 41.4636C64.0758 41.8768 62.0095 43.3921 60.0809 46.0094C56.0861 51.3818 54.1575 60.749 55.6728 67.6366C56.0861 69.7029 57.0504 71.3559 58.5657 72.5957C60.632 69.4274 63.2493 67.4988 65.7288 67.4988C66.8309 67.4988 67.9328 67.9121 69.0349 68.7386C71.2389 70.5294 71.2389 72.0447 70.9634 72.8712C70.4124 74.5242 67.9329 75.6263 65.0401 75.6263C62.836 75.6263 60.7697 75.0752 58.9789 73.9732C54.9841 80.7231 54.0198 90.7791 59.6677 97.5289C61.183 99.4575 62.9737 100.56 64.9023 100.835C65.591 96.7024 68.0706 93.6719 71.7899 91.7433C73.1674 91.0546 74.4072 90.6413 75.2337 90.6413C76.4735 90.6413 77.3 91.3301 77.3 92.5698C77.3 95.6004 72.2032 101.937 66.1421 101.937C66.0043 101.937 65.8666 101.937 65.7288 101.937C64.9023 109.651 70.2746 118.743 77.5755 121.36C79.0908 121.911 80.7439 122.049 82.2592 121.773C79.6419 115.85 79.2286 109.513 81.2949 106.345C82.2592 104.83 83.6366 104.141 85.2897 104.141H85.5652C88.5957 104.279 90.5243 106.207 90.9376 109.376C91.4886 114.059 88.5958 120.534 83.6367 122.462C87.0805 129.35 92.7283 134.033 99.3405 135.273C104.988 136.375 109.259 135.549 111.325 132.931C105.677 128.523 103.335 123.289 104.162 120.671C104.575 119.294 105.953 118.743 107.743 119.156C109.947 119.845 112.014 121.911 112.978 124.804C114.218 127.559 114.08 130.452 112.84 132.656ZM137.085 122.6C136.12 122.6 135.294 123.702 134.743 125.631C133.916 128.799 134.467 134.309 139.013 137.064C141.355 134.722 141.355 131.416 141.08 129.625C140.666 126.595 139.289 123.702 137.774 122.875C137.498 122.738 137.36 122.6 137.085 122.6ZM165.049 121.636C163.947 121.636 162.431 123.289 161.467 125.631C160.503 128.11 160.089 131.278 161.88 133.482C166.288 130.039 167.941 125.906 166.288 122.738C166.013 121.911 165.462 121.636 165.049 121.636ZM106.641 119.983C105.953 119.983 105.402 120.258 105.264 120.947C104.575 122.875 106.366 127.559 112.014 132.105C113.116 130.176 113.116 127.697 112.289 125.217C111.325 122.738 109.672 120.809 107.743 120.258C107.192 119.983 106.917 119.983 106.641 119.983ZM85.2897 105.105C83.9121 105.105 82.8101 105.656 82.1214 106.896C80.1928 109.927 80.7438 115.85 83.2234 121.498C87.7692 119.707 90.5243 113.922 89.9733 109.513C89.8355 107.998 88.8712 105.243 85.5652 105.105H85.2897ZM184.196 104.554C183.232 104.554 182.543 104.968 182.13 105.656C181.579 106.483 181.717 107.723 182.405 108.825C182.956 109.927 185.023 112.406 190.808 112.406C191.359 112.406 192.048 112.406 192.737 112.268C191.91 110.064 190.533 108.136 188.604 106.621C186.676 104.83 185.16 104.554 184.196 104.554ZM65.8666 100.973C66.0043 100.973 66.0043 100.973 66.1421 100.973C71.3767 100.973 76.198 95.3249 76.198 92.7076C76.198 92.1566 75.9225 91.8811 75.2337 91.8811C74.6827 91.8811 73.8562 92.0188 72.2031 92.8453C68.7593 94.3606 66.5553 97.2534 65.8666 100.973ZM194.665 79.3456C193.288 79.3456 192.186 79.8966 191.635 80.8609C191.222 81.5496 191.222 82.2384 191.635 82.9272C192.048 83.7537 193.701 85.4067 199.349 85.4067H199.9C200.864 85.4067 201.966 85.2689 202.931 84.9934C201.966 83.6159 201.002 82.5139 199.9 81.5496C197.558 79.6211 195.767 79.3456 194.665 79.3456ZM59.3922 73.0089C60.9074 73.9732 62.836 74.5242 64.9023 74.5242C67.3818 74.5242 69.4482 73.6977 69.8614 72.4579C70.2747 71.3559 69.1726 70.2539 68.3461 69.4274C67.5196 68.7386 66.6931 68.4631 65.7288 68.4631C63.6625 68.4631 61.3207 70.1161 59.3922 73.0089ZM199.349 53.4481C197.42 53.4481 195.905 53.9991 195.354 55.1011C195.079 55.6521 195.079 56.3409 195.354 56.8919C196.318 58.5449 199.211 59.2337 202.931 58.6827C204.859 58.4072 206.65 57.5806 208.165 56.3409C207.752 56.0654 207.201 55.7899 206.65 55.5144C203.895 54.1368 201.415 53.4481 199.349 53.4481ZM67.3818 41.3258C68.0706 46.5604 69.9992 49.8665 72.341 49.8665C72.7542 49.8665 73.0297 49.7287 73.443 49.591C75.647 48.7645 76.8868 47.5247 76.8868 46.1472C76.749 44.3564 74.1317 42.7033 69.5859 41.4636C68.8971 41.3258 68.2083 41.3258 67.3818 41.3258ZM188.191 23.1425C183.921 26.4485 181.579 31.6831 182.268 33.7494C182.405 34.3004 182.819 34.5759 183.37 34.5759C183.507 34.5759 183.645 34.5759 183.783 34.5759C185.436 34.3004 186.814 33.3362 187.64 31.6831C188.88 29.3413 189.017 26.173 188.191 23.1425ZM83.2234 19.0099C81.0193 23.1425 80.4683 27.1373 80.4683 27.1373V27.275C80.0551 28.1016 80.3306 28.7903 80.6061 29.2036C81.2949 30.3056 82.8101 31.1321 84.4632 31.1321C86.805 31.1321 88.5957 29.6168 89.4222 26.8618C89.9733 25.071 89.6977 23.418 88.7335 22.0404C87.6315 20.3874 85.5652 19.2854 83.2234 19.0099ZM164.36 14.6018C159.401 18.3211 156.783 23.969 157.334 25.8975C157.472 26.173 157.61 26.5863 158.436 26.5863C158.712 26.5863 158.85 26.5863 159.125 26.4485C160.778 26.0353 162.156 25.071 163.12 23.418C164.635 21.0762 165.049 17.7701 164.36 14.6018ZM106.779 10.1937C104.024 14.464 103.06 19.0099 104.713 20.3874C105.126 20.8007 105.539 20.9384 105.953 20.9384C106.779 20.9384 107.606 20.1119 108.157 18.7344C109.121 16.2548 108.983 12.3977 106.779 10.1937ZM135.845 9.78044C133.365 13.7753 132.539 18.0456 133.09 19.6986C133.228 20.1119 133.365 20.2497 133.641 20.3874C134.881 20.8007 137.085 20.1119 138.049 18.0456C138.738 16.6681 139.151 13.913 135.845 9.78044Z" fill="#26192A"/>
<path d="M127.718 119.017C165.186 123.838 185.574 60.7474 180.615 36.6406C175.793 12.6717 161.605 56.8903 161.605 56.8903L112.152 46.9721C112.152 46.9721 114.356 20.1103 106.09 22.0388C97.9631 23.9674 68.7595 111.44 127.718 119.017Z" fill="#FCB82E"/>
<path d="M136.809 89.8131L119.176 86.3693C118.901 86.3693 118.763 86.0938 118.763 85.8183L122.758 50.5536C122.758 50.2781 123.033 50.0026 123.309 50.1404C123.584 50.1404 123.86 50.4159 123.722 50.6914L119.727 85.5428L136.257 88.7111L144.523 53.9974C144.523 53.7219 144.798 53.5842 145.211 53.5842C145.487 53.5842 145.625 53.9974 145.625 54.2729L137.222 89.5376C137.222 89.6754 137.084 89.8131 136.809 89.8131Z" fill="#26192A"/>
<path d="M116.559 84.8546L140.39 88.5739C140.39 88.5739 135.844 98.4921 126.615 98.0789C118.763 97.6656 116.559 84.8546 116.559 84.8546Z" fill="#26192A"/>
<path d="M153.668 72.2826C153.806 72.2826 154.081 72.2826 154.357 72.5581C156.148 74.0734 156.699 82.3386 156.836 83.9916C156.836 84.2671 156.699 84.5426 156.285 84.5426C156.01 84.5426 155.734 84.4049 155.734 83.9916C155.321 78.3438 154.357 73.3846 153.53 73.2469C152.704 73.3846 151.602 78.8948 151.051 85.0936C151.051 85.3691 150.775 85.6446 150.5 85.5069C150.224 85.5069 149.949 85.2314 150.087 84.9559C150.5 81.2366 151.464 72.4204 153.668 72.2826Z" fill="#26192A"/>
<path d="M113.168 64.4317C113.444 64.4317 113.719 64.5694 113.857 64.7072C115.372 66.2225 114.546 74.7631 114.27 76.4162C114.27 76.6917 113.995 76.9672 113.719 76.8294C113.444 76.8294 113.168 76.5539 113.306 76.2784C113.857 70.7683 113.857 65.8092 113.168 65.3959C112.204 65.5337 109.174 70.906 106.97 76.0029C106.832 76.2784 106.556 76.4162 106.281 76.2784C106.005 76.1407 105.868 75.8651 106.005 75.5896C107.245 72.9723 110.964 64.5694 113.168 64.4317Z" fill="#26192A"/>
<path d="M124.962 109.79C124.824 109.79 124.824 109.79 124.687 109.79C122.62 109.377 122.345 102.489 122.345 99.5967C122.345 99.3212 122.62 99.1834 122.896 99.0456C123.171 99.0456 123.447 99.3212 123.447 99.5967C123.447 104.28 124.135 108.688 124.824 108.826C124.962 108.826 126.064 108.826 128.819 100.974C128.957 100.699 129.232 100.561 129.508 100.699C129.783 100.836 129.921 101.112 129.783 101.387C127.442 108.551 126.064 109.79 124.962 109.79Z" fill="#26192A"/>
<path d="M109.947 86.7845L96.8605 84.305C96.585 84.305 96.4473 84.0295 96.4473 83.754C96.4473 83.4784 96.7227 83.3407 96.9982 83.3407L110.085 85.8202C110.36 85.8202 110.498 86.0958 110.498 86.3713C110.498 86.6468 110.223 86.7845 109.947 86.7845Z" fill="#26192A"/>
<path d="M110.222 90.3647L96.0334 87.7474C95.7579 87.7474 95.6201 87.4719 95.6201 87.1964C95.6201 86.9209 95.8957 86.7832 96.1712 86.7832L110.36 89.2627C110.635 89.2627 110.773 89.5382 110.773 89.8137C110.635 90.227 110.497 90.3647 110.222 90.3647Z" fill="#26192A"/>
<path d="M110.085 94.7746C109.947 94.7746 109.947 94.7746 110.085 94.7746L96.8605 91.6063C96.585 91.6063 96.4473 91.193 96.4473 90.9175C96.4473 90.642 96.7228 90.5042 97.136 90.5042L110.223 93.6725C110.498 93.6725 110.636 94.0858 110.636 94.3613C110.498 94.6368 110.222 94.7746 110.085 94.7746Z" fill="#26192A"/>
<path d="M155.819 95.3259L142.733 92.8464C142.457 92.8464 142.319 92.5709 142.319 92.2953C142.319 92.0198 142.595 91.8821 142.87 91.8821L155.957 94.3616C156.232 94.3616 156.37 94.6371 156.37 94.9127C156.232 95.1882 156.095 95.3259 155.819 95.3259Z" fill="#26192A"/>
<path d="M156.094 98.9061C155.956 98.9061 155.956 98.9061 156.094 98.9061L141.905 96.2888C141.63 96.2888 141.492 96.0133 141.492 95.7378C141.492 95.4623 141.768 95.3246 142.043 95.3246L156.232 97.8041C156.507 97.8041 156.645 98.0796 156.645 98.3551C156.507 98.6306 156.232 98.9061 156.094 98.9061Z" fill="#26192A"/>
<path d="M155.819 103.316L142.594 100.148C142.319 100.148 142.181 99.7344 142.181 99.4589C142.181 99.1834 142.457 99.0456 142.87 99.0456L155.956 102.214C156.232 102.214 156.37 102.627 156.37 102.903C156.37 103.178 156.094 103.316 155.819 103.316Z" fill="#26192A"/>
<path d="M106.091 46.0095C105.677 45.8717 105.54 45.5962 105.54 45.3207C107.606 36.78 104.3 30.3057 104.3 30.1679C104.162 29.8924 104.3 29.6169 104.575 29.4791C104.851 29.3414 105.126 29.4791 105.264 29.7546C105.402 30.0301 108.708 36.6423 106.642 45.5962C106.504 45.8717 106.366 46.0095 106.091 46.0095Z" fill="#26192A"/>
<path d="M168.079 58.5449C167.803 58.5449 167.528 58.2694 167.528 57.9939C168.492 49.591 175.104 43.9431 175.38 43.6676C175.655 43.5299 175.931 43.5299 176.068 43.6676C176.206 43.9431 176.206 44.2186 176.068 44.3564C176.068 44.3564 169.456 50.0042 168.63 57.9939C168.63 58.2694 168.354 58.5449 168.079 58.5449Z" fill="#26192A"/>
<path d="M181.854 173.156C181.303 173.018 177.722 172.467 176.758 171.503C176.62 171.365 176.482 170.952 176.758 170.814C176.895 170.677 177.309 170.539 177.446 170.814C177.997 171.365 180.477 171.916 181.854 172.192C182.13 172.192 182.268 172.467 182.268 172.743C182.405 173.018 182.13 173.156 181.854 173.156Z" fill="#26192A"/>
<path d="M186.399 170.124C185.848 169.986 182.267 169.435 181.303 168.471C181.165 168.333 181.027 167.92 181.303 167.782C181.578 167.645 181.854 167.507 181.991 167.782C182.542 168.333 185.022 168.884 186.399 169.16C186.675 169.16 186.813 169.435 186.813 169.711C186.813 169.849 186.675 170.124 186.399 170.124Z" fill="#26192A"/>
<path d="M189.155 173.292C188.19 173.292 187.088 173.154 186.537 172.879C186.262 172.741 186.124 172.465 186.262 172.19C186.4 171.914 186.675 171.914 186.951 171.914C187.639 172.328 190.119 172.19 191.634 172.052C191.91 172.052 192.185 172.19 192.185 172.465C192.185 172.741 192.048 173.016 191.772 173.016C191.497 173.154 190.394 173.292 189.155 173.292Z" fill="#26192A"/>
<path d="M193.564 169.161C192.599 169.161 191.497 169.023 190.946 168.747C190.671 168.61 190.533 168.334 190.671 168.059C190.809 167.783 191.084 167.783 191.36 167.783C192.048 168.196 194.528 168.059 196.043 167.921C196.319 167.921 196.594 168.059 196.594 168.334C196.594 168.61 196.456 168.885 196.181 168.885C196.043 169.023 194.803 169.161 193.564 169.161Z" fill="#26192A"/>
<path d="M198.109 173.568C197.144 173.568 196.042 173.431 195.491 173.155C195.216 173.017 195.078 172.742 195.216 172.466C195.354 172.191 195.629 172.191 195.905 172.191C196.593 172.604 199.073 172.466 200.588 172.329C200.864 172.329 201.139 172.466 201.139 172.742C201.139 173.017 201.001 173.293 200.726 173.293C200.45 173.431 199.348 173.568 198.109 173.568Z" fill="#26192A"/>
<path d="M202.104 169.988C201.14 169.988 200.038 169.85 199.487 169.574C199.211 169.437 199.073 169.161 199.211 168.886C199.349 168.61 199.624 168.61 199.9 168.61C200.589 169.023 203.068 168.886 204.584 168.748C204.859 168.748 205.134 168.886 205.134 169.161C205.134 169.437 204.997 169.712 204.721 169.712C204.446 169.85 203.206 169.988 202.104 169.988Z" fill="#26192A"/>
<path d="M205.823 172.052C205.548 172.052 205.272 172.052 205.135 171.914C204.859 171.777 204.721 171.501 204.721 171.226C204.859 170.95 205.135 170.812 205.41 170.812C206.237 171.088 208.579 170.399 209.956 169.986C210.232 169.848 210.507 169.986 210.645 170.261C210.783 170.537 210.645 170.812 210.369 170.95C209.956 171.363 207.477 172.052 205.823 172.052Z" fill="#26192A"/>
<path d="M108.432 184.174C108.156 184.174 107.881 183.898 107.881 183.623C107.881 183.21 108.019 179.628 108.845 178.388C108.983 178.113 109.396 178.113 109.534 178.251C109.809 178.388 109.809 178.802 109.672 178.939C109.12 179.628 108.983 182.108 108.845 183.485C108.983 184.036 108.707 184.174 108.432 184.174Z" fill="#26192A"/>
<path d="M114.217 185.828C113.942 185.828 113.666 185.553 113.666 185.277C113.666 184.864 113.804 181.282 114.631 180.043C114.768 179.767 115.182 179.767 115.319 179.905C115.595 180.043 115.595 180.456 115.457 180.594C114.906 181.282 114.768 183.762 114.631 185.139C114.768 185.553 114.493 185.828 114.217 185.828Z" fill="#26192A"/>
<path d="M111.463 176.598C111.187 176.598 110.912 176.322 110.912 176.047C110.912 175.634 111.05 172.052 111.876 170.812C112.014 170.537 112.427 170.537 112.565 170.675C112.84 170.812 112.84 171.226 112.703 171.363C112.152 172.052 112.014 174.532 111.876 175.909C111.876 176.322 111.738 176.598 111.463 176.598Z" fill="#26192A"/>
<path d="M60.7694 169.022C60.6316 169.022 60.6316 169.022 60.4939 169.022C60.0806 168.884 56.9123 167.094 56.3613 165.716C56.2235 165.441 56.3613 165.165 56.6368 165.027C56.9123 164.89 57.1878 165.027 57.3256 165.303C57.7388 165.992 59.8051 167.369 61.0449 168.058C61.3204 168.196 61.3204 168.471 61.1826 168.747C61.0449 168.884 60.9071 169.022 60.7694 169.022Z" fill="#26192A"/>
<path d="M51.954 163.926C51.8162 163.926 51.6784 163.926 51.5407 163.788C51.2651 163.512 49.0612 160.619 48.9234 159.242C48.9234 158.966 49.0611 158.691 49.3366 158.691C49.6121 158.691 49.8877 158.829 49.8877 159.104C49.8877 159.931 51.403 161.997 52.3672 163.099C52.505 163.374 52.5049 163.65 52.2294 163.788C52.2294 163.926 52.0917 163.926 51.954 163.926Z" fill="#26192A"/>
<path d="M58.703 163.376C58.5652 163.376 58.5652 163.376 58.4275 163.238C58.0142 162.963 54.9837 161.034 54.4327 159.794C54.2949 159.519 54.4327 159.243 54.7082 159.106C54.9837 158.968 55.2592 159.106 55.397 159.381C55.6725 160.07 57.7387 161.585 58.9785 162.412C59.254 162.549 59.254 162.825 59.1162 163.1C58.9785 163.376 58.8408 163.376 58.703 163.376Z" fill="#26192A"/>
<path d="M67.5191 164.891C67.1058 164.891 63.5243 164.616 62.2845 163.789C62.009 163.651 62.0089 163.238 62.1467 163.1C62.2844 162.825 62.6977 162.825 62.8354 162.962C63.5242 163.513 66.0037 163.789 67.3813 163.789C67.6568 163.789 67.9323 164.064 67.9323 164.34C67.9323 164.753 67.7946 164.891 67.5191 164.891Z" fill="#26192A"/>
<path d="M76.7494 166.405C76.3362 166.405 72.7545 166.129 71.5148 165.303C71.2393 165.165 71.2393 164.752 71.3771 164.614C71.5148 164.339 71.9281 164.339 72.0658 164.476C72.7546 165.027 75.2341 165.303 76.6116 165.303C76.8871 165.303 77.1627 165.578 77.1627 165.854C77.3004 166.267 77.025 166.405 76.7494 166.405Z" fill="#26192A"/>
<path d="M51.1273 156.487C50.9895 156.487 50.8518 156.487 50.8518 156.35C50.5763 156.074 47.6835 153.87 47.2702 152.493C47.1325 152.217 47.2702 151.942 47.5457 151.804C47.8213 151.666 48.0968 151.804 48.2345 152.079C48.51 152.906 50.4385 154.559 51.5405 155.385C51.816 155.523 51.8161 155.936 51.6783 156.074C51.4028 156.35 51.265 156.487 51.1273 156.487Z" fill="#26192A"/>
<path d="M67.7952 168.885C66.9687 168.885 66.1422 168.747 65.7289 168.609C65.4534 168.471 65.3156 168.196 65.4534 167.92C65.5911 167.645 65.8666 167.507 66.1422 167.645C66.8309 168.058 69.4482 167.783 70.8257 167.645C71.1012 167.645 71.3767 167.783 71.3767 168.058C71.3767 168.334 71.239 168.609 70.9635 168.609C70.688 168.609 69.1727 168.885 67.7952 168.885Z" fill="#26192A"/>
<path d="M110.498 192.58C110.222 192.58 110.084 192.442 109.947 192.166C109.809 191.753 108.982 188.309 109.533 186.932C109.671 186.656 109.947 186.518 110.222 186.656C110.498 186.794 110.635 187.069 110.498 187.345C110.222 188.171 110.635 190.651 111.049 192.029C111.049 192.166 110.911 192.442 110.498 192.58Z" fill="#26192A"/>
<path d="M115.045 195.333C114.769 195.333 114.632 195.195 114.494 194.92C114.356 194.507 113.53 191.063 114.081 189.685C114.218 189.41 114.494 189.272 114.769 189.41C115.045 189.548 115.183 189.823 115.045 190.099C114.769 190.925 115.183 193.405 115.596 194.782C115.596 195.058 115.32 195.333 115.045 195.333Z" fill="#26192A"/>
<path d="M118.764 209.522C118.488 209.522 118.35 209.384 118.213 209.109C118.075 208.696 117.248 205.252 117.799 203.874C117.937 203.599 118.213 203.461 118.488 203.599C118.764 203.736 118.901 204.012 118.764 204.287C118.488 205.114 118.901 207.593 119.315 208.971C119.315 209.109 119.177 209.384 118.764 209.522C118.901 209.522 118.901 209.522 118.764 209.522Z" fill="#26192A"/>
<path d="M118.901 223.161C118.763 223.161 118.625 223.161 118.625 223.023C118.35 222.747 115.319 220.681 114.906 219.303C114.768 219.028 114.906 218.752 115.182 218.615C115.457 218.477 115.733 218.615 115.87 218.89C116.146 219.717 118.074 221.232 119.176 222.058C119.452 222.196 119.452 222.61 119.314 222.747C119.176 223.161 119.039 223.161 118.901 223.161Z" fill="#26192A"/>
<path d="M123.034 220.542C122.896 220.542 122.758 220.542 122.758 220.405C122.483 220.129 119.59 217.925 119.177 216.548C119.039 216.272 119.314 215.997 119.59 215.859C119.865 215.721 120.141 215.997 120.279 216.272C120.554 217.099 122.345 218.752 123.447 219.716C123.722 219.854 123.723 220.267 123.585 220.405C123.309 220.542 123.171 220.542 123.034 220.542Z" fill="#26192A"/>
<path d="M110.223 202.909C109.948 202.909 109.81 202.771 109.672 202.496C109.535 202.083 108.708 198.639 109.259 197.261C109.397 196.986 109.672 196.848 109.948 196.986C110.223 197.124 110.361 197.399 110.223 197.675C109.948 198.501 110.361 200.981 110.774 202.358C110.774 202.496 110.637 202.771 110.223 202.909C110.223 202.909 110.361 202.909 110.223 202.909Z" fill="#26192A"/>
<path d="M115.319 203.875C115.044 203.875 114.906 203.737 114.768 203.461C114.63 203.048 113.804 199.604 114.355 198.227C114.492 197.951 114.768 197.813 115.044 197.951C115.319 198.089 115.457 198.364 115.319 198.64C115.044 199.466 115.457 201.946 115.87 203.324C115.87 203.461 115.595 203.737 115.319 203.875Z" fill="#26192A"/>
<path d="M116.422 216.41C116.284 216.41 116.008 216.272 116.008 216.134C115.871 215.721 114.493 212.415 114.906 211.037C114.906 210.762 115.182 210.624 115.457 210.624C115.733 210.624 115.871 210.899 115.871 211.175C115.733 212.001 116.422 214.343 116.973 215.721C117.11 215.996 116.973 216.272 116.697 216.41C116.559 216.41 116.559 216.41 116.422 216.41Z" fill="#26192A"/>
<path d="M111.876 211.863C111.738 211.863 111.462 211.726 111.462 211.588C111.325 211.175 109.672 208.006 109.947 206.491C109.947 206.216 110.223 206.078 110.498 206.078C110.774 206.078 110.911 206.353 110.911 206.629C110.774 207.455 111.738 209.797 112.289 211.037C112.427 211.312 112.289 211.588 112.013 211.726C112.013 211.864 111.876 211.863 111.876 211.863Z" fill="#26192A"/>
</svg>
