<svg width="280" height="345" viewBox="0 0 280 345" fill="none" xmlns="http://www.w3.org/2000/svg">
<path fill-rule="evenodd" clip-rule="evenodd" d="M111.534 29.3943C182.102 24.2763 248.312 69.4687 270.909 136.64C294.254 206.038 272.013 285.296 211.381 326.201C156.011 363.556 83.4698 340.683 32.5288 297.463C-7.79871 263.248 -4.72703 206.322 10.2378 155.545C27.1028 98.3219 52.1343 33.7024 111.534 29.3943Z" fill="#FFB27D"/>
<path d="M153.48 135.856C153.48 135.856 170.016 119.766 197.429 147.328C233.035 183.232 192.214 213.326 192.214 213.326C192.214 213.326 138.284 173.101 153.48 135.856Z" fill="#FAB217"/>
<path d="M136.199 60.1755C136.199 60.1755 200.558 54.5143 207.411 28.1449C214.264 1.77548 202.644 -2.24696 197.28 4.15916C191.917 10.5653 198.323 34.551 183.127 36.9347C174.04 38.4245 196.982 14.1408 188.193 10.2673C179.403 6.39385 177.615 43.0428 172.252 40.9571C166.888 38.8714 180.446 15.9285 169.57 20.249C158.844 24.5694 169.123 47.8102 155.268 49.151C153.629 49.3 159.737 33.6571 153.629 35.5939C147.67 37.3816 159.738 50.9388 130.24 58.2388C130.538 58.2388 130.984 63.3041 136.199 60.1755Z" fill="white"/>
<path d="M133.219 61.6646C130.835 61.6646 130.09 59.4299 129.941 58.2381C129.941 57.9402 130.09 57.6422 130.388 57.6422C150.351 52.7259 150.798 45.1279 151.245 40.0626C151.394 37.6789 151.543 35.7422 153.778 34.9973C154.97 34.6993 155.864 34.8483 156.46 35.5932C157.8 37.232 157.056 41.4034 156.311 44.9789C156.013 46.3197 155.715 47.8095 155.715 48.5544C162.27 47.8095 162.866 41.2544 163.313 34.4014C163.76 28.1442 164.207 21.8871 169.57 19.6524C171.805 18.7585 173.145 18.9075 174.039 19.9504C175.38 21.7381 174.337 25.9095 173.145 30.3789C171.954 34.6993 170.762 39.7646 172.549 40.3606C172.698 40.3606 172.698 40.3606 172.847 40.3606C174.486 40.3606 176.274 33.8055 177.764 27.8463C180.147 18.7585 182.531 9.22383 187.149 9.22383C187.596 9.22383 188.192 9.3728 188.639 9.52178C189.682 9.96872 190.427 10.7136 190.725 11.7565C191.917 15.332 188.49 21.4402 185.511 26.8034C183.425 30.5279 181.19 34.6993 181.786 35.8912C181.786 35.8912 181.935 36.1891 182.531 36.1891C182.68 36.1891 182.978 36.1891 183.127 36.1891C192.364 34.6993 193.109 24.7177 194.003 15.9279C194.449 10.8626 194.896 6.09525 196.982 3.5626C198.472 1.62586 200.558 0.583008 202.643 0.583008C204.58 0.583008 206.368 1.47689 207.56 3.26464C209.496 5.7973 212.178 12.3524 208.156 27.9953C205.176 39.1687 192.215 47.9585 169.57 54.2157C153.629 58.685 138.135 60.1748 136.645 60.3238C135.305 61.3667 134.113 61.6646 133.219 61.6646ZM131.133 58.685C131.282 59.4299 131.878 60.6218 133.219 60.6218C133.964 60.6218 134.858 60.3238 135.9 59.7279C135.9 59.7279 136.049 59.7279 136.198 59.7279C136.794 59.7279 200.111 53.7687 206.964 28.1442C210.986 13.0973 208.454 6.84015 206.666 4.45648C205.623 2.96668 204.133 2.22178 202.643 2.22178C201.005 2.22178 199.217 3.11566 197.876 4.75444C196.088 6.98913 195.641 11.6075 195.194 16.5238C194.449 25.7606 193.407 36.1891 183.425 37.6789C183.127 37.6789 182.829 37.6789 182.68 37.6789C181.786 37.6789 181.19 37.381 180.892 36.785C179.998 35.1463 181.637 31.8687 184.617 26.6544C187.298 21.7381 190.725 15.481 189.831 12.5014C189.533 11.7565 189.086 11.3095 188.341 10.8626C188.043 10.7136 187.596 10.5646 187.298 10.5646C183.574 10.5646 181.041 20.3973 178.956 28.2932C176.87 36.4871 175.38 41.5524 172.996 41.5524C172.847 41.5524 172.549 41.5524 172.4 41.4034C169.57 40.3606 170.911 35.2952 172.251 30.081C173.294 26.3565 174.337 22.0361 173.294 20.6953C173.145 20.5463 172.847 20.2483 172.251 20.2483C171.656 20.2483 171.06 20.3973 170.166 20.6953C165.547 22.632 165.1 28.2932 164.654 34.4014C164.207 41.5524 163.611 48.8524 155.715 49.5973C155.417 49.5973 155.119 49.4483 154.97 49.2993C154.523 48.7034 154.672 47.5116 155.268 44.681C155.864 41.8504 156.758 37.381 155.715 36.1891C155.417 35.8912 154.97 35.7422 154.225 36.0401C152.735 36.4871 152.586 37.6789 152.437 40.0626C151.99 45.2769 151.394 53.6197 131.133 58.685Z" fill="#26192A"/>
<path d="M117.278 63.6016C117.278 63.6016 53.2167 56.1526 46.9595 29.6342C40.7024 3.11588 52.6208 -0.608613 57.8351 5.94649C63.0493 12.6506 56.0473 36.3383 70.9452 39.1689C80.033 40.9567 57.6861 15.9281 66.6248 12.3526C75.5636 8.7771 76.3085 45.4261 81.6718 43.4893C87.0351 41.5526 74.2228 18.3118 84.9493 22.7812C95.6758 27.2506 84.6514 50.3424 98.3575 52.1302C99.9963 52.2791 94.3351 36.6363 100.294 38.573C106.253 40.6587 93.7391 53.7689 123.088 61.8138C123.088 61.8138 122.641 66.8791 117.278 63.6016Z" fill="white"/>
<path d="M120.407 65.241C119.513 65.241 118.321 64.7941 117.129 64.0492C115.639 63.9002 100.145 61.8145 84.3534 57.0472C61.8575 50.0451 49.1943 40.9574 46.5126 29.7839C42.9371 14.29 45.6187 7.73492 47.7045 5.20227C49.0453 3.56349 50.8331 2.66962 52.6208 2.66962C54.7065 2.66962 56.7922 3.86145 58.282 5.79819C60.2187 8.33084 60.5167 13.0982 60.8147 18.3125C61.4106 27.1023 62.0065 37.0839 71.0943 38.8717C71.3922 38.8717 71.5412 39.0206 71.8392 39.0206C72.4351 39.0206 72.5841 38.8717 72.5841 38.7227C73.329 37.5308 71.0943 33.3594 69.1576 29.6349C66.3269 24.1227 63.0494 17.8655 64.3902 14.439C64.8371 13.3961 65.582 12.6512 66.6249 12.2043C67.0718 12.0553 67.5187 11.9064 67.9657 11.9064C72.5841 11.9064 74.8187 21.441 76.9045 30.6778C78.2453 36.339 79.7351 43.341 81.3738 43.341H81.5228C83.4596 42.5961 82.2677 37.6798 81.2249 33.2104C80.182 28.741 79.2881 24.5696 80.629 22.7819C81.5228 21.739 82.8636 21.59 85.0983 22.6329C90.3126 24.8676 90.6106 31.2737 90.9085 37.5308C91.2065 44.3839 91.5045 50.939 98.0596 51.8329C98.0596 51.237 97.7616 49.5982 97.6126 48.2574C97.0167 44.6819 96.2718 40.5104 97.7616 38.8717C98.3575 38.1268 99.2514 37.9778 100.443 38.4247C102.678 39.1696 102.678 41.2553 102.827 43.49C102.976 48.5553 103.423 56.1533 123.088 61.6655C123.386 61.6655 123.535 61.9635 123.535 62.2615C123.535 63.0064 122.641 65.241 120.407 65.241ZM52.6208 3.56349C51.131 3.56349 49.6412 4.30839 48.5983 5.79819C46.6616 8.18186 44.1289 14.29 47.7045 29.4859C53.8126 55.2594 116.831 63.0064 117.576 63.0064C117.725 63.0064 117.725 63.0063 117.874 63.1553C118.917 63.9002 119.96 64.1982 120.704 64.1982C122.045 64.1982 122.641 63.0064 122.79 62.2615C102.678 56.6002 102.38 48.2574 102.231 43.1921C102.082 40.8084 102.082 39.6166 100.592 39.0206C99.8473 38.7227 99.4004 38.8717 99.1024 39.1696C98.0596 40.3615 98.8045 44.8308 99.2514 47.6615C99.6983 50.4921 99.8473 51.6839 99.4004 52.2798C99.2514 52.4288 99.1024 52.5778 98.8045 52.5778C90.9086 51.5349 90.6106 44.2349 90.1636 37.0839C89.8657 30.9757 89.5677 25.1655 84.9494 23.2288C84.0555 22.9308 83.4596 22.6329 82.8636 22.6329C82.2677 22.6329 81.9698 22.9308 81.8208 23.0798C80.778 24.4206 81.6718 28.741 82.5657 32.4655C83.7575 37.8288 84.9494 42.7451 82.1187 43.788C81.9698 43.788 81.6718 43.937 81.5228 43.937C79.1392 43.937 77.7984 38.8717 75.8616 30.5288C74.0739 22.4839 71.8392 12.6512 67.9657 12.6512C67.6677 12.6512 67.3698 12.6512 66.9229 12.8002C66.178 13.0982 65.582 13.6941 65.4331 14.29C64.2412 17.2696 67.5187 23.5268 70.2004 28.5921C72.882 33.9553 74.5208 37.2329 73.6269 38.8717C73.18 39.6166 72.4351 39.9145 70.9453 39.6166C60.9636 37.6798 60.3677 27.2512 59.7718 18.0145C59.4738 13.0982 59.1759 8.47982 57.3881 6.24513C56.0473 4.60635 54.4086 3.56349 52.6208 3.56349Z" fill="#26192A"/>
<path d="M165.994 154.926C165.994 154.926 166.143 61.6649 149.01 51.0873C131.878 40.5098 65.284 67.4751 66.7738 93.5465C68.2636 119.618 120.704 100.102 120.704 100.102L115.49 158.502L165.994 154.926Z" fill="#BB7A46"/>
<path d="M150.5 58.3871C150.5 58.3871 186.255 58.3871 188.937 70.3055C188.937 70.3055 165.696 91.9075 150.5 58.3871Z" fill="#BB7A46"/>
<path d="M84.7997 67.7725C84.7997 67.7725 99.9956 87.8848 96.2711 106.358C96.2711 106.358 70.3487 113.062 64.9854 96.9725C59.6221 81.0317 84.7997 67.7725 84.7997 67.7725Z" fill="#F8C19A"/>
<path d="M81.8201 107.253C79.8834 107.253 77.7976 101.592 76.9037 99.2084C76.7548 98.9104 76.9038 98.6125 77.2017 98.4635C77.4997 98.3145 77.7976 98.4635 77.9466 98.7614C79.2874 103.082 81.0752 106.21 81.6711 106.061C81.6711 106.061 82.8629 105.763 82.7139 96.3778C82.7139 96.0798 83.0119 95.7819 83.3099 95.7819C83.6079 95.7819 83.9058 96.0798 83.9058 96.3778C84.0548 105.615 83.0119 106.955 81.8201 107.253C81.8201 107.253 81.9691 107.253 81.8201 107.253Z" fill="#26192A"/>
<path d="M76.0105 73.7317C76.0105 73.7317 81.5227 101.293 65.135 87.8848C64.986 87.8848 65.8798 80.4358 76.0105 73.7317Z" fill="#26192A"/>
<path d="M130.537 74.4769C130.239 74.4769 129.941 74.3279 129.643 74.1789C127.259 72.6892 127.557 64.3463 127.706 62.7075C127.706 62.4096 128.004 62.1116 128.302 62.1116C128.6 62.1116 128.898 62.4096 128.898 62.7075C128.749 66.283 128.898 72.2422 130.239 73.1361C130.388 73.2851 130.537 73.2851 130.984 73.1361C134.262 71.3483 134.41 63.7504 134.41 63.7504C134.41 63.4524 134.708 63.1545 135.006 63.1545C135.304 63.1545 135.602 63.4524 135.602 63.7504C135.602 64.0483 135.602 72.0932 131.58 74.1789C131.133 74.4769 130.835 74.4769 130.537 74.4769Z" fill="#26192A"/>
<path d="M105.657 70.4542C105.21 70.4542 104.912 70.3052 104.763 70.1563C102.678 68.6665 103.423 61.8134 103.721 60.4726C103.721 60.1746 104.018 59.8767 104.316 60.0256C104.614 60.0256 104.912 60.3236 104.763 60.6216C104.316 63.7501 104.316 68.5175 105.359 69.2624C105.508 69.2624 105.657 69.4114 106.104 69.1134C109.531 67.3257 110.127 60.9195 110.127 60.9195C110.127 60.6216 110.425 60.3236 110.723 60.4726C111.021 60.4726 111.318 60.7705 111.169 61.0685C111.169 61.3665 110.425 68.0705 106.551 70.1563C106.402 70.3052 105.955 70.4542 105.657 70.4542Z" fill="#26192A"/>
<path d="M176.72 70.1571C176.571 70.1571 176.571 70.1571 176.422 70.1571C176.273 70.1571 167.632 65.2408 156.906 65.3897C156.608 65.3897 156.31 65.0918 156.31 64.7938C156.31 64.4959 156.608 64.1979 156.906 64.1979C167.93 64.1979 176.571 68.8163 177.018 69.1142C177.316 69.2632 177.316 69.5612 177.167 69.8591C177.167 70.0081 176.869 70.1571 176.72 70.1571Z" fill="#26192A"/>
<path d="M165.845 140.922C165.845 140.922 199.366 180.7 190.874 230.459C182.233 280.367 120.853 272.322 102.529 253.849C72.584 223.755 117.129 142.71 117.129 142.71L165.845 140.922Z" fill="#BB7A46"/>
<path d="M127.259 253.252C127.259 253.252 126.812 276.791 129.941 312.099H113.255C113.255 312.099 105.955 281.409 107.892 253.252H127.259Z" fill="#BB7A46"/>
<path d="M170.612 149.563C170.612 149.563 198.471 149.266 202.643 124.982C204.729 113.212 193.406 101.592 193.406 101.592L208.155 93.5472C208.155 93.5472 226.629 112.617 219.18 136.602C210.39 164.61 180.296 171.612 180.296 171.612L170.612 149.563Z" fill="#BB7A46"/>
<path d="M116.98 142.412C116.98 142.412 100.294 164.61 78.0962 153.586C67.5187 148.223 64.6881 132.282 64.6881 132.282L49.4921 139.433C49.4921 139.433 53.9615 165.653 77.6493 173.847C105.508 183.531 128.898 163.27 128.898 163.27L116.98 142.412Z" fill="#BB7A46"/>
<path d="M168.08 255.338C168.08 255.338 152.437 276.195 163.908 283.197C175.231 290.348 181.786 285.432 181.786 285.432L182.531 299.436C182.531 299.436 166.888 304.501 155.118 296.456C130.835 279.919 143.349 253.997 143.349 253.997L168.08 255.338Z" fill="#BB7A46"/>
<path d="M109.53 243.42C109.53 243.42 99.1018 224.649 102.528 201.557C105.955 178.465 118.022 147.18 140.071 164.163C162.269 181.147 169.569 239.547 150.5 249.38C118.767 265.767 109.53 243.42 109.53 243.42Z" fill="#F8C19A"/>
<path d="M173.443 149.414C173.443 149.414 169.569 197.088 194.747 202.6C194.747 202.6 192.363 208.559 192.214 213.177C192.214 213.177 172.996 207.218 165.994 186.957C158.992 166.696 165.696 137.943 165.696 137.943C165.696 137.943 173.741 147.031 173.443 149.414Z" fill="#FAB217"/>
<path d="M116.98 142.412C116.98 142.412 98.5063 181.892 92.994 210.645C92.994 210.645 88.0777 205.431 90.6104 188.149C92.6961 172.208 104.465 144.051 116.98 142.412Z" fill="#FAB217"/>
<path d="M173.889 248.783L198.322 251.018C198.322 251.018 186.553 275.898 170.91 260.255C154.969 244.463 173.889 248.783 173.889 248.783Z" fill="#BB7A46"/>
<path d="M103.273 48.5543C90.9079 49.2992 89.1202 57.642 89.1202 57.642C89.1202 57.642 83.012 78.7971 105.21 77.0094C125.918 75.5196 118.32 47.6604 103.273 48.5543ZM104.614 72.391C89.8651 73.5828 93.8875 59.4298 93.8875 59.4298C93.8875 59.4298 95.0794 53.9175 103.273 53.3216C113.255 52.7257 118.32 71.3481 104.614 72.391Z" fill="#98D5CC"/>
<path d="M135.006 53.4718C122.641 54.2167 120.853 62.5595 120.853 62.5595C120.853 62.5595 114.745 83.7146 136.943 81.9269C157.651 80.4371 150.053 52.5779 135.006 53.4718ZM136.347 77.3085C121.598 78.5003 125.621 64.3473 125.621 64.3473C125.621 64.3473 126.812 58.835 135.006 58.2391C144.988 57.6432 150.202 76.2656 136.347 77.3085Z" fill="#98D5CC"/>
<path d="M148.712 64.1973L160.631 58.983L158.694 55.4075L145.286 60.4728L148.712 64.1973Z" fill="#98D5CC"/>
<path d="M115.49 65.0922C115.49 65.0922 119.81 64.7942 122.045 67.1779L123.683 62.8575C123.683 62.8575 120.853 58.3881 115.341 60.7718V65.0922H115.49Z" fill="#98D5CC"/>
<path d="M200.408 111.87L215.306 103.677L208.9 91.6093L193.555 101.591L200.408 111.87Z" fill="#26192A"/>
<path d="M158.842 97.8675C158.544 97.8675 158.246 97.5695 158.246 97.2715C158.246 95.7817 157.651 92.8021 157.651 92.8021C157.651 92.5042 157.8 92.2062 158.097 92.2062C158.395 92.2062 158.693 92.3552 158.693 92.6532C158.693 92.8021 159.289 95.7817 159.289 97.4205C159.438 97.5695 159.14 97.8675 158.842 97.8675Z" fill="#26192A"/>
<path d="M154.82 101.592C154.522 101.592 154.224 101.294 154.224 100.996C154.224 99.5062 153.629 96.5266 153.629 96.5266C153.629 96.2287 153.778 95.9307 154.076 95.9307C154.373 95.9307 154.671 96.0797 154.671 96.3777C154.671 96.5266 155.267 99.5062 155.267 101.145C155.416 101.443 155.118 101.592 154.82 101.592Z" fill="#26192A"/>
<path d="M159.439 106.509C159.141 106.509 158.843 106.211 158.843 105.914C158.843 104.424 158.247 101.444 158.247 101.444C158.247 101.146 158.396 100.848 158.694 100.848C158.992 100.848 159.29 100.997 159.29 101.295C159.29 101.444 159.886 104.424 159.886 106.062C160.035 106.36 159.737 106.509 159.439 106.509Z" fill="#26192A"/>
<path d="M154.522 111.872C154.224 111.872 153.926 111.574 153.926 111.276C153.926 109.786 153.33 106.807 153.33 106.807C153.33 106.509 153.479 106.211 153.777 106.211C154.075 106.211 154.373 106.36 154.373 106.658C154.373 106.807 154.969 109.786 154.969 111.425C155.118 111.723 154.82 111.872 154.522 111.872Z" fill="#26192A"/>
<path d="M159.439 114.852C159.141 114.852 158.843 114.554 158.843 114.256C158.843 112.766 158.247 109.786 158.247 109.786C158.247 109.488 158.396 109.19 158.694 109.19C158.992 109.19 159.29 109.339 159.29 109.637C159.29 109.786 159.886 112.766 159.886 114.405C160.035 114.554 159.737 114.852 159.439 114.852Z" fill="#26192A"/>
<path d="M154.225 122.599C153.927 122.599 153.629 122.301 153.629 122.003C153.629 120.513 153.033 117.534 153.033 117.534C153.033 117.236 153.182 116.938 153.48 116.938C153.778 116.938 154.076 117.087 154.076 117.385C154.076 117.534 154.672 120.513 154.672 122.152C154.821 122.301 154.523 122.599 154.225 122.599Z" fill="#26192A"/>
<path d="M160.481 124.982C160.183 124.982 159.885 124.684 159.885 124.386C159.885 122.896 159.289 119.917 159.289 119.917C159.289 119.619 159.438 119.321 159.736 119.321C160.034 119.321 160.332 119.47 160.332 119.768C160.332 119.917 160.928 122.896 160.928 124.535C161.077 124.684 160.779 124.982 160.481 124.982Z" fill="#26192A"/>
<path d="M155.416 131.686C155.118 131.686 154.82 131.388 154.82 131.09C154.82 129.6 154.224 126.621 154.224 126.621C154.224 126.323 154.373 126.025 154.671 126.025C154.969 126.025 155.267 126.174 155.267 126.472C155.267 126.621 155.863 129.6 155.863 131.239C156.012 131.388 155.863 131.686 155.416 131.686Z" fill="#26192A"/>
<path d="M160.78 134.071C160.482 134.071 160.184 133.773 160.184 133.475C160.184 131.985 159.588 129.005 159.588 129.005C159.588 128.707 159.737 128.409 160.035 128.409C160.333 128.409 160.631 128.558 160.631 128.856C160.631 129.005 161.227 131.985 161.227 133.624C161.376 133.773 161.078 134.071 160.78 134.071Z" fill="#26192A"/>
<path d="M153.926 90.7167C153.628 90.7167 153.33 90.4188 153.33 90.1208C153.33 88.631 152.735 85.6514 152.735 85.6514C152.735 85.3535 152.884 85.0555 153.181 85.0555C153.479 85.0555 153.777 85.2045 153.777 85.5024C153.777 85.6514 154.373 88.631 154.373 90.2698C154.522 90.4188 154.224 90.7167 153.926 90.7167Z" fill="#26192A"/>
<path d="M157.204 86.5456C156.906 86.5456 156.608 86.2476 156.608 85.9497C156.608 84.4599 156.012 81.4803 156.012 81.4803C156.012 81.1823 156.161 80.8844 156.459 80.8844C156.757 80.8844 157.055 81.0334 157.055 81.3313C157.055 81.4803 157.651 84.4599 157.651 86.0987C157.8 86.2476 157.502 86.5456 157.204 86.5456Z" fill="#26192A"/>
<path d="M113.255 311.951H129.941L128.898 299.586C128.898 299.586 113.553 298.394 110.722 299.586L113.255 311.951Z" fill="#26192A"/>
<path d="M41 139.283L179.402 84.4582L221.116 82.6705L193.108 111.275L50.9817 168.185L41 139.283Z" fill="#F58A28"/>
<path d="M67.5184 128.854L76.7551 158.65L50.9817 168.185L41 139.283L67.5184 128.854Z" fill="#DB6362"/>
<path d="M179.402 84.4582L174.188 93.546L184.616 97.2705L178.806 107.848L193.108 111.275L221.116 82.6705L179.402 84.4582Z" fill="#F8C19A"/>
<path d="M200.259 83.5644L206.814 98.0154L221.116 82.6705L200.259 83.5644Z" fill="#26192A"/>
<path d="M80.4794 157.012C80.1814 157.012 80.0325 156.863 79.8835 156.565L70.3488 127.663C70.1998 127.365 70.3488 127.067 70.6468 126.918C70.9447 126.769 71.2427 126.918 71.3917 127.216L80.9263 156.118C81.0753 156.416 80.9263 156.714 80.6284 156.863C80.6284 157.012 80.4794 157.012 80.4794 157.012Z" fill="#26192A"/>
<path d="M73.7753 132.877C73.4773 132.877 73.3284 132.728 73.3284 132.579C73.1794 132.281 73.3284 131.983 73.6264 131.834L174.039 93.0993C174.337 92.9503 174.635 93.0993 174.784 93.3973C174.932 93.6952 174.783 93.9932 174.486 94.1422L74.0733 132.877C73.9243 132.877 73.9243 132.877 73.7753 132.877Z" fill="#26192A"/>
<path d="M76.7548 145.988C76.4568 145.988 76.3078 145.839 76.1588 145.69C76.0099 145.392 76.1589 145.094 76.4568 144.945L178.359 107.402C178.657 107.253 178.955 107.402 179.104 107.7C179.253 107.998 179.104 108.296 178.806 108.445L77.0527 145.839C76.9038 145.988 76.9037 145.988 76.7548 145.988Z" fill="#26192A"/>
<path d="M198.62 160.886C198.322 160.886 198.173 160.737 198.024 160.439C198.024 160.141 198.173 159.843 198.471 159.843C199.365 159.694 201.302 157.757 202.345 156.715C202.494 156.417 202.941 156.417 203.09 156.715C203.239 157.012 203.388 157.31 203.09 157.459C202.941 157.757 200.259 160.588 198.62 160.886C198.769 160.886 198.62 160.886 198.62 160.886Z" fill="#26192A"/>
<path d="M198.62 155.075C198.322 155.075 198.173 154.926 198.024 154.628C198.024 154.33 198.173 154.032 198.471 154.032C199.365 153.883 201.302 151.947 202.345 150.904C202.494 150.606 202.941 150.606 203.09 150.904C203.388 151.053 203.388 151.5 203.09 151.649C202.941 151.798 200.11 154.628 198.62 155.075Z" fill="#26192A"/>
<path d="M205.622 153.139C205.473 153.139 205.175 152.99 205.175 152.841C205.026 152.543 205.175 152.245 205.473 152.096C206.218 151.649 207.708 149.414 208.304 147.925C208.453 147.627 208.751 147.478 209.049 147.627C209.347 147.776 209.496 148.074 209.347 148.372C209.198 148.819 207.261 152.245 205.92 152.99C205.771 153.139 205.622 153.139 205.622 153.139Z" fill="#26192A"/>
<path d="M204.431 146.583C204.282 146.583 203.984 146.434 203.984 146.285C203.835 145.987 203.984 145.689 204.282 145.54C205.027 145.093 206.516 142.859 207.112 141.369C207.261 141.071 207.559 140.922 207.857 141.071C208.155 141.22 208.304 141.518 208.155 141.816C208.006 142.263 206.07 145.689 204.729 146.434C204.58 146.583 204.58 146.583 204.431 146.583Z" fill="#26192A"/>
<path d="M211.135 145.242C210.986 145.242 210.688 145.093 210.688 144.944C210.539 144.646 210.688 144.348 210.986 144.199C211.731 143.752 213.22 141.517 213.816 140.028C213.965 139.73 214.263 139.581 214.561 139.73C214.859 139.879 215.008 140.177 214.859 140.475C214.71 140.921 212.774 144.348 211.433 145.093C211.433 145.093 211.284 145.242 211.135 145.242Z" fill="#26192A"/>
<path d="M210.241 139.433C210.092 139.433 209.794 139.284 209.794 139.135C209.645 138.837 209.794 138.539 210.092 138.39C210.837 137.943 212.327 135.708 212.922 134.218C213.071 133.92 213.369 133.771 213.667 133.92C213.965 134.069 214.114 134.367 213.965 134.665C213.816 135.112 211.88 138.539 210.539 139.284C210.39 139.433 210.39 139.433 210.241 139.433Z" fill="#26192A"/>
<path d="M215.753 135.856C215.604 135.856 215.455 135.856 215.306 135.708C215.157 135.41 215.157 135.112 215.306 134.963C216.051 134.367 216.945 131.834 217.243 130.344C217.392 130.046 217.689 129.897 217.987 129.897C218.285 130.046 218.434 130.344 218.434 130.642C218.285 131.089 217.243 134.814 216.051 135.856C216.051 135.856 215.902 135.856 215.753 135.856Z" fill="#26192A"/>
<path d="M180.445 249.528C180.296 249.528 180.147 249.528 179.998 249.379C179.849 249.081 179.849 248.783 180.147 248.634C180.892 248.038 181.786 245.505 182.233 244.015C182.382 243.717 182.68 243.568 182.978 243.568C183.276 243.717 183.425 244.015 183.276 244.313C183.127 244.76 181.935 248.485 180.743 249.379C180.594 249.379 180.445 249.528 180.445 249.528Z" fill="#26192A"/>
<path d="M177.764 244.165C177.615 244.165 177.466 244.165 177.317 244.016C177.168 243.718 177.168 243.42 177.466 243.271C178.211 242.675 179.104 240.143 179.551 238.653C179.7 238.355 179.998 238.206 180.296 238.206C180.594 238.355 180.743 238.653 180.594 238.951C180.445 239.398 179.253 243.122 178.062 244.016C177.913 244.165 177.913 244.165 177.764 244.165Z" fill="#26192A"/>
<path d="M183.126 239.398C182.977 239.398 182.828 239.398 182.828 239.249C182.53 239.1 182.53 238.653 182.679 238.504C183.126 237.759 183.424 235.077 183.424 233.587C183.424 233.289 183.722 232.991 184.02 232.991C184.318 232.991 184.616 233.289 184.616 233.587C184.616 234.034 184.467 237.908 183.573 239.249C183.573 239.398 183.275 239.398 183.126 239.398Z" fill="#26192A"/>
<path d="M179.253 234.035C179.104 234.035 178.955 234.035 178.955 233.886C178.658 233.737 178.658 233.29 178.807 233.141C179.402 232.396 179.551 229.715 179.551 228.225C179.551 227.927 179.849 227.629 180.147 227.629C180.445 227.629 180.743 227.927 180.743 228.225C180.743 228.672 180.594 232.545 179.7 233.886C179.7 233.886 179.402 234.035 179.253 234.035Z" fill="#26192A"/>
<path d="M184.765 229.862C184.616 229.862 184.467 229.862 184.467 229.713C184.169 229.564 184.169 229.117 184.318 228.968C184.765 228.224 185.063 225.542 185.063 224.052C185.063 223.754 185.361 223.456 185.659 223.456C185.957 223.456 186.255 223.754 186.255 224.052C186.255 224.499 186.106 228.373 185.212 229.713C185.063 229.713 184.914 229.862 184.765 229.862Z" fill="#26192A"/>
<path d="M181.339 225.096C181.19 225.096 181.041 225.096 181.041 224.947C180.743 224.798 180.743 224.351 180.892 224.202C181.339 223.457 181.637 220.776 181.637 219.286C181.637 218.988 181.786 218.69 182.233 218.69C182.531 218.69 182.829 218.988 182.829 219.286C182.829 219.733 182.68 223.606 181.786 224.947C181.786 225.096 181.637 225.096 181.339 225.096Z" fill="#26192A"/>
<path d="M184.765 219.434C184.616 219.434 184.616 219.434 184.467 219.434C184.169 219.285 184.02 218.987 184.169 218.689C184.467 217.944 184.169 215.113 183.871 213.624C183.871 213.326 184.02 213.028 184.318 213.028C184.616 213.028 184.914 213.177 184.914 213.475C185.063 213.922 185.659 217.795 185.063 219.136C185.212 219.285 185.063 219.434 184.765 219.434Z" fill="#26192A"/>
<path d="M181.786 285.433L182.531 299.437C182.531 299.437 179.7 300.033 170.762 301.224L170.315 286.326C170.166 286.177 177.764 286.326 181.786 285.433Z" fill="#26192A"/>
<path d="M212.178 254.594L211.582 249.231L216.2 251.912L220.669 249.827L219.329 254.892L223.5 259.51L217.392 258.319L216.2 264.427L212.922 258.021L207.112 258.468L212.178 254.594Z" fill="#6AB0A0"/>
<path d="M106.402 207.813C106.104 207.813 105.955 207.664 105.806 207.366C105.061 204.983 105.21 201.854 105.21 201.705C105.21 201.407 105.508 201.109 105.806 201.109C106.104 201.109 106.402 201.407 106.402 201.705C106.402 201.705 106.253 204.834 106.849 206.919C106.998 207.217 106.7 207.515 106.402 207.664C106.551 207.813 106.551 207.813 106.402 207.813Z" fill="#26192A"/>
<path d="M106.253 219.583C105.955 219.583 105.806 219.434 105.657 219.136C104.912 216.753 105.061 213.624 105.061 213.475C105.061 213.177 105.359 212.879 105.657 212.879C105.955 212.879 106.253 213.177 106.253 213.475C106.253 213.475 106.104 216.604 106.7 218.689C106.849 218.987 106.551 219.285 106.253 219.434C106.253 219.583 106.253 219.583 106.253 219.583Z" fill="#26192A"/>
<path d="M111.616 216.604C111.318 216.604 111.169 216.455 111.02 216.157C110.275 213.773 110.424 210.645 110.424 210.496C110.424 210.198 110.722 209.9 111.02 209.9C111.318 209.9 111.616 210.198 111.616 210.496C111.616 210.496 111.467 213.624 112.063 215.71C112.212 216.008 111.914 216.306 111.616 216.455C111.765 216.604 111.765 216.604 111.616 216.604Z" fill="#26192A"/>
<path d="M111.914 228.075C111.617 228.075 111.468 227.926 111.319 227.628C110.574 225.245 110.723 222.116 110.723 221.967C110.723 221.669 111.021 221.371 111.319 221.371C111.617 221.371 111.914 221.669 111.914 221.967C111.914 221.967 111.766 225.096 112.361 227.182C112.51 227.48 112.212 227.777 111.914 227.926C112.063 228.075 111.914 228.075 111.914 228.075Z" fill="#26192A"/>
<path d="M117.277 230.905C116.979 230.905 116.83 230.756 116.681 230.458C115.936 228.075 116.085 224.946 116.085 224.797C116.085 224.499 116.383 224.201 116.681 224.201C116.979 224.201 117.277 224.499 117.277 224.797C117.277 224.797 117.128 227.926 117.724 230.011C117.873 230.309 117.575 230.607 117.277 230.756C117.277 230.905 117.277 230.905 117.277 230.905Z" fill="#26192A"/>
<path d="M115.937 238.206C115.788 238.206 115.49 238.057 115.49 237.908C114.447 235.673 114.149 232.545 114.149 232.396C114.149 232.098 114.298 231.8 114.596 231.8C114.894 231.8 115.192 231.949 115.192 232.247C115.192 232.247 115.49 235.375 116.533 237.461C116.682 237.759 116.533 238.057 116.235 238.206C116.086 238.206 116.086 238.206 115.937 238.206Z" fill="#26192A"/>
<path d="M114 246.25C113.851 246.25 113.553 246.101 113.553 245.952C112.51 243.717 112.212 240.589 112.212 240.44C112.212 240.142 112.361 239.844 112.659 239.844C112.957 239.844 113.255 239.993 113.255 240.291C113.255 240.291 113.553 243.419 114.596 245.505C114.745 245.803 114.596 246.101 114.298 246.25C114.149 246.25 114 246.25 114 246.25Z" fill="#26192A"/>
<path d="M112.361 206.324C112.063 206.324 111.765 206.175 111.765 205.877C111.467 203.494 112.212 200.365 112.361 200.216C112.361 199.918 112.808 199.769 113.106 199.769C113.404 199.769 113.553 200.216 113.553 200.514C113.553 200.514 112.808 203.494 113.106 205.729C112.957 206.026 112.659 206.175 112.361 206.324Z" fill="#26192A"/>
<path d="M108.487 196.641C108.189 196.641 107.892 196.492 107.892 196.194C107.594 193.81 108.338 190.682 108.487 190.533C108.487 190.235 108.934 190.086 109.232 190.086C109.53 190.086 109.679 190.533 109.679 190.831C109.679 190.831 108.934 193.81 109.232 196.045C109.083 196.343 108.785 196.492 108.487 196.641Z" fill="#26192A"/>
<path d="M121.151 243.569C121.002 243.569 120.704 243.42 120.704 243.271C119.661 241.036 119.363 237.908 119.363 237.759C119.363 237.461 119.512 237.163 119.81 237.163C120.108 237.163 120.406 237.312 120.406 237.61C120.406 237.61 120.704 240.738 121.747 242.824C121.896 243.122 121.747 243.42 121.449 243.569C121.3 243.569 121.151 243.569 121.151 243.569Z" fill="#26192A"/>
<path d="M120.108 250.124C119.959 250.124 119.81 250.124 119.661 249.975C118.172 248.038 116.98 245.058 116.98 245.058C116.831 244.761 116.98 244.463 117.278 244.314C117.576 244.165 117.874 244.314 118.023 244.612C118.023 244.612 119.066 247.591 120.555 249.23C120.704 249.528 120.704 249.826 120.406 249.975C120.406 250.124 120.257 250.124 120.108 250.124Z" fill="#26192A"/>
<path d="M108.637 234.482C108.488 234.482 108.19 234.333 108.19 234.184C107.147 231.949 106.849 228.82 106.849 228.671C106.849 228.373 106.998 228.075 107.296 228.075C107.594 228.075 107.892 228.224 107.892 228.522C107.892 228.522 108.19 231.651 109.233 233.737C109.382 234.035 109.233 234.333 108.935 234.482C108.935 234.482 108.786 234.482 108.637 234.482Z" fill="#26192A"/>
<path d="M174.783 202.302C174.634 202.302 174.485 202.153 174.336 202.004L168.228 193.512C168.079 193.363 168.079 193.214 168.079 193.065C168.079 192.916 168.228 192.767 168.377 192.767L177.316 187.702C177.614 187.553 177.912 187.702 178.061 187.851L183.424 195.747C183.573 195.896 183.573 196.045 183.573 196.194C183.573 196.343 183.424 196.492 183.275 196.492L174.932 202.153C174.932 202.302 174.932 202.302 174.783 202.302ZM169.569 193.512L174.932 200.961L182.381 195.896L177.614 188.894L169.569 193.512Z" fill="#26192A"/>
<path d="M96.5691 193.81C96.4201 193.81 96.4201 193.81 96.2711 193.81L90.163 191.128C89.865 190.979 89.865 190.83 89.865 190.532L91.3548 181.296C91.3548 181.147 91.5038 180.998 91.6527 180.998C91.8017 180.849 91.9507 180.849 92.0997 180.849L99.8466 182.338C99.9956 182.338 100.145 182.487 100.294 182.636C100.443 182.785 100.443 182.934 100.294 183.083L97.165 193.512C97.165 193.661 97.016 193.81 96.867 193.81C96.7181 193.81 96.7181 193.81 96.5691 193.81ZM91.2058 190.234L96.2711 192.469L99.1017 183.232L92.5466 181.891L91.2058 190.234Z" fill="#26192A"/>
</svg>
