<svg width="183" height="313" viewBox="0 0 183 313" fill="none" xmlns="http://www.w3.org/2000/svg">
<path d="M112.48 135.856C112.48 135.856 129.016 119.766 156.429 147.328C192.035 183.232 151.214 213.326 151.214 213.326C151.214 213.326 97.2838 173.101 112.48 135.856Z" fill="#FAB217"/>
<path d="M95.1987 60.1755C95.1987 60.1755 159.558 54.5143 166.411 28.1449C173.264 1.7755 161.644 -2.24695 156.28 4.15918C150.917 10.5653 157.323 34.551 142.127 36.9347C133.04 38.4245 155.982 14.1408 147.193 10.2673C138.403 6.39387 136.615 43.0429 131.252 40.9571C125.888 38.8714 139.446 15.9286 128.57 20.249C117.844 24.5694 128.123 47.8102 114.268 49.151C112.629 49.3 118.737 33.6571 112.629 35.5939C106.67 37.3816 118.738 50.9388 89.2395 58.2388C89.5375 58.2388 89.9844 63.3041 95.1987 60.1755Z" fill="white"/>
<path d="M92.2189 61.6646C89.8352 61.6646 89.0903 59.4299 88.9413 58.2381C88.9413 57.9402 89.0903 57.6422 89.3882 57.6422C109.351 52.7259 109.798 45.1279 110.245 40.0626C110.394 37.6789 110.543 35.7422 112.778 34.9973C113.97 34.6993 114.864 34.8483 115.46 35.5932C116.8 37.232 116.056 41.4034 115.311 44.9789C115.013 46.3197 114.715 47.8095 114.715 48.5544C121.27 47.8095 121.866 41.2544 122.313 34.4014C122.76 28.1442 123.207 21.8871 128.57 19.6524C130.805 18.7585 132.145 18.9075 133.039 19.9504C134.38 21.7381 133.337 25.9095 132.145 30.3789C130.954 34.6993 129.762 39.7646 131.549 40.3606C131.698 40.3606 131.698 40.3606 131.847 40.3606C133.486 40.3606 135.274 33.8055 136.764 27.8463C139.147 18.7585 141.531 9.22383 146.149 9.22383C146.596 9.22383 147.192 9.3728 147.639 9.52178C148.682 9.96872 149.427 10.7136 149.725 11.7565C150.917 15.332 147.49 21.4402 144.511 26.8034C142.425 30.5279 140.19 34.6993 140.786 35.8912C140.786 35.8912 140.935 36.1891 141.531 36.1891C141.68 36.1891 141.978 36.1891 142.127 36.1891C151.364 34.6993 152.109 24.7177 153.003 15.9279C153.449 10.8626 153.896 6.09525 155.982 3.5626C157.472 1.62586 159.558 0.583008 161.643 0.583008C163.58 0.583008 165.368 1.47689 166.56 3.26464C168.496 5.7973 171.178 12.3524 167.156 27.9953C164.176 39.1687 151.215 47.9585 128.57 54.2157C112.629 58.685 97.1352 60.1748 95.6454 60.3238C94.3046 61.3667 93.1127 61.6646 92.2189 61.6646ZM90.1331 58.685C90.2821 59.4299 90.8781 60.6218 92.2189 60.6218C92.9638 60.6218 93.8576 60.3238 94.9005 59.7279C94.9005 59.7279 95.0495 59.7279 95.1985 59.7279C95.7944 59.7279 159.111 53.7687 165.964 28.1442C169.986 13.0973 167.454 6.84015 165.666 4.45648C164.623 2.96668 163.133 2.22178 161.643 2.22178C160.005 2.22178 158.217 3.11566 156.876 4.75444C155.088 6.98913 154.641 11.6075 154.194 16.5238C153.449 25.7606 152.407 36.1891 142.425 37.6789C142.127 37.6789 141.829 37.6789 141.68 37.6789C140.786 37.6789 140.19 37.381 139.892 36.785C138.998 35.1463 140.637 31.8687 143.617 26.6544C146.298 21.7381 149.725 15.481 148.831 12.5014C148.533 11.7565 148.086 11.3095 147.341 10.8626C147.043 10.7136 146.596 10.5646 146.298 10.5646C142.574 10.5646 140.041 20.3973 137.956 28.2932C135.87 36.4871 134.38 41.5524 131.996 41.5524C131.847 41.5524 131.549 41.5524 131.4 41.4034C128.57 40.3606 129.911 35.2952 131.251 30.081C132.294 26.3565 133.337 22.0361 132.294 20.6953C132.145 20.5463 131.847 20.2483 131.251 20.2483C130.656 20.2483 130.06 20.3973 129.166 20.6953C124.547 22.632 124.1 28.2932 123.654 34.4014C123.207 41.5524 122.611 48.8524 114.715 49.5973C114.417 49.5973 114.119 49.4483 113.97 49.2993C113.523 48.7034 113.672 47.5116 114.268 44.681C114.864 41.8504 115.758 37.381 114.715 36.1891C114.417 35.8912 113.97 35.7422 113.225 36.0401C111.735 36.4871 111.586 37.6789 111.437 40.0626C110.99 45.2769 110.394 53.6197 90.1331 58.685Z" fill="#26192A"/>
<path d="M76.2779 63.6016C76.2779 63.6016 12.2167 56.1526 5.95952 29.6342C-0.297626 3.11588 11.6208 -0.608613 16.8351 5.94649C22.0493 12.6506 15.0473 36.3383 29.9452 39.1689C39.033 40.9567 16.6861 15.9281 25.6248 12.3526C34.5636 8.7771 35.3085 45.4261 40.6718 43.4893C46.0351 41.5526 33.2228 18.3118 43.9493 22.7812C54.6758 27.2506 43.6514 50.3424 57.3575 52.1302C58.9963 52.2791 53.3351 36.6363 59.2942 38.573C65.2534 40.6587 52.7391 53.7689 82.0881 61.8138C82.0881 61.8138 81.6412 66.8791 76.2779 63.6016Z" fill="white"/>
<path d="M79.4065 65.241C78.5126 65.241 77.3208 64.7941 76.129 64.0492C74.6392 63.9002 59.1453 61.8145 43.3534 57.0472C20.8575 50.0451 8.19427 40.9574 5.51263 29.7839C1.93712 14.29 4.61874 7.73492 6.70445 5.20227C8.04527 3.56349 9.83305 2.66962 11.6208 2.66962C13.7065 2.66962 15.7922 3.86145 17.282 5.79819C19.2187 8.33084 19.5167 13.0982 19.8147 18.3125C20.4106 27.1023 21.0065 37.0839 30.0943 38.8717C30.3922 38.8717 30.5412 39.0206 30.8392 39.0206C31.4351 39.0206 31.5841 38.8717 31.5841 38.7227C32.329 37.5308 30.0943 33.3594 28.1576 29.6349C25.3269 24.1227 22.0494 17.8655 23.3902 14.439C23.8371 13.3961 24.582 12.6512 25.6249 12.2043C26.0718 12.0553 26.5187 11.9064 26.9657 11.9064C31.5841 11.9064 33.8187 21.441 35.9045 30.6778C37.2453 36.339 38.7351 43.341 40.3738 43.341H40.5228C42.4596 42.5961 41.2677 37.6798 40.2249 33.2104C39.182 28.741 38.2881 24.5696 39.629 22.7819C40.5228 21.739 41.8636 21.59 44.0983 22.6329C49.3126 24.8676 49.6106 31.2737 49.9085 37.5308C50.2065 44.3839 50.5045 50.939 57.0596 51.8329C57.0596 51.237 56.7616 49.5982 56.6126 48.2574C56.0167 44.6819 55.2718 40.5104 56.7616 38.8717C57.3575 38.1268 58.2514 37.9778 59.4433 38.4247C61.678 39.1696 61.6779 41.2553 61.8269 43.49C61.9759 48.5553 62.4228 56.1533 82.0881 61.6655C82.3861 61.6655 82.5351 61.9635 82.5351 62.2615C82.5351 63.0064 81.6412 65.241 79.4065 65.241ZM11.6208 3.56349C10.131 3.56349 8.6412 4.30839 7.59834 5.79819C5.6616 8.18186 3.12894 14.29 6.70445 29.4859C12.8126 55.2594 75.831 63.0064 76.5759 63.0064C76.7249 63.0064 76.7249 63.0063 76.8738 63.1553C77.9167 63.9002 78.9596 64.1982 79.7045 64.1982C81.0453 64.1982 81.6412 63.0064 81.7902 62.2615C61.678 56.6002 61.38 48.2574 61.231 43.1921C61.082 40.8084 61.082 39.6166 59.5922 39.0206C58.8473 38.7227 58.4004 38.8717 58.1024 39.1696C57.0596 40.3615 57.8045 44.8308 58.2514 47.6615C58.6983 50.4921 58.8473 51.6839 58.4004 52.2798C58.2514 52.4288 58.1024 52.5778 57.8045 52.5778C49.9086 51.5349 49.6106 44.2349 49.1636 37.0839C48.8657 30.9757 48.5677 25.1655 43.9494 23.2288C43.0555 22.9308 42.4596 22.6329 41.8636 22.6329C41.2677 22.6329 40.9698 22.9308 40.8208 23.0798C39.778 24.4206 40.6718 28.741 41.5657 32.4655C42.7575 37.8288 43.9494 42.7451 41.1187 43.788C40.9698 43.788 40.6718 43.937 40.5228 43.937C38.1392 43.937 36.7984 38.8717 34.8616 30.5288C33.0739 22.4839 30.8392 12.6512 26.9657 12.6512C26.6677 12.6512 26.3698 12.6512 25.9229 12.8002C25.178 13.0982 24.582 13.6941 24.4331 14.29C23.2412 17.2696 26.5187 23.5268 29.2004 28.5921C31.882 33.9553 33.5208 37.2329 32.6269 38.8717C32.18 39.6166 31.4351 39.9145 29.9453 39.6166C19.9636 37.6798 19.3677 27.2512 18.7718 18.0145C18.4738 13.0982 18.1759 8.47982 16.3881 6.24513C15.0473 4.60635 13.4086 3.56349 11.6208 3.56349Z" fill="#26192A"/>
<path d="M124.994 154.926C124.994 154.926 125.143 61.6649 108.01 51.0873C90.8778 40.5098 24.284 67.4751 25.7738 93.5465C27.2636 119.618 79.7044 100.102 79.7044 100.102L74.4901 158.502L124.994 154.926Z" fill="#BB7A46"/>
<path d="M109.5 58.3871C109.5 58.3871 145.255 58.3871 147.937 70.3055C147.937 70.3055 124.696 91.9075 109.5 58.3871Z" fill="#BB7A46"/>
<path d="M43.7997 67.7725C43.7997 67.7725 58.9956 87.8848 55.2711 106.358C55.2711 106.358 29.3487 113.062 23.9854 96.9725C18.6221 81.0317 43.7997 67.7725 43.7997 67.7725Z" fill="#F8C19A"/>
<path d="M40.8201 107.253C38.8834 107.253 36.7976 101.592 35.9037 99.2084C35.7548 98.9104 35.9038 98.6125 36.2017 98.4635C36.4997 98.3145 36.7976 98.4635 36.9466 98.7615C38.2874 103.082 40.0752 106.21 40.6711 106.061C40.6711 106.061 41.8629 105.763 41.7139 96.3778C41.7139 96.0798 42.0119 95.7819 42.3099 95.7819C42.6079 95.7819 42.9058 96.0798 42.9058 96.3778C43.0548 105.615 42.0119 106.955 40.8201 107.253C40.8201 107.253 40.9691 107.253 40.8201 107.253Z" fill="#26192A"/>
<path d="M35.0105 73.7317C35.0105 73.7317 40.5227 101.293 24.135 87.8848C23.986 87.8848 24.8798 80.4358 35.0105 73.7317Z" fill="#26192A"/>
<path d="M89.537 74.4769C89.239 74.4769 88.9411 74.3279 88.6431 74.1789C86.2594 72.6891 86.5574 64.3463 86.7064 62.7075C86.7064 62.4095 87.0043 62.1116 87.3023 62.1116C87.6003 62.1116 87.8982 62.4095 87.8982 62.7075C87.7492 66.283 87.8982 72.2422 89.2391 73.1361C89.388 73.285 89.537 73.285 89.984 73.1361C93.2615 71.3483 93.4105 63.7504 93.4105 63.7504C93.4105 63.4524 93.7084 63.1544 94.0064 63.1544C94.3043 63.1544 94.6023 63.4524 94.6023 63.7504C94.6023 64.0483 94.6023 72.0932 90.5799 74.1789C90.1329 74.4769 89.835 74.4769 89.537 74.4769Z" fill="#26192A"/>
<path d="M64.6573 70.4542C64.2103 70.4542 63.9124 70.3052 63.7634 70.1563C61.6777 68.6665 62.4225 61.8134 62.7205 60.4726C62.7205 60.1746 63.0185 59.8767 63.3164 60.0256C63.6144 60.0256 63.9124 60.3236 63.7634 60.6216C63.3164 63.7501 63.3164 68.5175 64.3593 69.2624C64.5083 69.2624 64.6573 69.4114 65.1042 69.1134C68.5307 67.3257 69.1267 60.9195 69.1267 60.9195C69.1267 60.6216 69.4246 60.3236 69.7226 60.4726C70.0205 60.4726 70.3185 60.7705 70.1695 61.0685C70.1695 61.3665 69.4246 68.0705 65.5511 70.1563C65.4021 70.3052 64.9552 70.4542 64.6573 70.4542Z" fill="#26192A"/>
<path d="M135.72 70.1571C135.571 70.1571 135.571 70.1571 135.422 70.1571C135.273 70.1571 126.632 65.2407 115.906 65.3897C115.608 65.3897 115.31 65.0918 115.31 64.7938C115.31 64.4958 115.608 64.1979 115.906 64.1979C126.93 64.1979 135.571 68.8162 136.018 69.1142C136.316 69.2632 136.316 69.5611 136.167 69.8591C136.167 70.0081 135.869 70.1571 135.72 70.1571Z" fill="#26192A"/>
<path d="M124.845 140.922C124.845 140.922 158.366 180.7 149.874 230.459C141.233 280.367 79.8534 272.322 61.5289 253.849C31.584 223.755 76.1289 142.71 76.1289 142.71L124.845 140.922Z" fill="#BB7A46"/>
<path d="M86.2594 253.252C86.2594 253.252 85.8124 276.791 88.941 312.099H72.2552C72.2552 312.099 64.9553 281.409 66.892 253.252H86.2594Z" fill="#BB7A46"/>
<path d="M129.612 149.564C129.612 149.564 157.471 149.266 161.643 124.982C163.729 113.212 152.406 101.592 152.406 101.592L167.155 93.5472C167.155 93.5472 185.629 112.617 178.18 136.602C169.39 164.61 139.296 171.613 139.296 171.613L129.612 149.564Z" fill="#BB7A46"/>
<path d="M75.9799 142.412C75.9799 142.412 59.2942 164.61 37.0962 153.586C26.5187 148.223 23.6881 132.282 23.6881 132.282L8.49213 139.433C8.49213 139.433 12.9615 165.653 36.6493 173.847C64.5084 183.531 87.8982 163.27 87.8982 163.27L75.9799 142.412Z" fill="#BB7A46"/>
<path d="M127.08 255.338C127.08 255.338 111.437 276.195 122.908 283.197C134.231 290.348 140.786 285.432 140.786 285.432L141.531 299.436C141.531 299.436 125.888 304.501 114.118 296.456C89.8348 279.919 102.349 253.997 102.349 253.997L127.08 255.338Z" fill="#BB7A46"/>
<path d="M68.5304 243.42C68.5304 243.42 58.1018 224.649 61.5284 201.557C64.9549 178.465 77.0222 147.179 99.0712 164.163C121.269 181.147 128.569 239.547 109.5 249.379C77.7671 265.767 68.5304 243.42 68.5304 243.42Z" fill="#F8C19A"/>
<path d="M132.443 149.414C132.443 149.414 128.569 197.088 153.747 202.6C153.747 202.6 151.363 208.559 151.214 213.177C151.214 213.177 131.996 207.218 124.994 186.957C117.992 166.696 124.696 137.943 124.696 137.943C124.696 137.943 132.741 147.03 132.443 149.414Z" fill="#FAB217"/>
<path d="M75.9797 142.412C75.9797 142.412 57.5063 181.892 51.994 210.645C51.994 210.645 47.0777 205.431 49.6104 188.149C51.6961 172.208 63.4654 144.051 75.9797 142.412Z" fill="#FAB217"/>
<path d="M132.889 248.783L157.322 251.018C157.322 251.018 145.553 275.898 129.91 260.255C113.969 244.463 132.889 248.783 132.889 248.783Z" fill="#BB7A46"/>
<path d="M62.2732 48.5543C49.9079 49.2992 48.1202 57.642 48.1202 57.642C48.1202 57.642 42.012 78.7971 64.21 77.0094C84.9181 75.5196 77.3202 47.6604 62.2732 48.5543ZM63.6141 72.391C48.8651 73.5828 52.8875 59.4298 52.8875 59.4298C52.8875 59.4298 54.0794 53.9175 62.2732 53.3216C72.2549 52.7257 77.3202 71.3481 63.6141 72.391Z" fill="#98D5CC"/>
<path d="M94.0063 53.4717C81.641 54.2166 79.8533 62.5595 79.8533 62.5595C79.8533 62.5595 73.7451 83.7146 95.9431 81.9268C116.651 80.437 109.053 52.5779 94.0063 53.4717ZM95.3471 77.3085C80.5981 78.5003 84.6206 64.3472 84.6206 64.3472C84.6206 64.3472 85.8124 58.835 94.0063 58.2391C103.988 57.6432 109.202 76.2656 95.3471 77.3085Z" fill="#98D5CC"/>
<path d="M107.712 64.1973L119.631 58.983L117.694 55.4075L104.286 60.4728L107.712 64.1973Z" fill="#98D5CC"/>
<path d="M74.4896 65.0922C74.4896 65.0922 78.8101 64.7942 81.0447 67.1779L82.6835 62.8575C82.6835 62.8575 79.8529 58.3881 74.3407 60.7718V65.0922H74.4896Z" fill="#98D5CC"/>
<path d="M159.408 111.87L174.306 103.677L167.9 91.6093L152.555 101.591L159.408 111.87Z" fill="#26192A"/>
<path d="M117.842 97.8675C117.544 97.8675 117.246 97.5695 117.246 97.2715C117.246 95.7817 116.651 92.8021 116.651 92.8021C116.651 92.5042 116.8 92.2062 117.097 92.2062C117.395 92.2062 117.693 92.3552 117.693 92.6532C117.693 92.8021 118.289 95.7817 118.289 97.4205C118.438 97.5695 118.14 97.8675 117.842 97.8675Z" fill="#26192A"/>
<path d="M113.82 101.592C113.522 101.592 113.224 101.294 113.224 100.996C113.224 99.5063 112.629 96.5267 112.629 96.5267C112.629 96.2287 112.778 95.9308 113.076 95.9308C113.373 95.9308 113.671 96.0798 113.671 96.3777C113.671 96.5267 114.267 99.5063 114.267 101.145C114.416 101.443 114.118 101.592 113.82 101.592Z" fill="#26192A"/>
<path d="M118.439 106.509C118.141 106.509 117.843 106.212 117.843 105.914C117.843 104.424 117.247 101.444 117.247 101.444C117.247 101.146 117.396 100.848 117.694 100.848C117.992 100.848 118.29 100.997 118.29 101.295C118.29 101.444 118.886 104.424 118.886 106.063C119.035 106.361 118.737 106.509 118.439 106.509Z" fill="#26192A"/>
<path d="M113.522 111.872C113.224 111.872 112.926 111.574 112.926 111.276C112.926 109.786 112.33 106.807 112.33 106.807C112.33 106.509 112.479 106.211 112.777 106.211C113.075 106.211 113.373 106.36 113.373 106.658C113.373 106.807 113.969 109.786 113.969 111.425C114.118 111.723 113.82 111.872 113.522 111.872Z" fill="#26192A"/>
<path d="M118.439 114.852C118.141 114.852 117.843 114.554 117.843 114.256C117.843 112.766 117.247 109.786 117.247 109.786C117.247 109.489 117.396 109.191 117.694 109.191C117.992 109.191 118.29 109.34 118.29 109.637C118.29 109.786 118.886 112.766 118.886 114.405C119.035 114.554 118.737 114.852 118.439 114.852Z" fill="#26192A"/>
<path d="M113.225 122.599C112.927 122.599 112.629 122.301 112.629 122.003C112.629 120.513 112.033 117.534 112.033 117.534C112.033 117.236 112.182 116.938 112.48 116.938C112.778 116.938 113.076 117.087 113.076 117.385C113.076 117.534 113.672 120.513 113.672 122.152C113.821 122.301 113.523 122.599 113.225 122.599Z" fill="#26192A"/>
<path d="M119.481 124.982C119.183 124.982 118.885 124.684 118.885 124.386C118.885 122.896 118.289 119.917 118.289 119.917C118.289 119.619 118.438 119.321 118.736 119.321C119.034 119.321 119.332 119.47 119.332 119.768C119.332 119.917 119.928 122.896 119.928 124.535C120.077 124.684 119.779 124.982 119.481 124.982Z" fill="#26192A"/>
<path d="M114.416 131.686C114.118 131.686 113.82 131.388 113.82 131.09C113.82 129.6 113.224 126.621 113.224 126.621C113.224 126.323 113.373 126.025 113.671 126.025C113.969 126.025 114.267 126.174 114.267 126.472C114.267 126.621 114.863 129.6 114.863 131.239C115.012 131.388 114.863 131.686 114.416 131.686Z" fill="#26192A"/>
<path d="M119.78 134.071C119.482 134.071 119.184 133.773 119.184 133.475C119.184 131.985 118.588 129.005 118.588 129.005C118.588 128.707 118.737 128.409 119.035 128.409C119.333 128.409 119.631 128.558 119.631 128.856C119.631 129.005 120.227 131.985 120.227 133.624C120.376 133.773 120.078 134.071 119.78 134.071Z" fill="#26192A"/>
<path d="M112.926 90.7168C112.628 90.7168 112.33 90.4188 112.33 90.1209C112.33 88.6311 111.735 85.6515 111.735 85.6515C111.735 85.3535 111.884 85.0555 112.181 85.0555C112.479 85.0555 112.777 85.2045 112.777 85.5025C112.777 85.6515 113.373 88.6311 113.373 90.2698C113.522 90.4188 113.224 90.7168 112.926 90.7168Z" fill="#26192A"/>
<path d="M116.204 86.5456C115.906 86.5456 115.608 86.2477 115.608 85.9497C115.608 84.4599 115.012 81.4803 115.012 81.4803C115.012 81.1824 115.161 80.8844 115.459 80.8844C115.757 80.8844 116.055 81.0334 116.055 81.3313C116.055 81.4803 116.651 84.4599 116.651 86.0987C116.8 86.2477 116.502 86.5456 116.204 86.5456Z" fill="#26192A"/>
<path d="M72.2548 311.951H88.9405L87.8977 299.586C87.8977 299.586 72.5528 298.394 69.7222 299.586L72.2548 311.951Z" fill="#26192A"/>
<path d="M0 139.283L138.402 84.4582L180.116 82.6705L152.108 111.275L9.98165 168.185L0 139.283Z" fill="#F58A28"/>
<path d="M26.5184 128.854L35.7551 158.65L9.98165 168.185L0 139.283L26.5184 128.854Z" fill="#DB6362"/>
<path d="M138.402 84.4582L133.188 93.546L143.616 97.2705L137.806 107.848L152.108 111.275L180.116 82.6705L138.402 84.4582Z" fill="#F8C19A"/>
<path d="M159.259 83.5643L165.814 98.0154L180.116 82.6705L159.259 83.5643Z" fill="#26192A"/>
<path d="M39.4794 157.012C39.1814 157.012 39.0325 156.863 38.8835 156.565L29.3488 127.663C29.1998 127.365 29.3488 127.067 29.6468 126.918C29.9447 126.769 30.2427 126.918 30.3917 127.216L39.9263 156.118C40.0753 156.416 39.9263 156.714 39.6284 156.863C39.6284 157.012 39.4794 157.012 39.4794 157.012Z" fill="#26192A"/>
<path d="M32.7753 132.877C32.4773 132.877 32.3284 132.728 32.3284 132.579C32.1794 132.281 32.3284 131.983 32.6264 131.834L133.039 93.0993C133.337 92.9504 133.635 93.0993 133.784 93.3973C133.932 93.6953 133.783 93.9932 133.486 94.1422L33.0733 132.877C32.9243 132.877 32.9243 132.877 32.7753 132.877Z" fill="#26192A"/>
<path d="M35.7548 145.988C35.4568 145.988 35.3078 145.839 35.1588 145.69C35.0099 145.392 35.1589 145.094 35.4568 144.945L137.359 107.402C137.657 107.253 137.955 107.402 138.104 107.7C138.253 107.998 138.104 108.296 137.806 108.445L36.0527 145.839C35.9038 145.988 35.9037 145.988 35.7548 145.988Z" fill="#26192A"/>
<path d="M157.62 160.886C157.322 160.886 157.173 160.737 157.024 160.439C157.024 160.141 157.173 159.843 157.471 159.843C158.365 159.694 160.302 157.757 161.345 156.714C161.494 156.417 161.941 156.417 162.09 156.714C162.239 157.012 162.388 157.31 162.09 157.459C161.941 157.757 159.259 160.588 157.62 160.886C157.769 160.886 157.62 160.886 157.62 160.886Z" fill="#26192A"/>
<path d="M157.62 155.075C157.322 155.075 157.173 154.926 157.024 154.628C157.024 154.33 157.173 154.032 157.471 154.032C158.365 153.883 160.302 151.947 161.345 150.904C161.494 150.606 161.941 150.606 162.09 150.904C162.388 151.053 162.388 151.5 162.09 151.649C161.941 151.798 159.11 154.628 157.62 155.075Z" fill="#26192A"/>
<path d="M164.622 153.139C164.473 153.139 164.175 152.99 164.175 152.841C164.026 152.543 164.175 152.245 164.473 152.096C165.218 151.649 166.708 149.414 167.304 147.925C167.453 147.627 167.751 147.478 168.049 147.627C168.347 147.776 168.496 148.074 168.347 148.372C168.198 148.819 166.261 152.245 164.92 152.99C164.771 153.139 164.622 153.139 164.622 153.139Z" fill="#26192A"/>
<path d="M163.431 146.583C163.282 146.583 162.984 146.434 162.984 146.285C162.835 145.987 162.984 145.689 163.282 145.54C164.027 145.093 165.516 142.859 166.112 141.369C166.261 141.071 166.559 140.922 166.857 141.071C167.155 141.22 167.304 141.518 167.155 141.816C167.006 142.263 165.07 145.689 163.729 146.434C163.58 146.583 163.58 146.583 163.431 146.583Z" fill="#26192A"/>
<path d="M170.135 145.242C169.986 145.242 169.688 145.093 169.688 144.944C169.539 144.646 169.688 144.348 169.986 144.199C170.731 143.752 172.22 141.517 172.816 140.028C172.965 139.73 173.263 139.581 173.561 139.73C173.859 139.879 174.008 140.177 173.859 140.475C173.71 140.921 171.774 144.348 170.433 145.093C170.433 145.093 170.284 145.242 170.135 145.242Z" fill="#26192A"/>
<path d="M169.241 139.433C169.092 139.433 168.794 139.284 168.794 139.135C168.645 138.837 168.794 138.539 169.092 138.39C169.837 137.943 171.327 135.708 171.922 134.218C172.071 133.92 172.369 133.771 172.667 133.92C172.965 134.069 173.114 134.367 172.965 134.665C172.816 135.112 170.88 138.539 169.539 139.284C169.39 139.433 169.39 139.433 169.241 139.433Z" fill="#26192A"/>
<path d="M174.753 135.857C174.604 135.857 174.455 135.857 174.306 135.708C174.157 135.41 174.157 135.112 174.306 134.963C175.051 134.367 175.945 131.834 176.243 130.344C176.392 130.046 176.689 129.897 176.987 129.897C177.285 130.046 177.434 130.344 177.434 130.642C177.285 131.089 176.243 134.814 175.051 135.857C175.051 135.857 174.902 135.857 174.753 135.857Z" fill="#26192A"/>
<path d="M139.445 249.528C139.296 249.528 139.147 249.528 138.998 249.379C138.849 249.081 138.849 248.783 139.147 248.634C139.892 248.038 140.786 245.505 141.233 244.015C141.382 243.717 141.68 243.568 141.978 243.568C142.276 243.717 142.425 244.015 142.276 244.313C142.127 244.76 140.935 248.485 139.743 249.379C139.594 249.379 139.445 249.528 139.445 249.528Z" fill="#26192A"/>
<path d="M136.764 244.165C136.615 244.165 136.466 244.165 136.317 244.016C136.168 243.718 136.168 243.42 136.466 243.271C137.211 242.675 138.104 240.142 138.551 238.653C138.7 238.355 138.998 238.206 139.296 238.206C139.594 238.355 139.743 238.653 139.594 238.951C139.445 239.398 138.253 243.122 137.062 244.016C136.913 244.165 136.913 244.165 136.764 244.165Z" fill="#26192A"/>
<path d="M142.126 239.398C141.977 239.398 141.828 239.398 141.828 239.249C141.53 239.1 141.53 238.653 141.679 238.504C142.126 237.759 142.424 235.077 142.424 233.587C142.424 233.289 142.722 232.991 143.02 232.991C143.318 232.991 143.616 233.289 143.616 233.587C143.616 234.034 143.467 237.908 142.573 239.249C142.573 239.398 142.275 239.398 142.126 239.398Z" fill="#26192A"/>
<path d="M138.253 234.035C138.104 234.035 137.955 234.035 137.955 233.886C137.658 233.737 137.658 233.29 137.807 233.141C138.402 232.396 138.551 229.715 138.551 228.225C138.551 227.927 138.849 227.629 139.147 227.629C139.445 227.629 139.743 227.927 139.743 228.225C139.743 228.672 139.594 232.545 138.7 233.886C138.7 233.886 138.402 234.035 138.253 234.035Z" fill="#26192A"/>
<path d="M143.765 229.862C143.616 229.862 143.467 229.862 143.467 229.713C143.169 229.564 143.169 229.117 143.318 228.968C143.765 228.224 144.063 225.542 144.063 224.052C144.063 223.754 144.361 223.456 144.659 223.456C144.957 223.456 145.255 223.754 145.255 224.052C145.255 224.499 145.106 228.373 144.212 229.713C144.063 229.713 143.914 229.862 143.765 229.862Z" fill="#26192A"/>
<path d="M140.339 225.096C140.19 225.096 140.041 225.096 140.041 224.947C139.743 224.798 139.743 224.351 139.892 224.202C140.339 223.457 140.637 220.776 140.637 219.286C140.637 218.988 140.786 218.69 141.233 218.69C141.531 218.69 141.829 218.988 141.829 219.286C141.829 219.733 141.68 223.606 140.786 224.947C140.786 225.096 140.637 225.096 140.339 225.096Z" fill="#26192A"/>
<path d="M143.765 219.434C143.616 219.434 143.616 219.434 143.467 219.434C143.169 219.285 143.02 218.987 143.169 218.689C143.467 217.944 143.169 215.113 142.871 213.624C142.871 213.326 143.02 213.028 143.318 213.028C143.616 213.028 143.914 213.177 143.914 213.475C144.063 213.922 144.659 217.795 144.063 219.136C144.212 219.285 144.063 219.434 143.765 219.434Z" fill="#26192A"/>
<path d="M140.786 285.433L141.531 299.437C141.531 299.437 138.7 300.033 129.762 301.224L129.315 286.327C129.166 286.178 136.764 286.326 140.786 285.433Z" fill="#26192A"/>
<path d="M171.178 254.594L170.582 249.231L175.2 251.912L179.669 249.827L178.329 254.892L182.5 259.51L176.392 258.319L175.2 264.427L171.922 258.021L166.112 258.468L171.178 254.594Z" fill="#6AB0A0"/>
<path d="M65.402 207.813C65.1041 207.813 64.955 207.664 64.8061 207.366C64.0612 204.983 64.2101 201.854 64.2101 201.705C64.2101 201.407 64.5081 201.109 64.8061 201.109C65.104 201.109 65.402 201.407 65.402 201.705C65.402 201.705 65.253 204.834 65.8489 206.919C65.9979 207.217 65.7 207.515 65.402 207.664C65.551 207.813 65.551 207.813 65.402 207.813Z" fill="#26192A"/>
<path d="M65.2529 219.583C64.9549 219.583 64.8059 219.434 64.657 219.136C63.9121 216.753 64.061 213.624 64.061 213.475C64.061 213.177 64.359 212.879 64.657 212.879C64.9549 212.879 65.2529 213.177 65.2529 213.475C65.2529 213.475 65.1039 216.604 65.6998 218.689C65.8488 218.987 65.5508 219.285 65.2529 219.434C65.2529 219.583 65.2529 219.583 65.2529 219.583Z" fill="#26192A"/>
<path d="M70.6163 216.604C70.3183 216.604 70.1693 216.455 70.0203 216.157C69.2754 213.773 69.4244 210.645 69.4244 210.496C69.4244 210.198 69.7224 209.9 70.0203 209.9C70.3183 209.9 70.6163 210.198 70.6163 210.496C70.6163 210.496 70.4673 213.624 71.0632 215.71C71.2122 216.008 70.9142 216.306 70.6163 216.455C70.7653 216.604 70.7653 216.604 70.6163 216.604Z" fill="#26192A"/>
<path d="M70.9145 228.075C70.6165 228.075 70.4676 227.926 70.3186 227.628C69.5737 225.245 69.7227 222.116 69.7227 221.967C69.7227 221.669 70.0206 221.371 70.3186 221.371C70.6165 221.371 70.9145 221.669 70.9145 221.967C70.9145 221.967 70.7655 225.096 71.3615 227.182C71.5104 227.479 71.2125 227.777 70.9145 227.926C71.0635 228.075 70.9145 228.075 70.9145 228.075Z" fill="#26192A"/>
<path d="M76.2772 230.905C75.9792 230.905 75.8303 230.756 75.6813 230.458C74.9364 228.075 75.0854 224.946 75.0854 224.797C75.0854 224.499 75.3833 224.201 75.6813 224.201C75.9792 224.201 76.2772 224.499 76.2772 224.797C76.2772 224.797 76.1282 227.926 76.7241 230.011C76.8731 230.309 76.5752 230.607 76.2772 230.756C76.2772 230.905 76.2772 230.905 76.2772 230.905Z" fill="#26192A"/>
<path d="M74.9369 238.206C74.7879 238.206 74.4899 238.057 74.4899 237.908C73.4471 235.673 73.1491 232.545 73.1491 232.396C73.1491 232.098 73.2981 231.8 73.5961 231.8C73.894 231.8 74.192 231.949 74.192 232.247C74.192 232.247 74.4899 235.375 75.5328 237.461C75.6818 237.759 75.5328 238.057 75.2348 238.206C75.0858 238.206 75.0859 238.206 74.9369 238.206Z" fill="#26192A"/>
<path d="M72.9997 246.25C72.8507 246.25 72.5528 246.101 72.5528 245.952C71.5099 243.717 71.2119 240.589 71.2119 240.44C71.2119 240.142 71.3609 239.844 71.6589 239.844C71.9568 239.844 72.2548 239.993 72.2548 240.291C72.2548 240.291 72.5528 243.419 73.5956 245.505C73.7446 245.803 73.5956 246.101 73.2976 246.25C73.1487 246.25 72.9997 246.25 72.9997 246.25Z" fill="#26192A"/>
<path d="M71.3611 206.324C71.0631 206.324 70.7651 206.175 70.7651 205.877C70.4672 203.494 71.2121 200.365 71.3611 200.216C71.3611 199.918 71.808 199.769 72.106 199.769C72.404 199.769 72.5529 200.216 72.5529 200.514C72.5529 200.514 71.808 203.494 72.106 205.728C71.957 206.026 71.6591 206.175 71.3611 206.324Z" fill="#26192A"/>
<path d="M67.4874 196.641C67.1895 196.641 66.8915 196.492 66.8915 196.194C66.5936 193.81 67.3385 190.682 67.4874 190.533C67.4874 190.235 67.9344 190.086 68.2323 190.086C68.5303 190.086 68.6793 190.533 68.6793 190.831C68.6793 190.831 67.9344 193.81 68.2323 196.045C68.0834 196.343 67.7854 196.492 67.4874 196.641Z" fill="#26192A"/>
<path d="M80.1512 243.569C80.0022 243.569 79.7042 243.42 79.7042 243.271C78.6614 241.036 78.3634 237.907 78.3634 237.759C78.3634 237.461 78.5124 237.163 78.8104 237.163C79.1083 237.163 79.4063 237.312 79.4063 237.61C79.4063 237.61 79.7042 240.738 80.7471 242.824C80.8961 243.122 80.7471 243.42 80.4491 243.569C80.3001 243.569 80.1512 243.569 80.1512 243.569Z" fill="#26192A"/>
<path d="M79.1084 250.124C78.9594 250.124 78.8105 250.124 78.6615 249.975C77.1717 248.038 75.9798 245.058 75.9798 245.058C75.8308 244.761 75.9798 244.463 76.2778 244.314C76.5758 244.165 76.8737 244.314 77.0227 244.612C77.0227 244.612 78.0656 247.591 79.5554 249.23C79.7044 249.528 79.7043 249.826 79.4064 249.975C79.4064 250.124 79.2574 250.124 79.1084 250.124Z" fill="#26192A"/>
<path d="M67.637 234.482C67.4881 234.482 67.1901 234.333 67.1901 234.184C66.1472 231.949 65.8493 228.82 65.8493 228.671C65.8493 228.373 65.9982 228.075 66.2962 228.075C66.5942 228.075 66.8921 228.224 66.8921 228.522C66.8921 228.522 67.1901 231.651 68.233 233.737C68.3819 234.035 68.2329 234.333 67.935 234.482C67.935 234.482 67.786 234.482 67.637 234.482Z" fill="#26192A"/>
<path d="M133.783 202.302C133.634 202.302 133.485 202.153 133.336 202.004L127.228 193.512C127.079 193.363 127.079 193.214 127.079 193.065C127.079 192.916 127.228 192.767 127.377 192.767L136.316 187.702C136.614 187.553 136.912 187.702 137.061 187.851L142.424 195.747C142.573 195.896 142.573 196.045 142.573 196.194C142.573 196.343 142.424 196.492 142.275 196.492L133.932 202.153C133.932 202.302 133.932 202.302 133.783 202.302ZM128.569 193.512L133.932 200.961L141.381 195.896L136.614 188.894L128.569 193.512Z" fill="#26192A"/>
<path d="M55.5691 193.81C55.4201 193.81 55.4201 193.81 55.2711 193.81L49.163 191.128C48.865 190.979 48.865 190.83 48.865 190.532L50.3548 181.296C50.3548 181.147 50.5038 180.998 50.6527 180.998C50.8017 180.849 50.9507 180.849 51.0997 180.849L58.8466 182.338C58.9956 182.338 59.1446 182.487 59.2936 182.636C59.4426 182.785 59.4426 182.934 59.2936 183.083L56.165 193.512C56.165 193.661 56.016 193.81 55.867 193.81C55.7181 193.81 55.7181 193.81 55.5691 193.81ZM50.2058 190.234L55.2711 192.469L58.1017 183.232L51.5466 181.891L50.2058 190.234Z" fill="#26192A"/>
</svg>
