<svg width="197" height="307" viewBox="0 0 197 307" fill="none" xmlns="http://www.w3.org/2000/svg">
<path d="M167.106 107.006C167.106 107.006 195.309 126.869 196.37 152.949L165.135 133.389L167.106 107.006Z" fill="#DBB06C"/>
<path d="M162.86 101.699C162.86 101.699 158.311 155.224 173.929 175.087C173.929 175.087 186.363 127.324 162.86 101.699Z" fill="#23454E"/>
<path d="M36.7056 104.428C36.7056 104.428 17.9036 103.822 6.83478 127.324C-4.23409 150.827 -4.08246 211.63 24.1204 204.503C52.1717 197.377 53.5363 98.06 36.7056 104.428Z" fill="#23454E"/>
<path d="M176.355 213.753C176.355 213.753 172.413 19.0619 103.725 12.3902C32.9148 5.56694 43.2256 113.223 31.7018 142.487C20.178 171.752 4.56033 254.237 70.367 259.241C124.043 263.335 181.662 266.671 176.355 213.753Z" fill="#E2CE96"/>
<path d="M93.7175 51.51C93.7175 51.51 102.057 29.6755 129.957 46.5062C144.058 54.9974 145.726 79.2579 129.957 88.204C114.187 97.1501 92.2012 60.6077 93.7175 51.51Z" fill="white"/>
<path d="M116.008 53.0253C116.008 53.0253 122.831 61.9714 126.622 62.123C130.564 62.2747 132.535 48.4765 132.535 48.4765C132.535 48.4765 124.65 47.1118 116.008 53.0253Z" fill="#26192A"/>
<path d="M125.56 80.3183C121.769 80.3183 117.372 70.4624 116.917 69.2494C116.765 68.9462 116.917 68.6429 117.22 68.4913C117.523 68.3396 117.827 68.4913 117.978 68.7945C119.798 73.0401 123.589 79.5601 125.863 79.2569C128.441 78.802 131.17 71.2206 132.08 68.3396C132.231 68.0364 132.535 67.8848 132.838 67.8848C133.141 68.0364 133.293 68.3397 133.293 68.6429C132.99 69.7043 130.109 79.5601 126.318 80.3183C125.863 80.3183 125.711 80.3183 125.56 80.3183Z" fill="#26192A"/>
<path d="M125.863 80.3195C125.56 80.3195 125.256 80.0162 125.256 79.713V62.1241C125.256 61.8208 125.56 61.5176 125.863 61.5176C126.166 61.5176 126.469 61.8208 126.469 62.1241V79.8646C126.469 80.0162 126.166 80.3195 125.863 80.3195Z" fill="#26192A"/>
<path d="M108.974 24.2165C112.764 24.2165 116.252 33.3142 116.555 34.3756C116.707 34.6788 116.555 34.9821 116.252 35.1337C115.949 35.2853 115.645 35.1337 115.494 34.8304C113.977 30.8881 110.945 24.823 108.519 25.4295C108.216 25.5811 108.064 25.7327 107.912 26.036C106.851 28.3104 109.58 34.6788 110.793 36.9532C110.945 37.2565 110.793 37.5598 110.49 37.7114C110.187 37.863 109.883 37.7114 109.732 37.4081C109.277 36.4984 105.486 28.6137 106.851 25.4295C107.154 24.823 107.609 24.3681 108.216 24.2165C108.519 24.2165 108.822 24.2165 108.974 24.2165Z" fill="#26192A"/>
<path d="M87.291 30.4329C91.5366 30.4329 92.7496 40.8952 92.9012 42.1083C92.9012 42.4115 92.7496 42.7148 92.4464 42.7148C92.1431 42.7148 91.8398 42.5631 91.8398 42.2599C91.385 38.1659 89.717 31.4943 87.4426 31.4943C87.1394 31.4943 86.8361 31.6459 86.6845 31.9492C85.1682 33.9203 86.2296 40.7436 86.8361 43.3213C86.8361 43.6245 86.6845 43.9278 86.3812 43.9278C86.078 43.9278 85.7747 43.7762 85.7747 43.4729C85.6231 42.5631 83.8035 33.9203 85.7747 31.191C85.9263 30.7361 86.5328 30.4329 87.291 30.4329Z" fill="#26192A"/>
<path d="M66.8798 25.5809C66.8798 25.5809 54.7496 12.9957 47.9263 15.725C41.103 18.4543 56.2658 39.5307 56.2658 39.5307L66.8798 25.5809Z" fill="#E2CE96"/>
<path d="M60.663 27.7033C60.5114 27.7033 60.2081 27.5516 60.2081 27.4C56.1141 19.667 52.6267 20.88 52.6267 20.88C52.3234 21.0316 52.0202 20.88 51.8686 20.5767C51.7169 20.2735 51.8685 19.9702 52.1718 19.8186C52.3234 19.8186 56.569 18.1507 61.1179 26.9451C61.2695 27.2484 61.1179 27.5516 60.8146 27.7033C60.8146 27.7033 60.8146 27.7033 60.663 27.7033Z" fill="#26192A"/>
<path d="M109.791 13.6025C109.791 13.6025 115.098 -1.40869 120.708 0.107595C126.318 1.62388 123.589 19.9709 123.589 19.9709L109.791 13.6025Z" fill="#E2CE96"/>
<path d="M116.614 17.3925C116.311 17.3925 116.008 17.0893 116.008 16.786C116.462 7.68829 119.495 4.65573 119.647 4.5041C119.798 4.35247 120.253 4.35247 120.405 4.5041C120.556 4.65573 120.556 5.11062 120.405 5.26224C120.405 5.26224 117.675 8.14318 117.221 16.786C117.221 17.0893 116.917 17.3925 116.614 17.3925Z" fill="#26192A"/>
<path d="M161.193 223.456C161.193 223.456 158.767 108.219 120.86 110.948C87.1981 113.374 84.0139 209.961 93.1116 231.796C99.7833 247.717 157.857 249.991 161.193 223.456Z" fill="white"/>
<path d="M88.5621 260.454C88.5621 260.454 56.2653 295.48 41.4057 294.267C41.4057 294.267 37.9183 294.115 30.3369 287.141C22.7554 280.166 54.5974 233.616 54.5974 233.616C54.5974 233.616 80.5258 255.147 88.5621 260.454Z" fill="#E2CE96"/>
<path d="M161.344 244.23C161.344 244.23 153.46 291.235 140.268 298.209C140.268 298.209 137.235 300.029 127.076 298.209C116.917 296.39 117.827 256.36 117.827 256.36C117.827 256.36 151.64 244.23 161.344 244.23Z" fill="#E2CE96"/>
<path d="M49.1393 66.3691C48.836 66.3691 48.6844 66.2174 48.5328 65.9142C48.0779 64.3979 49.4425 60.6072 49.5942 60.1523C49.7458 59.849 50.0491 59.6974 50.3523 59.849C50.6556 60.0007 50.8072 60.3039 50.6556 60.6072C50.0491 62.1235 49.2909 64.7011 49.5942 65.6109C49.8974 65.9142 49.5942 66.2174 49.1393 66.3691C49.2909 66.3691 49.2909 66.3691 49.1393 66.3691Z" fill="#26192A"/>
<path d="M82.649 20.8802C80.981 20.5769 78.2517 20.122 77.4936 20.5769C77.1903 20.7286 76.8871 20.5769 76.7354 20.2737C76.5838 19.9704 76.7355 19.6672 77.0387 19.5155C78.4034 18.909 82.3457 19.6672 82.8006 19.8188C83.1038 19.8188 83.2555 20.122 83.2555 20.4253C83.1038 20.5769 82.9522 20.8802 82.649 20.8802Z" fill="#26192A"/>
<path d="M92.8078 19.3649C92.6561 19.3649 92.5045 19.2132 92.3529 19.0616C91.4431 17.697 89.7752 15.5742 88.8654 15.2709C88.5622 15.1193 88.4105 14.816 88.5622 14.5128C88.7138 14.2095 89.0171 14.0579 89.3203 14.2095C90.8366 14.816 93.111 18.0002 93.2626 18.4551C93.4143 18.7584 93.4143 19.0616 93.111 19.2132C93.111 19.3649 92.9594 19.3649 92.8078 19.3649Z" fill="#26192A"/>
<path d="M96.4474 27.2484C96.2958 27.2484 96.1442 27.0967 95.9925 26.9451C95.0828 25.5804 93.4148 23.4576 92.5051 23.1544C92.2018 23.0028 92.0502 22.6995 92.2018 22.3963C92.3534 22.093 92.6567 21.9414 92.96 22.093C94.4762 22.6995 96.7507 25.8837 96.9023 26.3386C97.0539 26.6418 97.0539 26.9451 96.7507 27.0967C96.7507 27.2484 96.599 27.2484 96.4474 27.2484Z" fill="#26192A"/>
<path d="M88.7142 20.88C88.5626 20.88 88.4109 20.88 88.2593 20.7284C87.0463 19.667 84.9235 17.9991 84.0137 17.8475C83.7105 17.8475 83.4072 17.5442 83.5588 17.2409C83.5588 16.9377 83.8621 16.6344 84.1653 16.7861C85.6816 16.9377 88.7142 19.667 89.0175 19.9703C89.3207 20.1219 89.3207 20.5768 89.0175 20.7284C89.0175 20.88 88.8658 20.88 88.7142 20.88Z" fill="#26192A"/>
<path d="M100.692 28.614C100.389 28.614 100.086 28.3108 100.086 28.0075C99.9343 26.4912 99.631 23.7619 99.0245 23.0038C98.8729 22.7005 98.8729 22.3973 99.1762 22.2457C99.4794 22.094 99.7827 22.094 99.9343 22.3973C100.844 23.6103 101.147 27.5526 101.147 28.0075C101.299 28.3108 101.147 28.4624 100.692 28.614C100.692 28.4624 100.692 28.614 100.692 28.614Z" fill="#26192A"/>
<path d="M97.0535 20.1219C96.7502 20.1219 96.447 19.8187 96.447 19.5154C96.2953 17.9991 95.9921 15.2698 95.3856 14.5117C95.234 14.2084 95.2339 13.9052 95.5372 13.7535C95.8405 13.6019 96.1437 13.6019 96.2953 13.9052C97.2051 15.1182 97.5084 19.0605 97.5084 19.5154C97.66 19.8187 97.3567 20.1219 97.0535 20.1219Z" fill="#26192A"/>
<path d="M102.512 20.1224C102.057 19.9708 101.906 19.6675 101.906 19.3643C102.361 17.848 102.815 15.1187 102.512 14.3605C102.361 14.0573 102.512 13.754 102.815 13.6024C103.119 13.4508 103.422 13.6024 103.574 13.9056C104.028 15.4219 103.119 19.2126 102.967 19.6675C102.967 19.9708 102.815 20.1224 102.512 20.1224Z" fill="#26192A"/>
<path d="M53.0818 71.6761C52.7785 71.6761 52.6269 71.5244 52.4753 71.2212C52.0204 69.7049 53.385 65.9142 53.5367 65.4593C53.6883 65.156 53.9915 65.0044 54.2948 65.156C54.5981 65.3077 54.7497 65.6109 54.5981 65.9142C53.9915 67.4305 53.2334 70.0082 53.5367 70.9179C53.6883 71.3728 53.5367 71.6761 53.0818 71.6761C53.2334 71.6761 53.0818 71.6761 53.0818 71.6761Z" fill="#26192A"/>
<path d="M53.6881 82.139C53.3849 82.139 53.2333 81.9874 53.0816 81.6841C52.6267 80.1678 53.9914 76.3771 54.143 75.9222C54.2947 75.619 54.5979 75.4674 54.9012 75.619C55.2044 75.7706 55.3561 76.0739 55.2044 76.3771C54.5979 77.8934 53.8398 80.4711 54.143 81.3809C54.2947 81.6841 54.143 81.9874 53.6881 82.139Z" fill="#26192A"/>
<path d="M44.7422 88.8097C44.439 88.8097 44.2873 88.6581 44.1357 88.3548C43.6808 86.8386 45.0455 83.0478 45.1971 82.593C45.3487 82.2897 45.652 82.1381 45.9552 82.2897C46.2585 82.4413 46.4101 82.7446 46.2585 83.0479C45.652 84.5641 44.8938 87.1418 45.1971 88.0516C45.3487 88.3548 45.1971 88.6581 44.7422 88.8097Z" fill="#26192A"/>
<path d="M49.1393 88.8097C48.836 88.8097 48.6844 88.6581 48.5328 88.3548C48.0779 86.8386 49.4425 83.0478 49.5942 82.593C49.7458 82.2897 50.0491 82.1381 50.3523 82.2897C50.6556 82.4413 50.8072 82.7446 50.6556 83.0479C50.0491 84.5641 49.2909 87.1418 49.5942 88.0516C49.8974 88.3548 49.5942 88.6581 49.1393 88.8097C49.2909 88.8097 49.2909 88.8097 49.1393 88.8097Z" fill="#26192A"/>
<path d="M147.546 192.221C147.242 192.221 146.939 191.918 146.939 191.614C147.091 190.098 147.091 187.217 146.636 186.459C146.484 186.156 146.636 185.853 146.787 185.701C147.091 185.549 147.394 185.701 147.546 185.853C148.304 187.217 148.152 191.16 148.001 191.614C148.001 191.918 147.849 192.221 147.546 192.221Z" fill="#26192A"/>
<path d="M150.578 182.213C150.275 182.213 149.972 181.909 149.972 181.606C150.123 180.09 150.123 177.209 149.668 176.451C149.517 176.147 149.668 175.844 149.82 175.693C150.123 175.541 150.427 175.693 150.578 175.844C151.336 177.209 151.185 181.151 151.033 181.606C151.185 181.909 150.881 182.213 150.578 182.213Z" fill="#26192A"/>
<path d="M144.059 207.687C143.755 207.687 143.452 207.384 143.452 207.081C143.604 205.565 143.604 202.684 143.149 201.925C142.997 201.622 143.149 201.319 143.3 201.167C143.604 201.016 143.907 201.167 144.059 201.319C144.817 202.684 144.665 206.626 144.513 207.081C144.665 207.536 144.362 207.687 144.059 207.687Z" fill="#26192A"/>
<path d="M155.279 208.445C154.976 208.445 154.672 208.142 154.672 207.839C154.824 206.323 154.824 203.442 154.369 202.684C154.217 202.38 154.369 202.077 154.521 201.925C154.824 201.774 155.127 201.925 155.279 202.077C156.037 203.442 155.885 207.384 155.734 207.839C155.885 208.142 155.582 208.445 155.279 208.445Z" fill="#26192A"/>
<path d="M146.181 235.89C146.03 235.89 145.878 235.89 145.878 235.739C145.575 235.587 145.575 235.132 145.726 234.98C146.636 233.767 148.153 231.341 148.153 230.432C148.153 230.128 148.456 229.825 148.759 229.825C149.062 229.825 149.366 230.128 149.366 230.432C149.366 231.948 146.94 235.132 146.636 235.587C146.485 235.89 146.333 235.89 146.181 235.89Z" fill="#26192A"/>
<path d="M147.697 215.42C147.394 215.42 147.091 215.116 147.091 214.813C147.243 213.297 147.243 210.416 146.788 209.658C146.636 209.355 146.788 209.051 146.939 208.9C147.243 208.748 147.546 208.9 147.697 209.051C148.456 210.416 148.304 214.358 148.152 214.813C148.304 215.116 148.001 215.42 147.697 215.42Z" fill="#26192A"/>
<path d="M150.882 202.077C150.882 202.077 150.73 202.077 150.882 202.077C150.579 202.077 150.275 201.774 150.275 201.47C150.427 199.954 150.427 197.073 149.972 196.315C149.82 196.012 149.972 195.708 150.124 195.557C150.427 195.405 150.73 195.557 150.882 195.708C151.64 197.073 151.488 201.015 151.337 201.47C151.337 201.925 151.185 202.077 150.882 202.077Z" fill="#26192A"/>
<path d="M156.341 218.149C156.037 218.149 155.734 217.846 155.734 217.542C155.886 216.026 155.886 213.145 155.431 212.387C155.279 212.084 155.431 211.78 155.582 211.629C155.886 211.477 156.189 211.629 156.341 211.78C157.099 213.145 156.947 217.087 156.795 217.542C156.947 217.846 156.644 218.149 156.341 218.149Z" fill="#26192A"/>
<path d="M153.915 230.431C153.763 230.431 153.611 230.431 153.611 230.28C153.308 230.128 153.308 229.673 153.46 229.522C154.369 228.308 156.037 226.034 156.037 225.124C156.037 224.821 156.341 224.518 156.644 224.669C156.947 224.669 157.25 224.973 157.099 225.276C156.947 226.792 154.521 229.976 154.218 230.28C154.369 230.28 154.218 230.431 153.915 230.431Z" fill="#26192A"/>
<path d="M149.668 224.972H149.517C149.214 224.821 149.062 224.517 149.214 224.214C149.82 222.698 150.73 220.12 150.427 219.21C150.427 218.907 150.578 218.604 150.881 218.604C151.185 218.604 151.488 218.756 151.488 219.059C151.791 220.575 150.275 224.214 150.123 224.669C150.123 224.821 149.972 224.972 149.668 224.972Z" fill="#26192A"/>
<path d="M144.362 227.247C144.059 227.247 143.756 226.943 143.756 226.64C143.907 225.124 143.907 222.243 143.452 221.485C143.301 221.181 143.452 220.878 143.604 220.727C143.907 220.575 144.21 220.726 144.362 220.878C145.12 222.243 144.969 226.185 144.817 226.64C144.817 226.943 144.665 227.247 144.362 227.247Z" fill="#26192A"/>
<path d="M49.7457 98.6656C49.4424 98.6656 49.2908 98.5139 49.1391 98.2107C48.6842 96.6944 50.0489 92.9037 50.2005 92.4488C50.3522 92.1455 50.6554 91.9939 50.9587 92.1455C51.2619 92.2972 51.4136 92.6004 51.2619 92.9037C50.6554 94.42 49.8973 96.9976 50.2005 97.9074C50.3522 98.2107 50.2005 98.5139 49.7457 98.6656C49.8973 98.6656 49.7457 98.6656 49.7457 98.6656Z" fill="#26192A"/>
<path d="M44.7422 100.485C44.439 100.485 44.2873 100.334 44.1357 100.031C43.6808 98.5143 45.0455 94.7236 45.1971 94.2687C45.3487 93.9654 45.652 93.8138 45.9552 93.9654C46.2585 94.1171 46.4101 94.4203 46.2585 94.7236C45.652 96.2399 44.8938 98.8175 45.1971 99.7273C45.3487 100.031 45.1971 100.334 44.7422 100.485Z" fill="#26192A"/>
<path d="M48.0776 77.5901C47.7743 77.5901 47.6227 77.4385 47.4711 77.1352C47.0162 75.619 48.3808 71.8282 48.5325 71.3734C48.6841 71.0701 48.9874 70.9185 49.2906 71.0701C49.5939 71.2217 49.7455 71.525 49.5939 71.8282C48.9874 73.3445 48.2292 75.9222 48.5325 76.832C48.6841 77.1352 48.5325 77.4385 48.0776 77.5901Z" fill="#26192A"/>
<path d="M29.1239 215.723C28.9723 215.723 28.8206 215.723 28.669 215.571C27.6076 214.51 26.8495 210.568 26.6978 210.113C26.6978 209.809 26.8495 209.506 27.1527 209.506C27.456 209.506 27.7592 209.658 27.7592 209.961C28.0625 211.477 28.669 214.207 29.4272 214.813C29.5788 214.965 29.5788 215.42 29.4272 215.571C29.4272 215.723 29.2755 215.723 29.1239 215.723Z" fill="#26192A"/>
<path d="M35.189 218.452C35.0374 218.452 34.8858 218.452 34.7341 218.3C33.6727 217.239 32.9146 213.297 32.763 212.842C32.763 212.538 32.9146 212.235 33.2179 212.235C33.5211 212.235 33.8244 212.387 33.8244 212.69C34.1276 214.206 34.7341 216.936 35.4923 217.542C35.6439 217.694 35.6439 218.149 35.4923 218.3C35.4923 218.3 35.3407 218.452 35.189 218.452Z" fill="#26192A"/>
<path d="M40.9514 227.095C40.7997 227.095 40.6481 227.095 40.4965 226.943C39.4351 225.882 38.6769 221.94 38.5253 221.485C38.5253 221.182 38.6769 220.878 38.9802 220.878C39.2834 220.878 39.5867 221.03 39.5867 221.333C39.8899 222.85 40.4965 225.579 41.2546 226.185C41.4062 226.337 41.4062 226.792 41.2546 226.943C41.2546 226.943 41.103 227.095 40.9514 227.095Z" fill="#26192A"/>
<path d="M35.189 237.255C35.0374 237.255 34.8858 237.255 34.7341 237.103C33.6727 236.042 32.9146 232.099 32.763 231.644C32.763 231.341 32.9146 231.038 33.2179 231.038C33.5211 231.038 33.8244 231.189 33.8244 231.493C34.1276 233.009 34.7341 235.738 35.4923 236.345C35.6439 236.496 35.6439 236.951 35.4923 237.103C35.4923 237.255 35.3407 237.255 35.189 237.255Z" fill="#26192A"/>
<path d="M40.496 234.98C40.3444 234.98 40.1928 234.98 40.0411 234.828C38.9798 233.767 38.2216 229.825 38.07 229.37C38.07 229.067 38.2216 228.763 38.5249 228.763C38.8281 228.763 39.1314 228.915 39.1314 229.218C39.4346 230.734 40.0411 233.464 40.7993 234.07C40.9509 234.222 40.9509 234.677 40.7993 234.828C40.7993 234.98 40.6477 234.98 40.496 234.98Z" fill="#26192A"/>
<path d="M45.9548 243.32C45.8032 243.32 45.6515 243.32 45.4999 243.168C44.4385 242.107 43.6804 238.164 43.5287 237.709C43.5287 237.406 43.6804 237.103 43.9836 237.103C44.2869 237.103 44.5901 237.255 44.5901 237.558C44.8934 239.074 45.4999 241.803 46.258 242.41C46.4097 242.562 46.4097 243.016 46.258 243.168C46.258 243.168 46.1064 243.32 45.9548 243.32Z" fill="#26192A"/>
<path d="M43.3773 246.959C43.2256 246.959 43.2256 246.959 43.074 246.959C41.7094 246.352 39.5866 242.865 39.2833 242.562C39.1317 242.258 39.2833 241.955 39.4349 241.803C39.7382 241.652 40.0415 241.803 40.1931 241.955C40.9512 243.32 42.6191 245.594 43.3773 245.897C43.6805 246.049 43.8322 246.352 43.6805 246.656C43.8322 246.807 43.6805 246.959 43.3773 246.959Z" fill="#26192A"/>
<path d="M32.9146 227.095C32.763 227.095 32.6114 227.095 32.4597 226.943C31.3983 225.882 30.6402 221.94 30.4886 221.485C30.4886 221.182 30.6402 220.878 30.9434 220.878C31.2467 220.878 31.55 221.03 31.55 221.333C31.8532 222.85 32.4597 225.579 33.2179 226.185C33.3695 226.337 33.3695 226.792 33.2179 226.943C33.2179 226.943 33.0662 227.095 32.9146 227.095Z" fill="#26192A"/>
<path d="M35.1895 274.707C34.8862 274.707 34.583 274.555 34.583 274.252C34.4314 272.736 36.4025 269.248 36.5542 268.793C36.7058 268.49 37.009 268.49 37.3123 268.642C37.6155 268.793 37.6156 269.097 37.4639 269.4C36.7058 270.765 35.4928 273.191 35.6444 274.1C35.796 274.404 35.4928 274.707 35.1895 274.707Z" fill="#26192A"/>
<path d="M40.6483 274.707C40.345 274.707 40.0417 274.555 40.0417 274.252C39.8901 272.736 41.8613 269.248 42.0129 268.793C42.1645 268.49 42.4678 268.49 42.7711 268.642C43.0743 268.793 43.0743 269.097 42.9227 269.4C42.1645 270.765 40.9515 273.191 41.1031 274.1C41.2548 274.404 41.1031 274.707 40.6483 274.707C40.7999 274.707 40.6483 274.707 40.6483 274.707Z" fill="#26192A"/>
<path d="M40.0412 266.973C39.7379 266.973 39.4346 266.821 39.4346 266.518C39.283 265.002 41.2542 261.514 41.4058 261.059C41.5574 260.756 41.8607 260.756 42.164 260.908C42.4672 261.059 42.4672 261.363 42.3156 261.666C41.5574 263.031 40.3444 265.457 40.496 266.366C40.6477 266.67 40.3444 266.973 40.0412 266.973Z" fill="#26192A"/>
<path d="M45.1971 265.913C44.8939 265.913 44.5906 265.761 44.5906 265.458C44.439 263.942 46.4101 260.454 46.5618 259.999C46.7134 259.696 47.0167 259.696 47.3199 259.848C47.6232 259.999 47.6232 260.302 47.4715 260.606C46.7134 261.97 45.5004 264.396 45.652 265.306C45.8036 265.609 45.5004 265.913 45.1971 265.913Z" fill="#26192A"/>
<path d="M121.92 269.703C121.769 269.703 121.465 269.552 121.465 269.4C120.859 268.035 121.466 264.093 121.617 263.638C121.617 263.335 121.92 263.183 122.224 263.183C122.527 263.183 122.679 263.487 122.679 263.79C122.375 265.306 122.072 268.035 122.527 268.945C122.679 269.248 122.527 269.552 122.224 269.703C122.072 269.703 122.072 269.703 121.92 269.703Z" fill="#26192A"/>
<path d="M125.105 272.28C124.953 272.28 124.65 272.128 124.65 271.977C124.043 270.612 124.65 266.67 124.801 266.215C124.801 265.911 125.105 265.76 125.408 265.76C125.711 265.76 125.863 266.063 125.863 266.366C125.56 267.883 125.256 270.612 125.711 271.522C125.863 271.825 125.711 272.128 125.408 272.28C125.256 272.28 125.105 272.28 125.105 272.28Z" fill="#26192A"/>
<path d="M122.224 280.165C122.072 280.165 121.769 280.013 121.769 279.862C121.163 278.497 121.769 274.555 121.921 274.1C121.921 273.796 122.224 273.645 122.527 273.645C122.83 273.645 122.982 273.948 122.982 274.251C122.679 275.768 122.376 278.497 122.83 279.407C122.982 279.71 122.83 280.013 122.527 280.165C122.376 280.165 122.224 280.165 122.224 280.165Z" fill="#26192A"/>
<path d="M127.227 280.165C127.076 280.165 126.773 280.013 126.773 279.862C126.166 278.497 126.773 274.555 126.924 274.1C126.924 273.796 127.227 273.645 127.531 273.645C127.834 273.645 127.986 273.948 127.986 274.251C127.682 275.768 127.379 278.497 127.834 279.407C127.986 279.71 127.834 280.013 127.531 280.165C127.379 280.165 127.227 280.165 127.227 280.165Z" fill="#26192A"/>
<path d="M124.802 287.292C124.65 287.292 124.347 287.14 124.347 286.988C123.741 285.624 124.347 281.681 124.499 281.226C124.499 280.923 124.802 280.772 125.105 280.772C125.408 280.772 125.56 281.075 125.56 281.378C125.257 282.894 124.954 285.624 125.408 286.533C125.56 286.837 125.408 287.14 125.105 287.292C124.954 287.292 124.954 287.292 124.802 287.292Z" fill="#26192A"/>
<path d="M34.5828 113.071C34.5828 113.071 76.5839 130.053 77.6453 151.736C78.555 173.419 61.2694 195.557 19.42 198.893V205.109C19.42 205.109 80.8295 205.413 87.0462 163.563C92.8081 124.443 36.7056 104.428 36.7056 104.428C36.7056 104.428 34.8861 108.674 34.5828 113.071Z" fill="#23454E"/>
<path d="M37.1602 114.131C37.1602 114.131 42.7704 149.916 58.9947 148.703C75.0673 147.49 72.338 130.204 86.7427 142.334C101.147 154.465 93.7176 180.09 63.5435 189.946C33.3695 199.801 24.575 173.266 24.1201 169.324C21.2392 139.15 31.7016 117.316 37.1602 114.131Z" fill="#DBB06C"/>
<path d="M188.941 136.27C188.941 136.27 174.991 120.045 164.983 122.017C154.976 123.988 151.488 154.617 185.302 165.079C199.403 169.628 199.555 145.974 188.941 136.27Z" fill="#DBB06C"/>
<path d="M159.828 138.999C159.676 138.999 159.676 138.999 159.525 138.999C158.463 138.544 148.759 133.995 149.821 129.901C149.972 129.295 150.427 128.688 151.034 128.537C152.247 128.082 154.369 128.84 156.341 130.053C154.218 127.627 152.247 124.746 153.46 123.381C153.763 122.926 154.218 122.775 154.824 122.775C156.492 122.775 159.222 124.746 161.344 126.565C159.525 123.23 158.312 119.894 159.07 118.984C159.676 118.377 160.283 118.074 161.041 118.226C164.225 118.681 167.864 125.504 168.168 126.262C168.319 126.565 168.168 126.869 167.864 127.02C167.561 127.172 167.258 127.02 167.106 126.717C166.045 124.746 163.012 119.59 160.738 119.287C160.283 119.287 159.98 119.439 159.676 119.742C159.373 120.5 161.648 125.201 163.922 129.143C164.074 129.446 163.922 129.75 163.77 129.901C163.467 130.053 163.164 130.053 163.012 129.901C160.738 127.627 156.644 123.988 154.824 123.988C154.521 123.988 154.369 124.139 154.369 124.291C153.46 125.504 157.402 130.204 161.496 133.692C161.799 133.844 161.799 134.298 161.496 134.45C161.344 134.753 160.89 134.753 160.738 134.602C158.009 132.479 153.005 129.295 151.337 129.901C151.185 129.901 150.882 130.053 150.882 130.508C150.276 132.934 156.037 136.573 159.98 138.392C160.283 138.544 160.435 138.847 160.283 139.151C160.283 138.847 159.98 138.999 159.828 138.999Z" fill="#26192A"/>
<path d="M90.5338 150.069C90.3822 150.069 90.2305 149.917 90.0789 149.765C89.9273 149.462 89.9273 149.159 90.2305 149.007C92.0501 147.794 96.9022 144.307 97.0538 142.032C97.0538 141.577 96.9022 141.274 96.4473 140.971C95.6891 140.819 91.1403 143.397 87.3496 145.975C87.0463 146.126 86.7431 146.126 86.5914 145.823C86.4398 145.671 86.4398 145.217 86.5914 145.065C88.7142 142.639 92.0501 138.09 91.7468 136.422C91.7468 136.119 91.5952 135.967 91.4436 135.967C90.0789 135.057 85.8333 139.455 82.6491 144.003C82.4975 144.307 82.1942 144.307 81.891 144.155C81.5877 144.003 81.5877 143.7 81.7393 143.397C83.5589 140.516 86.2882 135.209 85.5301 133.541C85.5301 133.389 85.3784 133.238 84.9235 133.086C82.4975 132.631 79.3133 138.848 77.9486 142.79C77.797 143.094 77.4938 143.245 77.1905 143.094C76.8872 142.942 76.7356 142.639 76.8872 142.336C77.3421 141.123 80.9812 131.115 85.2268 131.873C85.9849 132.025 86.4398 132.328 86.7431 132.935C87.3496 134.148 86.5914 136.27 85.8333 138.393C88.1077 135.967 90.6854 133.844 92.3533 134.906C92.8082 135.209 93.1115 135.664 93.1115 136.119C93.4147 137.787 91.5952 140.668 89.9273 142.942C93.1115 140.971 96.2957 139.303 97.2054 139.91C97.8119 140.364 98.2668 141.123 98.2668 141.881C98.1152 145.065 91.5952 149.31 90.9887 149.765C90.6854 150.069 90.6854 150.069 90.5338 150.069Z" fill="#26192A"/>
<path d="M133.748 306.094C129.805 306.094 124.953 297.148 124.347 296.087C124.195 295.783 124.347 295.48 124.65 295.329C124.953 295.177 125.256 295.329 125.408 295.632C127.531 299.574 131.776 305.639 134.202 304.881C134.809 304.73 134.961 304.426 134.961 304.123C135.415 302.758 133.444 299.877 132.08 298.361L131.928 298.21C131.776 297.906 131.776 297.603 131.928 297.451C132.231 297.3 132.535 297.3 132.686 297.451C132.686 297.451 132.686 297.603 132.838 297.603C134.809 299.877 140.419 305.488 142.694 303.668C143.149 303.365 143.3 302.91 143.3 302.455C143.3 300.787 141.177 298.513 139.813 297.3C139.509 296.996 139.206 296.845 139.055 296.693C138.751 296.542 138.751 296.087 139.055 295.935C139.206 295.632 139.661 295.632 139.813 295.935C139.813 295.935 140.116 296.238 140.571 296.542C142.997 298.513 146.636 300.939 148.304 300.029C148.455 299.877 148.455 299.877 148.455 299.726C148.455 298.816 145.878 296.542 143.452 294.874C143.149 294.722 143.149 294.419 143.3 294.116C143.452 293.812 143.755 293.812 144.058 293.964C144.968 294.57 149.669 297.755 149.669 299.877C149.669 300.181 149.517 300.787 148.91 301.09C147.546 301.849 145.575 301.09 143.755 300.029C144.21 300.787 144.665 301.697 144.665 302.607C144.665 303.517 144.362 304.123 143.603 304.73C141.632 306.397 138.448 304.426 135.87 302.303C136.174 303.213 136.325 304.123 136.174 304.73C136.022 305.184 135.567 305.943 134.657 306.246C134.354 306.094 134.051 306.094 133.748 306.094Z" fill="#26192A"/>
<path d="M39.8895 303.364C39.5862 303.364 39.4346 303.364 39.1314 303.213C37.4634 302.606 37.0086 299.877 37.0086 297.299C36.2504 299.574 35.0374 301.697 33.6727 302.303C33.0662 302.606 32.6113 302.303 32.4597 302.151C31.2467 301.09 31.7016 296.39 32.3081 292.75C30.6402 295.177 28.2141 298.209 26.0913 298.057C25.6364 298.057 25.3332 297.754 25.0299 297.451C23.5136 295.177 27.6076 284.563 28.3657 282.591C28.5174 282.288 28.8206 282.136 29.1239 282.288C29.4271 282.44 29.5788 282.743 29.4271 283.046C27.456 288.05 25.0299 295.631 25.9397 296.996C27.9109 297.148 31.0951 292.599 32.763 289.718C32.9146 289.415 33.2178 289.415 33.5211 289.415C33.8244 289.566 33.976 289.718 33.8244 290.021C32.6113 295.631 32.1564 300.938 32.9146 301.242C34.8858 300.484 36.7053 294.418 37.3118 290.931C37.3118 290.628 37.6151 290.476 37.9183 290.476C38.2216 290.476 38.3732 290.779 38.3732 291.083C37.6151 294.873 37.3118 301.393 39.1314 302.151C39.283 302.303 39.4346 302.151 39.7379 302.151C41.1025 301.242 42.1639 295.935 42.4672 292.902C42.4672 292.599 42.7704 292.296 43.0737 292.447C43.3769 292.447 43.6802 292.75 43.5286 293.054C43.377 293.964 42.7704 301.848 40.3444 303.213C40.496 303.213 40.1928 303.364 39.8895 303.364Z" fill="#26192A"/>
<path d="M38.0699 184.488H37.9183C36.402 184.033 33.9759 180.849 33.8243 180.394C33.6727 180.09 33.6727 179.787 33.9759 179.636C34.2792 179.484 34.5825 179.484 34.7341 179.787C35.6439 181 37.4634 183.123 38.3732 183.426C38.6764 183.578 38.828 183.881 38.6764 184.184C38.5248 184.336 38.2215 184.488 38.0699 184.488Z" fill="#26192A"/>
<path d="M37.1607 177.513H37.0091C35.4928 177.058 33.0668 173.874 32.9151 173.419C32.7635 173.116 32.7635 172.813 33.0668 172.661C33.37 172.51 33.6733 172.51 33.8249 172.813C34.7347 174.026 36.5542 176.149 37.464 176.452C37.7673 176.604 37.9189 176.907 37.7673 177.21C37.6156 177.362 37.464 177.513 37.1607 177.513Z" fill="#26192A"/>
<path d="M48.3811 189.491C46.7132 189.491 43.529 187.823 43.0741 187.671C42.7708 187.519 42.6192 187.216 42.7709 186.913C42.9225 186.61 43.2257 186.458 43.529 186.61C44.8936 187.368 47.4713 188.429 48.3811 188.278C48.6844 188.278 48.9876 188.429 48.9876 188.733C48.9876 189.036 48.836 189.339 48.5327 189.339C48.5327 189.491 48.5327 189.491 48.3811 189.491Z" fill="#26192A"/>
<path d="M50.6557 185.701C50.3525 185.701 50.0492 185.398 50.0492 185.095C50.0492 184.791 50.3525 184.488 50.6557 184.488C52.172 184.488 55.0529 184.336 55.6595 183.73C55.9627 183.578 56.266 183.578 56.4176 183.881C56.5692 184.185 56.5692 184.488 56.266 184.64C55.0529 185.701 51.1106 185.701 50.6557 185.701Z" fill="#26192A"/>
<path d="M185.908 160.076C184.24 160.076 181.056 158.256 180.601 158.105C180.298 157.953 180.298 157.65 180.449 157.347C180.601 157.043 180.904 157.043 181.207 157.195C182.572 157.953 184.998 159.166 185.908 159.014C186.211 159.014 186.514 159.166 186.514 159.469C186.514 159.773 186.363 160.076 186.059 160.076H185.908Z" fill="#26192A"/>
<path d="M179.691 154.162C178.023 154.162 174.839 152.342 174.384 152.191C174.081 152.039 174.081 151.736 174.232 151.432C174.384 151.129 174.687 151.129 174.99 151.281C176.355 152.039 178.781 153.252 179.691 153.1C179.994 153.1 180.297 153.252 180.297 153.555C180.297 153.858 180.146 154.162 179.843 154.162H179.691Z" fill="#26192A"/>
<path d="M189.699 154.616C188.031 154.616 184.846 152.797 184.392 152.645C184.088 152.493 184.088 152.19 184.24 151.887C184.392 151.584 184.695 151.584 184.998 151.735C186.363 152.493 188.94 153.707 189.699 153.555C190.002 153.555 190.305 153.707 190.305 154.01C190.305 154.313 190.153 154.616 189.85 154.616H189.699Z" fill="#26192A"/>
<path d="M191.063 159.014C189.395 159.014 186.211 157.195 185.756 157.043C185.453 156.891 185.453 156.588 185.604 156.285C185.756 155.982 186.059 155.982 186.363 156.133C187.727 156.891 190.305 158.104 191.063 157.953C191.366 157.953 191.67 158.104 191.67 158.408C191.67 158.711 191.518 159.014 191.215 159.014C191.063 159.014 191.063 159.014 191.063 159.014Z" fill="#26192A"/>
<path d="M179.085 159.014C177.417 159.014 174.232 157.195 173.778 157.043C173.474 156.891 173.474 156.588 173.626 156.285C173.778 155.982 174.081 155.982 174.384 156.133C175.749 156.891 178.175 158.104 179.085 157.953C179.388 157.953 179.691 158.104 179.691 158.408C179.691 158.711 179.539 159.014 179.236 159.014C179.236 159.014 179.236 159.014 179.085 159.014Z" fill="#26192A"/>
<path d="M58.8435 182.214C58.5402 182.214 58.237 181.911 58.237 181.607C58.237 181.304 58.5402 181.001 58.8435 181.001C60.3598 181.001 63.2407 180.849 63.8472 180.243C64.1505 180.091 64.4537 180.091 64.6054 180.394C64.757 180.698 64.757 181.001 64.4537 181.152C63.2407 182.214 59.2984 182.214 58.8435 182.214Z" fill="#26192A"/>
<path d="M69.6093 180.849C69.306 180.849 69.0027 180.697 69.0027 180.394C69.0027 180.091 69.1544 179.788 69.4576 179.788C70.9739 179.636 73.7032 179.181 74.4614 178.575C74.7646 178.423 75.0679 178.423 75.2195 178.575C75.3711 178.878 75.3711 179.181 75.2195 179.333C74.1581 180.394 70.2158 180.849 69.6093 180.849C69.7609 180.849 69.6093 180.849 69.6093 180.849Z" fill="#26192A"/>
<path d="M64.1505 186.004C63.8472 186.004 63.544 185.852 63.544 185.549C63.544 185.245 63.6956 184.942 63.9989 184.942C65.5151 184.791 68.2445 184.336 69.0026 183.729C69.3059 183.578 69.6091 183.578 69.7607 183.729C69.9124 184.032 69.9124 184.336 69.7607 184.487C68.6993 185.549 64.757 186.004 64.1505 186.004C64.3021 186.004 64.1505 186.004 64.1505 186.004Z" fill="#26192A"/>
<path d="M47.4713 183.275C45.8034 183.275 42.6192 181.91 42.316 181.759C42.0127 181.607 41.8611 181.304 42.0127 181C42.1643 180.697 42.4676 180.545 42.7708 180.697C44.1355 181.304 46.8648 182.365 47.6229 182.213C47.9262 182.213 48.2295 182.365 48.2295 182.668C48.2295 182.972 48.0778 183.275 47.7746 183.275C47.7746 183.275 47.6229 183.275 47.4713 183.275Z" fill="#26192A"/>
<path d="M48.3812 178.271C46.7133 178.271 43.5291 176.907 43.2259 176.755C42.9226 176.603 42.771 176.3 42.9226 175.997C43.0743 175.694 43.3775 175.542 43.6808 175.694C45.0454 176.3 47.7747 177.362 48.5329 177.21C48.8361 177.21 49.1394 177.362 49.1394 177.665C49.1394 177.968 48.9878 178.271 48.6845 178.271C48.6845 178.271 48.5329 178.271 48.3812 178.271Z" fill="#26192A"/>
<path d="M57.9333 188.885C57.7817 188.885 57.63 188.885 57.63 188.885C57.3268 188.885 57.0235 188.582 57.0235 188.279C57.0235 187.976 57.1751 187.672 57.63 187.672C59.1463 187.672 62.0273 187.521 62.7854 187.066C63.0887 186.914 63.3919 186.914 63.5435 187.218C63.6952 187.521 63.6952 187.824 63.3919 187.976C62.1789 188.885 58.9947 188.885 57.9333 188.885Z" fill="#26192A"/>
<path d="M30.4885 175.997C30.3369 175.997 30.3369 175.997 30.1853 175.845C28.8206 174.935 27.3043 171.296 27.1527 170.841C27.0011 170.538 27.1527 170.235 27.4559 170.083C27.7592 169.932 28.0625 170.083 28.2141 170.386C28.8206 171.903 30.0336 174.329 30.7918 174.784C31.095 174.935 31.095 175.239 30.9434 175.542C30.9434 175.997 30.7918 175.997 30.4885 175.997Z" fill="#26192A"/>
<path d="M155.127 194.95C154.824 194.95 154.521 194.647 154.521 194.343C154.672 192.827 154.672 189.946 154.217 189.188C154.066 188.885 154.217 188.582 154.369 188.43C154.672 188.278 154.975 188.43 155.127 188.582C155.885 189.946 155.734 193.889 155.582 194.343C155.582 194.647 155.43 194.95 155.127 194.95Z" fill="#26192A"/>
</svg>
