<svg width="30" height="31" viewBox="0 0 30 31" fill="none" xmlns="http://www.w3.org/2000/svg">
<path d="M21.25 24.25L19.4825 22.4825L16.25 25.715V15.5H13.75V25.715L10.5175 22.4825L8.75 24.25L15 30.5L21.25 24.25ZM30 3V0.5H22.5V13H25V8H28.75V5.5H25V3H30ZM16.25 13H11.25V0.5H16.25C17.2443 0.500993 18.1975 0.8964 18.9006 1.59945C19.6036 2.30249 19.999 3.25574 20 4.25V9.25C19.999 10.2443 19.6036 11.1975 18.9006 11.9006C18.1975 12.6036 17.2443 12.999 16.25 13ZM13.75 10.5H16.25C16.5814 10.4997 16.8992 10.3679 17.1335 10.1335C17.3679 9.89917 17.4997 9.58142 17.5 9.25V4.25C17.4997 3.91858 17.3679 3.60083 17.1335 3.36648C16.8992 3.13213 16.5814 3.00033 16.25 3H13.75V10.5ZM6.25 0.5H0V13H2.5V9.25H6.25C6.91274 9.24901 7.54804 8.9853 8.01667 8.51667C8.4853 8.04804 8.74901 7.41274 8.75 6.75V3C8.74934 2.33716 8.48573 1.70166 8.01704 1.23296C7.54834 0.764266 6.91284 0.500662 6.25 0.5ZM2.5 6.75V3H6.25L6.25125 6.75H2.5Z" fill="#ECF0F1"/>
</svg>
