<svg width="153" height="177" viewBox="0 0 153 177" fill="none" xmlns="http://www.w3.org/2000/svg">
<path d="M9.2523 76.3286C9.35178 76.3185 9.44113 76.2089 9.53049 76.0993C9.60972 75.8902 9.58947 75.6912 9.38037 75.612C8.84244 75.2647 6.61444 70.1641 6.32075 67.279C6.25999 66.6821 6.32909 66.3735 6.31896 66.274C7.14523 66.4914 10.0643 68.5062 12.6747 70.4518C12.7844 70.5412 12.9833 70.5209 13.0828 70.5108C13.1722 70.4012 13.2615 70.2916 13.2413 70.0926C12.5478 66.243 12.023 62.0748 12.1005 60.8607C12.9673 61.4761 15.6689 64.3171 17.9523 66.9996C18.072 67.1885 18.3704 67.1581 18.4598 67.0485C18.6487 66.9287 18.6183 66.6303 18.5087 66.5409C12.7057 59.8944 12.0195 60.0648 11.721 60.0952C11.3332 60.2352 10.7464 60.3954 12.2649 69.3879C6.39641 65.0599 5.93949 65.5085 5.76077 65.7277C5.39321 66.0667 5.36462 66.7732 5.58563 67.9569C6.06816 70.7223 8.09718 75.8431 9.05331 76.3489C9.1528 76.3388 9.2523 76.3286 9.2523 76.3286Z" fill="#26192A"/>
<path d="M138.207 153.265C138.406 153.245 138.605 153.224 138.793 153.105C140.056 152.674 140.621 151.31 140.329 149.43C140.068 147.849 139.25 146.726 137.975 146.051C137.337 145.714 136.611 145.486 135.795 145.369C136.747 143.864 138.376 142.09 141.188 140.095C141.377 139.975 141.357 139.776 141.237 139.588C141.117 139.399 140.918 139.419 140.73 139.539C137.629 141.664 135.921 143.647 134.989 145.35C130.331 145.02 124.266 147.648 123.978 147.778C123.789 147.897 123.71 148.106 123.829 148.295C123.949 148.484 124.158 148.563 124.347 148.444C124.447 148.434 130.223 145.936 134.651 145.987C133.581 148.308 134.151 149.959 134.541 150.824C135.21 152.464 136.814 153.407 138.207 153.265ZM135.368 146.116C136.184 146.234 136.901 146.362 137.548 146.798C138.614 147.393 139.312 148.328 139.543 149.611C139.795 151.093 139.399 152.138 138.524 152.428C137.449 152.739 135.876 152.095 135.117 150.564C134.857 149.987 134.297 148.436 135.368 146.116Z" fill="#26192A"/>
<path d="M89.358 62.4449C89.358 62.4449 105.86 47.7984 121.201 63.2241C131.268 73.2562 149.93 109.452 129.723 116.334C109.506 123.116 83.7159 79.1019 89.358 62.4449Z" fill="#6AB0A0"/>
<path d="M128.958 139.43C128.958 139.43 123.942 37.8159 64.6534 30.0804C46.9277 27.7636 32.9436 59.2416 38.5184 60.6844C43.9936 62.1374 52.5345 64.0824 52.5345 64.0824C52.5345 64.0824 38.3353 136.895 44.8954 160.854C51.2565 184.833 136.322 190.045 128.958 139.43Z" fill="#F4DAC6"/>
<path d="M70.7394 33.582C70.7394 33.582 74.1196 9.51598 97.9396 14.429C97.9396 14.429 107.118 39.4279 75.6297 36.2002L70.7394 33.582Z" fill="#F4DAC6"/>
<path d="M77.0641 31.5309C77.1636 31.5208 77.253 31.4112 77.3423 31.3016C84.0979 19.6576 91.1345 20.6501 91.234 20.64C91.4431 20.7192 91.6218 20.5 91.7011 20.2909C91.7803 20.0818 91.5611 19.9031 91.352 19.8238C91.0434 19.7547 83.7083 18.7926 76.6846 30.7655C76.6054 30.9746 76.6257 31.1735 76.8348 31.2528C76.8651 31.5512 76.9646 31.5411 77.0641 31.5309Z" fill="#26192A"/>
<path d="M62.0156 7.12951C62.0156 7.12951 71.677 18.1075 64.7088 27.6623L58.5288 27.1857C58.5389 27.2852 47.972 16.2989 62.0156 7.12951Z" fill="#F4DAC6"/>
<path d="M49.7446 157.143C49.7446 157.143 36.672 197.575 38.119 199.941C39.5761 202.406 47.7006 205.197 50.7644 204.685C53.8383 204.271 66.6113 168.795 66.6113 168.795C66.6113 168.795 53.9314 155.813 49.7446 157.143Z" fill="#F4DAC6"/>
<path d="M96.3737 158.026C96.3737 158.026 114.84 196.252 117.637 197.073C120.325 197.805 128.796 194.128 130.762 191.716C132.629 189.315 116.657 154.855 116.657 154.855C116.657 154.855 98.3968 154.201 96.3737 158.026Z" fill="#F4DAC6"/>
<path d="M79.9153 28.9288C79.9153 28.9288 69.0583 17.0673 50.8798 23.1395C37.952 27.471 42.2095 43.6229 38.2164 41.9185C34.2233 40.2141 33.9558 29.6871 21.9299 32.0169C13.4552 33.6838 14.1521 56.3296 19.9479 58.9562C25.7437 61.5827 52.5543 58.351 51.3682 68.4229L104.144 56.6175C104.343 56.5973 91.716 34.2612 79.9153 28.9288Z" fill="#F4DAC6"/>
<path d="M49.2512 30.5488C47.2615 30.7514 44.6636 35.8406 44.4259 36.4679C44.3466 36.677 44.3669 36.876 44.576 36.9552C44.7851 37.0345 44.9841 37.0142 45.0633 36.8051C46.0647 34.7934 48.0389 31.4764 49.3323 31.3447C49.5312 31.3245 49.6307 31.3144 49.8601 31.5926C51.4757 33.6395 48.9855 37.8131 48.9855 37.8131C48.9063 38.0222 48.9266 38.2212 49.1357 38.3004C49.3448 38.3796 49.5437 38.3594 49.623 38.1503C49.7022 37.9412 52.3609 33.4488 50.5058 31.0242C49.9578 30.5774 49.5497 30.5185 49.2512 30.5488Z" fill="#26192A"/>
<path d="M58.7788 33.2978C58.5799 33.3181 58.4804 33.3282 58.2915 33.4479C56.1535 34.1682 54.2704 38.3805 54.1912 38.5896C54.1119 38.7987 54.2317 38.9876 54.3413 39.0769C54.5504 39.1562 54.7392 39.0364 54.8286 38.9268C55.3141 37.7717 56.9208 34.7937 58.472 34.2337C58.8599 34.0937 59.1684 34.1628 59.4871 34.3314C60.2342 34.7579 59.6224 37.6347 58.6615 40.0444C58.5822 40.2535 58.702 40.4423 58.9111 40.5216C59.1202 40.6008 59.309 40.4811 59.3883 40.272C59.7945 39.326 61.4179 34.5369 59.8142 33.5945C59.5849 33.3163 59.1768 33.2573 58.7788 33.2978Z" fill="#26192A"/>
<path d="M32.8132 36.2365C32.8132 36.2365 30.5375 60.2906 20.0474 58.946C11.6971 57.8862 15.396 33.9888 18.7076 32.948C22.0294 32.0068 30.4434 29.7431 32.8132 36.2365Z" fill="#E9A295"/>
<path d="M22.8354 48.8116C23.0344 48.7914 23.1237 48.6817 23.203 48.4726C24.1448 40.9385 25.8933 39.3533 26.7684 39.0632C27.743 38.7629 28.5407 39.6869 28.5407 39.6869C28.6604 39.8758 28.9589 39.8454 29.0482 39.7358C29.1376 39.6262 29.2067 39.3176 29.0971 39.2282C29.0869 39.1287 27.9604 37.9367 26.4985 38.3871C24.5493 38.9875 23.1821 42.3433 22.3868 48.3547C22.4172 48.6532 22.6364 48.8319 22.8354 48.8116Z" fill="#26192A"/>
<path d="M21.0143 48.6954C21.2133 48.6751 21.3026 48.5655 21.3819 48.3564C23.0672 39.2389 22.1986 37.6185 21.4617 37.2915C20.9339 37.0437 20.3674 37.4029 20.0892 37.6322C19.9003 37.752 19.9307 38.0504 20.0403 38.1398C20.16 38.3286 20.4585 38.2982 20.5479 38.1886C20.6372 38.079 20.9154 37.8497 21.025 37.939C21.2341 38.0183 22.251 39.1209 20.5657 48.2385C20.4865 48.4476 20.7057 48.6263 20.9148 48.7055L21.0143 48.6954Z" fill="#26192A"/>
<path d="M44.68 61.967C46.0728 61.8252 47.1266 61.3159 47.9511 60.5283C50.782 57.7273 49.5184 52.2269 49.3987 52.0381C49.3784 51.8391 49.1694 51.7599 48.9704 51.7802C48.7714 51.8004 48.6922 52.0095 48.7124 52.2085C48.7226 52.308 49.9557 57.5098 47.3929 59.9821C46.0221 61.3278 43.7339 61.5607 40.7375 60.7601C40.5284 60.6808 40.3395 60.8006 40.2603 61.0097C40.1811 61.2188 40.3008 61.4076 40.5099 61.4869C42.0629 61.9319 43.4861 62.0885 44.68 61.967Z" fill="#26192A"/>
<path d="M56.8343 148.782C56.9338 148.772 57.0333 148.762 57.0232 148.663L63.9848 141.018C64.1737 140.899 64.1433 140.6 63.9342 140.521C63.8145 140.332 63.516 140.363 63.4368 140.572L56.4751 148.216C56.2863 148.336 56.3167 148.634 56.5258 148.713C56.6354 148.803 56.7349 148.793 56.8343 148.782Z" fill="#26192A"/>
<path d="M63.4004 148.114C63.4999 148.104 63.4999 148.104 63.5994 148.094C63.7883 147.974 63.8675 147.765 63.7477 147.576L59.2262 139.694C59.1065 139.505 58.8974 139.425 58.7085 139.545C58.5197 139.665 58.4405 139.874 58.5602 140.063L63.0817 147.945C63.102 148.144 63.2015 148.134 63.4004 148.114Z" fill="#26192A"/>
<path d="M53.8226 77.7221C53.8226 77.7221 29.1131 81.8457 18.0178 64.6811L8.21516 75.027C8.21516 75.027 17.2808 97.9266 49.3862 95.3621L53.8226 77.7221Z" fill="#F4DAC6"/>
<path d="M51.4676 68.4128C51.4676 68.4128 53.8523 72.0902 58.6396 72.7085L61.7516 82.544L65.7251 73.1935C65.7251 73.1935 95.6715 65.2198 104.243 56.6074C104.243 56.6074 127.78 81.4515 127.856 129.591C127.856 129.591 61.6865 141.152 43.3818 132.159C43.4812 132.149 44.0366 86.2571 51.4676 68.4128Z" fill="#E9A295"/>
<path d="M51.4677 68.4128C51.4677 68.4128 38.9324 86.4751 44.4917 118.376C44.4917 118.376 53.6593 81.0558 51.4677 68.4128Z" fill="#6AB0A0"/>
<path d="M112.324 62.9215C112.324 62.9215 94.4491 66.0478 96.2916 95.0101C97.7457 118.182 127.562 109.92 127.562 109.92L127.366 116.876C127.366 116.876 95.1055 121.868 91.8356 101.595C88.5657 81.3222 93.2314 63.9604 104.353 56.6968L112.324 62.9215Z" fill="#6AB0A0"/>
<path d="M111.763 66.2957C111.763 66.2957 139.163 69.8391 141.117 89.0399C143.072 108.241 95.9502 104.493 95.9502 104.493L94.5628 90.8639C94.5628 90.8639 118.661 95.5475 122.689 88.7044C126.716 81.8614 104.87 84.4873 104.87 84.4873L111.763 66.2957Z" fill="#F4DAC6"/>
<path d="M126.179 70.6581C126.179 70.6581 120.075 84.7488 119.861 87.585L103.241 86.2613L109.074 64.5591C109.173 64.549 114.645 63.992 126.179 70.6581Z" fill="#E9A295"/>
<path d="M95.8912 104.902C96.0902 104.881 96.1796 104.772 96.2588 104.563C96.338 104.353 96.1188 104.175 95.9097 104.096C92.2168 103.366 88.0855 102.279 87.7263 101.712C87.6065 101.523 87.5964 101.424 87.6756 101.215C88.151 99.96 92.5367 98.6089 95.1925 98.037C95.3914 98.0167 95.4808 97.9071 95.4605 97.7082C95.4403 97.5092 95.4302 97.4097 95.2211 97.3305C91.1975 95.3277 87.8299 92.856 88.0778 92.3282C88.3053 91.6014 92.2949 91.2958 95.8275 91.4388C96.0265 91.4185 96.2153 91.2988 96.1951 91.0998C96.1748 90.9008 96.0551 90.712 95.8561 90.7323C94.035 90.6161 87.995 90.5273 87.4505 92.0905C86.8857 93.4547 91.3781 96.1134 94.0374 97.5515C91.9785 98.0626 87.5827 99.3142 86.9488 100.987C86.7904 101.405 86.8309 101.803 87.0704 102.181C87.7888 103.314 93.8408 104.507 95.6923 104.922C95.8912 104.902 95.8912 104.902 95.8912 104.902Z" fill="#26192A"/>
<path d="M90.8856 42.8896L90.9851 42.8795C91.1739 42.7598 91.2531 42.5507 91.1334 42.3618C90.7337 41.3974 88.4824 40.0182 88.2632 39.8395C88.0541 39.7603 87.8551 39.7805 87.7759 39.9896C87.6967 40.1987 87.7169 40.3977 87.926 40.477C88.7827 40.9928 90.297 42.0449 90.5567 42.6216C90.577 42.8205 90.6866 42.9099 90.8856 42.8896Z" fill="#26192A"/>
<path d="M89.9973 47.0007C90.2856 46.8709 90.3649 46.6618 90.3446 46.4628C90.0444 45.4882 87.8825 43.9995 87.6633 43.8208C87.4542 43.7415 87.2552 43.7618 87.1658 43.8714C87.0866 44.0805 87.1069 44.2795 87.2165 44.3688C88.0833 44.9842 89.5082 46.1459 89.6685 46.7327C89.5892 46.9418 89.7983 47.021 89.9973 47.0007Z" fill="#26192A"/>
<path d="M96.1303 48.9899L96.2298 48.9797C96.4186 48.86 96.4979 48.6509 96.3781 48.4621C95.9784 47.4976 93.7272 46.1185 93.5079 45.9397C93.2988 45.8605 93.0999 45.8808 93.0206 46.0899C92.9414 46.299 92.9617 46.4979 93.1708 46.5772C94.0274 47.0931 95.5519 48.2446 95.8015 48.7218C95.7222 48.9309 95.9313 49.0101 96.1303 48.9899Z" fill="#26192A"/>
<path d="M94.2776 53.5007C94.4766 53.4804 94.6553 53.2612 94.635 53.0623C94.4343 52.0775 92.6298 50.1503 92.4106 49.9716C92.2909 49.7828 91.9924 49.8132 91.903 49.9228C91.7142 50.0425 91.7446 50.341 91.8542 50.4303C92.5321 51.1655 93.7784 52.5464 93.8391 53.1433C93.8594 53.3422 94.0786 53.521 94.2776 53.5007Z" fill="#26192A"/>
<path d="M125.363 137.685C125.462 137.675 125.651 137.556 125.641 137.456C126.047 136.51 125.386 133.964 125.356 133.665C125.335 133.466 125.126 133.387 124.927 133.408C124.728 133.428 124.649 133.637 124.669 133.836C124.87 134.821 125.251 136.591 125.014 137.218C124.935 137.427 125.054 137.616 125.263 137.696C125.263 137.696 125.263 137.696 125.363 137.685Z" fill="#26192A"/>
<path d="M121.852 138.746C121.952 138.736 122.141 138.617 122.13 138.517C122.537 137.571 121.876 135.025 121.845 134.726C121.825 134.528 121.616 134.448 121.417 134.469C121.218 134.489 121.139 134.698 121.159 134.897C121.36 135.882 121.741 137.652 121.503 138.279C121.424 138.488 121.544 138.677 121.753 138.757C121.753 138.757 121.852 138.746 121.852 138.746Z" fill="#26192A"/>
<path d="M126.175 146.649C126.274 146.639 126.463 146.519 126.453 146.42C126.859 145.474 126.198 142.928 126.168 142.629C126.147 142.43 125.938 142.351 125.739 142.371C125.54 142.392 125.461 142.601 125.481 142.8C125.682 143.784 126.063 145.555 125.826 146.182C125.746 146.391 125.866 146.58 126.075 146.659C126.075 146.659 126.075 146.659 126.175 146.649Z" fill="#26192A"/>
<path d="M120.222 145.446C120.322 145.436 120.511 145.316 120.501 145.217C120.907 144.271 120.246 141.724 120.215 141.426C120.195 141.227 119.986 141.148 119.787 141.168C119.588 141.188 119.509 141.397 119.529 141.596C119.73 142.581 120.111 144.352 119.873 144.979C119.794 145.188 119.914 145.377 120.123 145.456C120.123 145.456 120.123 145.456 120.222 145.446Z" fill="#26192A"/>
<path d="M122.428 149.343C122.528 149.332 122.627 149.322 122.717 149.213C123.332 148.346 123.367 145.729 123.337 145.43C123.317 145.231 123.197 145.043 122.998 145.063C122.799 145.083 122.61 145.203 122.63 145.402C122.632 146.407 122.416 148.238 122.069 148.776C121.99 148.985 122.01 149.184 122.12 149.273C122.229 149.363 122.329 149.353 122.428 149.343Z" fill="#26192A"/>
<path d="M124.776 154.632C124.876 154.622 124.975 154.612 125.064 154.502C125.68 153.635 125.715 151.018 125.685 150.72C125.664 150.521 125.545 150.332 125.346 150.352C125.147 150.373 124.958 150.492 124.978 150.691C124.98 151.696 124.764 153.528 124.417 154.065C124.338 154.275 124.358 154.474 124.467 154.563C124.577 154.652 124.677 154.642 124.776 154.632Z" fill="#26192A"/>
<path d="M120.471 156.779C120.571 156.769 120.67 156.759 120.76 156.649C121.375 155.782 121.41 153.165 121.38 152.867C121.36 152.668 121.24 152.479 121.041 152.499C120.842 152.52 120.653 152.639 120.673 152.838C120.675 153.843 120.459 155.674 120.112 156.212C120.033 156.422 120.053 156.621 120.163 156.71C120.272 156.799 120.372 156.789 120.471 156.779Z" fill="#26192A"/>
<path d="M123.623 161.082C123.723 161.072 123.822 161.062 123.912 160.952C124.527 160.085 124.562 157.468 124.532 157.17C124.512 156.971 124.392 156.782 124.193 156.802C123.994 156.822 123.805 156.942 123.825 157.141C123.827 158.146 123.611 159.977 123.264 160.515C123.185 160.724 123.205 160.923 123.315 161.013C123.424 161.102 123.524 161.092 123.623 161.082Z" fill="#26192A"/>
<path d="M119.42 164.224C119.519 164.214 119.619 164.204 119.609 164.104C120.344 163.426 120.986 160.848 121.055 160.539C121.134 160.33 121.015 160.141 120.806 160.062C120.596 159.983 120.408 160.103 120.328 160.312C120.131 161.337 119.607 163.099 119.14 163.448C118.951 163.568 118.981 163.866 119.091 163.956C119.221 164.244 119.32 164.234 119.42 164.224Z" fill="#26192A"/>
<path d="M100.262 56.0075C100.461 55.9872 100.64 55.768 100.62 55.569C100.419 54.5843 98.6144 52.6571 98.3952 52.4784C98.2755 52.2896 97.977 52.3199 97.8877 52.4296C97.6988 52.5493 97.7292 52.8477 97.8388 52.9371C98.5167 53.6722 99.763 55.0531 99.8238 55.6501C99.8542 55.9485 100.063 56.0277 100.262 56.0075Z" fill="#26192A"/>
<path d="M97.9794 59.2554C97.9794 59.2554 98.0789 59.2453 97.9794 59.2554C98.1784 59.2352 98.3571 59.0159 98.3368 58.817C98.1361 57.8322 96.3316 55.905 96.1124 55.7263C95.9926 55.5375 95.6942 55.5679 95.6048 55.6775C95.416 55.7972 95.4464 56.0957 95.556 56.185C96.2339 56.9202 97.4802 58.3011 97.5409 58.898C97.6607 59.0868 97.7804 59.2757 97.9794 59.2554Z" fill="#26192A"/>
<path d="M61.8487 92.3847C63.2415 92.2429 64.3138 90.9275 64.172 89.5347C64.0302 88.1419 62.7149 87.0696 61.3221 87.2114C59.9293 87.3532 58.8569 88.6685 58.9987 90.0613C59.1405 91.4541 60.4559 92.5265 61.8487 92.3847ZM61.3929 87.9078C62.3878 87.8065 63.2647 88.5214 63.366 89.5163C63.4673 90.5111 62.7524 91.388 61.7575 91.4893C60.7627 91.5906 59.8858 90.8757 59.7845 89.8809C59.6832 88.886 60.3981 88.0091 61.3929 87.9078Z" fill="#26192A"/>
<path d="M61.2499 108.227C62.6427 108.085 63.715 106.77 63.5732 105.377C63.4315 103.984 62.1161 102.912 60.7233 103.054C59.3305 103.195 58.2582 104.511 58.4 105.903C58.5418 107.296 59.8571 108.369 61.2499 108.227ZM60.8043 103.849C61.7992 103.748 62.6761 104.463 62.7774 105.458C62.8786 106.453 62.1638 107.33 61.1689 107.431C60.174 107.532 59.2971 106.817 59.1959 105.822C59.0946 104.828 59.8095 103.951 60.8043 103.849Z" fill="#26192A"/>
<path d="M60.398 121.582C61.7908 121.44 62.8631 120.125 62.7213 118.732C62.5795 117.339 61.2642 116.267 59.8714 116.408C58.4786 116.55 57.4063 117.866 57.5481 119.258C57.6898 120.651 59.0052 121.723 60.398 121.582ZM59.9423 117.105C60.9371 117.004 61.814 117.718 61.9153 118.713C62.0166 119.708 61.3017 120.585 60.3068 120.686C59.312 120.788 58.4351 120.073 58.3338 119.078C58.1432 118.193 58.9474 117.206 59.9423 117.105Z" fill="#26192A"/>
<path d="M60.9833 19.6987C61.0827 19.6885 61.1822 19.6784 61.1721 19.5789C63.6354 17.1168 60.5204 11.2019 60.3905 10.9135C60.2708 10.7247 60.0617 10.6455 59.8728 10.7652C59.684 10.8849 59.6048 11.094 59.7245 11.2829C59.7346 11.3824 62.7198 17.009 60.6139 19.0327C60.4251 19.1524 60.4554 19.4509 60.5651 19.5402C60.7742 19.6194 60.8838 19.7088 60.9833 19.6987Z" fill="#26192A"/>
</svg>
