<svg width="295" height="139" viewBox="0 0 295 139" fill="none" xmlns="http://www.w3.org/2000/svg">
<rect y="7" width="295" height="132" rx="25" fill="#2980B9"/>
<rect width="295" height="132" rx="25" fill="#3498DB"/>
<path d="M33.4344 110.553C33.3156 110.553 33.3156 110.553 33.1968 110.46C32.9592 110.366 32.9592 110.18 33.078 109.993C33.078 109.993 33.672 109.245 34.8599 108.031C34.9787 107.844 35.3351 107.844 35.4539 107.937C35.5726 108.031 35.6914 108.311 35.5726 108.404C34.5035 109.526 33.9096 110.273 33.9096 110.273C33.7908 110.46 33.5532 110.553 33.4344 110.553Z" fill="#ECF0F1" fill-opacity="0.4"/>
<path d="M128.23 116.999C127.992 116.999 127.755 116.906 127.755 116.719C127.755 116.532 127.873 116.345 128.111 116.345C129.893 116.252 131.675 115.505 132.863 114.383C132.981 114.196 133.338 114.196 133.457 114.383C133.575 114.57 133.694 114.757 133.457 114.851C132.269 116.065 130.249 116.906 128.23 116.999ZM123.359 114.944C123.241 114.944 123.003 114.851 123.003 114.757C122.171 113.636 121.815 112.234 121.815 110.646C121.815 110.459 121.815 110.272 121.815 110.085C121.815 109.899 122.053 109.712 122.29 109.712C122.528 109.712 122.765 109.899 122.765 110.085C122.765 110.272 122.765 110.459 122.765 110.553C122.765 111.954 123.122 113.262 123.835 114.29C123.953 114.477 123.835 114.664 123.716 114.757C123.478 114.944 123.478 114.944 123.359 114.944ZM135.357 110.739C135.12 110.739 134.882 110.553 134.882 110.366C134.882 109.058 134.288 107.656 133.1 106.255C132.981 106.068 132.981 105.881 133.219 105.788C133.457 105.694 133.694 105.694 133.813 105.881C135.001 107.376 135.595 108.871 135.714 110.366C135.832 110.553 135.595 110.739 135.357 110.739ZM187.863 110.739C187.625 110.739 187.388 110.553 187.388 110.366C187.388 110.179 187.507 109.992 187.863 109.992C189.882 109.899 191.783 109.712 193.565 109.431C193.803 109.431 194.04 109.525 194.04 109.712C194.04 109.899 193.921 110.085 193.684 110.085C191.902 110.366 189.882 110.646 187.863 110.739ZM181.923 110.646C180.023 110.553 178.003 110.366 175.984 110.085C175.746 110.085 175.628 109.899 175.628 109.712C175.628 109.525 175.865 109.431 176.103 109.431C178.122 109.712 180.023 109.899 181.923 109.992C182.161 109.992 182.399 110.179 182.28 110.366C182.399 110.459 182.161 110.646 181.923 110.646ZM170.401 109.058C168.381 108.684 166.481 108.217 164.699 107.656C164.461 107.563 164.342 107.376 164.461 107.189C164.58 107.002 164.818 106.909 165.055 107.002C166.956 107.469 168.738 107.937 170.638 108.31C170.876 108.404 170.995 108.591 170.995 108.777C170.757 108.964 170.638 109.058 170.401 109.058ZM199.267 108.684C199.148 108.684 198.911 108.591 198.911 108.497C198.792 108.31 198.911 108.123 199.148 108.03C200.93 107.376 202.593 106.628 204.019 105.694C204.256 105.601 204.494 105.601 204.613 105.788C204.731 105.974 204.731 106.161 204.494 106.255C202.95 107.189 201.286 108.03 199.386 108.684H199.267ZM123.597 106.068C123.478 106.068 123.478 106.068 123.359 106.068C123.122 105.974 123.003 105.788 123.122 105.601C123.953 104.106 125.141 102.798 126.567 101.77C126.686 101.677 127.042 101.677 127.161 101.77C127.279 101.957 127.279 102.144 127.161 102.237C125.854 103.265 124.666 104.48 123.835 105.881C123.953 105.974 123.835 106.068 123.597 106.068ZM159.353 105.974H159.234C157.452 105.32 155.671 104.666 153.889 104.012C153.651 103.919 153.532 103.732 153.651 103.545C153.77 103.358 154.008 103.265 154.245 103.358C155.908 104.012 157.69 104.666 159.472 105.32C159.71 105.414 159.828 105.601 159.709 105.788C159.709 105.881 159.472 105.974 159.353 105.974ZM38.8988 105.134C38.78 105.134 38.6612 105.134 38.5424 105.04C38.3049 104.947 38.3049 104.666 38.5424 104.573C39.8491 103.452 41.2747 102.331 42.8189 101.303C43.0565 101.209 43.2941 101.209 43.4129 101.303C43.5317 101.49 43.5317 101.677 43.4129 101.77C41.9874 102.798 40.5619 103.825 39.2552 104.947C39.1364 105.134 39.0176 105.134 38.8988 105.134ZM129.655 102.891C129.537 102.891 129.418 102.891 129.418 102.798C128.111 101.863 126.567 100.929 124.785 100.088C124.547 99.9948 124.547 99.8079 124.666 99.621C124.785 99.4342 125.022 99.4342 125.26 99.5276C127.042 100.462 128.705 101.396 130.012 102.331C130.249 102.424 130.249 102.704 130.012 102.798C129.893 102.891 129.774 102.891 129.655 102.891ZM208.295 102.891C208.176 102.891 208.058 102.891 208.058 102.798C207.82 102.704 207.82 102.424 207.939 102.331C209.008 101.116 209.958 99.8079 210.79 98.4064C210.909 98.2195 211.146 98.1261 211.384 98.2196C211.621 98.313 211.74 98.4998 211.621 98.6867C210.79 100.182 209.839 101.583 208.651 102.798C208.533 102.891 208.414 102.891 208.295 102.891ZM148.899 101.863C148.781 101.863 148.781 101.863 148.662 101.863C146.88 101.116 145.098 100.555 143.316 100.088C143.079 99.9948 142.96 99.8079 143.079 99.621C143.198 99.4342 143.435 99.3407 143.673 99.4342C145.455 99.9013 147.236 100.462 149.137 101.209C149.375 101.303 149.493 101.49 149.375 101.677C149.256 101.77 149.018 101.863 148.899 101.863ZM131.912 99.9013C131.675 99.9013 131.556 99.8079 131.437 99.621C131.318 99.4342 131.437 99.2473 131.675 99.1539C133.457 98.6867 135.476 98.4064 137.614 98.4998C137.852 98.4998 138.09 98.6867 138.09 98.8736C138.09 99.0604 137.852 99.2473 137.614 99.2473C135.595 99.1539 133.694 99.4342 132.031 99.9013C132.031 99.9013 132.031 99.9013 131.912 99.9013ZM47.6894 98.967C47.5706 98.967 47.4518 98.8736 47.333 98.7801C47.2142 98.5933 47.2142 98.4064 47.4518 98.313C48.9961 97.3786 50.6592 96.5378 52.3222 95.6969C52.5598 95.6034 52.7974 95.6969 52.9162 95.7903C53.035 95.9772 52.9162 96.164 52.7974 96.2575C51.1343 97.0049 49.4712 97.8458 47.927 98.7801C47.927 98.967 47.8082 98.967 47.6894 98.967ZM119.914 97.8458C119.796 97.8458 119.796 97.8458 119.677 97.8458C118.014 97.1918 116.232 96.5378 114.331 95.8837C114.094 95.7903 113.975 95.6034 114.094 95.4166C114.212 95.2297 114.45 95.1363 114.688 95.2297C116.588 95.8837 118.37 96.5378 120.033 97.1918C120.271 97.2852 120.39 97.4721 120.271 97.659C120.271 97.8458 120.033 97.8458 119.914 97.8458ZM212.928 94.5757C212.928 94.5757 212.809 94.5757 212.928 94.5757C212.572 94.4822 212.453 94.2954 212.453 94.1085C212.809 92.707 213.166 91.2121 213.403 89.6238C213.403 89.4369 213.641 89.25 213.878 89.3435C214.116 89.3435 214.353 89.5303 214.235 89.7172C213.997 91.3055 213.759 92.8939 213.284 94.2954C213.284 94.3888 213.166 94.5757 212.928 94.5757ZM57.7866 94.2954C57.6678 94.2954 57.4303 94.202 57.4303 94.1085C57.3115 93.9217 57.4303 93.7348 57.6678 93.6413C59.4497 92.9873 61.3504 92.4267 63.1322 91.8661C63.3698 91.7727 63.6074 91.8661 63.7262 92.053C63.845 92.2399 63.7262 92.4267 63.4886 92.5202C61.7067 92.9873 59.8061 93.6414 58.143 94.202C57.9054 94.2954 57.7866 94.2954 57.7866 94.2954ZM109.104 94.2954H108.986C107.441 93.8282 105.778 93.4545 104.234 92.9873L103.521 92.8005C103.284 92.707 103.165 92.5202 103.284 92.3333C103.402 92.1464 103.64 92.053 103.878 92.1464L104.59 92.3333C106.253 92.8005 107.917 93.1742 109.461 93.6413C109.698 93.7348 109.817 93.9217 109.698 94.1085C109.461 94.202 109.342 94.2954 109.104 94.2954ZM97.9381 91.5858C97.9381 91.5858 97.8193 91.5858 97.9381 91.5858C95.9186 91.2121 94.018 90.9318 92.1173 90.6515C91.8797 90.6515 91.7609 90.4647 91.7609 90.2778C91.7609 90.0909 91.9985 89.9975 92.2361 89.9975C94.1368 90.1844 96.0374 90.5581 98.0569 90.9318C98.2944 90.9318 98.4132 91.1187 98.4132 91.399C98.2944 91.399 98.1756 91.5858 97.9381 91.5858ZM68.8342 91.2121C68.5966 91.2121 68.4778 91.1187 68.359 90.9318C68.359 90.745 68.4778 90.5581 68.7154 90.4647C70.6161 90.0909 72.5167 89.8106 74.5362 89.6238C74.7738 89.6238 75.0114 89.7172 75.0114 89.9041C75.0114 90.0909 74.8926 90.2778 74.655 90.2778C72.7543 90.6515 70.8537 90.9318 68.8342 91.2121C68.953 91.2121 68.8342 91.2121 68.8342 91.2121ZM86.2965 90.1844C84.871 90.0909 83.4455 90.0909 82.02 90.0909C81.4261 90.0909 80.9509 90.0909 80.357 90.0909C80.1194 90.0909 79.8818 89.9041 79.8818 89.7172C79.8818 89.5303 80.1194 89.3435 80.357 89.3435C80.9509 89.3435 81.5449 89.3435 82.1388 89.3435C83.4455 89.3435 84.871 89.3435 86.2965 89.4369C86.5341 89.4369 86.7717 89.6238 86.6529 89.8106C86.7717 89.9975 86.5341 90.1844 86.2965 90.1844ZM214.116 85.4193C213.878 85.4193 213.641 85.2324 213.641 85.0456V84.5784C213.641 83.1769 213.522 81.7754 213.522 80.374C213.522 80.1871 213.76 80.0002 213.997 80.0002C214.235 80.0002 214.472 80.1871 214.472 80.374C214.591 81.7754 214.591 83.1769 214.591 84.5784V85.0456C214.472 85.2324 214.353 85.4193 214.116 85.4193ZM213.641 76.1695C213.403 76.1695 213.166 75.9826 213.166 75.7958C213.047 74.2074 212.928 72.7125 212.809 71.2176C212.809 71.0307 212.928 70.8439 213.166 70.8439C213.403 70.8439 213.641 70.9373 213.641 71.1242C213.759 72.6191 213.878 74.114 213.997 75.7023C214.116 75.9826 213.997 76.1695 213.641 76.1695ZM212.809 66.9197C212.572 66.9197 212.334 66.8263 212.334 66.6394L211.859 62.0612C211.859 61.8744 211.978 61.6875 212.215 61.6875C212.453 61.6875 212.69 61.7809 212.69 61.9678L213.166 66.546C213.284 66.7328 213.047 66.9197 212.809 66.9197ZM211.859 57.7633C211.621 57.7633 211.384 57.5765 211.384 57.483C211.265 55.7078 211.146 54.2129 211.027 52.9048C211.027 52.718 211.265 52.5311 211.502 52.5311C211.74 52.5311 211.978 52.718 211.978 52.9048C211.978 54.2129 212.096 55.7078 212.334 57.483C212.334 57.5765 212.096 57.7633 211.859 57.7633ZM211.502 48.5135C211.265 48.5135 211.027 48.3266 211.027 48.1398C211.146 46.458 211.384 44.8696 211.621 43.4682C211.621 43.2813 211.859 43.1879 212.096 43.1879C212.334 43.1879 212.453 43.3747 212.453 43.5616C212.096 44.9631 211.859 46.3646 211.859 48.1398C211.978 48.4201 211.74 48.5135 211.502 48.5135ZM213.878 39.544C213.759 39.544 213.759 39.544 213.641 39.544C213.403 39.4506 213.284 39.2637 213.403 39.0768C214.235 37.5819 215.304 36.3673 216.61 35.1527C216.729 34.9658 217.086 34.9658 217.204 35.1527C217.442 35.2461 217.442 35.5264 217.204 35.6198C215.898 36.741 214.947 38.0491 214.116 39.4506C214.235 39.4506 213.997 39.544 213.878 39.544ZM221.362 32.63C221.243 32.63 221.125 32.5366 221.006 32.4431C220.887 32.2563 220.887 32.0694 221.125 31.976C222.669 31.1351 224.332 30.3876 226.233 29.6402C226.47 29.5467 226.708 29.6402 226.827 29.827C226.945 30.0139 226.827 30.2008 226.589 30.2942C224.688 30.9482 223.025 31.7891 221.6 32.5366C221.6 32.63 221.481 32.63 221.362 32.63Z" fill="#ECF0F1" fill-opacity="0.4"/>
<path d="M232.053 28.5198C231.816 28.5198 231.697 28.4263 231.578 28.2395C231.46 28.0526 231.578 27.8657 231.816 27.7723C232.766 27.492 233.717 27.3051 234.667 27.0249C234.904 26.9314 235.142 27.1183 235.261 27.3051C235.38 27.492 235.142 27.6789 234.905 27.7723C233.954 27.9592 233.004 28.2395 232.053 28.5198C232.172 28.5198 232.172 28.5198 232.053 28.5198Z" fill="#ECF0F1" fill-opacity="0.4"/>
<path d="M247.975 37.1C247.875 37.1 247.875 37.1 247.775 37C247.675 36.9 247.575 36.8 247.575 36.6L249.075 27.1C249.075 27 249.175 26.8 249.375 26.8L267.475 22.5L247.375 22.4C247.275 22.4 247.175 22.4 247.075 22.3L242.075 16.6C241.975 16.5 241.975 16.3 242.075 16.2C242.175 16.1 242.275 16 242.475 16L271.575 22C271.775 22 271.875 22.2 271.875 22.3C271.875 22.5 271.875 22.6 271.675 22.7L248.075 37C248.075 37.1 247.975 37.1 247.975 37.1ZM249.775 27.6L248.475 36L270.475 22.7L249.775 27.6ZM247.675 21.8L266.875 21.9L243.475 17.1L247.675 21.8Z" fill="#ECF0F1" fill-opacity="0.4"/>
<path d="M242.575 32.3C242.475 32.3 242.375 32.3 242.375 32.2C242.275 32.1 242.175 31.9 242.275 31.8L247.175 22C247.275 21.8 247.475 21.7 247.675 21.8C247.875 21.9 247.975 22.1 247.875 22.3L243.675 30.8L249.375 27C249.575 26.9 249.775 26.9 249.875 27.1C249.975 27.3 249.975 27.5 249.775 27.6L242.975 32.2C242.775 32.3 242.675 32.3 242.575 32.3Z" fill="#ECF0F1" fill-opacity="0.4"/>
<path d="M242.575 32.3C242.375 32.3 242.275 32.2 242.175 32C242.175 31.8 242.275 31.6 242.475 31.6L248.775 30.3C248.975 30.3 249.175 30.4 249.175 30.6C249.175 30.8 249.075 31 248.875 31L242.575 32.3C242.675 32.3 242.675 32.3 242.575 32.3Z" fill="#ECF0F1" fill-opacity="0.4"/>
<path d="M21.256 80.128C20.9253 80.128 20.6693 80.0373 20.488 79.856C20.3173 79.664 20.232 79.4027 20.232 79.072V69.76C20.232 69.4187 20.3227 69.1627 20.504 68.992C20.6853 68.8107 20.9413 68.72 21.272 68.72H25.128C26.3653 68.72 27.32 69.0187 27.992 69.616C28.664 70.2027 29 71.0293 29 72.096C29 72.7893 28.8453 73.3867 28.536 73.888C28.2373 74.3893 27.8 74.7733 27.224 75.04C26.648 75.3067 25.9493 75.44 25.128 75.44L25.272 75.2H25.8C26.2373 75.2 26.616 75.3067 26.936 75.52C27.2667 75.7333 27.5547 76.0693 27.8 76.528L29 78.752C29.128 78.976 29.1867 79.1947 29.176 79.408C29.1653 79.6213 29.0853 79.7973 28.936 79.936C28.7867 80.064 28.568 80.128 28.28 80.128C27.992 80.128 27.7573 80.0693 27.576 79.952C27.3947 79.824 27.2347 79.632 27.096 79.376L25.48 76.4C25.288 76.0373 25.0587 75.7973 24.792 75.68C24.536 75.552 24.2053 75.488 23.8 75.488H22.28V79.072C22.28 79.4027 22.1947 79.664 22.024 79.856C21.8533 80.0373 21.5973 80.128 21.256 80.128ZM22.28 73.968H24.776C25.512 73.968 26.0667 73.8187 26.44 73.52C26.824 73.2107 27.016 72.752 27.016 72.144C27.016 71.5467 26.824 71.0987 26.44 70.8C26.0667 70.4907 25.512 70.336 24.776 70.336H22.28V73.968ZM34.6616 80.16C33.7763 80.16 33.0136 79.9947 32.3736 79.664C31.7336 79.3333 31.2376 78.864 30.8856 78.256C30.5443 77.648 30.3736 76.928 30.3736 76.096C30.3736 75.2853 30.539 74.576 30.8696 73.968C31.211 73.36 31.675 72.8853 32.2616 72.544C32.859 72.192 33.5363 72.016 34.2936 72.016C34.8483 72.016 35.3443 72.1067 35.7816 72.288C36.2296 72.4693 36.6083 72.7307 36.9176 73.072C37.2376 73.4133 37.4776 73.8293 37.6376 74.32C37.8083 74.8 37.8936 75.344 37.8936 75.952C37.8936 76.144 37.8243 76.2933 37.6856 76.4C37.5576 76.496 37.371 76.544 37.1256 76.544H31.9896V75.392H36.4856L36.2296 75.632C36.2296 75.1413 36.155 74.7307 36.0056 74.4C35.867 74.0693 35.659 73.8187 35.3816 73.648C35.115 73.4667 34.779 73.376 34.3736 73.376C33.9256 73.376 33.5416 73.4827 33.2216 73.696C32.9123 73.8987 32.6723 74.192 32.5016 74.576C32.3416 74.9493 32.2616 75.3973 32.2616 75.92V76.032C32.2616 76.9067 32.4643 77.5627 32.8696 78C33.2856 78.4267 33.8936 78.64 34.6936 78.64C34.971 78.64 35.2803 78.608 35.6216 78.544C35.9736 78.4693 36.3043 78.3467 36.6136 78.176C36.8376 78.048 37.035 77.9947 37.2056 78.016C37.3763 78.0267 37.5096 78.0853 37.6056 78.192C37.7123 78.2987 37.7763 78.432 37.7976 78.592C37.819 78.7413 37.787 78.896 37.7016 79.056C37.627 79.216 37.4936 79.3547 37.3016 79.472C36.9283 79.7067 36.4963 79.8827 36.0056 80C35.5256 80.1067 35.0776 80.16 34.6616 80.16ZM42.3415 80.16C41.8828 80.16 41.3975 80.112 40.8855 80.016C40.3735 79.92 39.9148 79.7547 39.5095 79.52C39.3388 79.4133 39.2162 79.2907 39.1415 79.152C39.0775 79.0027 39.0508 78.8587 39.0615 78.72C39.0828 78.5707 39.1362 78.4427 39.2215 78.336C39.3175 78.2293 39.4348 78.16 39.5735 78.128C39.7228 78.096 39.8828 78.1227 40.0535 78.208C40.4802 78.4107 40.8802 78.5547 41.2535 78.64C41.6268 78.7147 41.9948 78.752 42.3575 78.752C42.8695 78.752 43.2482 78.6667 43.4935 78.496C43.7495 78.3147 43.8775 78.08 43.8775 77.792C43.8775 77.5467 43.7922 77.36 43.6215 77.232C43.4615 77.0933 43.2162 76.992 42.8855 76.928L41.2855 76.624C40.6242 76.496 40.1175 76.256 39.7655 75.904C39.4242 75.5413 39.2535 75.0773 39.2535 74.512C39.2535 74 39.3922 73.5573 39.6695 73.184C39.9575 72.8107 40.3522 72.5227 40.8535 72.32C41.3548 72.1173 41.9308 72.016 42.5815 72.016C43.0508 72.016 43.4882 72.0693 43.8935 72.176C44.3095 72.272 44.7095 72.4267 45.0935 72.64C45.2535 72.7253 45.3602 72.8373 45.4135 72.976C45.4775 73.1147 45.4935 73.2587 45.4615 73.408C45.4295 73.5467 45.3655 73.6747 45.2695 73.792C45.1735 73.8987 45.0508 73.968 44.9015 74C44.7628 74.0213 44.6028 73.9893 44.4215 73.904C44.0908 73.7333 43.7708 73.6107 43.4615 73.536C43.1628 73.4613 42.8748 73.424 42.5975 73.424C42.0748 73.424 41.6855 73.5147 41.4295 73.696C41.1842 73.8773 41.0615 74.1173 41.0615 74.416C41.0615 74.64 41.1362 74.8267 41.2855 74.976C41.4348 75.1253 41.6642 75.2267 41.9735 75.28L43.5735 75.584C44.2668 75.712 44.7895 75.9467 45.1415 76.288C45.5042 76.6293 45.6855 77.088 45.6855 77.664C45.6855 78.4427 45.3815 79.056 44.7735 79.504C44.1655 79.9413 43.3548 80.16 42.3415 80.16ZM50.122 80.16C49.4713 80.16 48.9327 80.0427 48.506 79.808C48.0793 79.5627 47.7593 79.2 47.546 78.72C47.3433 78.24 47.242 77.6427 47.242 76.928V73.056C47.242 72.7147 47.3273 72.464 47.498 72.304C47.6687 72.1333 47.914 72.048 48.234 72.048C48.554 72.048 48.7993 72.1333 48.97 72.304C49.1513 72.464 49.242 72.7147 49.242 73.056V76.96C49.242 77.5147 49.354 77.9253 49.578 78.192C49.802 78.4587 50.1593 78.592 50.65 78.592C51.1833 78.592 51.6207 78.4107 51.962 78.048C52.3033 77.6747 52.474 77.184 52.474 76.576V73.056C52.474 72.7147 52.5593 72.464 52.73 72.304C52.9007 72.1333 53.146 72.048 53.466 72.048C53.786 72.048 54.0313 72.1333 54.202 72.304C54.3833 72.464 54.474 72.7147 54.474 73.056V79.104C54.474 79.7867 54.1487 80.128 53.498 80.128C53.1887 80.128 52.9487 80.0427 52.778 79.872C52.6073 79.6907 52.522 79.4347 52.522 79.104V77.888L52.746 78.368C52.522 78.944 52.1807 79.3867 51.722 79.696C51.274 80.0053 50.7407 80.16 50.122 80.16ZM57.5796 80.128C57.2596 80.128 57.0143 80.0427 56.8436 79.872C56.673 79.6907 56.5876 79.4347 56.5876 79.104V73.056C56.5876 72.7253 56.673 72.4747 56.8436 72.304C57.0143 72.1333 57.2543 72.048 57.5636 72.048C57.873 72.048 58.113 72.1333 58.2836 72.304C58.4543 72.4747 58.5396 72.7253 58.5396 73.056V74.224L58.3636 73.744C58.577 73.2107 58.9076 72.7893 59.3556 72.48C59.8036 72.1707 60.337 72.016 60.9556 72.016C61.585 72.016 62.1023 72.1653 62.5076 72.464C62.913 72.7627 63.1956 73.2213 63.3556 73.84H63.1316C63.345 73.2747 63.697 72.832 64.1876 72.512C64.6783 72.1813 65.2436 72.016 65.8836 72.016C66.481 72.016 66.9716 72.1333 67.3556 72.368C67.7503 72.6027 68.0436 72.96 68.2356 73.44C68.4276 73.9093 68.5236 74.5067 68.5236 75.232V79.104C68.5236 79.4347 68.433 79.6907 68.2516 79.872C68.081 80.0427 67.8356 80.128 67.5156 80.128C67.1956 80.128 66.9503 80.0427 66.7796 79.872C66.609 79.6907 66.5236 79.4347 66.5236 79.104V75.312C66.5236 74.7147 66.4223 74.2773 66.2196 74C66.0276 73.7227 65.697 73.584 65.2276 73.584C64.705 73.584 64.2943 73.7707 63.9956 74.144C63.697 74.5067 63.5476 75.0133 63.5476 75.664V79.104C63.5476 79.4347 63.4623 79.6907 63.2916 79.872C63.121 80.0427 62.8756 80.128 62.5556 80.128C62.2356 80.128 61.985 80.0427 61.8036 79.872C61.633 79.6907 61.5476 79.4347 61.5476 79.104V75.312C61.5476 74.7147 61.4463 74.2773 61.2436 74C61.0516 73.7227 60.7263 73.584 60.2676 73.584C59.745 73.584 59.3343 73.7707 59.0356 74.144C58.737 74.5067 58.5876 75.0133 58.5876 75.664V79.104C58.5876 79.7867 58.2516 80.128 57.5796 80.128ZM74.4429 80.16C73.5575 80.16 72.7949 79.9947 72.1549 79.664C71.5149 79.3333 71.0189 78.864 70.6669 78.256C70.3255 77.648 70.1549 76.928 70.1549 76.096C70.1549 75.2853 70.3202 74.576 70.6509 73.968C70.9922 73.36 71.4562 72.8853 72.0429 72.544C72.6402 72.192 73.3175 72.016 74.0749 72.016C74.6295 72.016 75.1255 72.1067 75.5629 72.288C76.0109 72.4693 76.3895 72.7307 76.6989 73.072C77.0189 73.4133 77.2589 73.8293 77.4189 74.32C77.5895 74.8 77.6749 75.344 77.6749 75.952C77.6749 76.144 77.6055 76.2933 77.4669 76.4C77.3389 76.496 77.1522 76.544 76.9069 76.544H71.7709V75.392H76.2669L76.0109 75.632C76.0109 75.1413 75.9362 74.7307 75.7869 74.4C75.6482 74.0693 75.4402 73.8187 75.1629 73.648C74.8962 73.4667 74.5602 73.376 74.1549 73.376C73.7069 73.376 73.3229 73.4827 73.0029 73.696C72.6935 73.8987 72.4535 74.192 72.2829 74.576C72.1229 74.9493 72.0429 75.3973 72.0429 75.92V76.032C72.0429 76.9067 72.2455 77.5627 72.6509 78C73.0669 78.4267 73.6749 78.64 74.4749 78.64C74.7522 78.64 75.0615 78.608 75.4029 78.544C75.7549 78.4693 76.0855 78.3467 76.3949 78.176C76.6189 78.048 76.8162 77.9947 76.9869 78.016C77.1575 78.0267 77.2909 78.0853 77.3869 78.192C77.4935 78.2987 77.5575 78.432 77.5789 78.592C77.6002 78.7413 77.5682 78.896 77.4829 79.056C77.4082 79.216 77.2749 79.3547 77.0829 79.472C76.7095 79.7067 76.2775 79.8827 75.7869 80C75.3069 80.1067 74.8589 80.16 74.4429 80.16ZM85.5865 83.008C85.3518 83.008 85.1598 82.944 85.0105 82.816C84.8612 82.6987 84.7705 82.5387 84.7385 82.336C84.7172 82.1333 84.7545 81.92 84.8505 81.696L85.9385 79.28V80.112L83.0265 73.376C82.9305 73.1413 82.8985 72.9227 82.9305 72.72C82.9625 72.5173 83.0585 72.3573 83.2185 72.24C83.3892 72.112 83.6185 72.048 83.9065 72.048C84.1518 72.048 84.3492 72.1067 84.4985 72.224C84.6478 72.3307 84.7812 72.5387 84.8985 72.848L87.0585 78.24H86.5785L88.7865 72.832C88.9038 72.5333 89.0425 72.3307 89.2025 72.224C89.3625 72.1067 89.5758 72.048 89.8425 72.048C90.0772 72.048 90.2638 72.112 90.4025 72.24C90.5412 72.3573 90.6265 72.5173 90.6585 72.72C90.6905 72.912 90.6532 73.1253 90.5465 73.36L86.6585 82.24C86.5198 82.5387 86.3705 82.7413 86.2105 82.848C86.0505 82.9547 85.8425 83.008 85.5865 83.008ZM95.4361 80.16C94.6255 80.16 93.9215 79.9947 93.3241 79.664C92.7268 79.3333 92.2628 78.864 91.9321 78.256C91.6015 77.6373 91.4361 76.912 91.4361 76.08C91.4361 75.4507 91.5268 74.8907 91.7081 74.4C91.9001 73.8987 92.1721 73.472 92.5241 73.12C92.8761 72.7573 93.2975 72.4853 93.7881 72.304C94.2788 72.112 94.8281 72.016 95.4361 72.016C96.2468 72.016 96.9508 72.1813 97.5481 72.512C98.1455 72.8427 98.6095 73.312 98.9401 73.92C99.2708 74.528 99.4361 75.248 99.4361 76.08C99.4361 76.7093 99.3401 77.2747 99.1481 77.776C98.9668 78.2773 98.7001 78.7093 98.3481 79.072C97.9961 79.424 97.5748 79.696 97.0841 79.888C96.5935 80.0693 96.0441 80.16 95.4361 80.16ZM95.4361 78.64C95.8308 78.64 96.1775 78.544 96.4761 78.352C96.7748 78.16 97.0041 77.8773 97.1641 77.504C97.3348 77.12 97.4201 76.6453 97.4201 76.08C97.4201 75.2267 97.2388 74.592 96.8761 74.176C96.5135 73.7493 96.0335 73.536 95.4361 73.536C95.0415 73.536 94.6948 73.632 94.3961 73.824C94.0975 74.0053 93.8628 74.288 93.6921 74.672C93.5321 75.0453 93.4521 75.5147 93.4521 76.08C93.4521 76.9227 93.6335 77.5627 93.9961 78C94.3588 78.4267 94.8388 78.64 95.4361 78.64ZM103.919 80.16C103.268 80.16 102.73 80.0427 102.303 79.808C101.876 79.5627 101.556 79.2 101.343 78.72C101.14 78.24 101.039 77.6427 101.039 76.928V73.056C101.039 72.7147 101.124 72.464 101.295 72.304C101.466 72.1333 101.711 72.048 102.031 72.048C102.351 72.048 102.596 72.1333 102.767 72.304C102.948 72.464 103.039 72.7147 103.039 73.056V76.96C103.039 77.5147 103.151 77.9253 103.375 78.192C103.599 78.4587 103.956 78.592 104.447 78.592C104.98 78.592 105.418 78.4107 105.759 78.048C106.1 77.6747 106.271 77.184 106.271 76.576V73.056C106.271 72.7147 106.356 72.464 106.527 72.304C106.698 72.1333 106.943 72.048 107.263 72.048C107.583 72.048 107.828 72.1333 107.999 72.304C108.18 72.464 108.271 72.7147 108.271 73.056V79.104C108.271 79.7867 107.946 80.128 107.295 80.128C106.986 80.128 106.746 80.0427 106.575 79.872C106.404 79.6907 106.319 79.4347 106.319 79.104V77.888L106.543 78.368C106.319 78.944 105.978 79.3867 105.519 79.696C105.071 80.0053 104.538 80.16 103.919 80.16ZM111.377 80.128C111.046 80.128 110.79 80.0427 110.609 79.872C110.438 79.6907 110.353 79.4347 110.353 79.104V73.056C110.353 72.7253 110.438 72.4747 110.609 72.304C110.779 72.1333 111.019 72.048 111.329 72.048C111.638 72.048 111.878 72.1333 112.049 72.304C112.219 72.4747 112.305 72.7253 112.305 73.056V74.064H112.145C112.294 73.424 112.587 72.9387 113.025 72.608C113.462 72.2773 114.043 72.08 114.769 72.016C114.993 71.9947 115.169 72.0533 115.297 72.192C115.435 72.32 115.515 72.5227 115.537 72.8C115.558 73.0667 115.494 73.2853 115.345 73.456C115.206 73.616 114.993 73.712 114.705 73.744L114.353 73.776C113.702 73.84 113.211 74.0427 112.881 74.384C112.55 74.7147 112.385 75.184 112.385 75.792V79.104C112.385 79.4347 112.299 79.6907 112.129 79.872C111.958 80.0427 111.707 80.128 111.377 80.128ZM123.634 80.16C122.749 80.16 122.082 79.9093 121.634 79.408C121.186 78.896 120.962 78.1493 120.962 77.168V69.6C120.962 69.2693 121.047 69.0187 121.218 68.848C121.389 68.6773 121.634 68.592 121.954 68.592C122.274 68.592 122.519 68.6773 122.69 68.848C122.871 69.0187 122.962 69.2693 122.962 69.6V77.072C122.962 77.5627 123.063 77.9253 123.266 78.16C123.479 78.3947 123.778 78.512 124.162 78.512C124.247 78.512 124.327 78.512 124.402 78.512C124.477 78.5013 124.551 78.4907 124.626 78.48C124.775 78.4587 124.877 78.5013 124.93 78.608C124.983 78.704 125.01 78.9067 125.01 79.216C125.01 79.4827 124.957 79.6907 124.85 79.84C124.743 79.9893 124.567 80.08 124.322 80.112C124.215 80.1227 124.103 80.1333 123.986 80.144C123.869 80.1547 123.751 80.16 123.634 80.16ZM129.849 80.16C128.964 80.16 128.201 79.9947 127.561 79.664C126.921 79.3333 126.425 78.864 126.073 78.256C125.732 77.648 125.561 76.928 125.561 76.096C125.561 75.2853 125.726 74.576 126.057 73.968C126.398 73.36 126.862 72.8853 127.449 72.544C128.046 72.192 128.724 72.016 129.481 72.016C130.036 72.016 130.532 72.1067 130.969 72.288C131.417 72.4693 131.796 72.7307 132.105 73.072C132.425 73.4133 132.665 73.8293 132.825 74.32C132.996 74.8 133.081 75.344 133.081 75.952C133.081 76.144 133.012 76.2933 132.873 76.4C132.745 76.496 132.558 76.544 132.313 76.544H127.177V75.392H131.673L131.417 75.632C131.417 75.1413 131.342 74.7307 131.193 74.4C131.054 74.0693 130.846 73.8187 130.569 73.648C130.302 73.4667 129.966 73.376 129.561 73.376C129.113 73.376 128.729 73.4827 128.409 73.696C128.1 73.8987 127.86 74.192 127.689 74.576C127.529 74.9493 127.449 75.3973 127.449 75.92V76.032C127.449 76.9067 127.652 77.5627 128.057 78C128.473 78.4267 129.081 78.64 129.881 78.64C130.158 78.64 130.468 78.608 130.809 78.544C131.161 78.4693 131.492 78.3467 131.801 78.176C132.025 78.048 132.222 77.9947 132.393 78.016C132.564 78.0267 132.697 78.0853 132.793 78.192C132.9 78.2987 132.964 78.432 132.985 78.592C133.006 78.7413 132.974 78.896 132.889 79.056C132.814 79.216 132.681 79.3547 132.489 79.472C132.116 79.7067 131.684 79.8827 131.193 80C130.713 80.1067 130.265 80.16 129.849 80.16ZM137.529 80.16C137.07 80.16 136.585 80.112 136.073 80.016C135.561 79.92 135.102 79.7547 134.697 79.52C134.526 79.4133 134.404 79.2907 134.329 79.152C134.265 79.0027 134.238 78.8587 134.249 78.72C134.27 78.5707 134.324 78.4427 134.409 78.336C134.505 78.2293 134.622 78.16 134.761 78.128C134.91 78.096 135.07 78.1227 135.241 78.208C135.668 78.4107 136.068 78.5547 136.441 78.64C136.814 78.7147 137.182 78.752 137.545 78.752C138.057 78.752 138.436 78.6667 138.681 78.496C138.937 78.3147 139.065 78.08 139.065 77.792C139.065 77.5467 138.98 77.36 138.809 77.232C138.649 77.0933 138.404 76.992 138.073 76.928L136.473 76.624C135.812 76.496 135.305 76.256 134.953 75.904C134.612 75.5413 134.441 75.0773 134.441 74.512C134.441 74 134.58 73.5573 134.857 73.184C135.145 72.8107 135.54 72.5227 136.041 72.32C136.542 72.1173 137.118 72.016 137.769 72.016C138.238 72.016 138.676 72.0693 139.081 72.176C139.497 72.272 139.897 72.4267 140.281 72.64C140.441 72.7253 140.548 72.8373 140.601 72.976C140.665 73.1147 140.681 73.2587 140.649 73.408C140.617 73.5467 140.553 73.6747 140.457 73.792C140.361 73.8987 140.238 73.968 140.089 74C139.95 74.0213 139.79 73.9893 139.609 73.904C139.278 73.7333 138.958 73.6107 138.649 73.536C138.35 73.4613 138.062 73.424 137.785 73.424C137.262 73.424 136.873 73.5147 136.617 73.696C136.372 73.8773 136.249 74.1173 136.249 74.416C136.249 74.64 136.324 74.8267 136.473 74.976C136.622 75.1253 136.852 75.2267 137.161 75.28L138.761 75.584C139.454 75.712 139.977 75.9467 140.329 76.288C140.692 76.6293 140.873 77.088 140.873 77.664C140.873 78.4427 140.569 79.056 139.961 79.504C139.353 79.9413 138.542 80.16 137.529 80.16ZM145.342 80.16C144.883 80.16 144.398 80.112 143.886 80.016C143.374 79.92 142.915 79.7547 142.51 79.52C142.339 79.4133 142.216 79.2907 142.142 79.152C142.078 79.0027 142.051 78.8587 142.062 78.72C142.083 78.5707 142.136 78.4427 142.222 78.336C142.318 78.2293 142.435 78.16 142.574 78.128C142.723 78.096 142.883 78.1227 143.054 78.208C143.48 78.4107 143.88 78.5547 144.254 78.64C144.627 78.7147 144.995 78.752 145.358 78.752C145.87 78.752 146.248 78.6667 146.494 78.496C146.75 78.3147 146.878 78.08 146.878 77.792C146.878 77.5467 146.792 77.36 146.622 77.232C146.462 77.0933 146.216 76.992 145.886 76.928L144.286 76.624C143.624 76.496 143.118 76.256 142.766 75.904C142.424 75.5413 142.254 75.0773 142.254 74.512C142.254 74 142.392 73.5573 142.67 73.184C142.958 72.8107 143.352 72.5227 143.854 72.32C144.355 72.1173 144.931 72.016 145.582 72.016C146.051 72.016 146.488 72.0693 146.894 72.176C147.31 72.272 147.71 72.4267 148.094 72.64C148.254 72.7253 148.36 72.8373 148.414 72.976C148.478 73.1147 148.494 73.2587 148.462 73.408C148.43 73.5467 148.366 73.6747 148.27 73.792C148.174 73.8987 148.051 73.968 147.902 74C147.763 74.0213 147.603 73.9893 147.422 73.904C147.091 73.7333 146.771 73.6107 146.462 73.536C146.163 73.4613 145.875 73.424 145.598 73.424C145.075 73.424 144.686 73.5147 144.43 73.696C144.184 73.8773 144.062 74.1173 144.062 74.416C144.062 74.64 144.136 74.8267 144.286 74.976C144.435 75.1253 144.664 75.2267 144.974 75.28L146.574 75.584C147.267 75.712 147.79 75.9467 148.142 76.288C148.504 76.6293 148.686 77.088 148.686 77.664C148.686 78.4427 148.382 79.056 147.774 79.504C147.166 79.9413 146.355 80.16 145.342 80.16ZM153.858 80.16C153.047 80.16 152.343 79.9947 151.746 79.664C151.149 79.3333 150.685 78.864 150.354 78.256C150.023 77.6373 149.858 76.912 149.858 76.08C149.858 75.4507 149.949 74.8907 150.13 74.4C150.322 73.8987 150.594 73.472 150.946 73.12C151.298 72.7573 151.719 72.4853 152.21 72.304C152.701 72.112 153.25 72.016 153.858 72.016C154.669 72.016 155.373 72.1813 155.97 72.512C156.567 72.8427 157.031 73.312 157.362 73.92C157.693 74.528 157.858 75.248 157.858 76.08C157.858 76.7093 157.762 77.2747 157.57 77.776C157.389 78.2773 157.122 78.7093 156.77 79.072C156.418 79.424 155.997 79.696 155.506 79.888C155.015 80.0693 154.466 80.16 153.858 80.16ZM153.858 78.64C154.253 78.64 154.599 78.544 154.898 78.352C155.197 78.16 155.426 77.8773 155.586 77.504C155.757 77.12 155.842 76.6453 155.842 76.08C155.842 75.2267 155.661 74.592 155.298 74.176C154.935 73.7493 154.455 73.536 153.858 73.536C153.463 73.536 153.117 73.632 152.818 73.824C152.519 74.0053 152.285 74.288 152.114 74.672C151.954 75.0453 151.874 75.5147 151.874 76.08C151.874 76.9227 152.055 77.5627 152.418 78C152.781 78.4267 153.261 78.64 153.858 78.64ZM160.501 80.128C160.181 80.128 159.935 80.0427 159.765 79.872C159.594 79.6907 159.509 79.4347 159.509 79.104V73.056C159.509 72.7253 159.594 72.4747 159.765 72.304C159.935 72.1333 160.175 72.048 160.485 72.048C160.794 72.048 161.034 72.1333 161.205 72.304C161.375 72.4747 161.461 72.7253 161.461 73.056V74.144L161.285 73.744C161.519 73.1787 161.882 72.752 162.373 72.464C162.874 72.1653 163.439 72.016 164.069 72.016C164.698 72.016 165.215 72.1333 165.621 72.368C166.026 72.6027 166.33 72.96 166.533 73.44C166.735 73.9093 166.837 74.5067 166.837 75.232V79.104C166.837 79.4347 166.751 79.6907 166.581 79.872C166.41 80.0427 166.165 80.128 165.845 80.128C165.525 80.128 165.274 80.0427 165.093 79.872C164.922 79.6907 164.837 79.4347 164.837 79.104V75.328C164.837 74.72 164.719 74.2773 164.485 74C164.261 73.7227 163.909 73.584 163.429 73.584C162.842 73.584 162.373 73.7707 162.021 74.144C161.679 74.5067 161.509 74.992 161.509 75.6V79.104C161.509 79.7867 161.173 80.128 160.501 80.128ZM23.608 102.16C22.7973 102.16 22.0933 101.995 21.496 101.664C20.8987 101.333 20.4347 100.864 20.104 100.256C19.7733 99.6373 19.608 98.912 19.608 98.08C19.608 97.4507 19.6987 96.8907 19.88 96.4C20.072 95.8987 20.344 95.472 20.696 95.12C21.048 94.7573 21.4693 94.4853 21.96 94.304C22.4507 94.112 23 94.016 23.608 94.016C24.4187 94.016 25.1227 94.1813 25.72 94.512C26.3173 94.8427 26.7813 95.312 27.112 95.92C27.4427 96.528 27.608 97.248 27.608 98.08C27.608 98.7093 27.512 99.2747 27.32 99.776C27.1387 100.277 26.872 100.709 26.52 101.072C26.168 101.424 25.7467 101.696 25.256 101.888C24.7653 102.069 24.216 102.16 23.608 102.16ZM23.608 100.64C24.0027 100.64 24.3493 100.544 24.648 100.352C24.9467 100.16 25.176 99.8773 25.336 99.504C25.5067 99.12 25.592 98.6453 25.592 98.08C25.592 97.2267 25.4107 96.592 25.048 96.176C24.6853 95.7493 24.2053 95.536 23.608 95.536C23.2133 95.536 22.8667 95.632 22.568 95.824C22.2693 96.0053 22.0347 96.288 21.864 96.672C21.704 97.0453 21.624 97.5147 21.624 98.08C21.624 98.9227 21.8053 99.5627 22.168 100C22.5307 100.427 23.0107 100.64 23.608 100.64ZM30.2508 102.128C29.9308 102.128 29.6854 102.043 29.5148 101.872C29.3441 101.691 29.2588 101.435 29.2588 101.104V95.056C29.2588 94.7253 29.3441 94.4747 29.5148 94.304C29.6854 94.1333 29.9254 94.048 30.2348 94.048C30.5441 94.048 30.7841 94.1333 30.9548 94.304C31.1254 94.4747 31.2108 94.7253 31.2108 95.056V96.144L31.0348 95.744C31.2694 95.1787 31.6321 94.752 32.1228 94.464C32.6241 94.1653 33.1894 94.016 33.8188 94.016C34.4481 94.016 34.9654 94.1333 35.3708 94.368C35.7761 94.6027 36.0801 94.96 36.2828 95.44C36.4854 95.9093 36.5868 96.5067 36.5868 97.232V101.104C36.5868 101.435 36.5014 101.691 36.3308 101.872C36.1601 102.043 35.9148 102.128 35.5948 102.128C35.2748 102.128 35.0241 102.043 34.8428 101.872C34.6721 101.691 34.5868 101.435 34.5868 101.104V97.328C34.5868 96.72 34.4694 96.2773 34.2348 96C34.0108 95.7227 33.6588 95.584 33.1788 95.584C32.5921 95.584 32.1228 95.7707 31.7708 96.144C31.4294 96.5067 31.2588 96.992 31.2588 97.6V101.104C31.2588 101.787 30.9228 102.128 30.2508 102.128ZM48.5779 102.16C47.3299 102.16 46.2739 101.925 45.4099 101.456C44.5565 100.987 43.9059 100.32 43.4579 99.456C43.0099 98.592 42.7859 97.568 42.7859 96.384C42.7859 95.488 42.9139 94.6827 43.1699 93.968C43.4365 93.2533 43.8152 92.6453 44.3059 92.144C44.8072 91.632 45.4152 91.2427 46.1299 90.976C46.8445 90.6987 47.6552 90.56 48.5619 90.56C49.1592 90.56 49.7565 90.6347 50.3539 90.784C50.9619 90.9227 51.5325 91.1627 52.0659 91.504C52.2472 91.6213 52.3645 91.7653 52.4179 91.936C52.4819 92.1067 52.4925 92.2827 52.4499 92.464C52.4072 92.6347 52.3272 92.784 52.2099 92.912C52.0925 93.04 51.9432 93.12 51.7619 93.152C51.5912 93.184 51.3992 93.1413 51.1859 93.024C50.7805 92.7893 50.3699 92.6187 49.9539 92.512C49.5379 92.4053 49.0739 92.352 48.5619 92.352C47.7725 92.352 47.1059 92.512 46.5619 92.832C46.0179 93.1413 45.6072 93.5947 45.3299 94.192C45.0632 94.7893 44.9299 95.52 44.9299 96.384C44.9299 97.696 45.2445 98.6933 45.8739 99.376C46.5032 100.059 47.4365 100.4 48.6739 100.4C49.1005 100.4 49.5325 100.357 49.9699 100.272C50.4072 100.187 50.8339 100.069 51.2499 99.92L50.8499 100.832V97.424H49.0899C48.8232 97.424 48.6152 97.3547 48.4659 97.216C48.3272 97.0773 48.2579 96.8907 48.2579 96.656C48.2579 96.4107 48.3272 96.224 48.4659 96.096C48.6152 95.968 48.8232 95.904 49.0899 95.904H51.7299C51.9965 95.904 52.1992 95.9787 52.3379 96.128C52.4872 96.2667 52.5619 96.4693 52.5619 96.736V100.624C52.5619 100.859 52.5139 101.056 52.4179 101.216C52.3325 101.376 52.1885 101.493 51.9859 101.568C51.5165 101.739 50.9779 101.883 50.3699 102C49.7619 102.107 49.1645 102.16 48.5779 102.16ZM58.5991 102.16C57.7138 102.16 56.9511 101.995 56.3111 101.664C55.6711 101.333 55.1751 100.864 54.8231 100.256C54.4818 99.648 54.3111 98.928 54.3111 98.096C54.3111 97.2853 54.4765 96.576 54.8071 95.968C55.1485 95.36 55.6125 94.8853 56.1991 94.544C56.7965 94.192 57.4738 94.016 58.2311 94.016C58.7858 94.016 59.2818 94.1067 59.7191 94.288C60.1671 94.4693 60.5458 94.7307 60.8551 95.072C61.1751 95.4133 61.4151 95.8293 61.5751 96.32C61.7458 96.8 61.8311 97.344 61.8311 97.952C61.8311 98.144 61.7618 98.2933 61.6231 98.4C61.4951 98.496 61.3085 98.544 61.0631 98.544H55.9271V97.392H60.4231L60.1671 97.632C60.1671 97.1413 60.0925 96.7307 59.9431 96.4C59.8045 96.0693 59.5965 95.8187 59.3191 95.648C59.0525 95.4667 58.7165 95.376 58.3111 95.376C57.8631 95.376 57.4791 95.4827 57.1591 95.696C56.8498 95.8987 56.6098 96.192 56.4391 96.576C56.2791 96.9493 56.1991 97.3973 56.1991 97.92V98.032C56.1991 98.9067 56.4018 99.5627 56.8071 100C57.2231 100.427 57.8311 100.64 58.6311 100.64C58.9085 100.64 59.2178 100.608 59.5591 100.544C59.9111 100.469 60.2418 100.347 60.5511 100.176C60.7751 100.048 60.9725 99.9947 61.1431 100.016C61.3138 100.027 61.4471 100.085 61.5431 100.192C61.6498 100.299 61.7138 100.432 61.7351 100.592C61.7565 100.741 61.7245 100.896 61.6391 101.056C61.5645 101.216 61.4311 101.355 61.2391 101.472C60.8658 101.707 60.4338 101.883 59.9431 102C59.4631 102.107 59.0151 102.16 58.5991 102.16ZM66.983 102.16C66.1723 102.16 65.4683 101.995 64.871 101.664C64.2737 101.333 63.8097 100.864 63.479 100.256C63.1483 99.6373 62.983 98.912 62.983 98.08C62.983 97.4507 63.0737 96.8907 63.255 96.4C63.447 95.8987 63.719 95.472 64.071 95.12C64.423 94.7573 64.8443 94.4853 65.335 94.304C65.8257 94.112 66.375 94.016 66.983 94.016C67.7937 94.016 68.4977 94.1813 69.095 94.512C69.6923 94.8427 70.1563 95.312 70.487 95.92C70.8177 96.528 70.983 97.248 70.983 98.08C70.983 98.7093 70.887 99.2747 70.695 99.776C70.5137 100.277 70.247 100.709 69.895 101.072C69.543 101.424 69.1217 101.696 68.631 101.888C68.1403 102.069 67.591 102.16 66.983 102.16ZM66.983 100.64C67.3777 100.64 67.7243 100.544 68.023 100.352C68.3217 100.16 68.551 99.8773 68.711 99.504C68.8817 99.12 68.967 98.6453 68.967 98.08C68.967 97.2267 68.7857 96.592 68.423 96.176C68.0603 95.7493 67.5803 95.536 66.983 95.536C66.5883 95.536 66.2417 95.632 65.943 95.824C65.6443 96.0053 65.4097 96.288 65.239 96.672C65.079 97.0453 64.999 97.5147 64.999 98.08C64.999 98.9227 65.1803 99.5627 65.543 100C65.9057 100.427 66.3857 100.64 66.983 100.64ZM73.6578 102.128C73.3378 102.128 73.0924 102.043 72.9218 101.872C72.7511 101.691 72.6658 101.435 72.6658 101.104V95.056C72.6658 94.7253 72.7511 94.4747 72.9218 94.304C73.0924 94.1333 73.3324 94.048 73.6418 94.048C73.9511 94.048 74.1911 94.1333 74.3618 94.304C74.5324 94.4747 74.6178 94.7253 74.6178 95.056V96.224L74.4418 95.744C74.6551 95.2107 74.9858 94.7893 75.4338 94.48C75.8818 94.1707 76.4151 94.016 77.0338 94.016C77.6631 94.016 78.1804 94.1653 78.5858 94.464C78.9911 94.7627 79.2738 95.2213 79.4338 95.84H79.2098C79.4231 95.2747 79.7751 94.832 80.2658 94.512C80.7564 94.1813 81.3218 94.016 81.9618 94.016C82.5591 94.016 83.0498 94.1333 83.4338 94.368C83.8284 94.6027 84.1218 94.96 84.3138 95.44C84.5058 95.9093 84.6018 96.5067 84.6018 97.232V101.104C84.6018 101.435 84.5111 101.691 84.3298 101.872C84.1591 102.043 83.9138 102.128 83.5938 102.128C83.2738 102.128 83.0284 102.043 82.8578 101.872C82.6871 101.691 82.6018 101.435 82.6018 101.104V97.312C82.6018 96.7147 82.5004 96.2773 82.2978 96C82.1058 95.7227 81.7751 95.584 81.3058 95.584C80.7831 95.584 80.3724 95.7707 80.0738 96.144C79.7751 96.5067 79.6258 97.0133 79.6258 97.664V101.104C79.6258 101.435 79.5404 101.691 79.3698 101.872C79.1991 102.043 78.9538 102.128 78.6338 102.128C78.3138 102.128 78.0631 102.043 77.8818 101.872C77.7111 101.691 77.6258 101.435 77.6258 101.104V97.312C77.6258 96.7147 77.5244 96.2773 77.3218 96C77.1298 95.7227 76.8044 95.584 76.3458 95.584C75.8231 95.584 75.4124 95.7707 75.1138 96.144C74.8151 96.5067 74.6658 97.0133 74.6658 97.664V101.104C74.6658 101.787 74.3298 102.128 73.6578 102.128ZM90.521 102.16C89.6357 102.16 88.873 101.995 88.233 101.664C87.593 101.333 87.097 100.864 86.745 100.256C86.4037 99.648 86.233 98.928 86.233 98.096C86.233 97.2853 86.3983 96.576 86.729 95.968C87.0703 95.36 87.5343 94.8853 88.121 94.544C88.7183 94.192 89.3957 94.016 90.153 94.016C90.7077 94.016 91.2037 94.1067 91.641 94.288C92.089 94.4693 92.4677 94.7307 92.777 95.072C93.097 95.4133 93.337 95.8293 93.497 96.32C93.6677 96.8 93.753 97.344 93.753 97.952C93.753 98.144 93.6837 98.2933 93.545 98.4C93.417 98.496 93.2303 98.544 92.985 98.544H87.849V97.392H92.345L92.089 97.632C92.089 97.1413 92.0143 96.7307 91.865 96.4C91.7263 96.0693 91.5183 95.8187 91.241 95.648C90.9743 95.4667 90.6383 95.376 90.233 95.376C89.785 95.376 89.401 95.4827 89.081 95.696C88.7717 95.8987 88.5317 96.192 88.361 96.576C88.201 96.9493 88.121 97.3973 88.121 97.92V98.032C88.121 98.9067 88.3237 99.5627 88.729 100C89.145 100.427 89.753 100.64 90.553 100.64C90.8303 100.64 91.1397 100.608 91.481 100.544C91.833 100.469 92.1637 100.347 92.473 100.176C92.697 100.048 92.8943 99.9947 93.065 100.016C93.2357 100.027 93.369 100.085 93.465 100.192C93.5717 100.299 93.6357 100.432 93.657 100.592C93.6783 100.741 93.6463 100.896 93.561 101.056C93.4863 101.216 93.353 101.355 93.161 101.472C92.7877 101.707 92.3557 101.883 91.865 102C91.385 102.107 90.937 102.16 90.521 102.16ZM98.8896 102.16C98.1963 102.16 97.615 102.043 97.1456 101.808C96.687 101.573 96.3456 101.232 96.1216 100.784C95.8976 100.325 95.7856 99.76 95.7856 99.088V95.68H94.9536C94.6976 95.68 94.5003 95.616 94.3616 95.488C94.223 95.3493 94.1536 95.1627 94.1536 94.928C94.1536 94.6827 94.223 94.496 94.3616 94.368C94.5003 94.24 94.6976 94.176 94.9536 94.176H95.7856V92.72C95.7856 92.3893 95.871 92.1387 96.0416 91.968C96.223 91.7973 96.4736 91.712 96.7936 91.712C97.1136 91.712 97.359 91.7973 97.5296 91.968C97.7003 92.1387 97.7856 92.3893 97.7856 92.72V94.176H99.4816C99.7376 94.176 99.935 94.24 100.074 94.368C100.212 94.496 100.282 94.6827 100.282 94.928C100.282 95.1627 100.212 95.3493 100.074 95.488C99.935 95.616 99.7376 95.68 99.4816 95.68H97.7856V98.976C97.7856 99.488 97.8976 99.872 98.1216 100.128C98.3456 100.384 98.7083 100.512 99.2096 100.512C99.391 100.512 99.551 100.496 99.6896 100.464C99.8283 100.432 99.951 100.411 100.058 100.4C100.186 100.389 100.292 100.432 100.378 100.528C100.463 100.613 100.506 100.795 100.506 101.072C100.506 101.285 100.468 101.477 100.394 101.648C100.33 101.808 100.207 101.92 100.026 101.984C99.887 102.027 99.7056 102.064 99.4816 102.096C99.2576 102.139 99.0603 102.16 98.8896 102.16ZM102.47 102.128C102.14 102.128 101.884 102.043 101.702 101.872C101.532 101.691 101.446 101.435 101.446 101.104V95.056C101.446 94.7253 101.532 94.4747 101.702 94.304C101.873 94.1333 102.113 94.048 102.422 94.048C102.732 94.048 102.972 94.1333 103.142 94.304C103.313 94.4747 103.398 94.7253 103.398 95.056V96.064H103.238C103.388 95.424 103.681 94.9387 104.118 94.608C104.556 94.2773 105.137 94.08 105.862 94.016C106.086 93.9947 106.262 94.0533 106.39 94.192C106.529 94.32 106.609 94.5227 106.63 94.8C106.652 95.0667 106.588 95.2853 106.438 95.456C106.3 95.616 106.086 95.712 105.798 95.744L105.446 95.776C104.796 95.84 104.305 96.0427 103.974 96.384C103.644 96.7147 103.478 97.184 103.478 97.792V101.104C103.478 101.435 103.393 101.691 103.222 101.872C103.052 102.043 102.801 102.128 102.47 102.128ZM110.18 105.008C109.946 105.008 109.754 104.944 109.604 104.816C109.455 104.699 109.364 104.539 109.332 104.336C109.311 104.133 109.348 103.92 109.444 103.696L110.532 101.28V102.112L107.62 95.376C107.524 95.1413 107.492 94.9227 107.524 94.72C107.556 94.5173 107.652 94.3573 107.812 94.24C107.983 94.112 108.212 94.048 108.5 94.048C108.746 94.048 108.943 94.1067 109.092 94.224C109.242 94.3307 109.375 94.5387 109.492 94.848L111.652 100.24H111.172L113.38 94.832C113.498 94.5333 113.636 94.3307 113.796 94.224C113.956 94.1067 114.17 94.048 114.436 94.048C114.671 94.048 114.858 94.112 114.996 94.24C115.135 94.3573 115.22 94.5173 115.252 94.72C115.284 94.912 115.247 95.1253 115.14 95.36L111.252 104.24C111.114 104.539 110.964 104.741 110.804 104.848C110.644 104.955 110.436 105.008 110.18 105.008Z" fill="#ECF0F1"/>
<path d="M23.768 46C23.064 46 22.512 45.808 22.112 45.424C21.728 45.024 21.536 44.472 21.536 43.768V31.288C21.536 30.568 21.728 30.016 22.112 29.632C22.496 29.248 23.04 29.056 23.744 29.056C24.464 29.056 25.008 29.248 25.376 29.632C25.76 30.016 25.952 30.568 25.952 31.288V42.328H31.808C32.416 42.328 32.88 42.488 33.2 42.808C33.536 43.112 33.704 43.56 33.704 44.152C33.704 44.744 33.536 45.2 33.2 45.52C32.88 45.84 32.416 46 31.808 46H23.768ZM41.6019 46.264C40.1619 46.264 38.9139 46.016 37.8579 45.52C36.8179 45.008 36.0179 44.288 35.4579 43.36C34.8979 42.432 34.6179 41.336 34.6179 40.072C34.6179 38.856 34.8819 37.792 35.4099 36.88C35.9539 35.952 36.6899 35.232 37.6179 34.72C38.5619 34.192 39.6339 33.928 40.8339 33.928C41.7139 33.928 42.5139 34.072 43.2339 34.36C43.9539 34.632 44.5699 35.04 45.0819 35.584C45.5939 36.112 45.9779 36.752 46.2339 37.504C46.5059 38.256 46.6419 39.096 46.6419 40.024C46.6419 40.344 46.5539 40.584 46.3779 40.744C46.2019 40.888 45.9219 40.96 45.5379 40.96H38.1939V38.944H43.5219L43.1379 39.256C43.1379 38.664 43.0579 38.184 42.8979 37.816C42.7379 37.448 42.4979 37.168 42.1779 36.976C41.8739 36.784 41.4899 36.688 41.0259 36.688C40.5299 36.688 40.0979 36.808 39.7299 37.048C39.3779 37.272 39.1059 37.608 38.9139 38.056C38.7219 38.504 38.6259 39.064 38.6259 39.736V39.952C38.6259 41.088 38.8739 41.904 39.3699 42.4C39.8819 42.88 40.6659 43.12 41.7219 43.12C42.0739 43.12 42.4739 43.08 42.9219 43C43.3859 42.904 43.8259 42.776 44.2419 42.616C44.6579 42.456 45.0179 42.432 45.3219 42.544C45.6259 42.64 45.8579 42.816 46.0179 43.072C46.1939 43.312 46.2899 43.592 46.3059 43.912C46.3219 44.216 46.2499 44.52 46.0899 44.824C45.9299 45.112 45.6659 45.336 45.2979 45.496C44.7379 45.752 44.1379 45.944 43.4979 46.072C42.8739 46.2 42.2419 46.264 41.6019 46.264ZM54.5806 46.264C53.3806 46.264 52.3886 46.08 51.6046 45.712C50.8366 45.344 50.2606 44.792 49.8766 44.056C49.4926 43.304 49.3006 42.368 49.3006 41.248V37.336H48.4846C47.9726 37.336 47.5726 37.2 47.2846 36.928C47.0126 36.656 46.8766 36.264 46.8766 35.752C46.8766 35.24 47.0126 34.856 47.2846 34.6C47.5726 34.328 47.9726 34.192 48.4846 34.192H49.3006V32.704C49.3006 32 49.4846 31.464 49.8526 31.096C50.2206 30.728 50.7486 30.544 51.4366 30.544C52.1246 30.544 52.6526 30.728 53.0206 31.096C53.3886 31.464 53.5726 32 53.5726 32.704V34.192H55.5406C56.0686 34.192 56.4686 34.328 56.7406 34.6C57.0286 34.856 57.1726 35.24 57.1726 35.752C57.1726 36.264 57.0286 36.656 56.7406 36.928C56.4686 37.2 56.0686 37.336 55.5406 37.336H53.5726V41.104C53.5726 41.696 53.7086 42.136 53.9806 42.424C54.2686 42.696 54.7166 42.832 55.3246 42.832C55.5486 42.832 55.7646 42.808 55.9726 42.76C56.1806 42.712 56.3726 42.688 56.5486 42.688C56.8046 42.672 57.0126 42.752 57.1726 42.928C57.3326 43.088 57.4126 43.464 57.4126 44.056C57.4126 44.536 57.3406 44.944 57.1966 45.28C57.0526 45.6 56.7966 45.832 56.4286 45.976C56.2046 46.056 55.9006 46.12 55.5166 46.168C55.1326 46.232 54.8206 46.264 54.5806 46.264ZM61.3874 36.328C61.1314 36.68 60.8434 36.872 60.5234 36.904C60.2194 36.936 59.9554 36.872 59.7314 36.712C59.5074 36.552 59.3794 36.328 59.3474 36.04C59.3154 35.736 59.4514 35.408 59.7554 35.056C60.1554 34.592 60.4194 34.128 60.5474 33.664C60.6754 33.2 60.7394 32.784 60.7394 32.416L60.8834 33.592C60.1474 33.592 59.5554 33.384 59.1074 32.968C58.6594 32.552 58.4354 31.984 58.4354 31.264C58.4354 30.56 58.6434 30 59.0594 29.584C59.4914 29.152 60.0674 28.936 60.7874 28.936C61.5394 28.936 62.1234 29.192 62.5394 29.704C62.9554 30.2 63.1634 30.896 63.1634 31.792C63.1634 32.24 63.1154 32.696 63.0194 33.16C62.9394 33.624 62.7714 34.12 62.5154 34.648C62.2754 35.16 61.8994 35.72 61.3874 36.328ZM69.3817 46.264C68.6777 46.264 67.9577 46.208 67.2217 46.096C66.5017 46 65.8457 45.816 65.2537 45.544C64.8537 45.384 64.5657 45.168 64.3897 44.896C64.2297 44.624 64.1497 44.336 64.1497 44.032C64.1657 43.728 64.2537 43.456 64.4137 43.216C64.5897 42.96 64.8137 42.784 65.0857 42.688C65.3737 42.576 65.6937 42.584 66.0457 42.712C66.7177 42.952 67.3177 43.128 67.8457 43.24C68.3897 43.336 68.9097 43.384 69.4057 43.384C69.9977 43.384 70.4217 43.304 70.6777 43.144C70.9337 42.968 71.0617 42.744 71.0617 42.472C71.0617 42.232 70.9737 42.048 70.7977 41.92C70.6377 41.792 70.4057 41.704 70.1017 41.656L67.4377 41.224C66.4457 41.048 65.6777 40.688 65.1337 40.144C64.5897 39.584 64.3177 38.856 64.3177 37.96C64.3177 37.128 64.5497 36.416 65.0137 35.824C65.4937 35.216 66.1417 34.752 66.9577 34.432C67.7897 34.096 68.7417 33.928 69.8137 33.928C70.5337 33.928 71.1897 33.984 71.7817 34.096C72.3737 34.192 72.9497 34.376 73.5097 34.648C73.8617 34.792 74.1097 35 74.2537 35.272C74.3977 35.544 74.4537 35.832 74.4217 36.136C74.3897 36.424 74.2857 36.696 74.1097 36.952C73.9497 37.192 73.7257 37.36 73.4377 37.456C73.1497 37.536 72.8137 37.512 72.4297 37.384C71.9017 37.176 71.4297 37.024 71.0137 36.928C70.6137 36.832 70.2377 36.784 69.8857 36.784C69.2297 36.784 68.7657 36.872 68.4937 37.048C68.2217 37.224 68.0857 37.448 68.0857 37.72C68.0857 37.928 68.1577 38.104 68.3017 38.248C68.4457 38.376 68.6697 38.464 68.9737 38.512L71.6377 38.968C72.6617 39.128 73.4457 39.48 73.9897 40.024C74.5497 40.552 74.8297 41.272 74.8297 42.184C74.8297 43.48 74.3337 44.488 73.3417 45.208C72.3497 45.912 71.0297 46.264 69.3817 46.264ZM92.2831 46.264C90.4111 46.264 88.8031 45.904 87.4591 45.184C86.1151 44.464 85.0831 43.448 84.3631 42.136C83.6591 40.824 83.3071 39.288 83.3071 37.528C83.3071 36.216 83.5071 35.024 83.9071 33.952C84.3231 32.88 84.9151 31.96 85.6831 31.192C86.4671 30.424 87.4111 29.84 88.5151 29.44C89.6351 29.024 90.8911 28.816 92.2831 28.816C93.0191 28.816 93.7791 28.904 94.5631 29.08C95.3631 29.24 96.0671 29.488 96.6751 29.824C97.1231 30.064 97.4351 30.368 97.6111 30.736C97.7871 31.104 97.8431 31.48 97.7791 31.864C97.7311 32.248 97.5951 32.592 97.3711 32.896C97.1471 33.2 96.8591 33.408 96.5071 33.52C96.1551 33.616 95.7711 33.56 95.3551 33.352C94.8751 33.128 94.3951 32.96 93.9151 32.848C93.4511 32.72 92.9631 32.656 92.4511 32.656C91.4591 32.656 90.6271 32.848 89.9551 33.232C89.2991 33.6 88.8031 34.144 88.4671 34.864C88.1311 35.584 87.9631 36.472 87.9631 37.528C87.9631 38.584 88.1311 39.48 88.4671 40.216C88.8031 40.936 89.2991 41.488 89.9551 41.872C90.6271 42.24 91.4591 42.424 92.4511 42.424C92.8671 42.424 93.3151 42.376 93.7951 42.28C94.2751 42.168 94.7471 42 95.2111 41.776C95.6911 41.568 96.1151 41.512 96.4831 41.608C96.8671 41.704 97.1711 41.896 97.3951 42.184C97.6351 42.472 97.7871 42.808 97.8511 43.192C97.9151 43.56 97.8591 43.928 97.6831 44.296C97.5231 44.664 97.2351 44.96 96.8191 45.184C96.2591 45.52 95.5631 45.784 94.7311 45.976C93.9151 46.168 93.0991 46.264 92.2831 46.264ZM105.107 46.264C103.795 46.264 102.651 46.016 101.675 45.52C100.699 45.024 99.9388 44.312 99.3948 43.384C98.8508 42.456 98.5788 41.36 98.5788 40.096C98.5788 39.136 98.7308 38.28 99.0348 37.528C99.3388 36.76 99.7788 36.112 100.355 35.584C100.931 35.04 101.619 34.632 102.419 34.36C103.219 34.072 104.115 33.928 105.107 33.928C106.419 33.928 107.563 34.176 108.539 34.672C109.515 35.168 110.267 35.88 110.795 36.808C111.339 37.72 111.611 38.816 111.611 40.096C111.611 41.04 111.459 41.896 111.155 42.664C110.851 43.432 110.411 44.088 109.835 44.632C109.275 45.16 108.587 45.568 107.771 45.856C106.971 46.128 106.083 46.264 105.107 46.264ZM105.107 43.12C105.539 43.12 105.923 43.016 106.259 42.808C106.595 42.584 106.851 42.256 107.027 41.824C107.219 41.376 107.315 40.8 107.315 40.096C107.315 39.024 107.107 38.256 106.691 37.792C106.275 37.312 105.747 37.072 105.107 37.072C104.675 37.072 104.291 37.176 103.955 37.384C103.619 37.592 103.355 37.92 103.163 38.368C102.971 38.8 102.875 39.376 102.875 40.096C102.875 41.152 103.083 41.92 103.499 42.4C103.915 42.88 104.451 43.12 105.107 43.12ZM115.68 46.216C115.008 46.216 114.488 46.032 114.12 45.664C113.752 45.296 113.568 44.76 113.568 44.056V36.112C113.568 35.424 113.744 34.896 114.096 34.528C114.464 34.16 114.984 33.976 115.656 33.976C116.328 33.976 116.84 34.16 117.192 34.528C117.544 34.896 117.72 35.424 117.72 36.112V37.24L117.456 36.256C117.84 35.504 118.384 34.928 119.088 34.528C119.808 34.128 120.624 33.928 121.536 33.928C122.48 33.928 123.256 34.112 123.864 34.48C124.472 34.832 124.928 35.392 125.232 36.16C125.536 36.912 125.688 37.864 125.688 39.016V44.056C125.688 44.76 125.504 45.296 125.136 45.664C124.768 46.032 124.24 46.216 123.552 46.216C122.864 46.216 122.336 46.032 121.968 45.664C121.6 45.296 121.416 44.76 121.416 44.056V39.184C121.416 38.464 121.288 37.952 121.032 37.648C120.792 37.344 120.432 37.192 119.952 37.192C119.312 37.192 118.8 37.4 118.416 37.816C118.032 38.216 117.84 38.76 117.84 39.448V44.056C117.84 45.496 117.12 46.216 115.68 46.216ZM134.315 46.264C133.115 46.264 132.123 46.08 131.339 45.712C130.571 45.344 129.995 44.792 129.611 44.056C129.227 43.304 129.035 42.368 129.035 41.248V37.336H128.219C127.707 37.336 127.307 37.2 127.019 36.928C126.747 36.656 126.611 36.264 126.611 35.752C126.611 35.24 126.747 34.856 127.019 34.6C127.307 34.328 127.707 34.192 128.219 34.192H129.035V32.704C129.035 32 129.219 31.464 129.587 31.096C129.955 30.728 130.483 30.544 131.171 30.544C131.859 30.544 132.387 30.728 132.755 31.096C133.123 31.464 133.307 32 133.307 32.704V34.192H135.275C135.803 34.192 136.203 34.328 136.475 34.6C136.763 34.856 136.907 35.24 136.907 35.752C136.907 36.264 136.763 36.656 136.475 36.928C136.203 37.2 135.803 37.336 135.275 37.336H133.307V41.104C133.307 41.696 133.443 42.136 133.715 42.424C134.003 42.696 134.451 42.832 135.059 42.832C135.283 42.832 135.499 42.808 135.707 42.76C135.915 42.712 136.107 42.688 136.283 42.688C136.539 42.672 136.747 42.752 136.907 42.928C137.067 43.088 137.147 43.464 137.147 44.056C137.147 44.536 137.075 44.944 136.931 45.28C136.787 45.6 136.531 45.832 136.163 45.976C135.939 46.056 135.635 46.12 135.251 46.168C134.867 46.232 134.555 46.264 134.315 46.264ZM140.876 46.216C140.204 46.216 139.684 46.016 139.316 45.616C138.948 45.216 138.764 44.64 138.764 43.888V36.304C138.764 35.552 138.948 34.976 139.316 34.576C139.684 34.176 140.204 33.976 140.876 33.976C141.564 33.976 142.092 34.176 142.46 34.576C142.844 34.976 143.036 35.552 143.036 36.304V43.888C143.036 44.64 142.852 45.216 142.484 45.616C142.116 46.016 141.58 46.216 140.876 46.216ZM140.876 32.272C140.124 32.272 139.54 32.096 139.124 31.744C138.724 31.392 138.524 30.88 138.524 30.208C138.524 29.552 138.724 29.048 139.124 28.696C139.54 28.344 140.124 28.168 140.876 28.168C141.66 28.168 142.252 28.344 142.652 28.696C143.052 29.048 143.252 29.552 143.252 30.208C143.252 30.88 143.052 31.392 142.652 31.744C142.252 32.096 141.66 32.272 140.876 32.272ZM147.626 46.216C146.954 46.216 146.434 46.032 146.066 45.664C145.698 45.296 145.514 44.76 145.514 44.056V36.112C145.514 35.424 145.69 34.896 146.042 34.528C146.41 34.16 146.93 33.976 147.602 33.976C148.274 33.976 148.786 34.16 149.138 34.528C149.49 34.896 149.666 35.424 149.666 36.112V37.24L149.402 36.256C149.786 35.504 150.33 34.928 151.034 34.528C151.754 34.128 152.57 33.928 153.482 33.928C154.426 33.928 155.202 34.112 155.81 34.48C156.418 34.832 156.874 35.392 157.178 36.16C157.482 36.912 157.634 37.864 157.634 39.016V44.056C157.634 44.76 157.45 45.296 157.082 45.664C156.714 46.032 156.186 46.216 155.498 46.216C154.81 46.216 154.282 46.032 153.914 45.664C153.546 45.296 153.362 44.76 153.362 44.056V39.184C153.362 38.464 153.234 37.952 152.978 37.648C152.738 37.344 152.378 37.192 151.898 37.192C151.258 37.192 150.746 37.4 150.362 37.816C149.978 38.216 149.786 38.76 149.786 39.448V44.056C149.786 45.496 149.066 46.216 147.626 46.216ZM164.484 46.264C163.46 46.264 162.62 46.08 161.964 45.712C161.308 45.328 160.812 44.76 160.476 44.008C160.156 43.256 159.996 42.304 159.996 41.152V36.112C159.996 35.408 160.18 34.88 160.548 34.528C160.916 34.16 161.444 33.976 162.132 33.976C162.82 33.976 163.348 34.16 163.716 34.528C164.084 34.88 164.268 35.408 164.268 36.112V41.272C164.268 41.848 164.388 42.28 164.628 42.568C164.868 42.856 165.244 43 165.756 43C166.332 43 166.804 42.792 167.172 42.376C167.54 41.96 167.724 41.408 167.724 40.72V36.112C167.724 35.408 167.908 34.88 168.276 34.528C168.644 34.16 169.172 33.976 169.86 33.976C170.548 33.976 171.076 34.16 171.444 34.528C171.812 34.88 171.996 35.408 171.996 36.112V44.056C171.996 45.496 171.308 46.216 169.932 46.216C169.26 46.216 168.74 46.032 168.372 45.664C168.004 45.296 167.82 44.76 167.82 44.056V42.664L168.204 43.84C167.852 44.624 167.356 45.224 166.716 45.64C166.092 46.056 165.348 46.264 164.484 46.264ZM180.914 46.264C179.474 46.264 178.226 46.016 177.17 45.52C176.13 45.008 175.33 44.288 174.77 43.36C174.21 42.432 173.93 41.336 173.93 40.072C173.93 38.856 174.194 37.792 174.722 36.88C175.266 35.952 176.002 35.232 176.93 34.72C177.874 34.192 178.946 33.928 180.146 33.928C181.026 33.928 181.826 34.072 182.546 34.36C183.266 34.632 183.882 35.04 184.394 35.584C184.906 36.112 185.29 36.752 185.546 37.504C185.818 38.256 185.954 39.096 185.954 40.024C185.954 40.344 185.866 40.584 185.69 40.744C185.514 40.888 185.234 40.96 184.85 40.96H177.506V38.944H182.834L182.45 39.256C182.45 38.664 182.37 38.184 182.21 37.816C182.05 37.448 181.81 37.168 181.49 36.976C181.186 36.784 180.802 36.688 180.338 36.688C179.842 36.688 179.41 36.808 179.042 37.048C178.69 37.272 178.418 37.608 178.226 38.056C178.034 38.504 177.938 39.064 177.938 39.736V39.952C177.938 41.088 178.186 41.904 178.682 42.4C179.194 42.88 179.978 43.12 181.034 43.12C181.386 43.12 181.786 43.08 182.234 43C182.698 42.904 183.138 42.776 183.554 42.616C183.97 42.456 184.33 42.432 184.634 42.544C184.938 42.64 185.17 42.816 185.33 43.072C185.506 43.312 185.602 43.592 185.618 43.912C185.634 44.216 185.562 44.52 185.402 44.824C185.242 45.112 184.978 45.336 184.61 45.496C184.05 45.752 183.45 45.944 182.81 46.072C182.186 46.2 181.554 46.264 180.914 46.264Z" fill="#F1C40F"/>
<path d="M259.245 83.0208L268.021 91.7708C268.125 91.875 268.199 91.9878 268.242 92.1094C268.285 92.2309 268.307 92.3611 268.307 92.5C268.307 92.6389 268.285 92.7691 268.242 92.8906C268.199 93.0121 268.125 93.125 268.021 93.2292L259.245 102.005C259.002 102.248 258.698 102.37 258.333 102.37C257.969 102.37 257.656 102.24 257.396 101.979C257.135 101.719 257.005 101.415 257.005 101.068C257.005 100.72 257.135 100.417 257.396 100.156L265.052 92.5L257.396 84.8437C257.153 84.6007 257.031 84.3014 257.031 83.9458C257.031 83.5896 257.161 83.2812 257.422 83.0208C257.682 82.7604 257.986 82.6302 258.333 82.6302C258.681 82.6302 258.984 82.7604 259.245 83.0208Z" fill="#ECF0F1"/>
</svg>
