<svg width="33" height="36" viewBox="0 0 33 36" fill="none" xmlns="http://www.w3.org/2000/svg">
<path d="M22.3333 26.9997C23.2667 26.9997 24 27.733 24 28.6663C24 29.5997 23.2667 30.333 22.3333 30.333C21.4 30.333 20.6667 29.5997 20.6667 28.6663C20.6667 27.733 21.4 26.9997 22.3333 26.9997ZM22.3333 21.9997C17.7833 21.9997 13.9 24.7663 12.3333 28.6663C13.9 32.5663 17.7833 35.333 22.3333 35.333C26.8833 35.333 30.7667 32.5663 32.3333 28.6663C30.7667 24.7663 26.8833 21.9997 22.3333 21.9997ZM22.3333 32.833C21.2283 32.833 20.1684 32.394 19.387 31.6126C18.6056 30.8312 18.1667 29.7714 18.1667 28.6663C18.1667 27.5613 18.6056 26.5015 19.387 25.7201C20.1684 24.9387 21.2283 24.4997 22.3333 24.4997C23.4384 24.4997 24.4982 24.9387 25.2796 25.7201C26.061 26.5015 26.5 27.5613 26.5 28.6663C26.5 29.7714 26.061 30.8312 25.2796 31.6126C24.4982 32.394 23.4384 32.833 22.3333 32.833ZM9.23332 29.9163L8.74999 28.6663L9.23332 27.433C11.3833 22.0997 16.5 18.6663 22.3333 18.6663C24.0833 18.6663 25.7667 19.0163 27.3333 19.5997V10.333L17.3333 0.333008H3.99999C2.14999 0.333008 0.666656 1.81634 0.666656 3.66634V30.333C0.666656 31.2171 1.01785 32.0649 1.64297 32.69C2.26809 33.3152 3.11593 33.6663 3.99999 33.6663H11.5C10.5833 32.5663 9.83332 31.2997 9.23332 29.9163ZM15.6667 2.83301L24.8333 11.9997H15.6667V2.83301Z" fill="#ECF0F1"/>
</svg>
