<svg width="117" height="137" viewBox="0 0 117 137" fill="none" xmlns="http://www.w3.org/2000/svg">
<path d="M35.586 112.911C35.586 112.911 15.7861 125.424 15.7861 129.546C15.7861 133.668 28.5935 134.33 42.2105 120.345C42.2105 120.345 40.5176 113.206 35.586 112.911Z" fill="#F58A28"/>
<path d="M70.4016 39.2311C70.4016 39.2311 67.8254 18.548 50.8962 15.6774C34.0405 12.8068 -1.73169 40.1144 1.80137 46.8125C5.33443 53.5106 41.4011 46.5917 41.4011 46.5917C41.4011 46.5917 12.9158 130.06 54.3556 127.999C95.7954 126.012 70.4016 39.2311 70.4016 39.2311Z" fill="#F58A28"/>
<path d="M64.3656 2.57617L56.5635 23.9217L64.1448 30.1782C64.0712 30.1782 77.6146 12.1449 64.3656 2.57617Z" fill="#F58A28"/>
<path d="M54.65 0L54.5029 22.6705L45.2286 25.9091C45.2286 25.9827 38.8985 4.34272 54.65 0Z" fill="#F58A28"/>
<path d="M72.9038 115.928C72.9038 115.928 92.5564 112.542 92.9244 94.3613C93.2924 76.1807 81.3683 50.2716 111.841 39.1572C111.841 39.1572 106.836 53.1422 111.767 65.5816C116.699 78.0209 129.433 153.393 65.396 121.89L72.9038 115.928Z" fill="#F58A28"/>
<path d="M1.80127 46.8131C1.80127 46.8131 39.708 34.7419 46.5533 42.6912C53.3986 50.6406 63.041 128.294 43.6827 127.853C43.6827 127.853 22.8524 115.929 33.5988 71.839C38.2359 52.8488 41.401 46.6659 41.401 46.6659C41.401 46.6659 7.61609 55.8666 1.80127 46.8131Z" fill="#F3EAC7"/>
<path d="M64.9548 23.7011C64.8812 23.7011 64.8076 23.7011 64.734 23.6275C64.5868 23.4803 64.5868 23.2595 64.734 23.1123C68.8559 18.8432 66.8685 11.2618 66.0589 8.68563L61.0537 19.9472C60.9801 20.1681 60.7593 20.2417 60.5384 20.168C60.3176 20.0944 60.244 19.8736 60.3176 19.6528L65.6908 7.50794C65.7644 7.36073 65.838 7.28711 66.0589 7.28711C66.2061 7.28711 66.3533 7.36073 66.4269 7.50794C66.5741 7.94957 70.5488 18.0335 65.2492 23.5539C65.102 23.6275 65.0284 23.7011 64.9548 23.7011Z" fill="#26192A"/>
<path d="M2.4636 42.9121C2.4636 42.9121 7.98401 54.3209 0.0346334 49.3894C0.0346334 49.3894 -0.480613 46.1507 2.4636 42.9121Z" fill="#26192A"/>
<path d="M11.8114 50.1999C10.7809 50.1999 9.52958 47.9181 8.79352 46.5196C8.71992 46.3724 8.79353 46.1516 8.94074 46.0043C9.08795 45.9307 9.30878 46.0044 9.45599 46.1516C10.3393 47.8445 11.4433 49.3902 11.8114 49.3902C11.8114 49.3902 12.253 49.0222 11.8114 45.5627C11.8114 45.3419 11.9586 45.1947 12.1058 45.1211C12.3266 45.1211 12.4738 45.2683 12.5474 45.4155C12.9891 49.1694 12.5474 49.9054 12.0322 50.0526C11.885 50.1999 11.885 50.1999 11.8114 50.1999Z" fill="#26192A"/>
<path d="M34.1875 34.0049C34.1139 34.0049 34.1139 34.0049 34.0403 34.0049C32.0529 33.7841 31.9058 28.2637 31.9058 27.1596C31.9058 26.9388 32.053 26.7916 32.2738 26.7916C32.4946 26.7916 32.6418 26.9388 32.6418 27.1596C32.6418 29.5886 33.1571 33.1217 34.1139 33.2689C34.9236 33.3425 35.9541 30.1775 36.3221 27.086C36.3221 26.8652 36.5429 26.718 36.7637 26.7916C36.9845 26.7916 37.1317 27.0124 37.0581 27.2332C36.9109 28.779 36.1013 34.0049 34.1875 34.0049Z" fill="#26192A"/>
<path d="M41.8423 34.4473C41.7687 34.4473 41.7687 34.4473 41.6951 34.4473C39.7078 34.2265 39.5605 28.7061 39.5605 27.602C39.5605 27.3812 39.7078 27.234 39.9286 27.234C40.1494 27.234 40.2966 27.3812 40.2966 27.602C40.2966 30.031 40.8118 33.5641 41.7687 33.7113C42.652 33.7849 43.6088 30.6198 43.9769 27.5284C43.9769 27.3076 44.1977 27.1604 44.4185 27.234C44.6393 27.234 44.7865 27.4548 44.7129 27.6756C44.4921 29.2213 43.6825 34.4473 41.8423 34.4473Z" fill="#26192A"/>
<path d="M57.1525 115.928C57.1525 115.928 38.7512 130.355 39.1192 134.477C39.4872 138.598 52.2946 137.936 64.5131 122.7C64.5867 122.7 62.0841 115.707 57.1525 115.928Z" fill="#F58A28"/>
<path d="M26.1647 75.5918C26.091 75.5918 26.0174 75.5918 26.0174 75.5181L10.5603 64.1093C10.4867 64.0357 10.4867 63.9621 10.4131 63.8885C10.4131 63.8149 10.4131 63.7413 10.4867 63.6677C10.6339 63.5205 13.2837 60.5763 17.1848 60.5763C20.9387 60.5763 24.3981 63.2997 27.4895 68.5992C28.4464 66.6855 32.3475 59.7666 38.7512 59.7666C41.5482 59.7666 44.3451 61.0915 47.2894 63.6677C47.363 63.7413 47.363 63.8149 47.363 63.8885C47.363 63.9621 47.2894 64.0357 47.2158 64.1093L26.3118 75.5181C26.2382 75.5181 26.2383 75.5918 26.1647 75.5918ZM11.1491 63.8149L26.1647 74.9293L46.7005 63.7413C44.0507 61.3859 41.4009 60.2082 38.8247 60.2082C31.9058 60.2082 27.8576 69.1145 27.8576 69.1881C27.784 69.2617 27.7104 69.3353 27.6368 69.3353C27.5632 69.3353 27.4159 69.2617 27.4159 69.1881C24.3245 63.7413 20.9387 61.0179 17.332 61.0179C14.167 61.1651 11.8116 63.1524 11.1491 63.8149Z" fill="#26192A"/>
<path d="M27.4896 70.7348C27.3424 70.7348 27.2688 70.6611 27.2688 70.5875C22.0428 60.8716 13.431 64.4047 13.3574 64.4783C13.2101 64.5519 13.0629 64.4783 12.9893 64.3311C12.9157 64.1839 12.9893 64.0367 13.1365 63.9631C13.2101 63.8895 22.0428 60.2828 27.5632 69.9987C28.7409 68.5266 33.378 63.0062 39.0456 62.491C41.8426 62.2701 44.4188 63.227 46.7006 65.4352C46.8478 65.5088 46.8478 65.7296 46.7006 65.8032C46.627 65.9504 46.4062 65.9504 46.3325 65.8032C44.1244 63.6686 41.6954 62.7118 39.1192 63.0062C32.9364 63.595 27.784 70.5875 27.784 70.6612C27.6368 70.6612 27.5632 70.7348 27.4896 70.7348Z" fill="#26192A"/>
<path d="M27.1952 72.0592C27.048 72.0592 26.9744 71.9856 26.9744 71.912C26.9008 71.8384 22.0429 63.0793 15.124 65.8027C14.9767 65.8763 14.8295 65.8027 14.7559 65.6555C14.6823 65.5083 14.7559 65.3611 14.9031 65.2875C21.5276 62.6377 26.312 69.851 27.2688 71.3231C35.9543 65.0667 44.6397 66.1708 44.7133 66.2444C44.8605 66.2444 44.9341 66.3916 44.9341 66.5388C44.9341 66.686 44.7869 66.8332 44.6397 66.7596C44.5661 66.7596 35.8807 65.6555 27.3424 71.9856C27.3424 72.0592 27.2688 72.0592 27.1952 72.0592Z" fill="#26192A"/>
<path d="M8.27824 61.0928L3.93555 88.7684L21.38 95.4665L29.6238 97.0122L53.472 90.5349L51.5582 62.2705L30.9487 69.7782L23.809 68.5269L8.27824 61.0928Z" fill="#DF9FA1"/>
<path d="M29.6241 97.0117L30.9491 69.7777L23.8093 68.5264L21.3804 95.4659L29.6241 97.0117Z" fill="#DB6362"/>
<path d="M72.683 77.8754C72.683 77.8754 60.3909 91.1979 44.4922 85.9719C28.5934 80.746 62.3783 75.5936 67.7515 65.7305C67.7515 65.7305 75.0384 68.7483 72.683 77.8754Z" fill="#F58A28"/>
<path d="M91.0111 70.4395L94.0289 78.6833L98.5189 71.7644L103.009 78.6833L105.732 71.7644L110.517 76.4751L113.166 70.4395C113.166 70.4395 107.646 52.259 111.768 39.1572C111.841 39.1572 87.9197 41.9542 91.0111 70.4395Z" fill="#F3EAC7"/>
<path d="M47.2893 15.8987C47.1421 15.8987 46.9949 15.7515 46.9212 15.6042C46.038 10.7463 47.2893 7.58125 48.467 5.81472C49.7919 3.90098 51.264 3.09134 51.3376 3.09134C51.4848 3.01773 51.5584 3.01773 51.7056 3.09134C51.7792 3.16494 51.8528 3.31215 51.8528 3.38575V15.5306C51.8528 15.7515 51.7056 15.8987 51.4848 15.8987C51.264 15.8987 51.1168 15.7515 51.1168 15.5306V4.0482C49.7183 5.00507 46.3324 8.1701 47.5837 15.457C47.6573 15.6042 47.5101 15.8251 47.2893 15.8987Z" fill="#26192A"/>
<path d="M47.5838 87.0022C47.4366 87.0022 47.2894 87.0022 47.1422 87.0022C46.995 87.0022 46.8477 86.855 46.8477 86.7078C46.8477 86.5606 46.995 86.487 47.1422 86.4134C49.2767 86.487 51.4849 85.7509 52.3681 84.9413C52.589 84.7204 52.7362 84.4996 52.7362 84.3524C52.2209 83.9108 49.4975 84.1316 47.731 84.3524C47.5838 84.3524 47.4366 84.2788 47.4366 84.1316C47.363 83.9844 47.4366 83.8372 47.5838 83.8372C48.8351 83.2483 50.9697 81.9971 51.1905 81.3346C51.1905 81.261 51.1905 81.261 51.1905 81.261C50.9697 80.893 48.8351 81.261 46.5533 82.1443C46.4061 82.2179 46.2589 82.1443 46.1853 81.997C46.1117 81.8498 46.1853 81.7026 46.2589 81.629C48.099 80.4513 50.0864 78.9792 50.3808 78.464C49.9392 78.3168 48.2462 78.3168 46.4797 78.6112C46.3325 78.6112 46.1853 78.5376 46.1853 78.3904C46.1853 78.2432 46.2589 78.096 46.4061 78.096C47.2894 77.9488 50.2336 77.5807 50.8224 78.1696C50.896 78.2432 50.9696 78.3904 50.9696 78.5376C50.896 79.0528 49.5711 80.0833 48.3198 80.9666C49.7183 80.5986 51.2641 80.3041 51.6321 80.9666C51.7057 81.1138 51.7793 81.261 51.7057 81.4818C51.4849 82.1443 50.2336 82.9539 49.2031 83.5428C50.6016 83.3956 52.5153 83.3219 53.1042 83.8372C53.2514 83.9844 53.325 84.1316 53.325 84.2788C53.325 84.6468 53.1042 84.9413 52.7362 85.3093C51.8529 86.1926 49.7919 87.0022 47.5838 87.0022Z" fill="#26192A"/>
<path d="M53.5456 75.5918C53.3984 75.5918 53.3248 75.5182 53.3248 75.4446C53.2512 75.2974 53.3248 75.1502 53.472 75.0766C53.5456 75.0766 60.6117 72.2796 63.924 67.0536C63.9976 66.9064 64.1448 66.9064 64.292 66.98C64.4392 67.0536 64.4392 67.2008 64.3656 67.348C60.9797 72.7212 53.9872 75.4446 53.6928 75.5918C53.6192 75.5182 53.5456 75.5918 53.5456 75.5918Z" fill="#26192A"/>
<path d="M54.9443 87.2958C54.7971 87.2958 54.7235 87.2222 54.6499 87.075C54.6499 86.9278 54.7235 86.7806 54.8708 86.7806C55.018 86.7806 68.7821 84.2044 73.4193 76.4022C73.4929 76.255 73.6401 76.255 73.7873 76.3286C73.9345 76.4022 73.9345 76.5494 73.8609 76.6966C69.1502 84.7196 55.6068 87.2222 54.9443 87.2958C55.0179 87.2958 54.9443 87.2958 54.9443 87.2958Z" fill="#26192A"/>
<path d="M68.7085 40.1898C68.5613 40.1898 68.4877 40.1162 68.4141 39.969C68.3405 39.2329 67.8253 37.8344 67.8253 37.8344C67.7517 37.6872 67.8253 37.54 67.9725 37.4664C68.1197 37.3928 68.2669 37.4664 68.3405 37.6136C68.3405 37.6872 68.8557 39.0857 68.9293 39.8954C69.0029 39.969 68.9294 40.1162 68.7085 40.1898C68.7821 40.1898 68.7821 40.1898 68.7085 40.1898Z" fill="#26192A"/>
<path d="M67.0157 42.2513C66.8685 42.2513 66.7948 42.1777 66.7212 42.0305C66.6476 41.2944 66.1324 39.8959 66.1324 39.8959C66.0588 39.7487 66.1324 39.6015 66.2796 39.5279C66.4268 39.4543 66.574 39.5279 66.6476 39.6751C66.6476 39.7487 67.1629 41.1472 67.2365 41.9569C67.3101 42.1041 67.2365 42.2513 67.0157 42.2513Z" fill="#26192A"/>
<path d="M69.5181 44.3851C69.3709 44.3851 69.2973 44.3115 69.2237 44.1643C69.1501 43.4282 68.6348 42.0297 68.6348 42.0297C68.5612 41.8825 68.6348 41.7353 68.7821 41.6617C68.9293 41.5881 69.0765 41.6617 69.1501 41.8089C69.1501 41.8825 69.6653 43.281 69.7389 44.0907C69.8125 44.2379 69.7389 44.3851 69.5181 44.3851C69.5917 44.3851 69.5917 44.3851 69.5181 44.3851Z" fill="#26192A"/>
<path d="M67.4576 47.3285C67.3103 47.3285 67.2367 47.2548 67.1631 47.1076C67.0895 46.3716 66.5743 44.9731 66.5743 44.9731C66.5007 44.8259 66.5743 44.6787 66.7215 44.605C66.8687 44.5314 67.0159 44.6051 67.0895 44.7523C67.0895 44.8259 67.6048 46.2244 67.6784 47.034C67.752 47.1076 67.6784 47.2548 67.4576 47.3285C67.5312 47.3285 67.4576 47.3285 67.4576 47.3285Z" fill="#26192A"/>
<path d="M70.0337 48.4329C69.8865 48.4329 69.8129 48.3593 69.7393 48.2121C69.6657 47.4761 69.1505 46.0776 69.1505 46.0776C69.0769 45.9304 69.1505 45.7831 69.2977 45.7095C69.4449 45.6359 69.5921 45.7095 69.6657 45.8568C69.6657 45.9304 70.1809 47.3288 70.2545 48.1385C70.3281 48.2857 70.2545 48.4329 70.0337 48.4329Z" fill="#26192A"/>
<path d="M67.9727 52.556C67.8255 52.556 67.7519 52.4824 67.6783 52.3352C67.6046 51.5991 67.0894 50.2006 67.0894 50.2006C67.0158 50.0534 67.0894 49.9062 67.2366 49.8326C67.3839 49.759 67.5311 49.8326 67.6047 49.9798C67.6047 50.0534 68.1199 51.4519 68.1935 52.2616C68.2671 52.4088 68.1199 52.556 67.9727 52.556Z" fill="#26192A"/>
<path d="M71.1377 53.3655C70.9905 53.3655 70.9169 53.2919 70.8433 53.1447C70.7697 52.4087 70.2545 51.0102 70.2545 51.0102C70.1809 50.863 70.2545 50.7158 70.4017 50.6422C70.5489 50.5686 70.6961 50.6421 70.7697 50.7894C70.7697 50.863 71.2849 52.2615 71.3585 53.0711C71.4321 53.2183 71.2849 53.2919 71.1377 53.3655Z" fill="#26192A"/>
<path d="M69.0767 56.972C68.9295 56.972 68.8559 56.8984 68.7823 56.7512C68.7087 56.0151 68.1934 54.6166 68.1934 54.6166C68.1198 54.4694 68.1934 54.3222 68.3406 54.2486C68.4879 54.175 68.6351 54.2486 68.7087 54.3958C68.7087 54.4694 69.2239 55.8679 69.2975 56.6776C69.3711 56.8248 69.2975 56.972 69.0767 56.972Z" fill="#26192A"/>
<path d="M71.8003 57.7816C71.6531 57.7816 71.5795 57.708 71.5059 57.5608C71.4323 56.8247 70.9171 55.4262 70.9171 55.4262C70.8435 55.279 70.9171 55.1318 71.0643 55.0582C71.2115 54.9846 71.3587 55.0582 71.4323 55.2054C71.4323 55.279 71.9475 56.6775 72.0211 57.4871C72.0947 57.6344 72.0211 57.7816 71.8003 57.7816Z" fill="#26192A"/>
<path d="M65.9117 36.9505C65.7644 36.9505 65.6908 36.8769 65.6172 36.7297C65.5436 35.9936 65.0284 34.5951 65.0284 34.5951C64.9548 34.4479 65.0284 34.3007 65.1756 34.2271C65.3228 34.1535 65.47 34.2271 65.5436 34.3743C65.5436 34.4479 66.0589 35.8464 66.1325 36.6561C66.2061 36.8033 66.1325 36.8769 65.9117 36.9505C65.9853 36.9505 65.9117 36.9505 65.9117 36.9505Z" fill="#26192A"/>
<path d="M67.3101 34.6693C67.1629 34.6693 67.0893 34.5957 67.0157 34.4485C66.9421 33.7124 66.4268 32.3139 66.4268 32.3139C66.3532 32.1667 66.4268 32.0195 66.574 31.9459C66.7213 31.8723 66.8685 31.9459 66.9421 32.0931C66.9421 32.1667 67.4573 33.5652 67.5309 34.3749C67.6045 34.5221 67.4573 34.6693 67.3101 34.6693Z" fill="#26192A"/>
<path d="M75.9956 96.2017C75.7748 96.2017 75.7012 96.0544 75.7012 95.8336C75.8484 95.0976 75.8484 93.6255 75.8484 93.6255C75.8484 93.4783 75.9956 93.3311 76.1428 93.3311C76.29 93.3311 76.4372 93.4783 76.4372 93.6255C76.4372 93.6991 76.4372 95.2448 76.29 95.9808C76.29 96.128 76.1428 96.2017 75.9956 96.2017Z" fill="#26192A"/>
<path d="M72.3892 97.38C72.3156 97.38 72.3156 97.38 72.3892 97.38C72.1683 97.38 72.0947 97.2328 72.0947 97.0856C72.2419 96.3495 72.2419 94.8774 72.2419 94.8774C72.2419 94.7302 72.3892 94.583 72.5364 94.583C72.6836 94.583 72.8308 94.7302 72.8308 94.8774C72.8308 94.951 72.8308 96.4231 72.6836 97.2328C72.61 97.2328 72.4628 97.38 72.3892 97.38Z" fill="#26192A"/>
<path d="M75.0385 100.617C74.8177 100.617 74.7441 100.47 74.7441 100.323C74.8914 99.5869 74.8913 98.1148 74.8913 98.1148C74.8913 97.9675 75.0385 97.8203 75.1858 97.8203C75.333 97.8203 75.4802 97.9675 75.4802 98.1148C75.4802 98.1884 75.4802 99.6605 75.333 100.47C75.333 100.544 75.1857 100.617 75.0385 100.617Z" fill="#26192A"/>
<path d="M72.3892 102.457C72.3156 102.457 72.3156 102.457 72.3892 102.457C72.1683 102.457 72.0947 102.31 72.0947 102.163C72.2419 101.427 72.2419 99.9546 72.2419 99.9546C72.2419 99.8074 72.3892 99.6602 72.5364 99.6602C72.6836 99.6602 72.8308 99.8074 72.8308 99.9546C72.8308 100.028 72.8308 101.5 72.6836 102.31C72.61 102.384 72.4628 102.457 72.3892 102.457Z" fill="#26192A"/>
<path d="M74.8916 104.814C74.6707 104.814 74.5972 104.666 74.5972 104.519C74.7444 103.783 74.7444 102.311 74.7444 102.311C74.7444 102.164 74.8916 102.017 75.0388 102.017C75.186 102.017 75.3332 102.164 75.3332 102.311C75.3332 102.385 75.3332 103.857 75.186 104.666C75.186 104.74 75.0388 104.814 74.8916 104.814Z" fill="#26192A"/>
<path d="M71.3584 107.022C71.1375 107.022 71.064 106.875 71.064 106.654C71.2112 105.918 71.2111 104.446 71.2111 104.446C71.2111 104.299 71.3584 104.151 71.5056 104.151C71.6528 104.151 71.8 104.299 71.8 104.446C71.8 104.519 71.8 106.065 71.6528 106.801C71.6528 106.948 71.5056 107.022 71.3584 107.022Z" fill="#26192A"/>
<path d="M73.6401 109.156C73.5665 109.156 73.5665 109.156 73.6401 109.156C73.4193 109.156 73.3457 109.009 73.3457 108.788C73.4929 108.052 73.4929 106.58 73.4929 106.58C73.4929 106.432 73.6401 106.285 73.7873 106.285C73.9345 106.285 74.0818 106.432 74.0818 106.58C74.0818 106.653 74.0817 108.125 73.9345 108.935C73.8609 109.082 73.7137 109.156 73.6401 109.156Z" fill="#26192A"/>
<path d="M69.6655 111.954C69.4447 111.954 69.3711 111.806 69.3711 111.586C69.5183 110.85 69.5183 109.377 69.5183 109.377C69.5183 109.23 69.6655 109.083 69.8128 109.083C69.96 109.083 70.1071 109.23 70.1071 109.377C70.1071 109.451 70.1072 110.997 69.96 111.733C69.96 111.88 69.8127 111.954 69.6655 111.954Z" fill="#26192A"/>
<path d="M71.8 113.573H71.7264C71.5792 113.5 71.5056 113.353 71.5792 113.205C71.8736 112.543 72.0944 111.071 72.0944 110.997C72.0944 110.85 72.2416 110.776 72.3889 110.776C72.5361 110.776 72.6097 110.924 72.6097 111.071C72.6097 111.144 72.3152 112.617 72.0944 113.353C72.0208 113.5 71.9472 113.573 71.8 113.573Z" fill="#26192A"/>
<path d="M73.7139 91.9331C73.6403 91.9331 73.6403 91.9331 73.7139 91.9331C73.4931 91.9331 73.4194 91.7859 73.4194 91.5651C73.5666 90.829 73.5667 89.3569 73.5667 89.3569C73.5667 89.2097 73.7139 89.0625 73.8611 89.0625C74.0083 89.0625 74.1555 89.2097 74.1555 89.3569C74.1555 89.4305 74.1555 90.9762 74.0083 91.7123C73.9347 91.8595 73.7875 91.9331 73.7139 91.9331Z" fill="#26192A"/>
<path d="M75.9219 90.2397C75.7011 90.2397 75.6274 90.0925 75.6274 89.8717C75.7747 89.1357 75.7747 87.6636 75.7747 87.6636C75.7747 87.5163 75.9219 87.3691 76.0691 87.3691C76.2163 87.3691 76.3635 87.5163 76.3635 87.6636C76.3635 87.7372 76.3635 89.2829 76.2163 90.0189C76.2163 90.1661 76.0691 90.2397 75.9219 90.2397Z" fill="#26192A"/>
<path d="M38.9717 119.536C38.8981 119.536 38.7509 119.462 38.7509 119.388C38.7509 119.315 38.0148 117.99 37.794 117.254C37.7204 117.107 37.8676 116.959 38.0148 116.886C38.162 116.812 38.3092 116.959 38.3828 117.107C38.6036 117.769 39.2661 119.168 39.2661 119.168C39.3397 119.315 39.2661 119.462 39.1189 119.536C39.0453 119.536 38.9717 119.536 38.9717 119.536Z" fill="#26192A"/>
<path d="M40.2969 116.15C40.2233 116.15 40.076 116.076 40.076 116.003C40.076 115.929 39.34 114.604 39.1192 113.868C39.0456 113.721 39.1928 113.574 39.34 113.5C39.4872 113.426 39.6344 113.574 39.708 113.721C39.9288 114.383 40.5913 115.782 40.5913 115.782C40.6649 115.929 40.5913 116.076 40.4441 116.15C40.3705 116.15 40.2969 116.15 40.2969 116.15Z" fill="#26192A"/>
<path d="M36.3955 115.414C36.3219 115.414 36.1747 115.341 36.1747 115.267C36.1747 115.194 35.4386 113.869 35.2178 113.133C35.1442 112.986 35.2914 112.838 35.4386 112.765C35.5858 112.691 35.733 112.838 35.8067 112.986C36.0275 113.648 36.6899 115.046 36.6899 115.046C36.7635 115.194 36.6899 115.341 36.5427 115.414C36.4691 115.414 36.4691 115.414 36.3955 115.414Z" fill="#26192A"/>
<path d="M37.2788 111.882C37.2052 111.882 37.058 111.809 37.058 111.735C37.058 111.661 36.3219 110.337 36.1011 109.6C36.0275 109.453 36.1747 109.306 36.3219 109.232C36.4691 109.159 36.6164 109.306 36.69 109.453C36.9108 110.116 37.5732 111.514 37.5732 111.514C37.6468 111.661 37.5732 111.809 37.426 111.882C37.426 111.809 37.3524 111.882 37.2788 111.882Z" fill="#26192A"/>
<path d="M39.4136 111.292C39.34 111.292 39.1927 111.219 39.1927 111.145C39.1927 111.072 38.4567 109.747 38.2359 109.011C38.1623 108.863 38.3095 108.716 38.4567 108.643C38.6039 108.569 38.7511 108.716 38.8247 108.863C39.0455 109.526 39.708 110.924 39.708 110.924C39.7816 111.072 39.708 111.219 39.5608 111.292C39.4872 111.219 39.4872 111.292 39.4136 111.292Z" fill="#26192A"/>
<path d="M38.2357 104.815C38.0885 104.815 38.0149 104.741 37.9413 104.594C37.9413 104.521 37.5732 103.048 37.5732 102.239C37.5732 102.092 37.7204 101.944 37.8676 101.944C38.0148 101.944 38.1621 102.092 38.1621 102.239C38.1621 102.975 38.5301 104.447 38.5301 104.447C38.5301 104.594 38.4565 104.741 38.2357 104.815C38.3093 104.815 38.2357 104.815 38.2357 104.815Z" fill="#26192A"/>
<path d="M43.5351 124.688C43.4615 124.688 43.3143 124.614 43.3143 124.541C43.3143 124.467 42.5783 123.142 42.3575 122.406C42.2839 122.259 42.4311 122.112 42.5783 122.038C42.7255 121.965 42.8727 122.112 42.9463 122.259C43.1671 122.921 43.8296 124.32 43.8296 124.32C43.9032 124.467 43.8296 124.614 43.6824 124.688C43.6088 124.688 43.6087 124.688 43.5351 124.688Z" fill="#26192A"/>
<path d="M34.8497 111.293C34.7761 111.293 34.6289 111.219 34.6289 111.146C34.6289 111.072 33.9664 109.747 33.7456 108.937C33.7456 108.79 33.8192 108.643 33.9664 108.569C34.1136 108.496 34.2608 108.643 34.3344 108.79C34.4817 109.526 35.1441 110.851 35.1441 110.851C35.2177 110.998 35.1441 111.146 34.9969 111.219C34.9233 111.293 34.8497 111.293 34.8497 111.293Z" fill="#26192A"/>
<path d="M36.1009 107.023C35.9537 107.023 35.8801 106.949 35.8065 106.802C35.8065 106.729 35.4385 105.256 35.4385 104.447C35.4385 104.3 35.5857 104.152 35.7329 104.152C35.8801 104.152 36.0273 104.3 36.0273 104.447C36.0273 105.183 36.3953 106.655 36.3953 106.655C36.3953 106.876 36.3218 107.023 36.1009 107.023C36.1745 107.023 36.1745 107.023 36.1009 107.023Z" fill="#26192A"/>
<path d="M33.5986 105.92C33.4514 105.92 33.3778 105.846 33.3042 105.699C33.3042 105.626 32.7889 104.227 32.7153 103.417C32.7153 103.27 32.7889 103.123 32.9361 103.123C33.0833 103.123 33.2306 103.197 33.2306 103.344C33.3042 104.08 33.8194 105.478 33.8194 105.478C33.893 105.626 33.8194 105.773 33.6722 105.846C33.5986 105.92 33.5986 105.92 33.5986 105.92Z" fill="#26192A"/>
<path d="M35.6594 101.356C35.5122 101.356 35.4386 101.282 35.365 101.135C35.365 101.062 35.0705 99.5894 35.1441 98.7798C35.1441 98.6326 35.2914 98.559 35.4386 98.4854C35.5858 98.4854 35.733 98.6326 35.733 98.7798C35.733 99.5158 35.9538 100.988 35.9538 100.988C35.9538 101.135 35.8802 101.282 35.6594 101.356C35.733 101.356 35.733 101.356 35.6594 101.356Z" fill="#26192A"/>
<path d="M33.0835 100.62C32.9362 100.62 32.7891 100.472 32.7891 100.325C32.7891 100.252 32.789 98.7795 32.9362 97.9698C32.9362 97.8226 33.0835 97.749 33.2307 97.749C33.3779 97.749 33.4515 97.8962 33.4515 98.0434C33.3043 98.7795 33.3043 100.252 33.3043 100.252C33.3779 100.472 33.3043 100.62 33.0835 100.62Z" fill="#26192A"/>
<path d="M41.6953 120.64C41.6217 120.64 41.4745 120.566 41.4745 120.493C41.4745 120.419 40.7384 119.094 40.5176 118.358C40.444 118.211 40.5912 118.064 40.7384 117.99C40.8856 117.917 41.0329 118.064 41.1065 118.211C41.3273 118.874 41.9897 120.272 41.9897 120.272C42.0633 120.419 41.9897 120.566 41.8425 120.64C41.7689 120.566 41.7689 120.64 41.6953 120.64Z" fill="#26192A"/>
<path d="M41.2537 123.659C41.1801 123.659 41.1065 123.659 41.0329 123.585C40.9593 123.512 39.8552 122.481 39.4136 121.819C39.34 121.672 39.34 121.524 39.4872 121.451C39.6344 121.377 39.7816 121.377 39.8552 121.524C40.2968 122.113 41.3273 123.144 41.4009 123.144C41.5481 123.217 41.5481 123.438 41.4009 123.512C41.4009 123.659 41.3273 123.659 41.2537 123.659Z" fill="#26192A"/>
<path d="M103.229 125.569C103.156 125.569 103.082 125.569 103.008 125.496C102.861 125.422 102.861 125.201 103.008 125.128C103.008 125.128 104.039 123.95 104.407 123.361C104.48 123.214 104.628 123.214 104.775 123.288C104.922 123.361 104.922 123.508 104.848 123.656C104.48 124.318 103.45 125.496 103.376 125.496C103.376 125.496 103.303 125.569 103.229 125.569Z" fill="#26192A"/>
<path d="M102.567 121.89C102.493 121.89 102.42 121.89 102.346 121.816C102.199 121.742 102.199 121.522 102.346 121.448C102.346 121.448 103.377 120.27 103.745 119.682C103.818 119.534 103.966 119.534 104.113 119.608C104.26 119.682 104.26 119.829 104.186 119.976C103.818 120.638 102.788 121.816 102.714 121.816C102.714 121.89 102.641 121.89 102.567 121.89Z" fill="#26192A"/>
<path d="M106.983 121.89C106.909 121.89 106.836 121.89 106.762 121.816C106.615 121.742 106.615 121.522 106.762 121.448C106.762 121.448 107.793 120.27 108.161 119.682C108.234 119.534 108.382 119.534 108.529 119.608C108.676 119.682 108.676 119.829 108.602 119.976C108.234 120.638 107.204 121.816 107.13 121.816C107.13 121.89 107.057 121.89 106.983 121.89Z" fill="#26192A"/>
<path d="M105.805 117.253C105.732 117.253 105.658 117.253 105.585 117.179C105.437 117.106 105.437 116.885 105.585 116.811C105.585 116.811 106.615 115.634 106.983 115.045C107.057 114.898 107.204 114.898 107.351 114.971C107.498 115.045 107.498 115.192 107.425 115.339C107.057 116.002 106.026 117.179 105.953 117.179C105.953 117.253 105.879 117.253 105.805 117.253Z" fill="#26192A"/>
<path d="M103.892 116.149C103.818 116.149 103.745 116.149 103.671 116.076C103.524 116.002 103.524 115.781 103.671 115.708C103.671 115.708 104.701 114.53 105.069 113.941C105.143 113.794 105.29 113.794 105.437 113.868C105.585 113.941 105.585 114.088 105.511 114.236C105.143 114.898 104.113 116.076 104.039 116.076C104.039 116.149 103.965 116.149 103.892 116.149Z" fill="#26192A"/>
<path d="M100.138 120.271C100.064 120.271 99.9907 120.271 99.917 120.197C99.7698 120.123 99.7698 119.903 99.917 119.829C99.917 119.829 100.948 118.651 101.316 118.062C101.389 117.915 101.536 117.915 101.684 117.989C101.831 118.062 101.831 118.21 101.757 118.357C101.389 119.019 100.359 120.197 100.285 120.197C100.285 120.271 100.212 120.271 100.138 120.271Z" fill="#26192A"/>
<path d="M95.9425 124.76C95.8689 124.76 95.7953 124.687 95.7217 124.613C95.6481 124.466 95.6481 124.319 95.7953 124.245C95.7953 124.245 97.0466 123.362 97.5618 122.847C97.6354 122.7 97.8563 122.7 97.9299 122.847C98.0771 122.92 98.0771 123.141 97.9299 123.215C97.4146 123.804 96.1633 124.687 96.0897 124.687C96.0161 124.76 96.0161 124.76 95.9425 124.76Z" fill="#26192A"/>
<path d="M106.762 110.186C106.689 110.186 106.689 110.186 106.615 110.186C106.468 110.112 106.394 109.965 106.468 109.818C106.468 109.818 107.204 108.419 107.351 107.757C107.425 107.61 107.572 107.536 107.719 107.536C107.866 107.61 107.94 107.757 107.94 107.904C107.719 108.64 106.983 110.039 106.983 110.039C106.909 110.112 106.836 110.186 106.762 110.186Z" fill="#26192A"/>
<path d="M94.6177 127.557C94.4705 127.557 94.3968 127.483 94.3232 127.336C94.3232 127.189 94.3968 127.042 94.544 127.042C94.544 127.042 96.0162 126.747 96.7522 126.453C96.8994 126.379 97.0466 126.453 97.1202 126.6C97.1938 126.747 97.1202 126.894 96.973 126.968C96.237 127.262 94.6913 127.557 94.6177 127.557Z" fill="#26192A"/>
<path d="M89.686 128.293C89.5388 128.293 89.4652 128.219 89.3916 128.072C89.3916 127.925 89.4652 127.778 89.6124 127.778C89.6124 127.778 91.0845 127.41 91.747 127.189C91.8942 127.115 92.0414 127.189 92.115 127.336C92.1886 127.483 92.115 127.631 91.9678 127.704C91.3053 127.925 89.8333 128.293 89.686 128.293C89.7596 128.293 89.686 128.293 89.686 128.293Z" fill="#26192A"/>
<path d="M108.971 117.767C108.897 117.767 108.823 117.767 108.823 117.694C108.676 117.62 108.676 117.399 108.823 117.326C108.823 117.326 109.78 116.148 110.148 115.486C110.222 115.338 110.369 115.265 110.516 115.338C110.663 115.412 110.737 115.559 110.663 115.706C110.295 116.369 109.339 117.547 109.265 117.62C109.118 117.694 109.044 117.767 108.971 117.767Z" fill="#26192A"/>
<path d="M108.161 112.91C108.088 112.91 108.088 112.91 108.014 112.91C107.867 112.836 107.793 112.689 107.867 112.542C107.867 112.542 108.603 111.143 108.75 110.481C108.824 110.333 108.971 110.26 109.118 110.26C109.265 110.333 109.339 110.481 109.339 110.628C109.118 111.364 108.382 112.762 108.382 112.762C108.382 112.836 108.308 112.91 108.161 112.91Z" fill="#26192A"/>
<path d="M110.958 112.467C110.885 112.467 110.885 112.467 110.811 112.394C110.664 112.32 110.664 112.173 110.737 112.026C110.737 112.026 111.547 110.774 111.841 110.038C111.915 109.891 112.062 109.818 112.209 109.891C112.357 109.965 112.43 110.112 112.357 110.259C112.062 110.995 111.253 112.247 111.179 112.32C111.105 112.394 111.032 112.467 110.958 112.467Z" fill="#26192A"/>
<path d="M110.075 107.463C110.001 107.463 110.001 107.463 109.928 107.463C109.78 107.389 109.707 107.242 109.78 107.095C109.78 107.095 110.443 105.696 110.59 104.96C110.59 104.813 110.811 104.739 110.958 104.739C111.105 104.739 111.179 104.96 111.179 105.107C110.958 105.843 110.369 107.242 110.296 107.315C110.296 107.389 110.222 107.463 110.075 107.463Z" fill="#26192A"/>
<path d="M111.62 103.341C111.547 103.341 111.547 103.341 111.473 103.341C111.326 103.267 111.252 103.12 111.326 102.973C111.326 102.973 111.988 101.574 112.135 100.838C112.135 100.691 112.356 100.617 112.503 100.617C112.651 100.617 112.724 100.838 112.724 100.985C112.503 101.721 111.915 103.12 111.841 103.193C111.841 103.267 111.767 103.341 111.62 103.341Z" fill="#26192A"/>
<path d="M114.049 93.1099C113.902 93.1099 113.755 92.9627 113.755 92.8154C113.755 92.8154 113.902 91.2697 113.828 90.5337C113.828 90.3865 113.902 90.2393 114.049 90.2393C114.196 90.2393 114.344 90.3129 114.344 90.4601C114.417 91.2697 114.27 92.7418 114.27 92.8154C114.344 93.0363 114.196 93.1099 114.049 93.1099Z" fill="#26192A"/>
<path d="M112.725 107.389C112.504 107.316 112.43 107.168 112.43 107.021C112.43 107.021 112.798 105.549 112.872 104.813C112.872 104.666 113.019 104.519 113.166 104.519C113.313 104.519 113.461 104.666 113.461 104.813C113.387 105.623 113.019 107.095 113.019 107.168C112.945 107.316 112.872 107.389 112.725 107.389Z" fill="#26192A"/>
<path d="M114.123 102.31C114.123 102.31 114.049 102.31 114.123 102.31C113.902 102.236 113.829 102.089 113.829 101.942C113.829 101.942 114.197 100.47 114.27 99.7339C114.27 99.5867 114.417 99.4395 114.565 99.4395C114.712 99.4395 114.859 99.5867 114.859 99.7339C114.786 100.544 114.417 102.016 114.417 102.089C114.344 102.236 114.27 102.31 114.123 102.31Z" fill="#26192A"/>
<path d="M114.123 98.4087C114.123 98.4087 114.049 98.4087 114.123 98.4087C113.902 98.3351 113.829 98.1879 113.829 98.0407C113.829 98.0407 114.197 96.5686 114.27 95.8325C114.27 95.6853 114.417 95.5381 114.565 95.5381C114.712 95.5381 114.859 95.6853 114.859 95.8325C114.786 96.6422 114.417 98.1143 114.417 98.1879C114.344 98.3351 114.27 98.4087 114.123 98.4087Z" fill="#26192A"/>
<path d="M99.2546 124.687C99.1809 124.687 99.1074 124.687 99.0337 124.613C98.8865 124.539 98.8865 124.319 99.0337 124.245C99.0337 124.245 100.064 123.067 100.432 122.478C100.506 122.331 100.653 122.331 100.8 122.405C100.947 122.478 100.947 122.626 100.874 122.773C100.506 123.435 99.4754 124.613 99.4018 124.613C99.4018 124.613 99.3282 124.687 99.2546 124.687Z" fill="#26192A"/>
<path d="M98.9603 127.778C98.8867 127.778 98.7395 127.705 98.7395 127.631C98.6659 127.484 98.7395 127.337 98.8131 127.263C98.8131 127.263 100.138 126.527 100.727 126.085C100.874 126.012 101.021 126.012 101.095 126.085C101.168 126.233 101.168 126.38 101.095 126.454C100.506 126.969 99.1811 127.705 99.1075 127.705C99.0339 127.705 98.9603 127.778 98.9603 127.778Z" fill="#26192A"/>
<path d="M23.294 132.416C23.1468 132.416 23.0731 132.343 22.9995 132.269C22.9259 132.122 22.9995 131.975 23.1468 131.901C23.1468 131.901 25.2077 131.091 25.2077 129.546C25.2077 129.398 25.1341 129.398 25.1341 129.325C24.6925 129.104 23.0732 129.84 21.6011 130.65C20.9386 131.091 20.4234 131.312 20.4234 131.386C20.2761 131.459 20.1289 131.386 20.0553 131.312C19.9817 131.165 20.0554 131.018 20.129 130.944C20.3498 130.797 20.7914 130.502 21.3066 130.208C22.3371 129.546 23.7356 128.441 23.9564 127.411C24.0301 127.043 23.9564 126.749 23.8092 126.528C23.4412 126.381 21.233 127.853 19.0985 129.766C18.9513 129.84 18.804 129.84 18.7304 129.766C18.6568 129.693 18.6568 129.472 18.7304 129.398C19.7609 128.368 21.3802 126.381 21.3066 125.571C21.3066 125.424 21.233 125.424 21.1594 125.35C20.3497 124.908 18.1416 126.675 16.7431 128.147C16.6695 128.294 16.4487 128.294 16.3751 128.147C16.2278 128.073 16.2278 127.853 16.3751 127.779C16.9639 127.117 19.9817 124.025 21.4538 124.908C21.6747 125.056 21.8219 125.276 21.8955 125.571C21.9691 126.086 21.6011 126.822 21.0858 127.558C22.1899 126.749 23.3676 126.013 23.9564 126.086C24.1773 126.086 24.3245 126.233 24.3245 126.307C24.6189 126.749 24.6925 127.19 24.5453 127.632C24.3981 128.147 24.03 128.736 23.5148 129.251C24.2508 128.957 24.9869 128.81 25.3549 129.03C25.5021 129.104 25.7229 129.325 25.7229 129.693C25.7229 131.607 23.3676 132.49 23.294 132.563C23.3676 132.416 23.294 132.416 23.294 132.416Z" fill="#26192A"/>
<path d="M46.9213 136.097C46.7741 136.097 46.7005 136.023 46.6269 135.95C46.5533 135.802 46.6269 135.655 46.7741 135.582C46.7741 135.582 48.835 134.772 48.835 133.226C48.835 133.079 48.7614 133.079 48.7614 133.005C48.3198 132.785 46.7005 133.521 45.2284 134.33C44.5659 134.772 44.0507 134.993 44.0507 135.066C43.9035 135.14 43.7563 135.066 43.6827 134.993C43.6091 134.846 43.6827 134.698 43.7563 134.625C43.9771 134.477 44.4187 134.183 44.934 133.889C45.9644 133.226 47.3629 132.122 47.5837 131.092C47.6573 130.724 47.5837 130.429 47.4365 130.208C47.0685 130.061 44.8603 131.533 42.6522 133.447C42.5786 133.521 42.3578 133.521 42.2841 133.447C42.2105 133.373 42.2105 133.153 42.2841 133.079C43.3146 132.049 44.9339 130.061 44.8603 129.252C44.8603 129.104 44.7867 129.104 44.7131 129.031C43.9035 128.589 41.6953 130.356 40.2968 131.828C40.2232 131.975 40.0024 131.975 39.9288 131.828C39.7816 131.754 39.7816 131.533 39.9288 131.46C40.5176 130.797 43.5354 127.706 45.0076 128.589C45.2284 128.736 45.3756 128.957 45.4492 129.252C45.5228 129.767 45.1548 130.503 44.6395 131.239C45.7436 130.429 46.9213 129.693 47.5102 129.767C47.731 129.767 47.8782 129.914 47.8782 129.988C48.1726 130.429 48.2462 130.871 48.099 131.312C47.9518 131.828 47.5837 132.417 47.0685 132.932C47.8046 132.637 48.5406 132.49 48.9086 132.711C49.0558 132.785 49.2767 133.005 49.2767 133.373C49.2767 135.287 46.9213 136.17 46.8477 136.244C46.9949 136.097 46.9949 136.097 46.9213 136.097Z" fill="#26192A"/>
</svg>
