<svg width="197" height="304" viewBox="0 0 197 304" fill="none" xmlns="http://www.w3.org/2000/svg">
<path d="M65.9219 136.236C65.9219 136.236 39.6111 143.675 33.2745 141.884C26.8001 140.093 25.8358 107.997 9.30548 115.298C-7.22485 122.736 -0.0616565 158.965 17.7084 169.297C35.4785 179.628 69.779 157.863 69.779 157.863L65.9219 136.236Z" fill="#FCB82E"/>
<path d="M108.35 112.543C108.35 112.543 136.176 95.3243 167.583 126.181C199.129 157.038 173.093 191.476 149.951 195.608C149.951 195.471 97.3295 150.839 108.35 112.543Z" fill="#F58A28"/>
<path d="M108.35 112.544C108.35 112.544 184.114 140.37 137.14 241.48L64.1311 243.546C64.1311 243.546 34.1011 182.109 77.3555 115.574L108.35 112.544Z" fill="#FCB82E"/>
<path d="M68.2635 215.308C68.2635 215.308 44.7078 251.675 68.2635 295.894H89.3398C89.3398 295.894 88.9264 258.149 96.7784 232.803L68.2635 215.308Z" fill="#FCB82E"/>
<path d="M112.207 215.308C112.207 215.308 88.6512 251.675 112.207 295.894H133.283C133.283 295.894 132.87 258.149 140.722 232.803L112.207 215.308Z" fill="#FCB82E"/>
<path d="M140.583 211.174C140.583 211.174 142.236 251.261 164.966 251.123C187.695 250.985 161.109 203.323 182.322 201.394C191.552 200.568 194.445 211.174 184.251 213.93C179.843 215.169 193.894 249.47 171.302 258.561C148.711 267.653 130.941 247.679 131.629 222.746C132.318 197.812 140.583 211.174 140.583 211.174Z" fill="#FCB82E"/>
<path d="M115.925 214.206C115.925 214.206 125.293 154.422 97.7421 148.361C70.1916 142.299 57.7938 199.605 75.9772 220.819C94.0228 241.895 113.308 228.257 115.925 214.206Z" fill="#FFFAF0"/>
<path d="M61.5136 255.119C61.2381 255.119 60.9625 254.843 60.9625 254.568C60.9625 254.155 61.238 250.573 62.0645 249.471C62.2023 249.195 62.6155 249.195 62.7533 249.333C63.0288 249.471 63.0288 249.884 62.8911 250.022C62.3401 250.711 62.0646 253.19 61.9268 254.568C62.0646 254.981 61.7891 255.119 61.5136 255.119Z" fill="#26192A"/>
<path d="M65.0953 259.25C64.8198 259.25 64.5443 258.975 64.5443 258.699C64.5443 258.286 64.8198 254.704 65.6463 253.602C65.7841 253.327 66.1973 253.327 66.3351 253.465C66.6106 253.602 66.6106 254.016 66.4728 254.153C65.9218 254.842 65.6463 257.322 65.5085 258.699C65.5085 259.112 65.3708 259.25 65.0953 259.25Z" fill="#26192A"/>
<path d="M62.6151 264.9C62.3396 264.9 62.2018 264.762 62.064 264.486C61.9263 264.073 61.2376 260.492 61.7886 259.252C61.9263 258.976 62.2018 258.839 62.4774 258.976C62.7529 259.114 62.8905 259.39 62.7528 259.665C62.4773 260.354 62.7528 262.971 63.0283 264.349C63.1661 264.486 62.8906 264.762 62.6151 264.9Z" fill="#26192A"/>
<path d="M67.1622 268.893C66.8867 268.893 66.749 268.755 66.6113 268.48C66.4735 268.066 65.7847 264.485 66.3358 263.245C66.4735 262.97 66.749 262.832 67.0245 262.97C67.3 263.107 67.4378 263.383 67.3 263.658C67.0245 264.347 67.3 266.964 67.5755 268.342C67.7132 268.617 67.5755 268.893 67.1622 268.893C67.3 268.893 67.1622 268.893 67.1622 268.893Z" fill="#26192A"/>
<path d="M63.167 273.854C62.8915 273.854 62.7537 273.716 62.6159 273.44C62.4782 273.027 61.7894 269.446 62.3404 268.206C62.4781 267.93 62.7537 267.793 63.0292 267.93C63.3047 268.068 63.4424 268.344 63.3047 268.619C63.0292 269.308 63.3047 271.925 63.5802 273.303C63.718 273.44 63.5802 273.716 63.167 273.854C63.3047 273.854 63.167 273.854 63.167 273.854Z" fill="#26192A"/>
<path d="M67.1622 277.434C66.8867 277.434 66.749 277.297 66.6113 277.021C66.4735 276.608 65.7847 273.026 66.3358 271.786C66.4735 271.511 66.749 271.373 67.0245 271.511C67.3 271.649 67.4378 271.924 67.3 272.2C67.0245 272.888 67.3 275.506 67.5755 276.883C67.7132 277.021 67.5755 277.297 67.1622 277.434C67.3 277.434 67.1622 277.434 67.1622 277.434Z" fill="#26192A"/>
<path d="M66.335 283.082C66.1972 283.082 65.9217 282.944 65.9217 282.807C65.784 282.393 64.2687 279.087 64.5442 277.71C64.5442 277.434 64.8197 277.297 65.0952 277.297C65.3707 277.297 65.5084 277.572 65.5084 277.848C65.3707 278.674 66.1972 281.016 66.7482 282.256C66.886 282.531 66.7482 282.807 66.4727 282.944C66.4727 283.082 66.335 283.082 66.335 283.082Z" fill="#26192A"/>
<path d="M105.869 254.154C105.594 254.154 105.318 253.878 105.318 253.602C105.318 253.189 105.594 249.608 106.42 248.506C106.558 248.23 106.971 248.23 107.109 248.368C107.385 248.506 107.385 248.919 107.247 249.057C106.696 249.745 106.42 252.225 106.283 253.602C106.42 253.878 106.145 254.154 105.869 254.154Z" fill="#26192A"/>
<path d="M109.451 258.287C109.176 258.287 108.9 258.012 108.9 257.736C108.9 257.323 109.176 253.741 110.002 252.639C110.14 252.364 110.553 252.364 110.691 252.501C110.967 252.639 110.967 253.052 110.829 253.19C110.278 253.879 110.002 256.359 109.864 257.736C109.864 258.012 109.727 258.287 109.451 258.287Z" fill="#26192A"/>
<path d="M106.972 263.796C106.697 263.796 106.559 263.658 106.421 263.383C106.283 262.97 105.595 259.388 106.146 258.148C106.283 257.873 106.559 257.735 106.834 257.873C107.11 258.011 107.248 258.286 107.11 258.562C106.834 259.25 107.11 261.868 107.385 263.245C107.523 263.521 107.248 263.796 106.972 263.796Z" fill="#26192A"/>
<path d="M111.518 267.792C111.243 267.792 111.105 267.654 110.967 267.378C110.829 266.965 110.141 263.383 110.692 262.144C110.829 261.868 111.105 261.73 111.38 261.868C111.656 262.006 111.794 262.281 111.656 262.557C111.38 263.246 111.656 265.863 111.931 267.24C112.069 267.516 111.931 267.792 111.518 267.792C111.656 267.792 111.518 267.792 111.518 267.792Z" fill="#26192A"/>
<path d="M107.523 272.75C107.247 272.75 107.11 272.612 106.972 272.337C106.834 271.923 106.145 268.342 106.696 267.102C106.834 266.827 107.11 266.689 107.385 266.827C107.661 266.964 107.798 267.24 107.661 267.515C107.385 268.204 107.661 270.821 107.936 272.199C108.074 272.474 107.936 272.75 107.523 272.75C107.661 272.75 107.523 272.75 107.523 272.75Z" fill="#26192A"/>
<path d="M111.518 276.333C111.243 276.333 111.105 276.195 110.967 275.92C110.829 275.506 110.141 271.925 110.692 270.685C110.829 270.41 111.105 270.272 111.38 270.41C111.656 270.547 111.794 270.823 111.656 271.098C111.38 271.787 111.656 274.404 111.931 275.782C112.069 276.057 111.931 276.333 111.518 276.333C111.656 276.333 111.518 276.333 111.518 276.333Z" fill="#26192A"/>
<path d="M110.691 281.981C110.553 281.981 110.278 281.843 110.278 281.705C110.14 281.292 108.625 277.986 108.9 276.608C108.9 276.333 109.176 276.195 109.451 276.195C109.727 276.195 109.864 276.471 109.864 276.746C109.727 277.573 110.553 279.914 111.104 281.154C111.242 281.43 111.104 281.705 110.829 281.843C110.829 281.981 110.691 281.981 110.691 281.981Z" fill="#26192A"/>
<path d="M133.972 133.62C133.972 133.62 129.013 177.701 154.635 187.344L151.604 195.058C151.604 195.058 130.115 187.481 126.258 164.339C123.916 150.701 127.911 133.62 127.911 133.62C127.911 133.62 131.906 131.554 133.972 133.62Z" fill="#F58A28"/>
<path d="M132.732 129.074C132.732 129.074 178.603 122.324 180.67 159.104C182.323 186.517 130.114 181.145 124.053 168.196C117.992 155.247 124.467 147.395 130.39 146.431C136.313 145.467 164.828 156.211 163.037 148.911C161.384 141.61 137.002 145.605 137.002 145.605L132.732 129.074Z" fill="#FCB82E"/>
<path d="M126.808 169.712C126.808 169.712 126.671 169.712 126.808 169.712C126.257 169.574 115.375 167.232 116.477 162.135C116.615 161.171 117.166 160.482 117.992 160.069C118.543 159.793 119.094 159.656 119.783 159.656C117.028 158.003 114.686 155.936 114.962 153.457C115.1 152.63 115.513 152.079 116.202 151.666C117.992 150.702 121.298 151.528 124.329 152.492C122.263 150.977 120.472 149.324 120.196 147.947C120.059 147.396 120.334 146.845 120.747 146.431C123.64 143.676 133.145 150.288 134.109 150.977C134.385 151.115 134.385 151.528 134.247 151.666C134.109 151.941 133.696 151.941 133.558 151.804C129.839 149.186 123.227 145.467 121.436 147.12C121.298 147.258 121.161 147.533 121.161 147.809C121.436 149.737 126.809 153.181 130.115 154.972C130.39 155.11 130.528 155.385 130.39 155.661C130.252 155.936 129.977 156.074 129.701 155.936C126.946 154.559 119.232 151.39 116.753 152.63C116.339 152.906 116.064 153.181 116.064 153.594C115.651 156.074 119.645 158.554 123.089 160.207C125.156 160.758 126.809 161.722 126.946 161.722C127.222 161.86 127.222 162.135 127.222 162.411C127.084 162.686 126.809 162.824 126.533 162.686C126.395 162.686 124.742 162.135 122.676 161.171C121.023 160.758 119.37 160.482 118.406 160.895C117.855 161.171 117.579 161.584 117.441 162.273C116.753 165.579 124.053 167.921 126.946 168.61C127.222 168.61 127.36 168.885 127.36 169.161C127.222 169.574 127.084 169.712 126.808 169.712Z" fill="#26192A"/>
<path d="M68.1257 131.555C68.1257 131.555 40.5752 153.733 53.9372 194.095C53.9372 194.095 54.6259 155.524 68.1257 131.555Z" fill="#F58A28"/>
<path d="M3.79468 123.702C3.51918 123.702 3.38148 123.564 3.24372 123.288C2.96822 121.911 0.350917 109.926 2.55496 107.585C2.96822 107.171 3.38148 107.034 3.93249 107.171C5.72327 107.447 7.10075 109.789 7.92727 112.268C7.92727 109.789 8.20277 107.447 9.30479 106.62C9.5803 106.345 10.1313 106.069 10.9578 106.483C13.1619 107.309 14.6771 110.891 15.5037 113.921C15.6414 110.753 15.9169 107.171 17.2944 106.345C17.5699 106.207 18.121 106.069 18.8098 106.483C22.1158 108.549 21.9781 120.947 21.9781 122.324C21.9781 122.6 21.7025 122.875 21.427 122.875C21.1515 122.875 20.8761 122.6 20.8761 122.324C20.8761 118.605 20.4628 108.824 18.121 107.309C17.8455 107.171 17.7078 107.171 17.7078 107.171C16.468 107.86 16.3302 114.197 16.468 118.467C16.468 118.743 16.3302 119.018 16.0547 119.018C15.7792 119.018 15.5037 118.88 15.5037 118.605C15.0904 115.85 13.1619 108.549 10.5446 107.447C10.1313 107.309 9.99359 107.447 9.85584 107.447C8.47831 108.549 8.75378 114.886 9.30479 118.605C9.30479 118.88 9.16706 119.156 8.89155 119.156C8.61605 119.156 8.34051 119.018 8.34051 118.743C7.92725 115.988 6.41199 108.687 3.79468 108.273C3.65693 108.273 3.5192 108.273 3.38144 108.411C2.00392 109.926 3.24371 118.192 4.34573 123.151C4.34573 123.426 4.07019 123.702 3.79468 123.702Z" fill="#26192A"/>
<path d="M78.733 303.194C78.182 303.194 77.631 303.056 77.08 302.919C76.1157 302.505 75.7025 301.954 75.5647 301.403C73.6362 302.505 71.5698 303.194 69.6413 302.781C68.5392 302.505 68.1261 301.954 67.9883 301.403C67.8506 300.577 68.4015 299.475 69.228 298.373C66.8862 299.613 64.5445 300.439 63.3047 299.475C62.4782 298.924 62.3404 298.235 62.3404 297.684C62.4781 295.48 66.1975 293 66.6108 292.725C66.8863 292.587 67.1618 292.587 67.2995 292.863C67.4373 293.138 67.4372 293.414 67.1617 293.551C66.1975 294.24 63.4424 296.306 63.4424 297.684C63.4424 297.959 63.4424 298.235 63.9934 298.648C65.371 299.75 69.5036 297.271 72.8097 294.791C73.9117 293.827 75.0136 293 75.4269 292.725C75.7024 292.587 75.9779 292.587 76.1157 292.863C76.2534 293.138 76.2534 293.414 76.1157 293.551C75.8402 293.827 74.8759 294.653 73.6361 295.48C71.1566 297.546 68.9526 300.026 69.0903 301.128C69.0903 301.403 69.3658 301.541 69.9168 301.679C71.7076 302.092 73.9116 301.128 75.8401 299.888C76.8044 297.684 80.7992 295.618 81.3503 295.342C81.6258 295.204 81.9013 295.342 82.039 295.48C82.1768 295.618 82.1768 295.893 82.039 296.169C81.9013 296.306 79.5595 298.786 76.6667 300.715C76.6667 300.852 76.6667 300.852 76.6667 300.99C76.6667 301.128 76.6667 301.541 77.631 301.954C80.7993 303.47 86.9982 297.822 89.0645 295.618C89.2022 295.342 89.6155 295.342 89.7532 295.618C90.0287 295.755 90.0287 296.169 89.7532 296.306C89.34 296.582 83.2788 303.194 78.733 303.194Z" fill="#26192A"/>
<path d="M123.778 303.194C123.227 303.194 122.676 303.056 122.125 302.919C121.161 302.505 120.747 301.954 120.609 301.403C118.681 302.505 116.615 303.194 114.686 302.781C113.584 302.505 113.171 301.954 113.033 301.403C112.895 300.577 113.446 299.475 114.273 298.373C111.931 299.613 109.589 300.439 108.35 299.475C107.523 298.924 107.385 298.235 107.385 297.684C107.523 295.48 111.242 293 111.656 292.725C111.931 292.587 112.207 292.587 112.344 292.863C112.482 293.138 112.482 293.414 112.207 293.551C111.242 294.24 108.487 296.306 108.487 297.684C108.487 297.959 108.487 298.235 109.038 298.648C110.416 299.75 114.548 297.271 117.854 294.791C118.956 293.827 120.059 293 120.472 292.725C120.747 292.587 121.023 292.587 121.161 292.863C121.298 293.138 121.298 293.414 121.161 293.551C120.885 293.827 119.921 294.653 118.681 295.48C116.201 297.546 113.997 300.026 114.135 301.128C114.135 301.403 114.411 301.541 114.962 301.679C116.752 302.092 118.956 301.128 120.885 299.888C121.849 297.684 125.844 295.618 126.395 295.342C126.671 295.204 126.946 295.342 127.084 295.48C127.222 295.618 127.222 295.893 127.084 296.169C126.946 296.306 124.604 298.786 121.712 300.715C121.712 300.852 121.712 300.852 121.712 300.99C121.712 301.128 121.712 301.541 122.676 301.954C125.982 303.47 132.043 297.822 134.109 295.618C134.247 295.342 134.66 295.342 134.798 295.618C135.074 295.755 135.074 296.169 134.798 296.306C134.523 296.582 128.324 303.194 123.778 303.194Z" fill="#26192A"/>
<path d="M172.818 207.455C172.818 207.455 168.823 194.368 177.777 194.781C186.731 195.195 188.109 203.735 182.323 201.394C176.537 199.19 185.354 190.373 191.001 195.608C196.787 200.843 198.578 208.143 191.69 207.868C184.803 207.592 188.522 203.184 193.481 206.077C198.44 208.97 197.2 215.031 190.175 217.511C183.149 219.99 181.221 212.965 185.078 213.791C188.935 214.756 192.379 221.092 184.527 221.781C176.675 222.47 172.956 214.205 177.502 213.929C182.047 213.791 181.083 219.852 175.022 220.403C168.961 220.954 165.104 204.149 170.476 202.771C175.986 201.669 177.226 209.383 172.818 207.455Z" fill="#FFFAF0"/>
<path d="M183.563 222.469C181.359 222.469 179.293 221.78 177.64 220.541C176.813 220.816 175.987 221.092 175.16 221.229C171.303 221.643 168.272 215.857 167.584 210.347C167.033 206.077 168.135 203.184 170.476 202.633C170.752 202.495 171.165 202.495 171.441 202.495C171.303 199.602 171.854 197.398 173.094 196.021C174.196 194.781 175.711 194.23 177.777 194.368C179.43 194.505 180.946 194.781 182.185 195.332C183.563 194.23 185.354 193.541 187.007 193.541C188.66 193.541 190.175 194.092 191.415 195.332C194.859 198.362 196.925 202.22 196.649 204.975C196.649 205.939 196.236 206.765 195.685 207.454C196.787 208.832 197.201 210.485 196.787 212.138C196.236 214.755 193.757 216.959 190.175 218.199C189.9 218.337 189.762 218.337 189.624 218.337C189.762 219.163 189.486 219.852 189.073 220.541C188.247 221.643 186.731 222.331 184.527 222.469C184.114 222.469 183.838 222.469 183.563 222.469ZM178.604 219.852C180.257 220.954 182.185 221.505 184.39 221.367C186.318 221.229 187.696 220.678 188.247 219.852C188.522 219.439 188.66 219.025 188.66 218.474C186.18 218.888 183.976 218.061 183.012 216.408C182.599 215.582 182.461 214.755 182.874 214.066C183.287 213.378 184.114 213.102 185.216 213.378C187.007 213.791 188.798 215.444 189.486 217.235C189.624 217.235 189.9 217.097 190.037 217.097C193.206 215.995 195.41 214.066 195.961 211.724C196.236 210.347 195.961 208.969 194.996 207.867C194.308 208.281 193.343 208.418 192.241 208.418H191.828C187.833 208.281 187.558 206.765 187.558 206.352C187.558 205.388 188.798 204.561 190.451 204.561C191.277 204.561 192.517 204.699 193.894 205.526C194.308 205.801 194.721 206.077 195.134 206.352C195.547 205.939 195.823 205.388 195.823 204.561C195.961 202.082 194.032 198.638 190.864 195.745C189.762 194.781 188.522 194.23 187.145 194.23C185.905 194.23 184.527 194.643 183.425 195.47C185.767 196.985 186.731 199.051 186.456 200.429C186.18 201.944 184.527 202.357 182.323 201.531C180.808 200.98 180.257 199.878 180.119 199.189C179.981 198.087 180.395 196.709 181.497 195.607C180.395 195.194 179.155 194.919 177.915 194.919C176.262 194.781 174.885 195.332 174.058 196.158C172.681 197.536 172.543 200.016 172.681 201.944C175.022 202.22 176.262 204.424 176.262 205.939C176.262 207.592 174.747 208.418 172.818 207.592C172.681 207.592 172.543 207.454 172.543 207.316C172.543 207.179 171.992 205.388 171.716 203.046C171.441 203.046 171.165 203.046 170.89 203.184C168.823 203.735 168.41 206.903 168.823 209.796C169.374 214.755 172.13 220.127 175.16 219.714C175.849 219.714 176.4 219.576 176.951 219.301C175.573 217.786 174.885 215.995 175.298 214.755C175.436 214.204 175.987 213.24 177.64 213.24H177.915C179.568 213.24 180.67 214.066 181.083 215.306C181.083 217.097 180.257 218.75 178.604 219.852ZM177.64 214.617H177.502C176.675 214.617 176.262 214.893 176.124 215.444C175.849 216.27 176.4 217.923 177.777 219.301C179.43 218.337 179.981 216.959 179.844 215.995C179.568 215.031 178.742 214.617 177.64 214.617ZM184.252 214.342C183.976 214.342 183.701 214.48 183.563 214.617C183.425 214.893 183.425 215.444 183.701 215.857C183.976 216.27 184.803 217.51 187.145 217.51C187.558 217.51 187.833 217.51 188.247 217.372C187.696 215.995 186.18 214.755 184.803 214.342C184.665 214.342 184.389 214.342 184.252 214.342ZM190.175 205.663C188.935 205.663 188.384 206.077 188.384 206.352C188.384 206.628 189.211 207.316 191.69 207.316H191.966C192.792 207.316 193.481 207.179 194.032 207.041C193.757 206.903 193.481 206.628 193.206 206.49C191.828 205.801 190.864 205.663 190.175 205.663ZM173.231 207.041C173.507 207.179 173.92 207.179 174.058 207.179C174.747 207.179 175.022 206.628 175.022 206.214C175.022 205.112 174.196 203.735 172.543 203.322C172.68 205.112 173.094 206.628 173.231 207.041ZM182.323 196.434C181.359 197.398 180.808 198.5 180.946 199.327C181.083 200.016 181.634 200.567 182.461 200.842C183.976 201.393 184.94 201.255 185.216 200.429C185.354 199.465 184.39 197.674 182.323 196.434Z" fill="#26192A"/>
<path d="M42.917 27.1356C42.917 27.1356 45.8097 7.0237 64.6819 7.71247C76.1153 8.12573 72.3961 25.2071 67.2992 20.799C62.2024 16.3909 76.9419 -8.1291 93.1967 3.99314C108.212 15.1511 100.084 22.3143 96.365 20.9367C92.6457 19.5592 99.2578 -0.828203 112.758 1.7891C131.905 5.64618 130.528 25.2071 122.125 26.9979C113.722 28.7886 126.946 5.23292 141.135 11.9828C155.323 18.7327 154.083 33.61 146.645 34.8498C139.206 36.0895 151.328 11.5695 165.792 23.003C180.256 34.4365 178.879 57.3035 165.792 59.0942C152.706 60.885 155.599 47.9363 169.649 54.9617C183.838 61.987 177.777 85.405 162.624 85.6805C147.471 85.956 154.083 73.5583 162.9 80.9969C171.716 88.4356 175.711 109.512 157.527 112.405C139.344 115.297 141.961 97.9405 151.742 106.068C161.522 114.195 157.527 131.552 135.625 135.685C113.722 139.68 125.844 115.297 129.563 122.323C133.283 129.348 121.712 139.817 107.248 138.991C92.7835 138.164 96.0895 119.705 100.773 122.323C105.594 124.94 109.176 144.088 88.5131 138.991C67.8502 133.894 63.4421 117.501 70.4675 119.568C77.6306 121.634 80.7989 139.266 62.0645 135.685C43.3302 132.103 38.0956 104.139 48.2893 104.553C58.483 104.966 52.0086 126.18 40.1619 121.772C28.3152 117.364 22.254 98.216 34.6518 92.1549C47.0495 86.0938 32.31 110.201 21.8408 97.8027C11.3716 85.405 23.4938 62.6758 31.3457 69.0124C39.0598 75.4868 20.1877 79.0684 17.8459 67.6349C15.5041 56.2014 22.1162 38.2936 32.4477 41.0486C42.7791 43.8037 41.1262 48.3495 36.3048 50.0026C28.5907 52.8954 26.3866 29.8907 33.963 22.8653C42.917 14.7379 54.6259 18.7327 52.4218 26.8601C50.2178 34.9875 40.9884 30.9927 42.917 27.1356Z" fill="#FFFAF0"/>
<path d="M94.9879 140.37C93.0593 140.37 90.9931 140.095 88.6513 139.544C83.4167 138.304 79.0086 136.237 75.2893 133.482C74.0495 134.998 71.5699 136.788 67.0241 136.788C65.6466 136.788 63.9935 136.651 62.3405 136.375C55.3151 134.998 49.3917 130.176 45.8101 122.875C44.0193 123.289 42.2286 123.151 40.4378 122.462C32.7237 119.569 26.938 110.064 27.9023 101.937C25.6982 101.524 23.7697 100.284 21.9789 98.2177C15.9178 91.0546 17.0199 80.4476 21.1524 73.4222C19.3617 72.0447 18.2596 70.1161 17.7086 67.7744C16.1933 60.4735 18.1218 51.1063 22.3922 45.3207C24.4585 42.5656 26.8003 40.7748 29.4176 40.3616C28.8666 34.3004 30.1064 26.3108 34.2389 22.5914C37.545 19.5609 41.402 17.9079 45.1214 17.9079C45.3969 17.9079 45.5346 17.9079 45.8101 17.9079C48.7029 12.6732 54.3508 6.74988 64.9578 7.02539C66.8863 7.02539 68.4016 7.5764 69.7791 8.54067C73.6362 3.16831 79.0085 0 84.3809 0C87.687 0 90.8553 1.10202 93.8859 3.44382C95.9522 4.9591 97.6052 6.47438 98.9827 7.98966C100.911 5.09685 104.906 0.964268 110.692 0.964268C111.518 0.964268 112.345 1.10202 113.171 1.23977C120.748 2.75505 126.12 6.88764 128.049 12.811C132.457 9.9182 137.278 9.36719 141.686 11.4335C146.507 13.7753 150.089 17.2191 151.88 21.3517C156.563 18.4589 161.798 18.8721 166.482 22.5914C172.68 27.5505 176.675 35.1269 177.088 42.8411C177.364 48.2135 175.849 53.0348 172.956 56.0654C177.364 59.5092 179.43 65.2948 178.328 71.4937C177.226 77.968 173.094 83.3404 167.584 85.2689C170.752 90.5035 172.68 98.3555 169.925 104.554C167.859 109.1 163.864 111.855 158.079 112.819C157.803 112.819 157.665 112.957 157.39 112.957C158.354 116.814 157.803 120.947 155.461 124.528C152.018 130.314 145.13 134.309 136.176 135.962C134.523 136.237 133.008 136.375 131.63 136.375C128.737 136.375 126.533 135.686 125.018 134.447C120.748 137.477 115.1 139.268 109.314 139.268C108.763 139.268 108.212 139.268 107.661 139.268C105.733 139.13 103.942 138.717 102.427 137.89C100.36 139.681 98.0184 140.37 94.9879 140.37ZM75.8402 132.656C79.4218 135.273 83.8299 137.339 88.9267 138.579C94.4368 139.957 98.7072 139.681 101.324 137.753C96.6409 134.722 96.0899 128.799 96.9165 125.355C97.4675 123.013 98.7072 121.636 100.222 121.636C100.636 121.636 101.049 121.773 101.462 121.911C103.391 122.875 104.906 126.044 105.319 129.35C105.595 131.278 105.595 134.722 103.115 137.339C104.355 137.89 105.87 138.304 107.661 138.441C108.212 138.441 108.763 138.441 109.314 138.441C114.687 138.441 120.059 136.788 124.191 133.896C122.125 131.416 122.538 127.697 123.64 125.079C124.605 122.738 126.395 120.534 128.186 120.534C128.875 120.534 129.702 120.809 130.39 122.049C132.319 125.63 130.528 130.314 125.845 134.033C127.222 135.135 129.151 135.549 131.63 135.549C133.008 135.549 134.385 135.411 136.038 135.135C144.717 133.482 151.329 129.625 154.635 124.115C156.701 120.671 157.39 116.677 156.288 113.095C155.461 113.233 154.773 113.233 154.084 113.233C147.747 113.233 145.405 110.34 144.717 109.238C143.89 107.86 143.752 106.207 144.441 104.968C144.992 104.003 146.094 103.315 147.334 103.315C148.849 103.315 150.64 104.141 152.431 105.656C154.497 107.447 156.012 109.513 156.977 111.993C157.252 111.993 157.528 111.855 157.803 111.855C163.175 111.029 167.033 108.411 168.961 104.141C171.578 98.2177 169.788 90.6413 166.619 85.5444C165.517 85.82 164.278 86.0955 163.038 86.0955H162.487C156.563 86.0955 154.635 84.1669 153.946 83.0649C153.395 82.1006 153.395 80.9986 153.946 80.0343C154.635 78.7946 156.15 78.1058 157.803 78.1058C159.181 78.1058 161.247 78.5191 163.589 80.5854C164.829 81.6874 165.931 82.9272 167.033 84.4424C172.267 82.6516 176.262 77.5548 177.226 71.3559C178.191 65.4326 176.262 60.0602 172.129 56.7541C170.476 58.2694 168.41 59.2337 166.206 59.5092C161.936 60.0602 158.767 59.2337 157.528 57.1674C156.977 56.2031 156.977 55.2388 157.528 54.4123C158.354 53.0348 160.145 52.2083 162.487 52.2083C164.691 52.2083 167.446 52.897 170.339 54.4123C171.027 54.6878 171.578 55.1011 172.129 55.5144C174.884 52.6215 176.262 48.0757 175.986 42.9789C175.573 35.4025 171.854 28.1016 165.793 23.418C161.385 19.8364 156.563 19.5609 152.155 22.3159C153.257 25.7598 153.12 29.3413 151.604 31.8209C150.502 33.6117 148.987 34.8514 147.058 35.2647C146.783 35.2647 146.645 35.2647 146.37 35.2647C145.268 35.2647 144.579 34.7137 144.303 33.7494C143.477 31.1321 146.37 25.2087 150.915 21.9027C149.4 17.9079 145.956 14.464 141.273 12.26C137.14 10.3315 132.594 10.8825 128.462 13.7753C129.426 17.3568 129.013 21.0762 127.36 23.8312C126.258 25.7598 124.605 26.9995 122.676 27.4128C121.023 27.8261 119.921 27.275 119.508 26.0353C118.681 23.418 121.85 17.2191 127.222 13.362C125.431 7.71415 120.334 3.58157 113.033 2.20404C112.207 2.06629 111.518 1.92854 110.692 1.92854C105.182 1.92854 101.462 6.06112 99.6715 8.67842C103.529 13.362 102.978 16.6681 102.151 18.3211C101.325 20.1119 99.396 21.4894 97.6052 21.4894C97.192 21.4894 96.7786 21.4894 96.5031 21.3517C96.0899 21.2139 95.6766 20.9384 95.4011 20.1119C94.5746 17.7701 95.9521 12.9488 98.4317 8.95393C97.0542 7.43865 95.4012 5.92337 93.1971 4.27034C90.3043 2.06629 87.2737 1.10202 84.2432 1.10202C79.2841 1.10202 74.1872 4.13258 70.4679 9.36718C73.0852 11.9845 73.3607 16.2548 72.2587 19.1476C71.5699 20.9384 70.4679 22.0404 69.0904 22.0404C68.4016 22.0404 67.7128 21.7649 67.1618 21.2139C64.9578 19.2854 65.7843 14.464 69.0904 9.50494C67.9884 8.67842 66.6108 8.26516 64.82 8.12741C55.0395 7.71415 49.6672 13.2243 46.7744 18.0456C49.254 18.4589 51.3203 19.5609 52.56 21.2139C53.6621 22.867 53.9375 24.7955 53.3865 26.9995C52.1468 31.5454 48.8407 32.0964 47.4632 32.0964C45.5346 32.0964 43.6061 31.1321 42.7796 29.7546C42.2285 28.7903 42.0908 27.826 42.6418 26.8618C42.7796 26.3108 43.3306 22.867 45.2592 18.8721H45.1214C41.5398 18.8721 37.9583 20.3874 34.9277 23.2802C31.0706 26.8618 29.9686 34.4382 30.5196 40.2238C31.3461 40.2238 32.3103 40.2238 33.1369 40.4993C39.6112 42.1523 41.1266 44.4941 41.1266 46.1472C41.2643 47.938 39.6113 49.591 36.994 50.5552C36.443 50.693 36.0297 50.8308 35.4787 50.8308C32.4481 50.8308 30.2441 47.2492 29.4176 41.4636C27.0758 41.8768 25.0095 43.3921 23.0809 46.0094C19.0861 51.3818 17.1575 60.749 18.6728 67.6366C19.0861 69.7029 20.0504 71.3559 21.5657 72.5957C23.632 69.4274 26.2493 67.4988 28.7288 67.4988C29.8309 67.4988 30.9328 67.9121 32.0349 68.7386C34.2389 70.5294 34.2389 72.0447 33.9634 72.8712C33.4124 74.5242 30.9329 75.6263 28.0401 75.6263C25.836 75.6263 23.7697 75.0752 21.9789 73.9732C17.9841 80.7231 17.0198 90.7791 22.6677 97.5289C24.183 99.4575 25.9737 100.56 27.9023 100.835C28.591 96.7024 31.0706 93.6719 34.7899 91.7433C36.1674 91.0546 37.4072 90.6413 38.2337 90.6413C39.4735 90.6413 40.3 91.3301 40.3 92.5698C40.3 95.6004 35.2032 101.937 29.1421 101.937C29.0043 101.937 28.8666 101.937 28.7288 101.937C27.9023 109.651 33.2746 118.743 40.5755 121.36C42.0908 121.911 43.7439 122.049 45.2592 121.773C42.6419 115.85 42.2286 109.513 44.2949 106.345C45.2591 104.83 46.6366 104.141 48.2897 104.141H48.5652C51.5957 104.279 53.5243 106.207 53.9376 109.376C54.4886 114.059 51.5958 120.534 46.6367 122.462C50.0805 129.35 55.7283 134.033 62.3405 135.273C67.9883 136.375 72.2587 135.549 74.325 132.931C68.6771 128.523 66.3353 123.289 67.1618 120.671C67.5751 119.294 68.9526 118.743 70.7434 119.156C72.9475 119.845 75.0137 121.911 75.978 124.804C77.2178 127.559 77.08 130.452 75.8402 132.656ZM100.085 122.6C99.1205 122.6 98.2939 123.702 97.7429 125.631C96.9164 128.799 97.4674 134.309 102.013 137.064C104.355 134.722 104.355 131.416 104.08 129.625C103.666 126.595 102.289 123.702 100.774 122.875C100.498 122.738 100.36 122.6 100.085 122.6ZM128.049 121.636C126.947 121.636 125.431 123.289 124.467 125.631C123.503 128.11 123.089 131.278 124.88 133.482C129.288 130.039 130.941 125.906 129.288 122.738C129.013 121.911 128.462 121.636 128.049 121.636ZM69.6413 119.983C68.9526 119.983 68.4016 120.258 68.2638 120.947C67.575 122.875 69.3659 127.559 75.0137 132.105C76.1158 130.176 76.1158 127.697 75.2893 125.217C74.325 122.738 72.672 120.809 70.7434 120.258C70.1924 119.983 69.9168 119.983 69.6413 119.983ZM48.2897 105.105C46.9121 105.105 45.8101 105.656 45.1214 106.896C43.1928 109.927 43.7438 115.85 46.2234 121.498C50.7692 119.707 53.5243 113.922 52.9733 109.513C52.8355 107.998 51.8713 105.243 48.5652 105.105H48.2897ZM147.196 104.554C146.232 104.554 145.543 104.968 145.13 105.656C144.579 106.483 144.717 107.723 145.405 108.825C145.956 109.927 148.023 112.406 153.808 112.406C154.359 112.406 155.048 112.406 155.737 112.268C154.91 110.064 153.533 108.136 151.604 106.621C149.676 104.83 148.16 104.554 147.196 104.554ZM28.8666 100.973C29.0043 100.973 29.0043 100.973 29.1421 100.973C34.3767 100.973 39.198 95.3249 39.198 92.7076C39.198 92.1566 38.9225 91.8811 38.2337 91.8811C37.6827 91.8811 36.8562 92.0188 35.2031 92.8453C31.7593 94.3606 29.5553 97.2534 28.8666 100.973ZM157.665 79.3456C156.288 79.3456 155.186 79.8966 154.635 80.8609C154.222 81.5496 154.222 82.2384 154.635 82.9272C155.048 83.7537 156.701 85.4067 162.349 85.4067H162.9C163.864 85.4067 164.966 85.269 165.931 84.9934C164.966 83.6159 164.002 82.5139 162.9 81.5496C160.558 79.6211 158.767 79.3456 157.665 79.3456ZM22.3922 73.0089C23.9074 73.9732 25.836 74.5242 27.9023 74.5242C30.3818 74.5242 32.4482 73.6977 32.8614 72.4579C33.2747 71.3559 32.1726 70.2539 31.3461 69.4274C30.5196 68.7386 29.6931 68.4631 28.7288 68.4631C26.6625 68.4631 24.3207 70.1161 22.3922 73.0089ZM162.349 53.4481C160.42 53.4481 158.905 53.9991 158.354 55.1011C158.079 55.6521 158.079 56.3409 158.354 56.8919C159.318 58.5449 162.211 59.2337 165.931 58.6827C167.859 58.4072 169.65 57.5806 171.165 56.3409C170.752 56.0654 170.201 55.7899 169.65 55.5144C166.895 54.1368 164.415 53.4481 162.349 53.4481ZM30.3818 41.3258C31.0706 46.5604 32.9992 49.8665 35.341 49.8665C35.7542 49.8665 36.0297 49.7287 36.443 49.591C38.647 48.7645 39.8868 47.5247 39.8868 46.1472C39.749 44.3564 37.1317 42.7034 32.5859 41.4636C31.8971 41.3258 31.2083 41.3258 30.3818 41.3258ZM151.191 23.1425C146.921 26.4485 144.579 31.6831 145.268 33.7494C145.405 34.3004 145.819 34.5759 146.37 34.5759C146.507 34.5759 146.645 34.5759 146.783 34.5759C148.436 34.3004 149.814 33.3362 150.64 31.6831C151.88 29.3413 152.018 26.173 151.191 23.1425ZM46.2234 19.0099C44.0193 23.1425 43.4683 27.1373 43.4683 27.1373V27.275C43.0551 28.1016 43.3306 28.7903 43.6061 29.2036C44.2949 30.3056 45.8101 31.1321 47.4632 31.1321C49.805 31.1321 51.5957 29.6168 52.4222 26.8618C52.9733 25.071 52.6977 23.418 51.7335 22.0404C50.6315 20.3874 48.5652 19.2854 46.2234 19.0099ZM127.36 14.6018C122.401 18.3211 119.783 23.969 120.334 25.8975C120.472 26.173 120.61 26.5863 121.436 26.5863C121.712 26.5863 121.85 26.5863 122.125 26.4485C123.778 26.0353 125.156 25.071 126.12 23.418C127.635 21.0762 128.049 17.7701 127.36 14.6018ZM69.7791 10.1937C67.0241 14.464 66.0598 19.0099 67.7128 20.3874C68.1261 20.8007 68.5393 20.9384 68.9526 20.9384C69.7791 20.9384 70.6057 20.1119 71.1567 18.7344C72.1209 16.2548 71.9832 12.3977 69.7791 10.1937ZM98.8449 9.78045C96.3654 13.7753 95.5389 18.0456 96.0899 19.6986C96.2276 20.1119 96.3654 20.2497 96.6409 20.3874C97.8807 20.8007 100.085 20.1119 101.049 18.0456C101.738 16.6681 102.151 13.913 98.8449 9.78045Z" fill="#26192A"/>
<path d="M90.7177 119.017C128.186 123.838 148.574 60.7474 143.615 36.6406C138.793 12.6717 124.605 56.8903 124.605 56.8903L75.1515 46.9721C75.1515 46.9721 77.3556 20.1103 69.0905 22.0388C60.9631 23.9674 31.7595 111.44 90.7177 119.017Z" fill="#FCB82E"/>
<path d="M99.8085 89.8131L82.1762 86.3693C81.9007 86.3693 81.7629 86.0938 81.7629 85.8183L85.7577 50.5536C85.7577 50.2781 86.0333 50.0026 86.3088 50.1403C86.5843 50.1403 86.8598 50.4158 86.722 50.6914L82.7271 85.5428L99.2575 88.7111L107.523 53.9974C107.523 53.7219 107.798 53.5842 108.211 53.5842C108.487 53.5842 108.625 53.9974 108.625 54.2729L100.222 89.5376C100.222 89.6754 100.084 89.8131 99.8085 89.8131Z" fill="#26192A"/>
<path d="M79.559 84.8546L103.39 88.5739C103.39 88.5739 98.8444 98.4921 89.615 98.0789C81.763 97.6656 79.559 84.8546 79.559 84.8546Z" fill="#26192A"/>
<path d="M116.668 72.2826C116.806 72.2826 117.081 72.2826 117.357 72.5581C119.148 74.0734 119.699 82.3386 119.836 83.9916C119.836 84.2671 119.699 84.5426 119.285 84.5426C119.01 84.5426 118.734 84.4049 118.734 83.9916C118.321 78.3437 117.357 73.3846 116.53 73.2469C115.704 73.3846 114.602 78.8948 114.051 85.0936C114.051 85.3691 113.775 85.6446 113.5 85.5069C113.224 85.5069 112.949 85.2314 113.087 84.9559C113.5 81.2365 114.464 72.4204 116.668 72.2826Z" fill="#26192A"/>
<path d="M76.1685 64.4317C76.444 64.4317 76.7195 64.5695 76.8572 64.7072C78.3725 66.2225 77.546 74.7632 77.2705 76.4162C77.2705 76.6917 76.9949 76.9672 76.7194 76.8294C76.4439 76.8294 76.1684 76.5539 76.3062 76.2784C76.8572 70.7683 76.8572 65.8092 76.1685 65.396C75.2042 65.5337 72.1736 70.9061 69.9696 76.0029C69.8318 76.2784 69.5563 76.4162 69.2808 76.2784C69.0053 76.1407 68.8675 75.8652 69.0053 75.5897C70.2451 72.9724 73.9644 64.5695 76.1685 64.4317Z" fill="#26192A"/>
<path d="M87.9621 109.79C87.8243 109.79 87.8243 109.79 87.6865 109.79C85.6202 109.377 85.3447 102.489 85.3447 99.5967C85.3447 99.3212 85.6203 99.1834 85.8958 99.0457C86.1713 99.0457 86.4467 99.3212 86.4467 99.5967C86.4467 104.28 87.1355 108.688 87.8243 108.826C87.962 108.826 89.0641 108.826 91.8191 100.974C91.9569 100.699 92.2324 100.561 92.5079 100.699C92.7834 100.836 92.9212 101.112 92.7834 101.387C90.4416 108.551 89.0641 109.79 87.9621 109.79Z" fill="#26192A"/>
<path d="M72.947 86.7845L59.8605 84.305C59.585 84.305 59.4473 84.0295 59.4473 83.754C59.4473 83.4785 59.7227 83.3407 59.9982 83.3407L73.0847 85.8203C73.3602 85.8203 73.4981 86.0958 73.4981 86.3713C73.4981 86.6468 73.2225 86.7845 72.947 86.7845Z" fill="#26192A"/>
<path d="M73.222 90.3647L59.0334 87.7474C58.7579 87.7474 58.6201 87.4719 58.6201 87.1964C58.6201 86.9209 58.8957 86.7831 59.1712 86.7831L73.3597 89.2627C73.6352 89.2627 73.7729 89.5382 73.7729 89.8137C73.6352 90.227 73.4975 90.3647 73.222 90.3647Z" fill="#26192A"/>
<path d="M73.0847 94.7746C72.947 94.7746 72.947 94.7746 73.0847 94.7746L59.8605 91.6063C59.585 91.6063 59.4473 91.193 59.4473 90.9175C59.4473 90.642 59.7228 90.5043 60.136 90.5043L73.2225 93.6726C73.498 93.6726 73.6358 94.0858 73.6358 94.3613C73.498 94.6368 73.2225 94.7746 73.0847 94.7746Z" fill="#26192A"/>
<path d="M118.819 95.3259L105.733 92.8463C105.457 92.8463 105.319 92.5708 105.319 92.2953C105.319 92.0198 105.595 91.8821 105.87 91.8821L118.957 94.3616C119.232 94.3616 119.37 94.6371 119.37 94.9126C119.232 95.1881 119.095 95.3259 118.819 95.3259Z" fill="#26192A"/>
<path d="M119.094 98.9062C118.956 98.9062 118.956 98.9062 119.094 98.9062L104.905 96.2889C104.63 96.2889 104.492 96.0133 104.492 95.7378C104.492 95.4623 104.768 95.3246 105.043 95.3246L119.232 97.8041C119.507 97.8041 119.645 98.0796 119.645 98.3551C119.507 98.6306 119.232 98.9062 119.094 98.9062Z" fill="#26192A"/>
<path d="M118.819 103.316L105.594 100.148C105.319 100.148 105.181 99.7344 105.181 99.4589C105.181 99.1834 105.457 99.0457 105.87 99.0457L118.956 102.214C119.232 102.214 119.37 102.627 119.37 102.903C119.37 103.178 119.094 103.316 118.819 103.316Z" fill="#26192A"/>
<path d="M69.0906 46.0095C68.6774 45.8717 68.5396 45.5962 68.5396 45.3207C70.6059 36.78 67.2998 30.3057 67.2998 30.1679C67.1621 29.8924 67.2998 29.6169 67.5753 29.4792C67.8508 29.3414 68.1263 29.4792 68.264 29.7547C68.4018 30.0302 71.7079 36.6423 69.6416 45.5962C69.5038 45.8717 69.3661 46.0095 69.0906 46.0095Z" fill="#26192A"/>
<path d="M131.079 58.5449C130.803 58.5449 130.528 58.2694 130.528 57.9939C131.492 49.591 138.104 43.9432 138.38 43.6676C138.655 43.5299 138.931 43.5299 139.068 43.6676C139.206 43.9432 139.206 44.2187 139.068 44.3564C139.068 44.3564 132.456 50.0043 131.63 57.9939C131.63 58.2694 131.354 58.5449 131.079 58.5449Z" fill="#26192A"/>
<path d="M144.854 173.156C144.303 173.018 140.722 172.467 139.758 171.503C139.62 171.365 139.482 170.952 139.758 170.814C139.895 170.677 140.309 170.539 140.446 170.814C140.997 171.365 143.477 171.916 144.854 172.192C145.13 172.192 145.268 172.467 145.268 172.743C145.405 173.018 145.13 173.156 144.854 173.156Z" fill="#26192A"/>
<path d="M149.399 170.124C148.848 169.986 145.267 169.435 144.303 168.471C144.165 168.333 144.027 167.92 144.303 167.782C144.578 167.644 144.854 167.507 144.991 167.782C145.542 168.333 148.022 168.884 149.399 169.16C149.675 169.16 149.813 169.435 149.813 169.711C149.813 169.849 149.675 170.124 149.399 170.124Z" fill="#26192A"/>
<path d="M152.155 173.292C151.19 173.292 150.088 173.154 149.537 172.879C149.262 172.741 149.124 172.465 149.262 172.19C149.4 171.914 149.675 171.914 149.951 171.914C150.639 172.328 153.119 172.19 154.634 172.052C154.91 172.052 155.185 172.19 155.185 172.465C155.185 172.741 155.048 173.016 154.772 173.016C154.497 173.154 153.394 173.292 152.155 173.292Z" fill="#26192A"/>
<path d="M156.564 169.161C155.599 169.161 154.497 169.023 153.946 168.747C153.671 168.61 153.533 168.334 153.671 168.059C153.809 167.783 154.084 167.783 154.36 167.783C155.048 168.196 157.528 168.059 159.043 167.921C159.319 167.921 159.594 168.059 159.594 168.334C159.594 168.61 159.456 168.885 159.181 168.885C159.043 169.023 157.803 169.161 156.564 169.161Z" fill="#26192A"/>
<path d="M161.109 173.568C160.144 173.568 159.042 173.431 158.491 173.155C158.216 173.017 158.078 172.742 158.216 172.466C158.354 172.191 158.629 172.191 158.905 172.191C159.593 172.604 162.073 172.466 163.588 172.329C163.864 172.329 164.139 172.466 164.139 172.742C164.139 173.017 164.001 173.293 163.726 173.293C163.45 173.431 162.348 173.568 161.109 173.568Z" fill="#26192A"/>
<path d="M165.104 169.988C164.14 169.988 163.038 169.85 162.487 169.574C162.211 169.437 162.073 169.161 162.211 168.886C162.349 168.61 162.624 168.61 162.9 168.61C163.589 169.023 166.068 168.886 167.584 168.748C167.859 168.748 168.134 168.886 168.134 169.161C168.134 169.437 167.997 169.712 167.721 169.712C167.446 169.85 166.206 169.988 165.104 169.988Z" fill="#26192A"/>
<path d="M168.823 172.052C168.548 172.052 168.272 172.052 168.135 171.914C167.859 171.777 167.721 171.501 167.721 171.226C167.859 170.95 168.135 170.812 168.41 170.812C169.237 171.088 171.579 170.399 172.956 169.986C173.232 169.848 173.507 169.986 173.645 170.261C173.783 170.537 173.645 170.812 173.369 170.95C172.956 171.363 170.477 172.052 168.823 172.052Z" fill="#26192A"/>
<path d="M71.4318 184.174C71.1563 184.174 70.8807 183.898 70.8807 183.623C70.8807 183.21 71.0185 179.628 71.845 178.388C71.9828 178.113 72.396 178.113 72.5338 178.251C72.8093 178.388 72.8093 178.802 72.6715 178.939C72.1205 179.628 71.9828 182.108 71.845 183.485C71.9828 184.036 71.7073 184.174 71.4318 184.174Z" fill="#26192A"/>
<path d="M77.2173 185.828C76.9418 185.828 76.6664 185.553 76.6664 185.277C76.6664 184.864 76.8042 181.282 77.6307 180.043C77.7684 179.767 78.1817 179.767 78.3194 179.905C78.5949 180.043 78.5949 180.456 78.4572 180.594C77.9061 181.282 77.7684 183.762 77.6307 185.139C77.7684 185.553 77.4928 185.828 77.2173 185.828Z" fill="#26192A"/>
<path d="M74.4627 176.598C74.1872 176.598 73.9117 176.322 73.9117 176.047C73.9117 175.634 74.0495 172.052 74.876 170.812C75.0138 170.537 75.427 170.537 75.5648 170.675C75.8403 170.812 75.8403 171.226 75.7025 171.363C75.1515 172.052 75.0138 174.532 74.876 175.909C74.876 176.322 74.7382 176.598 74.4627 176.598Z" fill="#26192A"/>
<path d="M23.7694 169.022C23.6316 169.022 23.6316 169.022 23.4939 169.022C23.0806 168.884 19.9123 167.094 19.3613 165.716C19.2235 165.441 19.3613 165.165 19.6368 165.027C19.9123 164.89 20.1878 165.027 20.3256 165.303C20.7388 165.992 22.8051 167.369 24.0449 168.058C24.3204 168.196 24.3204 168.471 24.1826 168.747C24.0449 168.884 23.9071 169.022 23.7694 169.022Z" fill="#26192A"/>
<path d="M14.954 163.926C14.8162 163.926 14.6784 163.926 14.5407 163.788C14.2651 163.512 12.0612 160.619 11.9234 159.242C11.9234 158.966 12.0611 158.691 12.3366 158.691C12.6121 158.691 12.8877 158.829 12.8877 159.104C12.8877 159.931 14.403 161.997 15.3672 163.099C15.505 163.375 15.5049 163.65 15.2294 163.788C15.2294 163.926 15.0917 163.926 14.954 163.926Z" fill="#26192A"/>
<path d="M21.703 163.376C21.5652 163.376 21.5652 163.376 21.4275 163.238C21.0142 162.963 17.9837 161.034 17.4327 159.794C17.2949 159.519 17.4327 159.243 17.7082 159.106C17.9837 158.968 18.2592 159.106 18.397 159.381C18.6725 160.07 20.7387 161.585 21.9785 162.412C22.254 162.549 22.254 162.825 22.1162 163.1C21.9785 163.376 21.8408 163.376 21.703 163.376Z" fill="#26192A"/>
<path d="M30.5191 164.891C30.1058 164.891 26.5243 164.615 25.2845 163.789C25.009 163.651 25.0089 163.238 25.1467 163.1C25.2844 162.825 25.6977 162.825 25.8354 162.962C26.5242 163.513 29.0037 163.789 30.3813 163.789C30.6568 163.789 30.9323 164.064 30.9323 164.34C30.9323 164.753 30.7946 164.891 30.5191 164.891Z" fill="#26192A"/>
<path d="M39.7494 166.405C39.3362 166.405 35.7545 166.129 34.5148 165.303C34.2393 165.165 34.2393 164.752 34.3771 164.614C34.5148 164.339 34.9281 164.339 35.0658 164.476C35.7546 165.027 38.2341 165.303 39.6116 165.303C39.8871 165.303 40.1627 165.578 40.1627 165.854C40.3004 166.267 40.025 166.405 39.7494 166.405Z" fill="#26192A"/>
<path d="M14.1273 156.487C13.9895 156.487 13.8518 156.487 13.8518 156.35C13.5763 156.074 10.6835 153.87 10.2702 152.493C10.1325 152.217 10.2702 151.942 10.5457 151.804C10.8213 151.666 11.0968 151.804 11.2345 152.079C11.51 152.906 13.4385 154.559 14.5405 155.385C14.816 155.523 14.8161 155.936 14.6783 156.074C14.4028 156.35 14.265 156.487 14.1273 156.487Z" fill="#26192A"/>
<path d="M30.7952 168.885C29.9687 168.885 29.1422 168.747 28.7289 168.609C28.4534 168.471 28.3156 168.196 28.4534 167.92C28.5911 167.645 28.8666 167.507 29.1422 167.645C29.8309 168.058 32.4482 167.783 33.8257 167.645C34.1012 167.645 34.3767 167.783 34.3767 168.058C34.3767 168.334 34.239 168.609 33.9635 168.609C33.688 168.609 32.1727 168.885 30.7952 168.885Z" fill="#26192A"/>
<path d="M73.4976 192.58C73.2221 192.58 73.0843 192.442 72.9466 192.166C72.8088 191.753 71.9823 188.309 72.5333 186.932C72.6711 186.656 72.9466 186.518 73.2221 186.656C73.4976 186.794 73.6354 187.069 73.4976 187.345C73.2221 188.171 73.6353 190.651 74.0486 192.029C74.0486 192.166 73.9109 192.442 73.4976 192.58Z" fill="#26192A"/>
<path d="M78.0448 195.333C77.7693 195.333 77.6315 195.195 77.4938 194.92C77.356 194.507 76.5295 191.063 77.0805 189.685C77.2183 189.41 77.4938 189.272 77.7693 189.41C78.0448 189.548 78.1826 189.823 78.0448 190.099C77.7693 190.925 78.1825 193.405 78.5958 194.782C78.5958 195.058 78.3203 195.333 78.0448 195.333Z" fill="#26192A"/>
<path d="M81.7637 209.522C81.4882 209.522 81.3504 209.384 81.2126 209.109C81.0749 208.696 80.2484 205.252 80.7994 203.874C80.9371 203.599 81.2126 203.461 81.4881 203.599C81.7637 203.736 81.9014 204.012 81.7637 204.287C81.4882 205.114 81.9014 207.593 82.3146 208.971C82.3146 209.109 82.1769 209.384 81.7637 209.522C81.9014 209.522 81.9014 209.522 81.7637 209.522Z" fill="#26192A"/>
<path d="M81.901 223.161C81.7632 223.161 81.6254 223.161 81.6254 223.023C81.3499 222.747 78.3193 220.681 77.9061 219.303C77.7683 219.028 77.9061 218.752 78.1816 218.615C78.4571 218.477 78.7326 218.615 78.8704 218.89C79.1459 219.717 81.0745 221.232 82.1765 222.059C82.452 222.196 82.4519 222.61 82.3142 222.747C82.1764 223.161 82.0387 223.161 81.901 223.161Z" fill="#26192A"/>
<path d="M86.0337 220.542C85.896 220.542 85.7582 220.542 85.7582 220.405C85.4827 220.129 82.5899 217.925 82.1767 216.548C82.0389 216.272 82.3144 215.997 82.5899 215.859C82.8654 215.721 83.1409 215.997 83.2787 216.272C83.5542 217.099 85.3449 218.752 86.447 219.716C86.7225 219.854 86.7225 220.267 86.5848 220.405C86.3093 220.542 86.1715 220.542 86.0337 220.542Z" fill="#26192A"/>
<path d="M73.2234 202.909C72.9479 202.909 72.8101 202.771 72.6723 202.496C72.5346 202.083 71.7081 198.639 72.2591 197.261C72.3969 196.986 72.6724 196.848 72.9479 196.986C73.2234 197.124 73.3611 197.399 73.2234 197.675C72.9479 198.501 73.3611 200.981 73.7743 202.358C73.7743 202.496 73.6366 202.771 73.2234 202.909C73.3611 202.909 73.2234 202.909 73.2234 202.909Z" fill="#26192A"/>
<path d="M78.319 203.875C78.0435 203.875 77.9057 203.737 77.768 203.461C77.6302 203.048 76.8037 199.604 77.3547 198.227C77.4925 197.951 77.768 197.813 78.0435 197.951C78.319 198.089 78.4568 198.364 78.319 198.64C78.0435 199.466 78.4567 201.946 78.87 203.324C78.87 203.461 78.5945 203.737 78.319 203.875Z" fill="#26192A"/>
<path d="M79.4217 216.41C79.284 216.41 79.0085 216.272 79.0085 216.134C78.8707 215.721 77.4931 212.415 77.9064 211.037C77.9064 210.762 78.1819 210.624 78.4574 210.624C78.7329 210.624 78.8707 210.899 78.8707 211.175C78.7329 212.001 79.4217 214.343 79.9727 215.721C80.1104 215.996 79.9727 216.272 79.6972 216.41C79.5595 216.41 79.5595 216.41 79.4217 216.41Z" fill="#26192A"/>
<path d="M74.8757 211.863C74.7379 211.863 74.4624 211.726 74.4624 211.588C74.3246 211.175 72.6716 208.006 72.9471 206.491C72.9471 206.216 73.2226 206.078 73.4982 206.078C73.7737 206.078 73.9114 206.353 73.9114 206.629C73.7736 207.455 74.7379 209.797 75.2889 211.037C75.4267 211.312 75.2889 211.588 75.0134 211.726C75.0134 211.864 74.8757 211.863 74.8757 211.863Z" fill="#26192A"/>
</svg>
