<svg width="92" height="140" viewBox="0 0 92 140" fill="none" xmlns="http://www.w3.org/2000/svg">
<path d="M90.0341 44.0116C89.9648 44.0116 89.8955 43.9423 89.8262 43.873C89.7569 43.7344 89.7569 43.5958 89.8955 43.5264C90.2421 43.2492 91.4203 39.5757 91.4203 37.5657C91.4203 37.1499 91.351 36.9419 91.351 36.8726C90.7966 37.0806 88.9252 38.6747 87.2617 40.1995C87.1924 40.2689 87.0538 40.2689 86.9845 40.2689C86.9152 40.1996 86.8459 40.1302 86.8459 39.9916C87.0538 37.2885 87.1231 34.3775 86.9845 33.5457C86.43 34.0309 84.7665 36.1795 83.3803 38.1895C83.311 38.3282 83.1031 38.3282 83.0338 38.2588C82.8952 38.1895 82.8952 37.9816 82.9645 37.9123C86.4993 32.9219 86.9845 32.9913 87.1924 32.9913C87.4697 33.0606 87.8855 33.1299 87.4697 39.4371C91.2124 36.0409 91.559 36.3182 91.6976 36.4568C91.9748 36.6647 92.0441 37.1499 91.9748 37.9816C91.8362 39.9223 90.7966 43.5958 90.1728 44.0116C90.1035 44.0116 90.0341 44.0116 90.0341 44.0116Z" fill="#26192A"/>
<path d="M6.51511 106.114C6.37649 106.114 6.23787 106.114 6.09925 106.045C5.19821 105.837 4.71304 104.936 4.78235 103.619C4.85166 102.51 5.33683 101.679 6.16856 101.124C6.58442 100.847 7.06959 100.639 7.62408 100.5C6.86166 99.5299 5.61407 98.4209 3.53476 97.2426C3.39614 97.1733 3.39614 97.0347 3.46545 96.8961C3.53476 96.7575 3.67338 96.7575 3.812 96.8268C6.09925 98.0744 7.41615 99.322 8.17856 100.431C11.3668 99.8764 15.7334 101.263 15.9413 101.332C16.08 101.401 16.1493 101.54 16.08 101.679C16.0106 101.817 15.872 101.886 15.7334 101.817C15.6641 101.817 11.5055 100.5 8.4558 100.847C9.35684 102.372 9.0796 103.55 8.87167 104.174C8.52511 105.352 7.48546 106.114 6.51511 106.114ZM7.97063 100.985C7.41615 101.124 6.93097 101.263 6.51511 101.609C5.82201 102.094 5.40614 102.787 5.33683 103.689C5.26752 104.728 5.61407 105.421 6.23787 105.56C7.00028 105.699 8.03994 105.144 8.4558 104.035C8.59443 103.619 8.87167 102.51 7.97063 100.985Z" fill="#26192A"/>
<path d="M33.8237 40.061C33.8237 40.061 21.4171 31.12 11.9215 42.8335C5.6836 50.4576 -4.64367 76.7263 9.77291 80.0532C24.1895 83.3108 38.8833 51.1507 33.8237 40.061Z" fill="#6AB0A0"/>
<path d="M11.9212 95.9264C11.9212 95.9264 8.24773 25.507 48.5864 16.0114C60.6465 13.1697 72.4985 33.8935 68.7558 35.2797C65.0823 36.6659 59.3296 38.6066 59.3296 38.6066C59.3296 38.6066 74.2313 87.8171 71.3896 104.798C68.6865 121.779 10.3964 131.344 11.9212 95.9264Z" fill="#F4DAC6"/>
<path d="M44.636 18.8518C44.636 18.8518 40.6159 2.49453 24.5359 7.55419C24.5359 7.55419 19.9614 25.4363 41.4477 21.0004L44.636 18.8518Z" fill="#F4DAC6"/>
<path d="M40.1307 17.8815C40.0613 17.8815 39.992 17.8122 39.9227 17.7429C34.4472 10.1881 29.6648 11.3664 29.5955 11.3664C29.4568 11.4357 29.3182 11.2971 29.2489 11.1584C29.1796 11.0198 29.3182 10.8812 29.4568 10.8119C29.6648 10.7426 34.6551 9.56428 40.3386 17.3271C40.4079 17.4657 40.4079 17.6043 40.2693 17.6736C40.2693 17.8815 40.2 17.8815 40.1307 17.8815Z" fill="#26192A"/>
<path d="M48.7944 0C48.7944 0 42.9031 8.24794 48.3786 14.3473L52.6065 13.5849C52.6065 13.6542 59.1217 5.33691 48.7944 0Z" fill="#F4DAC6"/>
<path d="M67.7856 102.579C67.7856 102.579 79.6377 129.541 78.8059 131.274C77.9742 133.076 72.568 135.571 70.4194 135.432C68.2708 135.363 56.9731 111.798 56.9731 111.798C56.9731 111.798 64.8052 101.955 67.7856 102.579Z" fill="#F4DAC6"/>
<path d="M35.6948 106.46C35.6948 106.46 25.6448 134.115 23.7734 134.878C21.9713 135.571 15.872 133.63 14.3472 132.105C12.8916 130.58 21.4861 105.698 21.4861 105.698C21.4861 105.698 34.0313 103.965 35.6948 106.46Z" fill="#F4DAC6"/>
<path d="M37.9819 16.2876C37.9819 16.2876 44.6357 7.34655 57.5968 10.2576C66.8151 12.3369 65.013 23.7731 67.6468 22.3176C70.2806 20.8621 69.7261 13.5845 78.182 14.3469C84.1427 14.9014 85.2517 30.5656 81.4396 32.7835C77.6275 35.0014 58.9137 34.6549 60.4385 41.5166L23.2188 37.0808C23.0802 37.0808 30.2191 20.7928 37.9819 16.2876Z" fill="#F4DAC6"/>
<path d="M59.8702 15.5979C61.2352 15.8397 62.7706 19.4904 62.9028 19.9361C62.9469 20.0847 62.9227 20.2212 62.7741 20.2653C62.6255 20.3093 62.489 20.2851 62.4449 20.1366C61.8557 18.6948 60.6607 16.301 59.7735 16.1439C59.637 16.1197 59.5688 16.1076 59.396 16.2882C58.1746 17.6204 59.6823 20.6327 59.6823 20.6327C59.7263 20.7812 59.7022 20.9177 59.5536 20.9618C59.405 21.0059 59.2685 20.9817 59.2244 20.8331C59.1804 20.6845 57.5724 17.4433 58.9787 15.8623C59.3804 15.5815 59.6655 15.5616 59.8702 15.5979Z" fill="#26192A"/>
<path d="M53.1436 17.012C53.2801 17.0362 53.3483 17.0483 53.4728 17.1407C54.9138 17.7479 55.9999 20.7559 56.044 20.9045C56.088 21.0531 55.9956 21.1775 55.9153 21.2336C55.7667 21.2777 55.6423 21.1853 55.5861 21.1049C55.3096 20.2817 54.3514 18.141 53.3078 17.6746C53.0469 17.558 52.8301 17.59 52.6011 17.6902C52.063 17.9468 52.3387 19.9666 52.8796 21.6814C52.9237 21.8299 52.8312 21.9543 52.6827 21.9984C52.5341 22.0425 52.4097 21.9501 52.3656 21.8015C52.1332 21.1268 51.2561 17.7335 52.4128 17.1641C52.5855 16.9836 52.8706 16.9637 53.1436 17.012Z" fill="#26192A"/>
<path d="M70.9736 18.0204C70.9736 18.0204 74.2312 34.4469 81.3702 32.7835C87.0537 31.4666 82.8257 15.2479 80.4692 14.7628C78.1126 14.3469 72.1519 13.3766 70.9736 18.0204Z" fill="#E9A295"/>
<path d="M78.7368 25.9914C78.5982 25.9914 78.5289 25.9221 78.4596 25.7835C77.2813 20.6545 75.9644 19.6842 75.3406 19.5455C74.6475 19.4069 74.1623 20.1 74.1623 20.1C74.093 20.2387 73.8851 20.2387 73.8158 20.1693C73.7465 20.1 73.6772 19.8921 73.7465 19.8228C73.7465 19.7535 74.4396 18.8524 75.4792 19.0604C76.8655 19.3376 78.0437 21.5556 79.0141 25.6449C79.0141 25.8528 78.8755 25.9914 78.7368 25.9914Z" fill="#26192A"/>
<path d="M79.9846 25.7833C79.846 25.7833 79.7767 25.714 79.7073 25.5754C77.9053 19.4068 78.3904 18.2285 78.8756 17.9512C79.2222 17.7433 79.638 17.9513 79.846 18.0899C79.9846 18.1592 79.9846 18.3671 79.9153 18.4364C79.846 18.575 79.638 18.575 79.5687 18.5057C79.4994 18.4364 79.2915 18.2978 79.2222 18.3671C79.0836 18.4364 78.4598 19.2681 80.2618 25.4368C80.3311 25.5754 80.1925 25.714 80.0539 25.7833H79.9846Z" fill="#26192A"/>
<path d="M64.5975 36.5952C63.6272 36.5952 62.8647 36.3179 62.241 35.8328C60.0923 34.1 60.5775 30.2186 60.6468 30.08C60.6468 29.9414 60.7854 29.8721 60.9241 29.8721C61.0627 29.8721 61.132 30.0107 61.132 30.1493C61.132 30.2186 60.6468 33.8921 62.5875 35.4169C63.6272 36.2486 65.2213 36.2486 67.2313 35.4862C67.3699 35.4169 67.5085 35.4862 67.5779 35.6248C67.6472 35.7635 67.5779 35.9021 67.4392 35.9714C66.3996 36.3872 65.4292 36.5952 64.5975 36.5952Z" fill="#26192A"/>
<path d="M62.31 97.312C62.2407 97.312 62.1713 97.312 62.1713 97.2427L56.8344 92.4603C56.6958 92.391 56.6958 92.183 56.8344 92.1137C56.9037 91.9751 57.1117 91.9751 57.181 92.1137L62.5179 96.8962C62.6565 96.9655 62.6565 97.1734 62.5179 97.2427C62.4486 97.312 62.3793 97.312 62.31 97.312Z" fill="#26192A"/>
<path d="M57.7356 97.312C57.6663 97.312 57.6663 97.312 57.597 97.312C57.4583 97.2427 57.389 97.1041 57.4583 96.9655L60.0228 91.2127C60.0921 91.0741 60.2308 91.0048 60.3694 91.0741C60.508 91.1434 60.5773 91.282 60.508 91.4206L57.9435 97.1734C57.9435 97.312 57.8742 97.312 57.7356 97.312Z" fill="#26192A"/>
<path d="M59.3989 48.1022C59.3989 48.1022 76.7265 49.2112 83.1724 36.5967L90.658 43.0426C90.658 43.0426 86.0142 59.4691 63.6962 59.9543L59.3989 48.1022Z" fill="#F4DAC6"/>
<path d="M60.3692 41.5169C60.3692 41.5169 58.983 44.22 55.7254 44.9824L54.2699 51.9828L50.8737 45.8142C50.8737 45.8142 29.6647 42.418 23.1495 37.0811C23.1495 37.0811 8.66362 55.8642 11.9905 89.0639C11.9905 89.0639 58.4285 92.3908 70.4193 84.9053C70.3499 84.9053 66.7458 53.2997 60.3692 41.5169Z" fill="#E9A295"/>
<path d="M60.3696 41.5176C60.3696 41.5176 70.281 53.0924 68.6868 75.4797C68.6868 75.4797 59.7458 50.3893 60.3696 41.5176Z" fill="#6AB0A0"/>
<path d="M18.0208 42.0021C18.0208 42.0021 30.566 42.9032 31.3284 63.0032C31.9522 79.0832 10.8125 75.4791 10.8125 75.4791L11.4363 80.2615C11.4363 80.2615 34.0315 81.4398 34.8632 67.2311C35.695 53.0225 31.2591 41.3783 23.0805 37.1504L18.0208 42.0021Z" fill="#6AB0A0"/>
<path d="M18.6445 44.29C18.6445 44.29 0 48.6566 0 62.0335C0 75.4105 32.2294 69.5191 32.2294 69.5191V60.0235C32.2294 60.0235 15.9414 64.9446 12.6838 60.5087C9.42622 56.0728 24.6745 56.3501 24.6745 56.3501L18.6445 44.29Z" fill="#F4DAC6"/>
<path d="M9.01025 48.3095C9.01025 48.3095 14.2085 57.5971 14.5551 59.5378L25.922 57.4585L20.3772 42.9033C20.3079 42.9033 16.4958 42.9033 9.01025 48.3095Z" fill="#E9A295"/>
<path d="M32.2984 69.7963C32.1598 69.7963 32.0905 69.727 32.0212 69.5884C31.9518 69.4497 32.0905 69.3111 32.2291 69.2418C34.7243 68.4794 37.4967 67.4397 37.7046 67.0239C37.7739 66.8852 37.7739 66.8159 37.7046 66.6773C37.2887 65.8456 34.1698 65.2218 32.2984 65.0139C32.1598 65.0139 32.0905 64.9446 32.0905 64.8059C32.0905 64.6673 32.0905 64.598 32.2291 64.5287C34.8629 62.8652 37.0115 60.9245 36.8036 60.578C36.5956 60.0928 33.8232 60.1621 31.3974 60.5087C31.2587 60.5087 31.1201 60.4394 31.1201 60.3008C31.1201 60.1621 31.1894 60.0235 31.328 60.0235C32.5756 59.8156 36.7343 59.3304 37.2194 60.3701C37.7046 61.2711 34.7936 63.4197 33.0608 64.598C34.5163 64.8059 37.6353 65.3604 38.1898 66.4694C38.3284 66.7466 38.3284 67.0239 38.1898 67.3011C37.7739 68.1328 33.6846 69.3804 32.437 69.7963C32.2984 69.7963 32.2984 69.7963 32.2984 69.7963Z" fill="#26192A"/>
<path d="M16.9808 139.73C16.9115 139.73 16.9115 139.73 16.8421 139.73C16.0797 139.453 14.6935 134.393 14.139 132.176C14.0697 132.037 14.2084 131.898 14.347 131.829C14.4856 131.76 14.6242 131.898 14.6935 132.037C15.5253 135.156 16.5649 138.552 17.0501 139.176C17.6046 138.691 19.3373 136.057 20.4463 134.463C20.5156 134.393 20.5849 134.324 20.7235 134.324C20.7928 134.324 20.9315 134.393 20.9315 134.532C21.5553 136.542 22.4563 138.829 22.8722 139.176C23.1494 138.829 23.496 136.681 23.7039 134.879C23.7039 134.74 23.8425 134.601 23.9811 134.671C24.1197 134.671 24.2584 134.809 24.1891 134.948C23.9811 137.027 23.5653 139.592 22.9415 139.73C22.7335 139.8 22.1097 139.938 20.5849 135.225C19.7532 136.473 17.8125 139.384 17.258 139.73C17.1194 139.73 17.0501 139.73 16.9808 139.73Z" fill="#26192A"/>
<path d="M75.6176 138.76C74.5086 138.76 71.459 136.264 70.1421 135.155C70.0034 135.086 70.0034 134.878 70.1421 134.809C70.2114 134.67 70.4193 134.67 70.4886 134.809C72.5679 136.611 75.1324 138.482 75.6176 138.344C75.9641 138.205 75.8948 135.918 75.479 133.492C75.479 133.353 75.479 133.284 75.6176 133.215C75.6869 133.145 75.8255 133.145 75.8948 133.215C77.489 134.462 80.0534 136.126 80.6772 135.987C80.7466 135.987 80.7466 135.987 80.7466 135.918C81.0238 135.294 79.6376 133.007 78.5979 131.621C78.5286 131.482 78.5286 131.343 78.6672 131.274C78.8059 131.205 78.9445 131.205 79.0138 131.343C79.499 131.967 81.7862 135.017 81.2317 136.195C81.1624 136.334 81.0238 136.472 80.8159 136.542C79.8455 136.819 77.281 135.017 76.1028 134.116C76.38 135.779 76.6572 138.552 75.8255 138.898C75.8255 138.76 75.7562 138.76 75.6176 138.76Z" fill="#26192A"/>
<path d="M31.3977 26.6853H31.3284C31.1898 26.616 31.1205 26.4774 31.1898 26.3388C31.3977 25.6457 32.8532 24.5367 32.9919 24.3981C33.1305 24.3288 33.2691 24.3288 33.3384 24.4674C33.4077 24.606 33.4077 24.7446 33.2691 24.8139C32.7146 25.2298 31.7443 26.0615 31.6057 26.4774C31.6057 26.616 31.5363 26.6853 31.3977 26.6853Z" fill="#26192A"/>
<path d="M32.2987 29.4574C32.0908 29.3881 32.0215 29.2494 32.0215 29.1108C32.1601 28.4177 33.5463 27.2394 33.6849 27.1008C33.8236 27.0315 33.9622 27.0315 34.0315 27.1008C34.1008 27.2394 34.1008 27.3781 34.0315 27.4474C33.477 27.9325 32.576 28.8336 32.5067 29.2494C32.576 29.388 32.4373 29.4574 32.2987 29.4574Z" fill="#26192A"/>
<path d="M28.2092 31.2595H28.1399C28.0013 31.1902 27.932 31.0516 28.0013 30.913C28.2092 30.2199 29.6648 29.1109 29.8034 28.9723C29.942 28.903 30.0806 28.903 30.1499 29.0416C30.2192 29.1802 30.2192 29.3188 30.0806 29.3882C29.5261 29.804 28.5558 30.705 28.4172 31.0516C28.4865 31.1902 28.3479 31.2595 28.2092 31.2595Z" fill="#26192A"/>
<path d="M29.8036 34.2399C29.665 34.2399 29.5264 34.1013 29.5264 33.9626C29.5957 33.2695 30.7046 31.814 30.8433 31.6754C30.9126 31.5368 31.1205 31.5368 31.1898 31.6061C31.3284 31.6754 31.3284 31.8833 31.2591 31.9526C30.8433 32.5071 30.0809 33.5468 30.0809 33.9626C30.0809 34.1013 29.9422 34.2399 29.8036 34.2399Z" fill="#26192A"/>
<path d="M14.2782 94.4706C14.2089 94.4706 14.0703 94.4013 14.0703 94.332C13.7237 93.7082 14.001 91.9061 14.001 91.6982C14.001 91.5595 14.1396 91.4902 14.2782 91.4902C14.4168 91.4902 14.4862 91.6289 14.4862 91.7675C14.4169 92.4606 14.2782 93.7082 14.4862 94.124C14.5555 94.2626 14.4862 94.4013 14.3475 94.4706C14.3475 94.4706 14.3475 94.4706 14.2782 94.4706Z" fill="#26192A"/>
<path d="M16.7729 94.955C16.7035 94.955 16.5649 94.8857 16.5649 94.8163C16.2184 94.1925 16.4956 92.3905 16.4956 92.1826C16.4956 92.0439 16.6342 91.9746 16.7729 91.9746C16.9115 91.9746 16.9808 92.1132 16.9808 92.2519C16.9115 92.945 16.7729 94.1926 16.9808 94.6084C17.0501 94.747 16.9808 94.8857 16.8422 94.955H16.7729Z" fill="#26192A"/>
<path d="M14.3471 100.708C14.2778 100.708 14.1391 100.639 14.1391 100.569C13.7926 99.9455 14.0698 98.1434 14.0698 97.9355C14.0698 97.7968 14.2085 97.7275 14.3471 97.7275C14.4857 97.7275 14.555 97.8662 14.555 98.0048C14.4857 98.6979 14.3471 99.9455 14.555 100.361C14.6243 100.5 14.555 100.639 14.4164 100.708C14.4164 100.708 14.4164 100.708 14.3471 100.708Z" fill="#26192A"/>
<path d="M18.3671 99.4599C18.2978 99.4599 18.1592 99.3905 18.1592 99.3212C17.8126 98.6974 18.0899 96.8954 18.0899 96.6874C18.0899 96.5488 18.2285 96.4795 18.3671 96.4795C18.5057 96.4795 18.575 96.6181 18.575 96.7568C18.5057 97.4499 18.3671 98.6974 18.575 99.1133C18.6443 99.2519 18.575 99.3905 18.4364 99.4599C18.4364 99.4599 18.4364 99.4599 18.3671 99.4599Z" fill="#26192A"/>
<path d="M17.1198 102.303C17.0505 102.303 16.9812 102.303 16.9119 102.233C16.4267 101.679 16.2188 99.8768 16.2188 99.6688C16.2188 99.5302 16.2881 99.3916 16.4267 99.3916C16.5653 99.3916 16.7039 99.4609 16.7039 99.5995C16.7732 100.293 17.0505 101.54 17.3277 101.887C17.397 102.025 17.397 102.164 17.3277 102.233C17.2584 102.303 17.1891 102.303 17.1198 102.303Z" fill="#26192A"/>
<path d="M15.8722 106.114C15.8029 106.114 15.7336 106.114 15.6643 106.045C15.1791 105.49 14.9712 103.688 14.9712 103.48C14.9712 103.342 15.0405 103.203 15.1791 103.203C15.3177 103.203 15.4564 103.272 15.4564 103.411C15.5257 104.104 15.8029 105.352 16.0802 105.698C16.1495 105.837 16.1495 105.976 16.0802 106.045C16.0109 106.114 15.9415 106.114 15.8722 106.114Z" fill="#26192A"/>
<path d="M18.9914 107.292C18.9221 107.292 18.8527 107.292 18.7834 107.223C18.2983 106.668 18.0903 104.866 18.0903 104.658C18.0903 104.519 18.1596 104.381 18.2983 104.381C18.4369 104.381 18.5755 104.45 18.5755 104.589C18.6448 105.282 18.9221 106.529 19.1993 106.876C19.2686 107.015 19.2686 107.153 19.1993 107.223C19.13 107.292 19.0607 107.292 18.9914 107.292Z" fill="#26192A"/>
<path d="M17.1198 110.48C17.0505 110.48 16.9812 110.48 16.9119 110.411C16.4267 109.857 16.2188 108.055 16.2188 107.847C16.2188 107.708 16.2881 107.569 16.4267 107.569C16.5653 107.569 16.7039 107.639 16.7039 107.777C16.7732 108.47 17.0505 109.718 17.3277 110.065C17.397 110.203 17.397 110.342 17.3277 110.411C17.2584 110.48 17.1891 110.48 17.1198 110.48Z" fill="#26192A"/>
<path d="M20.2386 112.352C20.1693 112.352 20.1 112.352 20.1 112.283C19.5455 111.867 18.9217 110.134 18.8524 109.926C18.7831 109.788 18.8524 109.649 18.991 109.58C19.1296 109.511 19.2682 109.58 19.3376 109.719C19.5455 110.412 20.0307 111.59 20.3772 111.798C20.5158 111.867 20.5158 112.075 20.4465 112.144C20.3772 112.352 20.3079 112.352 20.2386 112.352Z" fill="#26192A"/>
<path d="M25.8529 36.3883C25.7143 36.3883 25.5757 36.2497 25.5757 36.1111C25.645 35.418 26.754 33.9624 26.8926 33.8238C26.9619 33.6852 27.1698 33.6852 27.2391 33.7545C27.3778 33.8238 27.3778 34.0318 27.3084 34.1011C26.8926 34.6555 26.1302 35.6952 26.1302 36.1111C26.1302 36.319 25.9915 36.3883 25.8529 36.3883Z" fill="#26192A"/>
<path d="M27.6547 38.4674C27.6547 38.4674 27.5854 38.4674 27.6547 38.4674C27.5161 38.4674 27.3774 38.3288 27.3774 38.1902C27.4468 37.4971 28.5557 36.0415 28.6943 35.9029C28.7637 35.7643 28.9716 35.7643 29.0409 35.8336C29.1795 35.9029 29.1795 36.1109 29.1102 36.1802C28.6943 36.7346 27.9319 37.7743 27.9319 38.1902C27.8626 38.3288 27.7933 38.4674 27.6547 38.4674Z" fill="#26192A"/>
<path d="M54.8939 58.775C53.9235 58.775 53.0918 57.9433 53.0918 56.973C53.0918 56.0026 53.9235 55.1709 54.8939 55.1709C55.8642 55.1709 56.6959 56.0026 56.6959 56.973C56.6959 57.9433 55.8642 58.775 54.8939 58.775ZM54.8939 55.6561C54.2008 55.6561 53.6463 56.2106 53.6463 56.9037C53.6463 57.5968 54.2008 58.1512 54.8939 58.1512C55.587 58.1512 56.1415 57.5968 56.1415 56.9037C56.1415 56.2106 55.587 55.6561 54.8939 55.6561Z" fill="#26192A"/>
<path d="M56.4188 69.6579C55.4484 69.6579 54.6167 68.8261 54.6167 67.8558C54.6167 66.8854 55.4484 66.0537 56.4188 66.0537C57.3891 66.0537 58.2208 66.8854 58.2208 67.8558C58.2208 68.8261 57.3891 69.6579 56.4188 69.6579ZM56.4188 66.6082C55.7257 66.6082 55.1712 67.1627 55.1712 67.8558C55.1712 68.5489 55.7257 69.1034 56.4188 69.1034C57.1119 69.1034 57.6664 68.5489 57.6664 67.8558C57.6664 67.1627 57.1119 66.6082 56.4188 66.6082Z" fill="#26192A"/>
<path d="M57.9437 78.8063C56.9733 78.8063 56.1416 77.9746 56.1416 77.0042C56.1416 76.0339 56.9733 75.2021 57.9437 75.2021C58.914 75.2021 59.7457 76.0339 59.7457 77.0042C59.7457 77.9746 58.914 78.8063 57.9437 78.8063ZM57.9437 75.6873C57.2506 75.6873 56.6961 76.2418 56.6961 76.9349C56.6961 77.628 57.2506 78.1825 57.9437 78.1825C58.6368 78.1825 59.1913 77.628 59.1913 76.9349C59.2606 76.3111 58.6368 75.6873 57.9437 75.6873Z" fill="#26192A"/>
<path d="M50.3887 8.59521C50.3194 8.59521 50.2501 8.59521 50.2501 8.5259C48.3787 7.00107 50.1115 2.70382 50.1808 2.49589C50.2501 2.35727 50.3887 2.28796 50.5273 2.35727C50.6659 2.42658 50.7353 2.5652 50.6659 2.70382C50.6659 2.77313 49.0025 6.86245 50.5966 8.11004C50.7353 8.17935 50.7353 8.38728 50.6659 8.45659C50.5273 8.5259 50.458 8.59521 50.3887 8.59521Z" fill="#26192A"/>
</svg>
