<svg width="26" height="23" viewBox="0 0 26 23" fill="none" xmlns="http://www.w3.org/2000/svg">
<path d="M23.3125 0.6875H2.68752C2.19024 0.6875 1.71332 0.885044 1.36169 1.23667C1.01006 1.58831 0.812516 2.06522 0.812516 2.5625V21.3125C0.811562 21.4725 0.852082 21.63 0.930127 21.7696C1.00817 21.9093 1.12107 22.0264 1.25783 22.1094C1.39348 22.1947 1.54873 22.2437 1.70875 22.2519C1.86877 22.2601 2.02823 22.2272 2.17189 22.1563L5.50002 20.4805L8.82814 22.1563C8.95975 22.2196 9.10395 22.2525 9.25002 22.2525C9.39608 22.2525 9.54028 22.2196 9.67189 22.1563L13 20.4805L16.3281 22.1563C16.4602 22.218 16.6042 22.25 16.75 22.25C16.8958 22.25 17.0398 22.218 17.1719 22.1563L20.5 20.4805L23.8281 22.1563C23.9718 22.2272 24.1313 22.2601 24.2913 22.2519C24.4513 22.2437 24.6065 22.1947 24.7422 22.1094C24.879 22.0264 24.9919 21.9093 25.0699 21.7696C25.148 21.63 25.1885 21.4725 25.1875 21.3125V2.5625C25.1875 2.06522 24.99 1.58831 24.6383 1.23667C24.2867 0.885044 23.8098 0.6875 23.3125 0.6875ZM23.3125 19.8008L20.9219 18.5938C20.7903 18.5304 20.6461 18.4975 20.5 18.4975C20.3539 18.4975 20.2098 18.5304 20.0781 18.5938L16.75 20.2695L13.4219 18.5938C13.2898 18.532 13.1458 18.5 13 18.5C12.8542 18.5 12.7102 18.532 12.5781 18.5938L9.25002 20.2695L5.92189 18.5938C5.79028 18.5304 5.64609 18.4975 5.50002 18.4975C5.35395 18.4975 5.20976 18.5304 5.07814 18.5938L2.68752 19.8008V2.5625H23.3125V19.8008ZM6.01564 15.5938C6.24017 15.701 6.49754 15.7169 6.73359 15.6382C6.96964 15.5595 7.16597 15.3924 7.28127 15.1719L7.94924 13.8125H12.4258L13.0938 15.1719C13.1734 15.3271 13.2944 15.4573 13.4432 15.5482C13.592 15.6392 13.7631 15.6874 13.9375 15.6875C14.083 15.6844 14.2263 15.6525 14.3594 15.5938C14.5799 15.4785 14.7471 15.2821 14.8257 15.0461C14.9044 14.81 14.8885 14.5527 14.7813 14.3281L11.0313 6.82813C10.9514 6.67318 10.8304 6.54322 10.6816 6.45249C10.5328 6.36176 10.3618 6.31377 10.1875 6.31377C10.0132 6.31377 9.84226 6.36176 9.69343 6.45249C9.5446 6.54322 9.42362 6.67318 9.34377 6.82813L5.59377 14.3281C5.48655 14.5527 5.4706 14.81 5.54929 15.0461C5.62797 15.2821 5.79515 15.4785 6.01564 15.5938ZM10.1875 9.34766L11.4883 11.9375H8.88673L10.1875 9.34766ZM14.875 11C14.875 10.7514 14.9738 10.5129 15.1496 10.3371C15.3254 10.1613 15.5639 10.0625 15.8125 10.0625H17.2188V8.65625C17.2188 8.40761 17.3175 8.16915 17.4934 7.99334C17.6692 7.81752 17.9076 7.71875 18.1563 7.71875C18.4049 7.71875 18.6434 7.81752 18.8192 7.99334C18.995 8.16915 19.0938 8.40761 19.0938 8.65625V10.0625H20.5C20.7487 10.0625 20.9871 10.1613 21.1629 10.3371C21.3387 10.5129 21.4375 10.7514 21.4375 11C21.4375 11.2486 21.3387 11.4871 21.1629 11.6629C20.9871 11.8387 20.7487 11.9375 20.5 11.9375H19.0938V13.3438C19.0938 13.5924 18.995 13.8308 18.8192 14.0067C18.6434 14.1825 18.4049 14.2813 18.1563 14.2813C17.9076 14.2813 17.6692 14.1825 17.4934 14.0067C17.3175 13.8308 17.2188 13.5924 17.2188 13.3438V11.9375H15.8125C15.5639 11.9375 15.3254 11.8387 15.1496 11.6629C14.9738 11.4871 14.875 11.2486 14.875 11Z" fill="#D3D3D3"/>
</svg>
