<svg width="82" height="78" viewBox="0 0 82 78" fill="none" xmlns="http://www.w3.org/2000/svg">
<circle cx="39" cy="39" r="37" fill="#E2CE96" stroke="#2ECC71" stroke-width="4"/>
<path d="M29.0902 33.9093C29.0902 33.9093 37.477 20.1832 54.4632 35.0359C63.0505 42.5324 61.2015 59.1444 49.3268 63.231C37.452 67.3176 26.9337 39.8723 29.0902 33.9093Z" fill="white"/>
<path d="M43.5741 37.8083C43.5741 37.8083 47.4011 44.4428 50.0911 45.0335C52.8894 45.6439 55.9121 37.0369 55.9121 37.0369C55.9121 37.0369 50.4397 35.1343 43.5741 37.8083Z" fill="#26192A"/>
<path d="M46.8932 57.6657C44.3972 57.211 42.7804 49.6649 42.6383 48.7465C42.5778 48.5124 42.7169 48.3146 42.9363 48.243C43.1556 48.1714 43.3357 48.3158 43.3961 48.5499C44.0434 51.7916 45.6936 56.8894 47.2305 56.9462C48.9868 56.9315 51.7675 51.8599 52.7403 49.9175C52.8795 49.7197 53.0988 49.6481 53.2985 49.6845C53.4785 49.8288 53.539 50.063 53.4997 50.2789C53.1623 50.9984 49.9867 57.6715 47.3924 57.7567C47.0928 57.7021 46.993 57.6839 46.8932 57.6657Z" fill="#26192A"/>
<path d="M47.558 57.7873C47.312 57.7425 47.1037 57.4914 47.1412 57.2851L49.3208 45.3208C49.3584 45.1145 49.6419 44.953 49.8879 44.9978C50.1339 45.0426 50.3422 45.2937 50.3046 45.5L48.1063 57.5675C48.0875 57.6706 47.8039 57.8321 47.558 57.7873Z" fill="#26192A"/>
<path d="M42.9216 17.3011C45.517 17.7739 46.822 24.1519 46.9034 24.883C46.9711 25.1 46.8312 25.2792 46.6055 25.3405C46.3798 25.4017 46.1903 25.2648 46.1225 25.0478C45.5535 22.2834 44.199 17.9431 42.4658 18.0368C42.2402 18.098 42.1183 18.1781 41.9784 18.3573C40.981 19.7107 42.0918 24.2112 42.6517 25.8482C42.7194 26.0652 42.5795 26.2444 42.3538 26.3056C42.1282 26.3669 41.9386 26.23 41.8708 26.013C41.6677 25.3619 40.0106 19.7385 41.3239 17.8287C41.6037 17.4703 41.9693 17.2299 42.4026 17.2065C42.6102 17.2444 42.8178 17.2822 42.9216 17.3011Z" fill="#26192A"/>
<path d="M27.5747 18.5705C30.6928 19.1385 30.1942 26.9281 30.1445 27.8327C30.1042 28.0538 29.9526 28.2546 29.7298 28.214C29.5071 28.1734 29.3045 28.0223 29.3448 27.8012C29.5544 24.7558 29.2155 19.6689 27.5451 19.3645C27.3224 19.324 27.0795 19.3939 26.9279 19.5947C25.5525 20.8289 25.4258 25.9452 25.529 27.9055C25.4887 28.1266 25.337 28.3274 25.1143 28.2868C24.8916 28.2463 24.689 28.0951 24.7293 27.8741C24.7387 27.1905 24.5503 20.6463 26.3604 18.9203C26.5322 18.609 27.0179 18.469 27.5747 18.5705Z" fill="#26192A"/>
<g clip-path="url(#clip0_247_1820)">
<path d="M73.5 19L68 21.5L62 17.5V14.5L63.5 11.5H66.5C67.6667 10.5 70.1 8.5 70.5 8.5H75.5L76.5 11.5L75.5 14.5L73.5 19Z" fill="white"/>
<path d="M81.3341 14.8302L81.6236 14.5003L81.3341 14.1705L78.9343 11.4363L79.2687 7.81716L79.309 7.38067L78.8816 7.28358L75.3305 6.47697L73.4715 3.34904L73.2474 2.972L72.8444 3.14506L69.5 4.58118L66.1556 3.14506L65.7526 2.972L65.5285 3.34904L63.6699 6.4763L60.1197 7.27287L59.6908 7.3691L59.7313 7.80674L60.0657 11.4264L57.6653 14.1712L57.3769 14.5009L57.6659 14.8302L60.0657 17.5644L59.7313 21.194L59.6911 21.6304L60.1184 21.7275L63.6695 22.5341L65.5285 25.662L65.7532 26.04L66.1567 25.8655L69.5007 24.4198L72.8444 25.8556L73.2474 26.0286L73.4715 25.6516L75.3305 22.5237L78.8816 21.7171L79.309 21.62L79.2687 21.1835L78.9343 17.5643L81.3341 14.8302ZM67.0638 17.115L67.4173 17.4672L67.7702 17.1143L74.28 10.6045L75.0441 11.3741L67.4167 19.0016L63.9571 15.542L64.7194 14.7797L67.0638 17.115Z" fill="#2ECC71" stroke="white"/>
</g>
<defs>
<clipPath id="clip0_247_1820">
<rect width="25" height="25" fill="white" transform="translate(57 2)"/>
</clipPath>
</defs>
</svg>
