<svg width="25" height="25" viewBox="0 0 25 25" fill="none" xmlns="http://www.w3.org/2000/svg">
<path d="M24.3341 12.8298L24.6236 12.5L24.3341 12.1702L21.9344 9.43601L22.2687 5.81685L22.3091 5.38037L21.8816 5.28327L18.3306 4.47666L16.4715 1.34873L16.2474 0.971695L15.8444 1.14475L12.5 2.58087L9.15564 1.14475L8.75262 0.971695L8.52854 1.34873L6.66988 4.47599L3.11972 5.27257L2.69087 5.36879L2.73131 5.80644L3.06573 9.42612L0.665315 12.1709L0.376933 12.5006L0.665902 12.8298L3.06573 15.5641L2.7313 19.1937L2.69109 19.6301L3.11843 19.7272L6.66948 20.5338L8.52854 23.6617L8.75319 24.0397L9.15678 23.8652L12.5007 22.4195L15.8444 23.8553L16.2474 24.0283L16.4715 23.6513L18.3306 20.5234L21.8816 19.7168L22.3091 19.6197L22.2687 19.1832L21.9344 15.564L24.3341 12.8298ZM10.0638 15.1147L10.4174 15.4669L10.7702 15.114L17.28 8.60421L18.0442 9.37377L10.4167 17.0012L6.95713 13.5417L7.71945 12.7794L10.0638 15.1147Z" fill="#2ECC71" stroke="white"/>
</svg>
