<svg width="82" height="78" viewBox="0 0 82 78" fill="none" xmlns="http://www.w3.org/2000/svg">
<circle cx="39" cy="39" r="37" fill="#FCB82E" stroke="#2ECC71" stroke-width="4"/>
<path d="M45.8906 45.9989L33.0367 43.4883C32.8358 43.4883 32.7354 43.2875 32.7354 43.0866L35.6476 17.3788C35.6476 17.1779 35.8485 16.9771 36.0493 17.0775C36.2501 17.0775 36.451 17.2783 36.3506 17.4792L33.4383 42.8858L45.4889 45.1955L51.5142 19.8893C51.5142 19.6884 51.715 19.588 52.0163 19.588C52.2171 19.588 52.3176 19.8893 52.3176 20.0901L46.1918 45.798C46.1918 45.8984 46.0914 45.9989 45.8906 45.9989Z" fill="#26192A"/>
<path d="M31.1287 42.3828L48.5016 45.0942C48.5016 45.0942 45.1877 52.3245 38.4595 52.0233C32.7355 51.722 31.1287 42.3828 31.1287 42.3828Z" fill="#26192A"/>
<path d="M25.7057 37.1623C25.6053 37.1623 25.4045 37.1623 25.2036 36.9614C23.8982 35.8568 23.4964 29.8315 23.396 28.6265C23.396 28.4256 23.4964 28.2248 23.7977 28.2248C23.9985 28.2248 24.1994 28.3252 24.1994 28.6265C24.5007 32.7437 25.2036 36.3589 25.8061 36.4593C26.4087 36.3589 27.212 32.3421 27.6137 27.8231C27.6137 27.6222 27.8146 27.4214 28.0154 27.5218C28.2163 27.5218 28.4171 27.7227 28.3167 27.9235C28.0154 30.6349 27.3125 37.0619 25.7057 37.1623Z" fill="#26192A"/>
<path d="M55.2297 42.8859C55.0288 42.8859 54.828 42.7855 54.7276 42.6851C53.6229 41.5804 54.2255 35.3543 54.4263 34.1493C54.4263 33.9484 54.6272 33.7476 54.828 33.848C55.0289 33.848 55.2297 34.0488 55.1293 34.2497C54.7276 38.2665 54.7276 41.8817 55.2297 42.183C55.9326 42.0826 58.1419 38.1661 59.7487 34.4505C59.8491 34.2497 60.0499 34.1493 60.2508 34.2497C60.4516 34.3501 60.552 34.551 60.4516 34.7518C59.5478 36.6598 56.8364 42.7855 55.2297 42.8859Z" fill="#26192A"/>
<path d="M37.2547 60.5604C37.1543 60.5604 37.1543 60.5604 37.0539 60.5604C35.5475 60.2591 35.3467 55.2381 35.3467 53.1292C35.3467 52.9284 35.5475 52.828 35.7484 52.7275C35.9492 52.7275 36.15 52.9284 36.15 53.1292C36.15 56.5436 36.6521 59.757 37.1543 59.8575C37.2547 59.8575 38.0581 59.8575 40.0665 54.1334C40.1669 53.9326 40.3678 53.8322 40.5686 53.9326C40.7694 54.033 40.8699 54.2339 40.7695 54.4347C39.0623 59.6566 38.0581 60.5604 37.2547 60.5604Z" fill="#26192A"/>
<path d="M26.3081 43.7898L16.768 41.9823C16.5672 41.9823 16.4668 41.7814 16.4668 41.5806C16.4668 41.3797 16.6676 41.2793 16.8684 41.2793L26.4085 43.0869C26.6093 43.0869 26.7098 43.2877 26.7098 43.4886C26.7098 43.6894 26.5089 43.7898 26.3081 43.7898Z" fill="#26192A"/>
<path d="M26.509 46.401L16.1656 44.493C15.9647 44.493 15.8643 44.2921 15.8643 44.0913C15.8643 43.8905 16.0651 43.79 16.266 43.79L26.6094 45.5976C26.8102 45.5976 26.9106 45.7985 26.9106 45.9993C26.8102 46.3006 26.7098 46.401 26.509 46.401Z" fill="#26192A"/>
<path d="M26.4085 49.615C26.3081 49.615 26.3081 49.615 26.4085 49.615L16.768 47.3053C16.5672 47.3053 16.4668 47.0041 16.4668 46.8032C16.4668 46.6024 16.6676 46.502 16.9689 46.502L26.5089 48.8116C26.7098 48.8116 26.8102 49.1129 26.8102 49.3137C26.7098 49.5146 26.5089 49.615 26.4085 49.615Z" fill="#26192A"/>
<path d="M59.7488 50.0164L50.2088 48.2088C50.0079 48.2088 49.9075 48.008 49.9075 47.8071C49.9075 47.6063 50.1084 47.5059 50.3092 47.5059L59.8493 49.3134C60.0501 49.3134 60.1505 49.5143 60.1505 49.7151C60.0501 49.916 59.9497 50.0164 59.7488 50.0164Z" fill="#26192A"/>
<path d="M59.9494 52.6276C59.849 52.6276 59.849 52.6276 59.9494 52.6276L49.606 50.7195C49.4052 50.7195 49.3047 50.5187 49.3047 50.3179C49.3047 50.117 49.5056 50.0166 49.7064 50.0166L60.0498 51.8242C60.2506 51.8242 60.3511 52.025 60.3511 52.2259C60.2507 52.4267 60.0498 52.6276 59.9494 52.6276Z" fill="#26192A"/>
<path d="M59.7487 55.8406L50.1083 53.5309C49.9074 53.5309 49.807 53.2296 49.807 53.0288C49.807 52.828 50.0078 52.7275 50.3091 52.7275L59.8491 55.0372C60.05 55.0372 60.1504 55.3385 60.1504 55.5393C60.1504 55.7402 59.9495 55.8406 59.7487 55.8406Z" fill="#26192A"/>
<g clip-path="url(#clip0_247_1817)">
<path d="M73.5 18L68 20.5L62 16.5V13.5L63.5 10.5H66.5C67.6667 9.5 70.1 7.5 70.5 7.5H75.5L76.5 10.5L75.5 13.5L73.5 18Z" fill="white"/>
<path d="M81.3341 13.8302L81.6236 13.5003L81.3341 13.1705L78.9344 10.4363L79.2687 6.81716L79.3091 6.38067L78.8816 6.28358L75.3306 5.47697L73.4715 2.34904L73.2474 1.972L72.8444 2.14506L69.5 3.58118L66.1556 2.14506L65.7526 1.972L65.5285 2.34904L63.6699 5.4763L60.1197 6.27287L59.6909 6.3691L59.7313 6.80674L60.0657 10.4264L57.6653 13.1712L57.3769 13.5009L57.6659 13.8302L60.0657 16.5644L59.7313 20.194L59.6911 20.6304L60.1184 20.7275L63.6695 21.5341L65.5285 24.662L65.7532 25.04L66.1568 24.8655L69.5007 23.4198L72.8444 24.8556L73.2474 25.0286L73.4715 24.6516L75.3306 21.5237L78.8816 20.7171L79.3091 20.62L79.2687 20.1835L78.9344 16.5643L81.3341 13.8302ZM67.0638 16.115L67.4174 16.4672L67.7702 16.1143L74.28 9.60452L75.0442 10.3741L67.4167 18.0016L63.9571 14.542L64.7195 13.7797L67.0638 16.115Z" fill="#2ECC71" stroke="white"/>
</g>
<defs>
<clipPath id="clip0_247_1817">
<rect width="25" height="25" fill="white" transform="translate(57 1)"/>
</clipPath>
</defs>
</svg>
