<svg width="82" height="78" viewBox="0 0 82 78" fill="none" xmlns="http://www.w3.org/2000/svg">
<circle cx="39" cy="39" r="37" fill="#819A8C" stroke="#2ECC71" stroke-width="4"/>
<path d="M35.0311 22.7367C35.0311 22.7367 16.3418 19.8536 14.7399 21.5169C13.1379 23.1802 14.4195 39.3698 15.9146 39.7025C17.4098 40.0351 36.9534 40.3678 36.9534 39.0371C37.0602 37.5956 37.167 23.0693 35.0311 22.7367ZM33.5359 36.4867C33.5359 37.4847 18.6913 37.2629 17.6234 36.9303C16.4486 36.7085 15.4874 25.1762 16.769 23.9564C18.0505 22.7366 32.1476 24.8435 32.1476 24.8435C33.7495 25.1762 33.6427 35.5996 33.5359 36.4867Z" fill="#E09D9F"/>
<path d="M39.0062 39.0394C39.0062 40.3669 59.4357 40.035 60.9986 39.7032C62.5615 39.3713 63.9011 23.3306 62.2266 21.5606C60.552 19.7906 41.0156 22.7775 41.0156 22.7775C38.7829 23.1094 39.0062 37.6013 39.0062 39.0394ZM44.1415 24.99C44.1415 24.99 58.8775 22.8881 60.2171 24.105C61.5568 25.3219 60.4404 36.7163 59.324 37.0482C58.096 37.2694 42.6902 37.4907 42.6902 36.6057C42.5786 35.61 42.4669 25.2113 44.1415 24.99Z" fill="#E09D9F"/>
<path d="M30.8342 35C28.9455 35 26.679 30.1408 26.0494 28.6619C25.9235 28.4506 26.0494 28.2394 26.3012 28.1337C26.553 28.0281 26.8049 28.1337 26.9308 28.345C28.0641 31.0915 29.9528 34.1549 30.7083 34.1549C31.3379 33.5211 30.8342 30.5633 30.2046 28.5563C30.2046 28.345 30.3306 28.1337 30.5824 28.0281C30.8343 27.9225 31.0861 28.1337 31.212 28.345C31.4638 29.1901 32.5971 33.4155 31.5897 34.5774C31.4638 34.8943 31.0861 35 30.8342 35Z" fill="#26192A"/>
<path d="M45.5231 35C45.3962 35 45.3962 35 45.3962 35C45.1424 34.8727 44.2539 34.7455 44 28.5091C44 28.2546 44.2539 28 44.5077 28C44.7616 28 45.0154 28.2546 45.0154 28.5091C45.1424 30.6728 45.3962 33.0909 45.6501 33.9818C46.1578 33.2182 47.3001 30.6728 48.0617 28.3818C48.1886 28.1273 48.4425 28 48.6963 28.1273C48.9502 28.2546 49.0771 28.5091 48.9502 28.7636C46.7924 34.3636 46.0309 35 45.5231 35Z" fill="#26192A"/>
<path d="M44.3539 45.0094C44.3539 45.0094 40.5269 51.644 37.8369 52.2347C35.0386 52.8451 32.0159 44.2381 32.0159 44.2381C32.0159 44.2381 37.4883 42.3355 44.3539 45.0094Z" fill="#26192A"/>
<path d="M41.0349 64.8669C43.5309 64.4122 45.1476 56.8661 45.2898 55.9477C45.3503 55.7135 45.2111 55.5158 44.9917 55.4442C44.7724 55.3726 44.5924 55.5169 44.5319 55.7511C43.8846 58.9927 42.2344 64.0906 40.6975 64.1474C38.9412 64.1327 36.1605 59.0611 35.1877 57.1186C35.0485 56.9209 34.8292 56.8493 34.6295 56.8857C34.4495 57.03 34.389 57.2642 34.4284 57.4801C34.7657 58.1996 37.9413 64.8726 40.5357 64.9578C40.8352 64.9033 40.935 64.8851 41.0349 64.8669Z" fill="#26192A"/>
<path d="M40.37 64.9885C40.6159 64.9437 40.8243 64.6926 40.7867 64.4863L38.6071 52.5219C38.5696 52.3157 38.286 52.1542 38.0401 52.199C37.7941 52.2438 37.5858 52.4949 37.6233 52.7012L39.8217 64.7687C39.8405 64.8718 40.124 65.0333 40.37 64.9885Z" fill="#26192A"/>
<g clip-path="url(#clip0_247_1819)">
<path d="M73.5 19L68 21.5L62 17.5V14.5L63.5 11.5H66.5C67.6667 10.5 70.1 8.5 70.5 8.5H75.5L76.5 11.5L75.5 14.5L73.5 19Z" fill="white"/>
<path d="M81.3341 14.8302L81.6236 14.5003L81.3341 14.1705L78.9343 11.4363L79.2687 7.81716L79.309 7.38067L78.8816 7.28358L75.3305 6.47697L73.4715 3.34904L73.2474 2.972L72.8444 3.14506L69.5 4.58118L66.1556 3.14506L65.7526 2.972L65.5285 3.34904L63.6699 6.4763L60.1197 7.27287L59.6908 7.3691L59.7313 7.80674L60.0657 11.4264L57.6653 14.1712L57.3769 14.5009L57.6659 14.8302L60.0657 17.5644L59.7313 21.194L59.6911 21.6304L60.1184 21.7275L63.6695 22.5341L65.5285 25.662L65.7532 26.04L66.1567 25.8655L69.5007 24.4198L72.8444 25.8556L73.2474 26.0286L73.4715 25.6516L75.3305 22.5237L78.8816 21.7171L79.309 21.62L79.2687 21.1835L78.9343 17.5643L81.3341 14.8302ZM67.0638 17.115L67.4173 17.4672L67.7702 17.1143L74.28 10.6045L75.0441 11.3741L67.4167 19.0016L63.9571 15.542L64.7194 14.7797L67.0638 17.115Z" fill="#2ECC71" stroke="white"/>
</g>
<defs>
<clipPath id="clip0_247_1819">
<rect width="25" height="25" fill="white" transform="translate(57 2)"/>
</clipPath>
</defs>
</svg>
