<svg width="26" height="28" viewBox="0 0 26 28" fill="none" xmlns="http://www.w3.org/2000/svg">
<path d="M25.0938 17.3311L23.1748 15.6904C23.2656 15.1338 23.3125 14.5654 23.3125 13.9971C23.3125 13.4287 23.2656 12.8604 23.1748 12.3037L25.0938 10.6631C25.2385 10.5392 25.3421 10.3741 25.3908 10.1899C25.4394 10.0057 25.4309 9.81106 25.3662 9.63183L25.3398 9.55566C24.8116 8.07918 24.0205 6.71045 23.0049 5.51562L22.9522 5.4541C22.8289 5.30923 22.6647 5.2051 22.4812 5.15541C22.2976 5.10573 22.1033 5.11283 21.9238 5.17578L19.542 6.02246C18.6631 5.30176 17.6816 4.7334 16.6211 4.33496L16.1611 1.84473C16.1264 1.65735 16.0355 1.48497 15.9005 1.35048C15.7655 1.216 15.5928 1.12577 15.4053 1.0918L15.3262 1.07715C13.7998 0.801758 12.1943 0.801758 10.668 1.07715L10.5889 1.0918C10.4014 1.12577 10.2286 1.216 10.0936 1.35048C9.95861 1.48497 9.86772 1.65735 9.83301 1.84473L9.37012 4.34668C8.31804 4.7452 7.33829 5.31326 6.46973 6.02832L4.07032 5.17578C3.89092 5.11233 3.69646 5.10497 3.51278 5.15469C3.32911 5.2044 3.1649 5.30883 3.042 5.4541L2.98926 5.51562C1.97485 6.7113 1.18392 8.0798 0.654303 9.55566L0.627936 9.63183C0.4961 9.99805 0.604498 10.4082 0.900397 10.6631L2.84278 12.3213C2.75196 12.8721 2.70801 13.4346 2.70801 13.9941C2.70801 14.5566 2.75196 15.1191 2.84278 15.667L0.900397 17.3252C0.755657 17.4491 0.652066 17.6141 0.603396 17.7983C0.554727 17.9826 0.563286 18.1772 0.627936 18.3564L0.654303 18.4326C1.18458 19.9092 1.96973 21.2715 2.98926 22.4727L3.042 22.5342C3.1652 22.679 3.32941 22.7832 3.51298 22.8329C3.69655 22.8826 3.89087 22.8755 4.07032 22.8125L6.46973 21.96C7.34278 22.6777 8.31836 23.2461 9.37012 23.6416L9.83301 26.1436C9.86772 26.3309 9.95861 26.5033 10.0936 26.6378C10.2286 26.7723 10.4014 26.8625 10.5889 26.8965L10.668 26.9111C12.2084 27.188 13.7858 27.188 15.3262 26.9111L15.4053 26.8965C15.5928 26.8625 15.7655 26.7723 15.9005 26.6378C16.0355 26.5033 16.1264 26.3309 16.1611 26.1436L16.6211 23.6533C17.6812 23.2559 18.6682 22.6857 19.542 21.9658L21.9238 22.8125C22.1032 22.8759 22.2977 22.8833 22.4814 22.8336C22.665 22.7839 22.8292 22.6794 22.9522 22.5342L23.0049 22.4727C24.0244 21.2686 24.8096 19.9092 25.3398 18.4326L25.3662 18.3564C25.4981 17.9961 25.3897 17.5859 25.0938 17.3311ZM21.0947 12.6494C21.168 13.0918 21.2061 13.5459 21.2061 14C21.2061 14.4541 21.168 14.9082 21.0947 15.3506L20.9014 16.5254L23.0898 18.3975C22.7581 19.1618 22.3393 19.8853 21.8418 20.5537L19.1231 19.5898L18.2031 20.3457C17.5029 20.9199 16.7236 21.3711 15.8799 21.6875L14.7637 22.1064L14.2393 24.9482C13.4118 25.042 12.5765 25.042 11.749 24.9482L11.2246 22.1006L10.1172 21.6758C9.28223 21.3594 8.50587 20.9082 7.81153 20.3369L6.89161 19.5781L4.15528 20.5508C3.65723 19.8799 3.24122 19.1562 2.90723 18.3945L5.11915 16.5049L4.92872 15.333C4.8584 14.8965 4.82032 14.4453 4.82032 14C4.82032 13.5518 4.85547 13.1035 4.92872 12.667L5.11915 11.4951L2.90723 9.60547C3.23829 8.84082 3.65723 8.12012 4.15528 7.44922L6.89161 8.42187L7.81153 7.66309C8.50587 7.0918 9.28223 6.64062 10.1172 6.32422L11.2275 5.90527L11.752 3.05762C12.5752 2.96387 13.416 2.96387 14.2422 3.05762L14.7666 5.89941L15.8828 6.31836C16.7236 6.63477 17.5059 7.08594 18.2061 7.66016L19.126 8.41601L21.8447 7.45215C22.3428 8.12305 22.7588 8.84668 23.0928 9.6084L20.9043 11.4805L21.0947 12.6494ZM13 8.55078C10.1523 8.55078 7.84376 10.8594 7.84376 13.707C7.84376 16.5547 10.1523 18.8633 13 18.8633C15.8477 18.8633 18.1563 16.5547 18.1563 13.707C18.1563 10.8594 15.8477 8.55078 13 8.55078ZM15.3203 16.0273C15.016 16.3325 14.6543 16.5746 14.2561 16.7395C13.8579 16.9044 13.431 16.989 13 16.9883C12.124 16.9883 11.3008 16.6455 10.6797 16.0273C10.3745 15.723 10.1325 15.3613 9.96755 14.9631C9.80264 14.5649 9.71808 14.138 9.71875 13.707C9.71875 12.8311 10.0615 12.0078 10.6797 11.3867C11.3008 10.7656 12.124 10.4258 13 10.4258C13.876 10.4258 14.6992 10.7656 15.3203 11.3867C15.6255 11.691 15.8675 12.0527 16.0325 12.4509C16.1974 12.8491 16.2819 13.276 16.2813 13.707C16.2813 14.583 15.9385 15.4062 15.3203 16.0273Z" fill="#D3D3D3"/>
</svg>
