<svg width="228" height="190" viewBox="0 0 228 190" fill="none" xmlns="http://www.w3.org/2000/svg">
<path d="M140.523 168.998C140.523 168.998 161.182 148.897 195.429 183.33C239.912 228.185 188.914 265.782 188.914 265.782C188.914 265.782 121.538 215.529 140.523 168.998Z" fill="#FAB217"/>
<path d="M118.933 74.4498C118.933 74.4498 199.338 67.3771 207.9 34.4335C216.461 1.48979 201.944 -3.53551 195.243 4.46775C188.543 12.471 196.546 42.4367 177.562 45.4147C166.208 47.2759 194.871 16.938 183.89 12.0988C172.909 7.25959 170.675 53.0457 163.975 50.44C157.274 47.8343 174.212 19.1714 160.625 24.569C147.224 29.9665 160.066 59.0016 142.757 60.6767C140.71 60.8629 148.341 41.32 140.71 43.7396C133.265 45.9731 148.341 62.9102 111.488 72.0302C111.861 72.0302 112.419 78.3584 118.933 74.4498Z" fill="white"/>
<path d="M115.21 76.3102C112.232 76.3102 111.302 73.5184 111.115 72.0294C111.115 71.6571 111.302 71.2849 111.674 71.2849C136.614 65.1429 137.173 55.6506 137.731 49.3224C137.917 46.3445 138.103 43.9249 140.895 42.9943C142.384 42.622 143.501 42.8082 144.245 43.7388C145.92 45.7861 144.99 50.9976 144.059 55.4645C143.687 57.1396 143.315 59.0008 143.315 59.9314C151.504 59.0008 152.249 50.8114 152.807 42.2498C153.365 34.4327 153.924 26.6155 160.624 23.8237C163.416 22.7069 165.091 22.8931 166.208 24.1959C167.883 26.4294 166.58 31.6408 165.091 37.2245C163.602 42.622 162.113 48.9502 164.347 49.6947C164.533 49.6947 164.533 49.6947 164.719 49.6947C166.766 49.6947 169 41.5053 170.861 34.0604C173.839 22.7069 176.817 10.7951 182.586 10.7951C183.145 10.7951 183.889 10.9812 184.448 11.1673C185.751 11.7257 186.681 12.6563 187.053 13.9592C188.542 18.4261 184.262 26.0571 180.539 32.7576C177.933 37.4106 175.142 42.622 175.886 44.111C175.886 44.111 176.072 44.4833 176.817 44.4833C177.003 44.4833 177.375 44.4833 177.561 44.4833C189.101 42.622 190.031 30.1518 191.148 19.1706C191.706 12.8425 192.265 6.88653 194.871 3.72245C196.732 1.30286 199.338 0 201.943 0C204.363 0 206.596 1.11674 208.085 3.35021C210.505 6.51429 213.855 14.7037 208.83 34.2465C205.107 48.2057 188.915 59.1869 160.624 67.0041C140.709 72.5878 121.352 74.449 119.491 74.6351C117.816 75.938 116.327 76.3102 115.21 76.3102ZM112.604 72.5878C112.791 73.5184 113.535 75.0073 115.21 75.0073C116.141 75.0073 117.258 74.6351 118.56 73.8906C118.56 73.8906 118.747 73.8906 118.933 73.8906C119.677 73.8906 198.779 66.4457 207.341 34.4327C212.366 15.6343 209.202 7.81714 206.969 4.83918C205.666 2.97796 203.804 2.04735 201.943 2.04735C199.896 2.04735 197.662 3.16408 195.987 5.21143C193.754 8.00327 193.195 13.7731 192.637 19.9151C191.706 31.4547 190.404 44.4833 177.933 46.3445C177.561 46.3445 177.189 46.3445 177.003 46.3445C175.886 46.3445 175.142 45.9722 174.769 45.2278C173.653 43.1804 175.7 39.0857 179.422 32.5714C182.773 26.4294 187.053 18.6122 185.937 14.8898C185.564 13.9592 185.006 13.4008 184.076 12.8425C183.703 12.6563 183.145 12.4702 182.773 12.4702C178.12 12.4702 174.955 24.7543 172.35 34.6188C169.744 44.8555 167.883 51.1837 164.905 51.1837C164.719 51.1837 164.347 51.1837 164.16 50.9976C160.624 49.6947 162.299 43.3665 163.974 36.8522C165.277 32.1992 166.58 26.8016 165.277 25.1265C165.091 24.9404 164.719 24.5682 163.974 24.5682C163.23 24.5682 162.485 24.7543 161.369 25.1265C155.599 27.5461 155.04 34.6188 154.482 42.2498C153.924 51.1837 153.179 60.3037 143.315 61.2343C142.942 61.2343 142.57 61.0482 142.384 60.862C141.826 60.1176 142.012 58.6286 142.756 55.0923C143.501 51.5559 144.617 45.9722 143.315 44.4833C142.942 44.111 142.384 43.9249 141.453 44.2971C139.592 44.8555 139.406 46.3445 139.22 49.3224C138.662 55.8367 137.917 66.2596 112.604 72.5878Z" fill="#26192A"/>
<path d="M95.295 78.7296C95.295 78.7296 15.2624 69.4235 7.44521 36.2937C-0.371932 3.1639 14.5179 -1.48916 21.0322 6.70023C27.5465 15.0757 18.7987 44.6692 37.4109 48.2055C48.7644 50.439 20.8461 19.1704 32.0134 14.7035C43.1807 10.2366 44.1114 56.0227 50.8118 53.6031C57.5122 51.1835 41.5056 22.1484 54.9064 27.7321C68.3073 33.3157 54.5342 62.1647 71.6575 64.3982C73.7048 64.5843 66.6322 45.0415 74.0771 47.461C81.522 50.0668 65.8877 66.4455 102.554 76.4962C102.554 76.4962 101.995 82.8243 95.295 78.7296Z" fill="white"/>
<path d="M99.2038 80.7779C98.087 80.7779 96.598 80.2195 95.1091 79.2889C93.2478 79.1028 73.8911 76.4971 54.1621 70.5411C26.0576 61.7934 10.2372 50.4399 6.88702 36.4807C2.42008 17.124 5.77026 8.93461 8.37598 5.77052C10.0511 3.72318 12.2846 2.60645 14.5181 2.60645C17.1238 2.60645 19.7295 4.09542 21.5907 6.51501C24.0103 9.6791 24.3825 15.635 24.7548 22.1493C25.4993 33.1305 26.2438 45.6007 37.5972 47.8342C37.9695 47.8342 38.1556 48.0203 38.5278 48.0203C39.2723 48.0203 39.4585 47.8342 39.4585 47.6481C40.3891 46.1591 37.5972 40.9477 35.1777 36.2946C31.6413 29.4081 27.5466 21.5909 29.2217 17.3101C29.7801 16.0073 30.7107 15.0766 32.0136 14.5183C32.5719 14.3322 33.1303 14.146 33.6886 14.146C39.4584 14.146 42.2503 26.0579 44.856 37.5975C46.5311 44.6701 48.3923 53.4179 50.4397 53.4179H50.6258C53.0454 52.4873 51.5564 46.3452 50.2535 40.7615C48.9507 35.1779 47.8339 29.9664 49.509 27.733C50.6258 26.4301 52.3009 26.244 55.0927 27.5469C61.607 30.3387 61.9792 38.342 62.3515 46.1591C62.7237 54.7207 63.096 62.9101 71.2854 64.0269C71.2854 63.2824 70.9131 61.235 70.727 59.5599C69.9825 55.093 69.0519 49.8815 70.9131 47.8342C71.6576 46.9036 72.7744 46.7175 74.2634 47.2758C77.0552 48.2064 77.0552 50.8122 77.2413 53.604C77.4274 59.9322 77.9858 69.4244 102.554 76.3109C102.926 76.3109 103.112 76.6832 103.112 77.0554C103.112 77.986 101.996 80.7779 99.2038 80.7779ZM14.5181 3.72318C12.6568 3.72318 10.7956 4.65379 9.49272 6.51501C7.07313 9.49297 3.90904 17.124 8.37598 36.1085C16.007 68.3077 94.7368 77.986 95.6674 77.986C95.8536 77.986 95.8535 77.986 96.0397 78.1722C97.3425 79.1028 98.6454 79.475 99.576 79.475C101.251 79.475 101.996 77.986 102.182 77.0554C77.0552 69.9828 76.6829 59.5599 76.4968 53.2318C76.3107 50.2538 76.3107 48.7648 74.4494 48.0203C73.5188 47.6481 72.9605 47.8342 72.5882 48.2064C71.2854 49.6954 72.216 55.2791 72.7744 58.8154C73.3327 62.3518 73.5189 63.8407 72.9605 64.5852C72.7744 64.7713 72.5883 64.9575 72.216 64.9575C62.3515 63.6546 61.9792 54.5346 61.4209 45.6007C61.0486 37.9697 60.6764 30.7109 54.9066 28.2913C53.7899 27.9191 53.0454 27.5469 52.3009 27.5469C51.5564 27.5469 51.1842 27.9191 50.9981 28.1052C49.6952 29.7803 50.8119 35.1779 51.9287 39.8309C53.4177 46.5313 54.9066 52.6734 51.3703 53.9762C51.1842 53.9762 50.8119 54.1624 50.6258 54.1624C47.6478 54.1624 45.9728 47.8342 43.5532 37.4113C41.3197 27.3607 38.5278 15.0766 33.6886 15.0766C33.3164 15.0766 32.9442 15.0766 32.3858 15.2628C31.4552 15.635 30.7107 16.3795 30.5246 17.124C29.0356 20.8464 33.1303 28.6636 36.4805 34.9917C39.8307 41.6922 41.8781 45.7869 40.7613 47.8342C40.203 48.7648 39.2723 49.1371 37.4111 48.7648C24.9409 46.3452 24.1964 33.3166 23.4519 21.7771C23.0797 15.635 22.7074 9.86522 20.4739 7.07338C18.7988 5.02604 16.7515 3.72318 14.5181 3.72318Z" fill="#26192A"/>
<path d="M156.157 192.823C156.157 192.823 156.343 76.3101 134.939 63.0954C113.535 49.8807 30.3383 83.5689 32.1996 116.14C34.0608 148.712 99.5759 124.33 99.5759 124.33L93.0616 197.29L156.157 192.823Z" fill="#BB7A46"/>
<path d="M136.8 72.2151C136.8 72.2151 181.469 72.2151 184.82 87.1049C184.82 87.1049 155.784 114.093 136.8 72.2151Z" fill="#BB7A46"/>
<path d="M54.7196 83.9405C54.7196 83.9405 73.7041 109.067 69.051 132.146C69.051 132.146 36.6657 140.522 29.9653 120.42C23.2649 100.505 54.7196 83.9405 54.7196 83.9405Z" fill="#F8C19A"/>
<path d="M50.9972 133.264C48.5776 133.264 45.9719 126.192 44.8551 123.214C44.669 122.842 44.8551 122.469 45.2274 122.283C45.5996 122.097 45.9719 122.283 46.158 122.655C47.8331 128.053 50.0666 131.962 50.8111 131.775C50.8111 131.775 52.3 131.403 52.1139 119.677C52.1139 119.305 52.4862 118.933 52.8584 118.933C53.2307 118.933 53.6029 119.305 53.6029 119.677C53.789 131.217 52.4862 132.892 50.9972 133.264C50.9972 133.264 51.1833 133.264 50.9972 133.264Z" fill="#26192A"/>
<path d="M43.739 91.3854C43.739 91.3854 50.6256 125.818 30.1521 109.067C29.966 109.067 31.0827 99.7609 43.739 91.3854Z" fill="#26192A"/>
<path d="M111.86 92.3164C111.488 92.3164 111.115 92.1303 110.743 91.9441C107.765 90.0829 108.137 79.6601 108.324 77.6127C108.324 77.2405 108.696 76.8682 109.068 76.8682C109.44 76.8682 109.813 77.2405 109.813 77.6127C109.626 82.0797 109.813 89.5246 111.488 90.6413C111.674 90.8274 111.86 90.8274 112.418 90.6413C116.513 88.4078 116.699 78.9156 116.699 78.9156C116.699 78.5433 117.071 78.1711 117.444 78.1711C117.816 78.1711 118.188 78.5433 118.188 78.9156C118.188 79.2878 118.188 89.3384 113.163 91.9441C112.604 92.3164 112.232 92.3164 111.86 92.3164Z" fill="#26192A"/>
<path d="M80.7774 87.2908C80.219 87.2908 79.8467 87.1047 79.6606 86.9185C77.0549 85.0573 77.9855 76.4957 78.3577 74.8206C78.3577 74.4483 78.73 74.0761 79.1022 74.2622C79.4745 74.2622 79.8467 74.6345 79.6606 75.0067C79.1022 78.9153 79.1022 84.8712 80.4051 85.8018C80.5912 85.8018 80.7773 85.9879 81.3357 85.6157C85.6165 83.3822 86.361 75.3789 86.361 75.3789C86.361 75.0067 86.7333 74.6345 87.1055 74.8206C87.4778 74.8206 87.85 75.1928 87.6639 75.5651C87.6639 75.9373 86.7332 84.3128 81.894 86.9185C81.7079 87.1047 81.1496 87.2908 80.7774 87.2908Z" fill="#26192A"/>
<path d="M169.557 86.9195C169.371 86.9195 169.371 86.9195 169.185 86.9195C168.999 86.9195 158.204 80.7775 144.803 80.9636C144.431 80.9636 144.059 80.5914 144.059 80.2191C144.059 79.8469 144.431 79.4746 144.803 79.4746C158.576 79.4746 169.371 85.2444 169.93 85.6167C170.302 85.8028 170.302 86.1751 170.116 86.5473C170.116 86.7334 169.743 86.9195 169.557 86.9195Z" fill="#26192A"/>
<path d="M155.971 175.328C155.971 175.328 197.848 225.022 187.24 287.187C176.444 349.538 99.762 339.488 76.8689 316.409C39.4583 278.812 95.1089 177.561 95.1089 177.561L155.971 175.328Z" fill="#BB7A46"/>
<path d="M161.927 186.123C161.927 186.123 196.731 185.751 201.943 155.413C204.549 140.709 190.403 126.192 190.403 126.192L208.829 116.141C208.829 116.141 231.909 139.965 222.603 169.931C211.621 204.922 174.024 213.669 174.024 213.669L161.927 186.123Z" fill="#BB7A46"/>
<path d="M94.9228 177.189C94.9228 177.189 74.0771 204.922 46.3449 191.148C33.1302 184.448 29.5939 164.533 29.5939 164.533L10.6094 173.467C10.6094 173.467 16.193 206.224 45.7865 216.461C80.5914 228.559 109.813 203.246 109.813 203.246L94.9228 177.189Z" fill="#BB7A46"/>
<path d="M85.6161 303.38C85.6161 303.38 72.5875 279.928 76.8683 251.08C81.1491 222.231 96.225 183.145 123.771 204.363C151.503 225.581 160.623 298.541 136.8 310.825C97.1556 331.298 85.6161 303.38 85.6161 303.38Z" fill="#F8C19A"/>
<path d="M165.463 185.937C165.463 185.937 160.623 245.496 192.078 252.382C192.078 252.382 189.1 259.827 188.914 265.597C188.914 265.597 164.904 258.152 156.156 232.84C147.409 207.527 155.784 171.605 155.784 171.605C155.784 171.605 165.835 182.959 165.463 185.937Z" fill="#FAB217"/>
<path d="M94.9226 177.189C94.9226 177.189 71.8435 226.511 64.9569 262.433C64.9569 262.433 58.8149 255.919 61.979 234.329C64.5847 214.413 79.2883 179.236 94.9226 177.189Z" fill="#FAB217"/>
<path d="M77.7989 59.9308C62.3507 60.8615 60.1172 71.2843 60.1172 71.2843C60.1172 71.2843 52.4862 97.7137 80.2184 95.4802C106.089 93.619 96.5972 58.8141 77.7989 59.9308ZM79.4739 89.7104C61.0478 91.1994 66.0731 73.5178 66.0731 73.5178C66.0731 73.5178 67.5621 66.6313 77.7989 65.8868C90.2691 65.1423 96.5972 88.4076 79.4739 89.7104Z" fill="#98D5CC"/>
<path d="M117.443 66.0743C101.995 67.0049 99.7619 77.4278 99.7619 77.4278C99.7619 77.4278 92.1309 103.857 119.863 101.624C145.734 99.7625 136.242 64.9576 117.443 66.0743ZM119.119 95.8539C100.692 97.3429 105.718 79.6613 105.718 79.6613C105.718 79.6613 107.207 72.7747 117.443 72.0303C129.914 71.2858 136.428 94.5511 119.119 95.8539Z" fill="#98D5CC"/>
<path d="M134.567 79.4739L149.456 72.9596L147.037 68.4927L130.286 74.8209L134.567 79.4739Z" fill="#98D5CC"/>
<path d="M93.061 80.5919C93.061 80.5919 98.4586 80.2197 101.25 83.1976L103.298 77.8001C103.298 77.8001 99.7615 72.2164 92.8749 75.1944V80.5919H93.061Z" fill="#98D5CC"/>
<path d="M199.151 139.033L217.763 128.796L209.76 113.72L190.589 126.19L199.151 139.033Z" fill="#26192A"/>
<path d="M147.223 121.538C146.85 121.538 146.478 121.166 146.478 120.794C146.478 118.933 145.734 115.21 145.734 115.21C145.734 114.838 145.92 114.466 146.292 114.466C146.664 114.466 147.036 114.652 147.036 115.024C147.036 115.21 147.781 118.933 147.781 120.98C147.967 121.166 147.595 121.538 147.223 121.538Z" fill="#26192A"/>
<path d="M142.198 126.191C141.826 126.191 141.453 125.819 141.453 125.447C141.453 123.586 140.709 119.863 140.709 119.863C140.709 119.491 140.895 119.119 141.267 119.119C141.64 119.119 142.012 119.305 142.012 119.677C142.012 119.863 142.756 123.586 142.756 125.633C142.942 126.005 142.57 126.191 142.198 126.191Z" fill="#26192A"/>
<path d="M147.968 132.335C147.596 132.335 147.223 131.963 147.223 131.59C147.223 129.729 146.479 126.007 146.479 126.007C146.479 125.635 146.665 125.262 147.037 125.262C147.409 125.262 147.782 125.448 147.782 125.821C147.782 126.007 148.526 129.729 148.526 131.777C148.712 132.149 148.34 132.335 147.968 132.335Z" fill="#26192A"/>
<path d="M141.825 139.035C141.453 139.035 141.081 138.662 141.081 138.29C141.081 136.429 140.336 132.706 140.336 132.706C140.336 132.334 140.522 131.962 140.895 131.962C141.267 131.962 141.639 132.148 141.639 132.52C141.639 132.706 142.384 136.429 142.384 138.476C142.57 138.848 142.197 139.035 141.825 139.035Z" fill="#26192A"/>
<path d="M147.968 142.757C147.596 142.757 147.223 142.385 147.223 142.013C147.223 140.151 146.479 136.429 146.479 136.429C146.479 136.057 146.665 135.684 147.037 135.684C147.409 135.684 147.782 135.871 147.782 136.243C147.782 136.429 148.526 140.151 148.526 142.199C148.712 142.385 148.34 142.757 147.968 142.757Z" fill="#26192A"/>
<path d="M141.453 152.436C141.081 152.436 140.709 152.064 140.709 151.691C140.709 149.83 139.965 146.108 139.965 146.108C139.965 145.735 140.151 145.363 140.523 145.363C140.895 145.363 141.267 145.549 141.267 145.921C141.267 146.108 142.012 149.83 142.012 151.877C142.198 152.064 141.826 152.436 141.453 152.436Z" fill="#26192A"/>
<path d="M149.27 155.413C148.898 155.413 148.526 155.041 148.526 154.669C148.526 152.807 147.781 149.085 147.781 149.085C147.781 148.713 147.967 148.34 148.339 148.34C148.712 148.34 149.084 148.526 149.084 148.899C149.084 149.085 149.828 152.807 149.828 154.855C150.015 155.041 149.642 155.413 149.27 155.413Z" fill="#26192A"/>
<path d="M142.942 163.789C142.57 163.789 142.198 163.416 142.198 163.044C142.198 161.183 141.453 157.46 141.453 157.46C141.453 157.088 141.639 156.716 142.012 156.716C142.384 156.716 142.756 156.902 142.756 157.274C142.756 157.46 143.5 161.183 143.5 163.23C143.687 163.416 143.501 163.789 142.942 163.789Z" fill="#26192A"/>
<path d="M149.643 166.768C149.271 166.768 148.898 166.395 148.898 166.023C148.898 164.162 148.154 160.439 148.154 160.439C148.154 160.067 148.34 159.695 148.712 159.695C149.084 159.695 149.457 159.881 149.457 160.253C149.457 160.439 150.201 164.162 150.201 166.209C150.387 166.395 150.015 166.768 149.643 166.768Z" fill="#26192A"/>
<path d="M141.081 112.605C140.709 112.605 140.336 112.233 140.336 111.86C140.336 109.999 139.592 106.277 139.592 106.277C139.592 105.904 139.778 105.532 140.15 105.532C140.523 105.532 140.895 105.718 140.895 106.091C140.895 106.277 141.639 109.999 141.639 112.046C141.825 112.233 141.453 112.605 141.081 112.605Z" fill="#26192A"/>
<path d="M145.176 107.394C144.804 107.394 144.431 107.022 144.431 106.649C144.431 104.788 143.687 101.066 143.687 101.066C143.687 100.693 143.873 100.321 144.245 100.321C144.618 100.321 144.99 100.507 144.99 100.88C144.99 101.066 145.734 104.788 145.734 106.835C145.92 107.022 145.548 107.394 145.176 107.394Z" fill="#26192A"/>
<path d="M0 173.279L172.908 104.786L225.022 102.553L190.031 138.288L12.4702 209.387L0 173.279Z" fill="#F58A28"/>
<path d="M33.1298 160.251L44.6694 197.475L12.4702 209.387L0 173.279L33.1298 160.251Z" fill="#DB6362"/>
<path d="M172.908 104.786L166.393 116.14L179.422 120.793L172.163 134.007L190.031 138.288L225.022 102.553L172.908 104.786Z" fill="#F8C19A"/>
<path d="M198.965 103.669L207.154 121.723L225.022 102.553L198.965 103.669Z" fill="#26192A"/>
<path d="M49.3222 195.429C48.95 195.429 48.7639 195.242 48.5777 194.87L36.6659 158.762C36.4798 158.39 36.6659 158.018 37.0382 157.832C37.4104 157.646 37.7827 157.832 37.9688 158.204L49.8806 194.312C50.0667 194.684 49.8806 195.056 49.5083 195.242C49.5083 195.429 49.3222 195.429 49.3222 195.429Z" fill="#26192A"/>
<path d="M40.9467 165.276C40.5744 165.276 40.3883 165.09 40.3883 164.904C40.2022 164.532 40.3883 164.16 40.7606 163.973L166.207 115.582C166.579 115.396 166.952 115.582 167.138 115.954C167.324 116.326 167.138 116.698 166.765 116.884L41.3189 165.276C41.1328 165.276 41.1328 165.276 40.9467 165.276Z" fill="#26192A"/>
<path d="M44.6689 181.656C44.2967 181.656 44.1106 181.47 43.9245 181.284C43.7383 180.912 43.9245 180.539 44.2967 180.353L171.604 133.45C171.977 133.264 172.349 133.45 172.535 133.823C172.721 134.195 172.535 134.567 172.163 134.753L45.0412 181.47C44.8551 181.656 44.8551 181.656 44.6689 181.656Z" fill="#26192A"/>
<path d="M196.917 193.009C196.545 193.009 196.359 192.823 196.173 192.451C196.173 192.078 196.359 191.706 196.731 191.706C197.848 191.52 200.268 189.1 201.57 187.798C201.757 187.425 202.315 187.425 202.501 187.798C202.873 187.984 202.873 188.542 202.501 188.728C202.315 188.914 198.779 192.451 196.917 193.009Z" fill="#26192A"/>
<path d="M205.665 190.59C205.479 190.59 205.107 190.404 205.107 190.218C204.921 189.846 205.107 189.473 205.479 189.287C206.41 188.729 208.271 185.937 209.015 184.076C209.201 183.704 209.574 183.517 209.946 183.704C210.318 183.89 210.504 184.262 210.318 184.634C210.132 185.193 207.712 189.473 206.037 190.404C205.851 190.59 205.665 190.59 205.665 190.59Z" fill="#26192A"/>
<path d="M204.176 182.4C203.99 182.4 203.618 182.214 203.618 182.028C203.432 181.655 203.618 181.283 203.99 181.097C204.921 180.539 206.782 177.747 207.527 175.886C207.713 175.513 208.085 175.327 208.457 175.513C208.829 175.7 209.016 176.072 208.829 176.444C208.643 177.002 206.224 181.283 204.549 182.214C204.363 182.4 204.363 182.4 204.176 182.4Z" fill="#26192A"/>
<path d="M212.552 180.724C212.366 180.724 211.994 180.538 211.994 180.352C211.807 179.98 211.994 179.607 212.366 179.421C213.296 178.863 215.158 176.071 215.902 174.21C216.088 173.838 216.461 173.651 216.833 173.838C217.205 174.024 217.391 174.396 217.205 174.768C217.019 175.327 214.599 179.607 212.924 180.538C212.924 180.538 212.738 180.724 212.552 180.724Z" fill="#26192A"/>
<path d="M211.435 173.466C211.249 173.466 210.877 173.28 210.877 173.094C210.691 172.722 210.877 172.35 211.249 172.164C212.179 171.605 214.041 168.813 214.785 166.952C214.971 166.58 215.344 166.394 215.716 166.58C216.088 166.766 216.274 167.138 216.088 167.511C215.902 168.069 213.482 172.35 211.807 173.28C211.621 173.466 211.621 173.466 211.435 173.466Z" fill="#26192A"/>
<path d="M218.321 168.999C218.135 168.999 217.949 168.999 217.763 168.813C217.577 168.44 217.577 168.068 217.763 167.882C218.693 167.138 219.81 163.974 220.182 162.112C220.369 161.74 220.741 161.554 221.113 161.554C221.485 161.74 221.672 162.112 221.672 162.485C221.485 163.043 220.182 167.696 218.693 168.999C218.693 168.999 218.507 168.999 218.321 168.999Z" fill="#26192A"/>
</svg>
