<svg width="28" height="26" viewBox="0 0 28 26" fill="none" xmlns="http://www.w3.org/2000/svg">
<path d="M2.14145 25.5C2.04145 25.5 1.94144 25.5 1.94144 25.4C1.84144 25.3 1.7414 25.1 1.8414 25L6.94144 13.5L0.14145 7.4C0.0414504 7.3 -0.0585862 7.1 0.0414138 7C0.141414 6.9 0.241438 6.8 0.441438 6.8L9.44144 7.8L12.8414 0.200001C12.9414 0.100001 13.0414 0 13.2414 0C13.4414 0 13.5414 0.0999992 13.5414 0.299999L15.5414 8.5L26.7414 9.7C26.9414 9.7 27.0414 9.8 27.0414 10C27.0414 10.2 27.0414 10.3 26.8414 10.4L17.3414 16.2L19.1415 23.6C19.1415 23.8 19.1414 23.9 18.9414 24C18.8414 24.1 18.6414 24.1 18.5414 24L12.9414 18.9L2.3414 25.4C2.3414 25.5 2.24145 25.5 2.14145 25.5ZM7.54141 14L3.04141 24.1L12.4414 18.3L7.54141 14ZM13.6414 18.5L18.2414 22.6L16.7414 16.6L13.6414 18.5ZM7.8414 13.3L13.0414 18L16.5414 15.8L14.9414 9.1L9.94144 8.6L7.8414 13.3ZM15.7414 9.2L17.2414 15.4L25.5414 10.3L15.7414 9.2ZM1.54141 7.6L7.24143 12.7L9.14145 8.4L1.54141 7.6ZM10.2414 7.8L14.7414 8.3L13.0414 1.5L10.2414 7.8Z" fill="#ECF0F1" fill-opacity="0.4"/>
</svg>
