<svg width="295" height="207" viewBox="0 0 295 207" fill="none" xmlns="http://www.w3.org/2000/svg">
<rect y="13" width="295" height="194" rx="25" fill="#16A085"/>
<rect width="295" height="198" rx="25" fill="#1ABC9C"/>
<path d="M22.976 99.128C22.6453 99.128 22.3893 99.0373 22.208 98.856C22.0373 98.664 21.952 98.4027 21.952 98.072V89.432H18.832C18.5547 89.432 18.336 89.3573 18.176 89.208C18.0267 89.048 17.952 88.8347 17.952 88.568C17.952 88.2907 18.0267 88.0827 18.176 87.944C18.336 87.7947 18.5547 87.72 18.832 87.72H27.12C27.3973 87.72 27.6107 87.7947 27.76 87.944C27.92 88.0827 28 88.2907 28 88.568C28 88.8347 27.92 89.048 27.76 89.208C27.6107 89.3573 27.3973 89.432 27.12 89.432H24V98.072C24 98.4027 23.9147 98.664 23.744 98.856C23.5733 99.0373 23.3173 99.128 22.976 99.128ZM31.2955 99.16C30.4848 99.16 29.7808 98.9947 29.1835 98.664C28.5862 98.3333 28.1222 97.864 27.7915 97.256C27.4608 96.6373 27.2955 95.912 27.2955 95.08C27.2955 94.4507 27.3862 93.8907 27.5675 93.4C27.7595 92.8987 28.0315 92.472 28.3835 92.12C28.7355 91.7573 29.1568 91.4853 29.6475 91.304C30.1382 91.112 30.6875 91.016 31.2955 91.016C32.1062 91.016 32.8102 91.1813 33.4075 91.512C34.0048 91.8427 34.4688 92.312 34.7995 92.92C35.1302 93.528 35.2955 94.248 35.2955 95.08C35.2955 95.7093 35.1995 96.2747 35.0075 96.776C34.8262 97.2773 34.5595 97.7093 34.2075 98.072C33.8555 98.424 33.4342 98.696 32.9435 98.888C32.4528 99.0693 31.9035 99.16 31.2955 99.16ZM31.2955 97.64C31.6902 97.64 32.0368 97.544 32.3355 97.352C32.6342 97.16 32.8635 96.8773 33.0235 96.504C33.1942 96.12 33.2795 95.6453 33.2795 95.08C33.2795 94.2267 33.0982 93.592 32.7355 93.176C32.3728 92.7493 31.8928 92.536 31.2955 92.536C30.9008 92.536 30.5542 92.632 30.2555 92.824C29.9568 93.0053 29.7222 93.288 29.5515 93.672C29.3915 94.0453 29.3115 94.5147 29.3115 95.08C29.3115 95.9227 29.4928 96.5627 29.8555 97C30.2182 97.4267 30.6982 97.64 31.2955 97.64ZM39.9543 99.16C39.2716 99.16 38.6689 98.9947 38.1463 98.664C37.6343 98.3333 37.2343 97.864 36.9463 97.256C36.6583 96.6373 36.5143 95.912 36.5143 95.08C36.5143 94.2373 36.6583 93.5173 36.9463 92.92C37.2343 92.312 37.6343 91.8427 38.1463 91.512C38.6689 91.1813 39.2716 91.016 39.9543 91.016C40.6049 91.016 41.1703 91.176 41.6503 91.496C42.1409 91.816 42.4716 92.2373 42.6423 92.76H42.4663V88.6C42.4663 88.2693 42.5516 88.0187 42.7223 87.848C42.8929 87.6773 43.1383 87.592 43.4583 87.592C43.7783 87.592 44.0236 87.6773 44.1943 87.848C44.3756 88.0187 44.4663 88.2693 44.4663 88.6V98.104C44.4663 98.4347 44.3809 98.6907 44.2103 98.872C44.0396 99.0427 43.7943 99.128 43.4743 99.128C43.1543 99.128 42.9089 99.0427 42.7383 98.872C42.5676 98.6907 42.4823 98.4347 42.4823 98.104V96.856L42.6583 97.336C42.4983 97.8907 42.1729 98.3333 41.6823 98.664C41.1916 98.9947 40.6156 99.16 39.9543 99.16ZM40.5143 97.64C40.9089 97.64 41.2556 97.544 41.5543 97.352C41.8529 97.16 42.0823 96.8773 42.2423 96.504C42.4129 96.12 42.4983 95.6453 42.4983 95.08C42.4983 94.2267 42.3169 93.592 41.9543 93.176C41.5916 92.7493 41.1116 92.536 40.5143 92.536C40.1196 92.536 39.7729 92.632 39.4743 92.824C39.1756 93.0053 38.9409 93.288 38.7703 93.672C38.6103 94.0453 38.5303 94.5147 38.5303 95.08C38.5303 95.9227 38.7116 96.5627 39.0743 97C39.4369 97.4267 39.9169 97.64 40.5143 97.64ZM49.116 99.16C48.5507 99.16 48.044 99.0533 47.596 98.84C47.1587 98.616 46.812 98.3173 46.556 97.944C46.3107 97.5707 46.188 97.1493 46.188 96.68C46.188 96.104 46.3373 95.6507 46.636 95.32C46.9347 94.9787 47.42 94.7333 48.092 94.584C48.764 94.4347 49.6653 94.36 50.796 94.36H51.596V95.512H50.812C50.1507 95.512 49.6227 95.544 49.228 95.608C48.8333 95.672 48.5507 95.784 48.38 95.944C48.22 96.0933 48.14 96.3067 48.14 96.584C48.14 96.936 48.2627 97.224 48.508 97.448C48.7533 97.672 49.0947 97.784 49.532 97.784C49.884 97.784 50.1933 97.704 50.46 97.544C50.7373 97.3733 50.956 97.144 51.116 96.856C51.276 96.568 51.356 96.2373 51.356 95.864V94.024C51.356 93.4907 51.2387 93.1067 51.004 92.872C50.7693 92.6373 50.3747 92.52 49.82 92.52C49.5107 92.52 49.1747 92.5573 48.812 92.632C48.46 92.7067 48.0867 92.8347 47.692 93.016C47.4893 93.112 47.308 93.1387 47.148 93.096C46.9987 93.0533 46.8813 92.968 46.796 92.84C46.7107 92.7013 46.668 92.552 46.668 92.392C46.668 92.232 46.7107 92.0773 46.796 91.928C46.8813 91.768 47.0253 91.6507 47.228 91.576C47.7187 91.3733 48.188 91.2293 48.636 91.144C49.0947 91.0587 49.5107 91.016 49.884 91.016C50.652 91.016 51.2813 91.1333 51.772 91.368C52.2733 91.6027 52.6467 91.96 52.892 92.44C53.1373 92.9093 53.26 93.5173 53.26 94.264V98.104C53.26 98.4347 53.18 98.6907 53.02 98.872C52.86 99.0427 52.6307 99.128 52.332 99.128C52.0333 99.128 51.7987 99.0427 51.628 98.872C51.468 98.6907 51.388 98.4347 51.388 98.104V97.336H51.516C51.4413 97.7093 51.292 98.0347 51.068 98.312C50.8547 98.5787 50.5827 98.7867 50.252 98.936C49.9213 99.0853 49.5427 99.16 49.116 99.16ZM57.1959 102.008C56.9612 102.008 56.7692 101.944 56.6199 101.816C56.4705 101.699 56.3799 101.539 56.3479 101.336C56.3265 101.133 56.3639 100.92 56.4599 100.696L57.5479 98.28V99.112L54.6359 92.376C54.5399 92.1413 54.5079 91.9227 54.5399 91.72C54.5719 91.5173 54.6679 91.3573 54.8279 91.24C54.9985 91.112 55.2279 91.048 55.5159 91.048C55.7612 91.048 55.9585 91.1067 56.1079 91.224C56.2572 91.3307 56.3905 91.5387 56.5079 91.848L58.6679 97.24H58.1879L60.3959 91.832C60.5132 91.5333 60.6519 91.3307 60.8119 91.224C60.9719 91.1067 61.1852 91.048 61.4519 91.048C61.6865 91.048 61.8732 91.112 62.0119 91.24C62.1505 91.3573 62.2359 91.5173 62.2679 91.72C62.2999 91.912 62.2625 92.1253 62.1559 92.36L58.2679 101.24C58.1292 101.539 57.9799 101.741 57.8199 101.848C57.6599 101.955 57.4519 102.008 57.1959 102.008ZM65.006 91.64C64.8673 91.8107 64.718 91.9067 64.558 91.928C64.4087 91.9493 64.2753 91.9227 64.158 91.848C64.0407 91.7627 63.9767 91.6453 63.966 91.496C63.9553 91.336 64.0247 91.1653 64.174 90.984C64.3873 90.7173 64.5313 90.4507 64.606 90.184C64.6807 89.9173 64.718 89.6827 64.718 89.48L64.798 90.008C64.4247 90.008 64.1207 89.9013 63.886 89.688C63.662 89.4747 63.55 89.1867 63.55 88.824C63.55 88.472 63.6567 88.1893 63.87 87.976C64.0833 87.752 64.3713 87.64 64.734 87.64C65.1073 87.64 65.4007 87.768 65.614 88.024C65.8273 88.2693 65.934 88.6267 65.934 89.096C65.934 89.352 65.9073 89.6187 65.854 89.896C65.8113 90.1627 65.7207 90.4453 65.582 90.744C65.454 91.032 65.262 91.3307 65.006 91.64ZM70.1696 99.16C69.711 99.16 69.2256 99.112 68.7136 99.016C68.2016 98.92 67.743 98.7547 67.3376 98.52C67.167 98.4133 67.0443 98.2907 66.9696 98.152C66.9056 98.0027 66.879 97.8587 66.8896 97.72C66.911 97.5707 66.9643 97.4427 67.0496 97.336C67.1456 97.2293 67.263 97.16 67.4016 97.128C67.551 97.096 67.711 97.1227 67.8816 97.208C68.3083 97.4107 68.7083 97.5547 69.0816 97.64C69.455 97.7147 69.823 97.752 70.1856 97.752C70.6976 97.752 71.0763 97.6667 71.3216 97.496C71.5776 97.3147 71.7056 97.08 71.7056 96.792C71.7056 96.5467 71.6203 96.36 71.4496 96.232C71.2896 96.0933 71.0443 95.992 70.7136 95.928L69.1136 95.624C68.4523 95.496 67.9456 95.256 67.5936 94.904C67.2523 94.5413 67.0816 94.0773 67.0816 93.512C67.0816 93 67.2203 92.5573 67.4976 92.184C67.7856 91.8107 68.1803 91.5227 68.6816 91.32C69.183 91.1173 69.759 91.016 70.4096 91.016C70.879 91.016 71.3163 91.0693 71.7216 91.176C72.1376 91.272 72.5376 91.4267 72.9216 91.64C73.0816 91.7253 73.1883 91.8373 73.2416 91.976C73.3056 92.1147 73.3216 92.2587 73.2896 92.408C73.2576 92.5467 73.1936 92.6747 73.0976 92.792C73.0016 92.8987 72.879 92.968 72.7296 93C72.591 93.0213 72.431 92.9893 72.2496 92.904C71.919 92.7333 71.599 92.6107 71.2896 92.536C70.991 92.4613 70.703 92.424 70.4256 92.424C69.903 92.424 69.5136 92.5147 69.2576 92.696C69.0123 92.8773 68.8896 93.1173 68.8896 93.416C68.8896 93.64 68.9643 93.8267 69.1136 93.976C69.263 94.1253 69.4923 94.2267 69.8016 94.28L71.4016 94.584C72.095 94.712 72.6176 94.9467 72.9696 95.288C73.3323 95.6293 73.5136 96.088 73.5136 96.664C73.5136 97.4427 73.2096 98.056 72.6016 98.504C71.9936 98.9413 71.183 99.16 70.1696 99.16ZM83.3979 99.128C83.0672 99.128 82.8112 99.0373 82.6299 98.856C82.4592 98.664 82.3739 98.4027 82.3739 98.072V89.432H79.2539C78.9765 89.432 78.7579 89.3573 78.5979 89.208C78.4485 89.048 78.3739 88.8347 78.3739 88.568C78.3739 88.2907 78.4485 88.0827 78.5979 87.944C78.7579 87.7947 78.9765 87.72 79.2539 87.72H87.5419C87.8192 87.72 88.0325 87.7947 88.1819 87.944C88.3419 88.0827 88.4219 88.2907 88.4219 88.568C88.4219 88.8347 88.3419 89.048 88.1819 89.208C88.0325 89.3573 87.8192 89.432 87.5419 89.432H84.4219V98.072C84.4219 98.4027 84.3365 98.664 84.1659 98.856C83.9952 99.0373 83.7392 99.128 83.3979 99.128ZM91.7174 99.16C90.9067 99.16 90.2027 98.9947 89.6054 98.664C89.008 98.3333 88.544 97.864 88.2134 97.256C87.8827 96.6373 87.7174 95.912 87.7174 95.08C87.7174 94.4507 87.808 93.8907 87.9894 93.4C88.1814 92.8987 88.4534 92.472 88.8054 92.12C89.1574 91.7573 89.5787 91.4853 90.0694 91.304C90.56 91.112 91.1094 91.016 91.7174 91.016C92.528 91.016 93.232 91.1813 93.8294 91.512C94.4267 91.8427 94.8907 92.312 95.2214 92.92C95.552 93.528 95.7174 94.248 95.7174 95.08C95.7174 95.7093 95.6214 96.2747 95.4294 96.776C95.248 97.2773 94.9814 97.7093 94.6294 98.072C94.2774 98.424 93.856 98.696 93.3654 98.888C92.8747 99.0693 92.3254 99.16 91.7174 99.16ZM91.7174 97.64C92.112 97.64 92.4587 97.544 92.7574 97.352C93.056 97.16 93.2854 96.8773 93.4454 96.504C93.616 96.12 93.7014 95.6453 93.7014 95.08C93.7014 94.2267 93.52 93.592 93.1574 93.176C92.7947 92.7493 92.3147 92.536 91.7174 92.536C91.3227 92.536 90.976 92.632 90.6774 92.824C90.3787 93.0053 90.144 93.288 89.9734 93.672C89.8134 94.0453 89.7334 94.5147 89.7334 95.08C89.7334 95.9227 89.9147 96.5627 90.2774 97C90.64 97.4267 91.12 97.64 91.7174 97.64ZM98.3601 102.008C98.0401 102.008 97.7948 101.923 97.6241 101.752C97.4535 101.581 97.3681 101.331 97.3681 101V92.056C97.3681 91.7253 97.4535 91.4747 97.6241 91.304C97.7948 91.1333 98.0348 91.048 98.3441 91.048C98.6641 91.048 98.9095 91.1333 99.0801 91.304C99.2508 91.4747 99.3361 91.7253 99.3361 92.056V93.304L99.1601 92.824C99.3201 92.28 99.6455 91.8427 100.136 91.512C100.637 91.1813 101.219 91.016 101.88 91.016C102.563 91.016 103.16 91.1813 103.672 91.512C104.195 91.8427 104.6 92.312 104.888 92.92C105.176 93.5173 105.32 94.2373 105.32 95.08C105.32 95.912 105.176 96.6373 104.888 97.256C104.6 97.864 104.2 98.3333 103.688 98.664C103.176 98.9947 102.573 99.16 101.88 99.16C101.229 99.16 100.659 99 100.168 98.68C99.6775 98.3493 99.3468 97.9227 99.1761 97.4H99.3681V101C99.3681 101.331 99.2775 101.581 99.0961 101.752C98.9255 101.923 98.6801 102.008 98.3601 102.008ZM101.32 97.64C101.715 97.64 102.061 97.544 102.36 97.352C102.659 97.16 102.888 96.8773 103.048 96.504C103.219 96.12 103.304 95.6453 103.304 95.08C103.304 94.2267 103.123 93.592 102.76 93.176C102.397 92.7493 101.917 92.536 101.32 92.536C100.925 92.536 100.579 92.632 100.28 92.824C99.9815 93.0053 99.7468 93.288 99.5761 93.672C99.4161 94.0453 99.3361 94.5147 99.3361 95.08C99.3361 95.9227 99.5175 96.5627 99.8801 97C100.243 97.4267 100.723 97.64 101.32 97.64ZM107.954 99.112C107.634 99.112 107.389 99.016 107.218 98.824C107.047 98.632 106.962 98.3653 106.962 98.024V92.152C106.962 91.8 107.047 91.5333 107.218 91.352C107.389 91.16 107.634 91.064 107.954 91.064C108.274 91.064 108.519 91.16 108.69 91.352C108.871 91.5333 108.962 91.8 108.962 92.152V98.024C108.962 98.3653 108.877 98.632 108.706 98.824C108.535 99.016 108.285 99.112 107.954 99.112ZM107.954 89.576C107.581 89.576 107.287 89.4853 107.074 89.304C106.871 89.112 106.77 88.8507 106.77 88.52C106.77 88.1787 106.871 87.9173 107.074 87.736C107.287 87.5547 107.581 87.464 107.954 87.464C108.338 87.464 108.631 87.5547 108.834 87.736C109.037 87.9173 109.138 88.1787 109.138 88.52C109.138 88.8507 109.037 89.112 108.834 89.304C108.631 89.4853 108.338 89.576 107.954 89.576ZM114.656 99.16C113.835 99.16 113.12 98.9947 112.512 98.664C111.904 98.3227 111.435 97.8427 111.104 97.224C110.773 96.6053 110.608 95.88 110.608 95.048C110.608 94.4187 110.699 93.8587 110.88 93.368C111.072 92.8667 111.344 92.4453 111.696 92.104C112.048 91.752 112.475 91.4853 112.976 91.304C113.477 91.112 114.037 91.016 114.656 91.016C115.008 91.016 115.387 91.064 115.792 91.16C116.208 91.256 116.597 91.416 116.96 91.64C117.131 91.7467 117.243 91.8747 117.296 92.024C117.349 92.1733 117.36 92.328 117.328 92.488C117.296 92.6373 117.227 92.7707 117.12 92.888C117.024 92.9947 116.901 93.064 116.752 93.096C116.603 93.1173 116.437 93.08 116.256 92.984C116.021 92.8453 115.781 92.744 115.536 92.68C115.291 92.6053 115.056 92.568 114.832 92.568C114.48 92.568 114.171 92.6267 113.904 92.744C113.637 92.8507 113.408 93.0107 113.216 93.224C113.035 93.4267 112.896 93.6827 112.8 93.992C112.704 94.3013 112.656 94.6587 112.656 95.064C112.656 95.8533 112.843 96.4773 113.216 96.936C113.6 97.384 114.139 97.608 114.832 97.608C115.056 97.608 115.285 97.576 115.52 97.512C115.765 97.448 116.011 97.3467 116.256 97.208C116.437 97.112 116.597 97.08 116.736 97.112C116.885 97.144 117.008 97.2187 117.104 97.336C117.2 97.4427 117.259 97.576 117.28 97.736C117.301 97.8853 117.28 98.0347 117.216 98.184C117.163 98.3333 117.056 98.456 116.896 98.552C116.544 98.7653 116.171 98.92 115.776 99.016C115.381 99.112 115.008 99.16 114.656 99.16Z" fill="#2C3E50"/>
<path d="M23.744 129.216C23.04 129.216 22.496 129.024 22.112 128.64C21.728 128.24 21.536 127.688 21.536 126.984V114.312C21.536 113.592 21.728 113.04 22.112 112.656C22.512 112.272 23.064 112.08 23.768 112.08H29.672C31.592 112.08 33.072 112.576 34.112 113.568C35.168 114.544 35.696 115.896 35.696 117.624C35.696 119.352 35.168 120.712 34.112 121.704C33.072 122.68 31.592 123.168 29.672 123.168H25.952V126.984C25.952 127.688 25.768 128.24 25.4 128.64C25.032 129.024 24.48 129.216 23.744 129.216ZM25.952 119.784H28.904C29.736 119.784 30.376 119.608 30.824 119.256C31.272 118.888 31.496 118.344 31.496 117.624C31.496 116.888 31.272 116.344 30.824 115.992C30.376 115.64 29.736 115.464 28.904 115.464H25.952V119.784ZM39.4164 129.216C38.7124 129.216 38.1684 129.032 37.7844 128.664C37.4164 128.296 37.2324 127.76 37.2324 127.056V119.112C37.2324 118.424 37.4084 117.896 37.7604 117.528C38.1284 117.16 38.6484 116.976 39.3204 116.976C39.9924 116.976 40.5044 117.16 40.8564 117.528C41.2084 117.896 41.3844 118.424 41.3844 119.112V120.096H41.1444C41.3044 119.136 41.7124 118.376 42.3684 117.816C43.0404 117.256 43.8724 116.96 44.8644 116.928C45.3284 116.912 45.6724 117.032 45.8964 117.288C46.1364 117.528 46.2644 117.984 46.2804 118.656C46.2804 119.232 46.1604 119.688 45.9204 120.024C45.6804 120.36 45.2244 120.56 44.5524 120.624L44.0004 120.672C43.1524 120.752 42.5364 120.992 42.1524 121.392C41.7684 121.776 41.5764 122.352 41.5764 123.12V127.056C41.5764 127.76 41.3924 128.296 41.0244 128.664C40.6564 129.032 40.1204 129.216 39.4164 129.216ZM53.4037 129.264C52.0917 129.264 50.9477 129.016 49.9717 128.52C48.9957 128.024 48.2357 127.312 47.6917 126.384C47.1477 125.456 46.8757 124.36 46.8757 123.096C46.8757 122.136 47.0277 121.28 47.3317 120.528C47.6357 119.76 48.0757 119.112 48.6517 118.584C49.2277 118.04 49.9157 117.632 50.7157 117.36C51.5157 117.072 52.4117 116.928 53.4037 116.928C54.7157 116.928 55.8597 117.176 56.8357 117.672C57.8117 118.168 58.5637 118.88 59.0917 119.808C59.6357 120.72 59.9077 121.816 59.9077 123.096C59.9077 124.04 59.7557 124.896 59.4517 125.664C59.1477 126.432 58.7077 127.088 58.1317 127.632C57.5717 128.16 56.8837 128.568 56.0677 128.856C55.2677 129.128 54.3797 129.264 53.4037 129.264ZM53.4037 126.12C53.8357 126.12 54.2197 126.016 54.5557 125.808C54.8917 125.584 55.1477 125.256 55.3237 124.824C55.5157 124.376 55.6117 123.8 55.6117 123.096C55.6117 122.024 55.4037 121.256 54.9877 120.792C54.5717 120.312 54.0437 120.072 53.4037 120.072C52.9717 120.072 52.5877 120.176 52.2517 120.384C51.9157 120.592 51.6517 120.92 51.4597 121.368C51.2677 121.8 51.1717 122.376 51.1717 123.096C51.1717 124.152 51.3797 124.92 51.7957 125.4C52.2117 125.88 52.7477 126.12 53.4037 126.12ZM69.6412 129.264C68.7292 129.264 67.9132 129.048 67.1932 128.616C66.4892 128.168 66.0252 127.584 65.8012 126.864L66.0652 125.88V127.056C66.0652 127.76 65.8812 128.296 65.5132 128.664C65.1612 129.032 64.6492 129.216 63.9772 129.216C63.2892 129.216 62.7612 129.032 62.3932 128.664C62.0412 128.296 61.8652 127.76 61.8652 127.056V114.024C61.8652 113.32 62.0492 112.784 62.4172 112.416C62.7852 112.048 63.3052 111.864 63.9772 111.864C64.6652 111.864 65.1932 112.048 65.5612 112.416C65.9452 112.784 66.1372 113.32 66.1372 114.024V119.16H65.8492C66.0892 118.504 66.5612 117.968 67.2652 117.552C67.9692 117.136 68.7612 116.928 69.6412 116.928C70.6652 116.928 71.5612 117.176 72.3292 117.672C73.1132 118.168 73.7212 118.872 74.1532 119.784C74.5852 120.696 74.8012 121.8 74.8012 123.096C74.8012 124.36 74.5852 125.456 74.1532 126.384C73.7212 127.312 73.1132 128.024 72.3292 128.52C71.5612 129.016 70.6652 129.264 69.6412 129.264ZM68.2972 126.12C68.7292 126.12 69.1052 126.016 69.4252 125.808C69.7612 125.584 70.0252 125.256 70.2172 124.824C70.4092 124.376 70.5052 123.8 70.5052 123.096C70.5052 122.024 70.2972 121.256 69.8812 120.792C69.4652 120.312 68.9372 120.072 68.2972 120.072C67.8652 120.072 67.4812 120.176 67.1452 120.384C66.8092 120.592 66.5452 120.92 66.3532 121.368C66.1612 121.8 66.0652 122.376 66.0652 123.096C66.0652 124.152 66.2732 124.92 66.6892 125.4C67.1052 125.88 67.6412 126.12 68.2972 126.12ZM80.852 129.264C79.94 129.264 79.132 129.096 78.428 128.76C77.74 128.424 77.196 127.968 76.796 127.392C76.412 126.8 76.22 126.128 76.22 125.376C76.22 124.512 76.444 123.832 76.892 123.336C77.34 122.84 78.06 122.488 79.052 122.28C80.044 122.056 81.364 121.944 83.012 121.944H84.332V123.96H83.012C82.388 123.96 81.868 124.008 81.452 124.104C81.052 124.184 80.756 124.32 80.564 124.512C80.372 124.688 80.276 124.92 80.276 125.208C80.276 125.576 80.404 125.88 80.66 126.12C80.932 126.36 81.316 126.48 81.812 126.48C82.212 126.48 82.564 126.392 82.868 126.216C83.188 126.04 83.444 125.8 83.636 125.496C83.828 125.176 83.924 124.808 83.924 124.392V121.608C83.924 121.032 83.772 120.624 83.468 120.384C83.18 120.144 82.676 120.024 81.956 120.024C81.572 120.024 81.14 120.072 80.66 120.168C80.18 120.248 79.644 120.4 79.052 120.624C78.62 120.784 78.252 120.808 77.948 120.696C77.644 120.584 77.404 120.392 77.228 120.12C77.068 119.848 76.988 119.552 76.988 119.232C77.004 118.912 77.108 118.608 77.3 118.32C77.508 118.032 77.82 117.808 78.236 117.648C79.004 117.36 79.708 117.168 80.348 117.072C81.004 116.976 81.604 116.928 82.148 116.928C83.46 116.928 84.54 117.12 85.388 117.504C86.252 117.872 86.892 118.448 87.308 119.232C87.74 120 87.956 120.992 87.956 122.208V127.056C87.956 127.76 87.788 128.296 87.452 128.664C87.116 129.032 86.628 129.216 85.988 129.216C85.332 129.216 84.828 129.032 84.476 128.664C84.14 128.296 83.972 127.76 83.972 127.056V126.432L84.116 126.768C84.036 127.28 83.852 127.72 83.564 128.088C83.276 128.456 82.9 128.744 82.436 128.952C81.972 129.16 81.444 129.264 80.852 129.264ZM98.1646 129.264C97.2526 129.264 96.4366 129.048 95.7166 128.616C95.0126 128.168 94.5486 127.584 94.3246 126.864L94.5886 125.88V127.056C94.5886 127.76 94.4046 128.296 94.0366 128.664C93.6846 129.032 93.1726 129.216 92.5006 129.216C91.8126 129.216 91.2846 129.032 90.9166 128.664C90.5646 128.296 90.3886 127.76 90.3886 127.056V114.024C90.3886 113.32 90.5726 112.784 90.9406 112.416C91.3086 112.048 91.8286 111.864 92.5006 111.864C93.1886 111.864 93.7166 112.048 94.0846 112.416C94.4686 112.784 94.6606 113.32 94.6606 114.024V119.16H94.3726C94.6126 118.504 95.0846 117.968 95.7886 117.552C96.4926 117.136 97.2846 116.928 98.1646 116.928C99.1886 116.928 100.085 117.176 100.853 117.672C101.637 118.168 102.245 118.872 102.677 119.784C103.109 120.696 103.325 121.8 103.325 123.096C103.325 124.36 103.109 125.456 102.677 126.384C102.245 127.312 101.637 128.024 100.853 128.52C100.085 129.016 99.1886 129.264 98.1646 129.264ZM96.8206 126.12C97.2526 126.12 97.6286 126.016 97.9486 125.808C98.2846 125.584 98.5486 125.256 98.7406 124.824C98.9326 124.376 99.0286 123.8 99.0286 123.096C99.0286 122.024 98.8206 121.256 98.4046 120.792C97.9886 120.312 97.4606 120.072 96.8206 120.072C96.3886 120.072 96.0046 120.176 95.6686 120.384C95.3326 120.592 95.0686 120.92 94.8766 121.368C94.6846 121.8 94.5886 122.376 94.5886 123.096C94.5886 124.152 94.7966 124.92 95.2126 125.4C95.6286 125.88 96.1646 126.12 96.8206 126.12ZM107.383 129.216C106.711 129.216 106.191 129.016 105.823 128.616C105.455 128.216 105.271 127.64 105.271 126.888V119.304C105.271 118.552 105.455 117.976 105.823 117.576C106.191 117.176 106.711 116.976 107.383 116.976C108.071 116.976 108.599 117.176 108.967 117.576C109.351 117.976 109.543 118.552 109.543 119.304V126.888C109.543 127.64 109.359 128.216 108.991 128.616C108.623 129.016 108.087 129.216 107.383 129.216ZM107.383 115.272C106.631 115.272 106.047 115.096 105.631 114.744C105.231 114.392 105.031 113.88 105.031 113.208C105.031 112.552 105.231 112.048 105.631 111.696C106.047 111.344 106.631 111.168 107.383 111.168C108.167 111.168 108.759 111.344 109.159 111.696C109.559 112.048 109.759 112.552 109.759 113.208C109.759 113.88 109.559 114.392 109.159 114.744C108.759 115.096 108.167 115.272 107.383 115.272ZM116.509 129.264C114.973 129.264 113.837 128.856 113.101 128.04C112.381 127.208 112.021 125.96 112.021 124.296V114.024C112.021 113.32 112.205 112.784 112.573 112.416C112.941 112.048 113.461 111.864 114.133 111.864C114.821 111.864 115.349 112.048 115.717 112.416C116.101 112.784 116.293 113.32 116.293 114.024V124.152C116.293 124.744 116.405 125.176 116.629 125.448C116.869 125.72 117.173 125.856 117.541 125.856C117.653 125.856 117.765 125.848 117.877 125.832C118.005 125.8 118.141 125.776 118.285 125.76C118.557 125.76 118.757 125.864 118.885 126.072C119.029 126.28 119.101 126.704 119.101 127.344C119.101 127.904 118.989 128.328 118.765 128.616C118.541 128.888 118.197 129.064 117.733 129.144C117.605 129.16 117.421 129.184 117.181 129.216C116.941 129.248 116.717 129.264 116.509 129.264ZM122.477 129.216C121.805 129.216 121.285 129.016 120.917 128.616C120.549 128.216 120.365 127.64 120.365 126.888V119.304C120.365 118.552 120.549 117.976 120.917 117.576C121.285 117.176 121.805 116.976 122.477 116.976C123.165 116.976 123.693 117.176 124.061 117.576C124.445 117.976 124.637 118.552 124.637 119.304V126.888C124.637 127.64 124.453 128.216 124.085 128.616C123.717 129.016 123.181 129.216 122.477 129.216ZM122.477 115.272C121.725 115.272 121.141 115.096 120.725 114.744C120.325 114.392 120.125 113.88 120.125 113.208C120.125 112.552 120.325 112.048 120.725 111.696C121.141 111.344 121.725 111.168 122.477 111.168C123.261 111.168 123.853 111.344 124.253 111.696C124.653 112.048 124.853 112.552 124.853 113.208C124.853 113.88 124.653 114.392 124.253 114.744C123.853 115.096 123.261 115.272 122.477 115.272ZM133.307 129.264C132.107 129.264 131.115 129.08 130.331 128.712C129.563 128.344 128.987 127.792 128.603 127.056C128.219 126.304 128.027 125.368 128.027 124.248V120.336H127.211C126.699 120.336 126.299 120.2 126.011 119.928C125.739 119.656 125.603 119.264 125.603 118.752C125.603 118.24 125.739 117.856 126.011 117.6C126.299 117.328 126.699 117.192 127.211 117.192H128.027V115.704C128.027 115 128.211 114.464 128.579 114.096C128.947 113.728 129.475 113.544 130.163 113.544C130.851 113.544 131.379 113.728 131.747 114.096C132.115 114.464 132.299 115 132.299 115.704V117.192H134.267C134.795 117.192 135.195 117.328 135.467 117.6C135.755 117.856 135.899 118.24 135.899 118.752C135.899 119.264 135.755 119.656 135.467 119.928C135.195 120.2 134.795 120.336 134.267 120.336H132.299V124.104C132.299 124.696 132.435 125.136 132.707 125.424C132.995 125.696 133.443 125.832 134.051 125.832C134.275 125.832 134.491 125.808 134.699 125.76C134.907 125.712 135.099 125.688 135.275 125.688C135.531 125.672 135.739 125.752 135.899 125.928C136.059 126.088 136.139 126.464 136.139 127.056C136.139 127.536 136.067 127.944 135.923 128.28C135.779 128.6 135.523 128.832 135.155 128.976C134.931 129.056 134.627 129.12 134.243 129.168C133.859 129.232 133.547 129.264 133.307 129.264ZM140.977 133.536C140.481 133.536 140.081 133.408 139.777 133.152C139.473 132.896 139.281 132.56 139.201 132.144C139.137 131.728 139.209 131.288 139.417 130.824L141.025 127.344V129.072L136.921 119.688C136.713 119.208 136.641 118.76 136.705 118.344C136.785 117.928 137.001 117.6 137.353 117.36C137.705 117.104 138.185 116.976 138.793 116.976C139.305 116.976 139.713 117.096 140.017 117.336C140.337 117.56 140.625 118.008 140.881 118.68L143.281 124.92H142.465L145.009 118.656C145.265 118 145.553 117.56 145.873 117.336C146.209 117.096 146.657 116.976 147.217 116.976C147.697 116.976 148.081 117.104 148.369 117.36C148.657 117.6 148.833 117.928 148.897 118.344C148.961 118.76 148.889 119.208 148.681 119.688L143.233 131.928C142.945 132.568 142.625 132.992 142.273 133.2C141.937 133.424 141.505 133.536 140.977 133.536ZM27.728 162.216C27.024 162.216 26.48 162.024 26.096 161.64C25.712 161.24 25.52 160.688 25.52 159.984V148.68H21.752C21.16 148.68 20.704 148.528 20.384 148.224C20.08 147.904 19.928 147.456 19.928 146.88C19.928 146.288 20.08 145.84 20.384 145.536C20.704 145.232 21.16 145.08 21.752 145.08H33.704C34.296 145.08 34.744 145.232 35.048 145.536C35.368 145.84 35.528 146.288 35.528 146.88C35.528 147.456 35.368 147.904 35.048 148.224C34.744 148.528 34.296 148.68 33.704 148.68H29.936V159.984C29.936 160.688 29.752 161.24 29.384 161.64C29.016 162.024 28.464 162.216 27.728 162.216ZM40.0475 162.216C39.3755 162.216 38.8555 162.032 38.4875 161.664C38.1195 161.296 37.9355 160.76 37.9355 160.056V147.024C37.9355 146.32 38.1195 145.784 38.4875 145.416C38.8555 145.048 39.3755 144.864 40.0475 144.864C40.7355 144.864 41.2635 145.048 41.6315 145.416C42.0155 145.784 42.2075 146.32 42.2075 147.024V152.256H41.8235C42.2075 151.504 42.7515 150.928 43.4555 150.528C44.1755 150.128 44.9915 149.928 45.9035 149.928C46.8475 149.928 47.6235 150.112 48.2315 150.48C48.8395 150.832 49.2955 151.392 49.5995 152.16C49.9035 152.912 50.0555 153.864 50.0555 155.016V160.056C50.0555 160.76 49.8715 161.296 49.5035 161.664C49.1355 162.032 48.6075 162.216 47.9195 162.216C47.2315 162.216 46.7035 162.032 46.3355 161.664C45.9675 161.296 45.7835 160.76 45.7835 160.056V155.184C45.7835 154.464 45.6555 153.952 45.3995 153.648C45.1595 153.344 44.7995 153.192 44.3195 153.192C43.6795 153.192 43.1675 153.4 42.7835 153.816C42.3995 154.216 42.2075 154.76 42.2075 155.448V160.056C42.2075 161.496 41.4875 162.216 40.0475 162.216ZM58.9222 162.264C57.4822 162.264 56.2342 162.016 55.1782 161.52C54.1382 161.008 53.3382 160.288 52.7782 159.36C52.2182 158.432 51.9382 157.336 51.9382 156.072C51.9382 154.856 52.2022 153.792 52.7302 152.88C53.2742 151.952 54.0102 151.232 54.9382 150.72C55.8822 150.192 56.9542 149.928 58.1542 149.928C59.0342 149.928 59.8342 150.072 60.5542 150.36C61.2742 150.632 61.8902 151.04 62.4022 151.584C62.9142 152.112 63.2982 152.752 63.5542 153.504C63.8262 154.256 63.9622 155.096 63.9622 156.024C63.9622 156.344 63.8742 156.584 63.6982 156.744C63.5222 156.888 63.2422 156.96 62.8582 156.96H55.5142V154.944H60.8422L60.4582 155.256C60.4582 154.664 60.3782 154.184 60.2182 153.816C60.0582 153.448 59.8182 153.168 59.4982 152.976C59.1942 152.784 58.8102 152.688 58.3462 152.688C57.8502 152.688 57.4182 152.808 57.0502 153.048C56.6982 153.272 56.4262 153.608 56.2342 154.056C56.0422 154.504 55.9462 155.064 55.9462 155.736V155.952C55.9462 157.088 56.1942 157.904 56.6902 158.4C57.2022 158.88 57.9862 159.12 59.0422 159.12C59.3942 159.12 59.7942 159.08 60.2422 159C60.7062 158.904 61.1462 158.776 61.5622 158.616C61.9782 158.456 62.3382 158.432 62.6422 158.544C62.9462 158.64 63.1782 158.816 63.3382 159.072C63.5142 159.312 63.6102 159.592 63.6262 159.912C63.6422 160.216 63.5702 160.52 63.4102 160.824C63.2502 161.112 62.9862 161.336 62.6182 161.496C62.0582 161.752 61.4582 161.944 60.8182 162.072C60.1942 162.2 59.5622 162.264 58.9222 162.264ZM71.7787 162.264C70.4667 162.264 69.3227 162.016 68.3467 161.52C67.3707 161.024 66.6107 160.312 66.0667 159.384C65.5227 158.456 65.2507 157.36 65.2507 156.096C65.2507 155.136 65.4027 154.28 65.7067 153.528C66.0107 152.76 66.4507 152.112 67.0267 151.584C67.6027 151.04 68.2907 150.632 69.0907 150.36C69.8907 150.072 70.7867 149.928 71.7787 149.928C73.0907 149.928 74.2347 150.176 75.2107 150.672C76.1867 151.168 76.9387 151.88 77.4667 152.808C78.0107 153.72 78.2827 154.816 78.2827 156.096C78.2827 157.04 78.1307 157.896 77.8267 158.664C77.5227 159.432 77.0827 160.088 76.5067 160.632C75.9467 161.16 75.2587 161.568 74.4427 161.856C73.6427 162.128 72.7547 162.264 71.7787 162.264ZM71.7787 159.12C72.2107 159.12 72.5947 159.016 72.9307 158.808C73.2667 158.584 73.5227 158.256 73.6987 157.824C73.8907 157.376 73.9867 156.8 73.9867 156.096C73.9867 155.024 73.7787 154.256 73.3627 153.792C72.9467 153.312 72.4187 153.072 71.7787 153.072C71.3467 153.072 70.9627 153.176 70.6267 153.384C70.2907 153.592 70.0267 153.92 69.8347 154.368C69.6427 154.8 69.5467 155.376 69.5467 156.096C69.5467 157.152 69.7547 157.92 70.1707 158.4C70.5867 158.88 71.1227 159.12 71.7787 159.12ZM82.4242 162.216C81.7202 162.216 81.1762 162.032 80.7922 161.664C80.4242 161.296 80.2402 160.76 80.2402 160.056V152.112C80.2402 151.424 80.4162 150.896 80.7682 150.528C81.1362 150.16 81.6562 149.976 82.3282 149.976C83.0002 149.976 83.5122 150.16 83.8642 150.528C84.2162 150.896 84.3922 151.424 84.3922 152.112V153.096H84.1522C84.3122 152.136 84.7202 151.376 85.3762 150.816C86.0482 150.256 86.8802 149.96 87.8722 149.928C88.3362 149.912 88.6802 150.032 88.9042 150.288C89.1442 150.528 89.2722 150.984 89.2882 151.656C89.2882 152.232 89.1682 152.688 88.9282 153.024C88.6882 153.36 88.2322 153.56 87.5602 153.624L87.0082 153.672C86.1602 153.752 85.5442 153.992 85.1602 154.392C84.7762 154.776 84.5842 155.352 84.5842 156.12V160.056C84.5842 160.76 84.4002 161.296 84.0322 161.664C83.6642 162.032 83.1282 162.216 82.4242 162.216ZM94.805 166.536C94.309 166.536 93.909 166.408 93.605 166.152C93.301 165.896 93.109 165.56 93.029 165.144C92.965 164.728 93.037 164.288 93.245 163.824L94.853 160.344V162.072L90.749 152.688C90.541 152.208 90.469 151.76 90.533 151.344C90.613 150.928 90.829 150.6 91.181 150.36C91.533 150.104 92.013 149.976 92.621 149.976C93.133 149.976 93.541 150.096 93.845 150.336C94.165 150.56 94.453 151.008 94.709 151.68L97.109 157.92H96.293L98.837 151.656C99.093 151 99.381 150.56 99.701 150.336C100.037 150.096 100.485 149.976 101.045 149.976C101.525 149.976 101.909 150.104 102.197 150.36C102.485 150.6 102.661 150.928 102.725 151.344C102.789 151.76 102.717 152.208 102.509 152.688L97.061 164.928C96.773 165.568 96.453 165.992 96.101 166.2C95.765 166.424 95.333 166.536 94.805 166.536Z" fill="#ECF0F1"/>
<path d="M37.875 82.6C37.775 82.6 37.675 82.5 37.575 82.4L19.075 54.9C18.975 54.8 18.975 54.6 19.075 54.5C19.175 54.4 29.175 41.3 42.075 41.3C43.775 41.3 45.375 41.5 47.075 41.9C47.675 39.6 51.475 28 66.575 25C66.675 25 66.875 25 66.975 25.2L86.275 52.6C86.375 52.7 86.375 52.8 86.275 52.9C86.275 53 86.175 53.1 86.075 53.1C85.875 53.2 64.375 59.7 63.875 67.7C63.875 67.9 63.775 68 63.575 68C63.375 68 40.175 72.5 38.375 82.1C38.175 82.5 38.075 82.6 37.875 82.6ZM19.875 54.8L37.675 81.3C40.475 72.2 60.275 68 62.975 67.5C63.875 59.8 81.875 53.7 85.175 52.7L66.375 25.9C58.075 27.6 53.475 32 50.975 35.4C48.275 39.1 47.575 42.5 47.575 42.5C47.575 42.6 47.475 42.7 47.375 42.7C47.275 42.8 47.175 42.8 47.075 42.7C45.375 42.2 43.675 42 41.975 42C30.375 42.1 21.175 53.2 19.875 54.8Z" fill="#ECF0F1" fill-opacity="0.4"/>
<path d="M63.375 68.2C63.275 68.2 63.175 68.1 63.075 68L47.075 42.7C46.975 42.5 46.975 42.3 47.175 42.2C47.375 42.1 47.575 42.1 47.675 42.3L63.675 67.6C63.775 67.8 63.775 68 63.575 68.1C63.475 68.2 63.475 68.2 63.375 68.2Z" fill="#ECF0F1" fill-opacity="0.4"/>
<path d="M37.875 82.6C37.775 82.6 37.675 82.6 37.675 82.5C37.475 82.4 37.475 82.1 37.675 82C37.975 81.7 44.475 74.3 63.275 67.5C64.175 66.7 74.775 57.4 85.775 52.5C85.975 52.4 86.175 52.5001 86.275 52.7001C86.375 52.9001 86.275 53.1001 86.075 53.2001C74.775 58.2001 63.775 68 63.675 68.1L63.575 68.2001C44.875 74.9001 38.275 82.4 38.175 82.5C38.075 82.6 37.975 82.6 37.875 82.6Z" fill="#ECF0F1" fill-opacity="0.4"/>
<path d="M24.175 57.3C24.075 57.3 24.075 57.3 23.975 57.2C23.775 57.1 23.775 56.9 23.875 56.7C23.975 56.6 25.475 54 28.975 51.3C32.175 48.8 37.775 45.7 45.975 45.2C46.175 45.2 46.375 45.3 46.375 45.6C46.375 45.8 46.275 46 45.975 46C30.675 46.9 24.475 57 24.475 57.1C24.375 57.2 24.275 57.3 24.175 57.3Z" fill="#ECF0F1" fill-opacity="0.4"/>
<path d="M26.875 60C26.775 60 26.775 60 26.675 59.9C26.475 59.8 26.475 59.6 26.575 59.4C26.675 59.3 28.175 56.7 31.675 54C34.875 51.5 40.475 48.4 48.675 47.9C48.875 47.9 49.075 48 49.075 48.3C49.075 48.5 48.975 48.7 48.675 48.7C33.375 49.6 27.175 59.7 27.175 59.8C27.075 60 26.975 60 26.875 60Z" fill="#ECF0F1" fill-opacity="0.4"/>
<path d="M28.375 63.9001C28.275 63.9001 28.275 63.9 28.175 63.8C27.975 63.7 27.975 63.5 28.075 63.3C28.175 63.2 29.675 60.6001 33.175 57.9001C36.375 55.4001 41.975 52.3 50.175 51.8C50.375 51.8 50.575 51.9 50.575 52.2C50.575 52.4 50.475 52.6 50.175 52.6C34.975 53.5 28.675 63.6 28.675 63.7C28.675 63.8 28.575 63.9001 28.375 63.9001Z" fill="#ECF0F1" fill-opacity="0.4"/>
<path d="M30.675 67.4001C30.575 67.4001 30.575 67.4 30.475 67.3C30.275 67.2 30.275 67 30.375 66.8C30.475 66.7 31.975 64.1001 35.475 61.4001C38.675 58.9001 44.275 55.8 52.475 55.3C52.675 55.3 52.875 55.4 52.875 55.7C52.875 55.9 52.775 56.1 52.475 56.1C37.175 57 30.975 67.1 30.975 67.2C30.975 67.3 30.775 67.4001 30.675 67.4001Z" fill="#ECF0F1" fill-opacity="0.4"/>
<path d="M33.575 71.8C33.475 71.8 33.475 71.8 33.375 71.7C33.175 71.6 33.175 71.4 33.275 71.2C33.375 71.1 34.875 68.5 38.375 65.8C41.575 63.3 47.175 60.2 55.375 59.7C55.575 59.7 55.775 59.8 55.775 60.1C55.775 60.3 55.675 60.5 55.375 60.5C40.075 61.4 33.875 71.5 33.875 71.6C33.775 71.8 33.675 71.8 33.575 71.8Z" fill="#ECF0F1" fill-opacity="0.4"/>
<path d="M36.275 75.9001C36.175 75.9001 36.175 75.9 36.075 75.8C35.875 75.7 35.875 75.5 35.975 75.3C36.075 75.2 37.575 72.6001 41.075 69.9001C44.275 67.4001 49.875 64.3 58.075 63.8C58.275 63.8 58.475 63.9 58.475 64.2C58.475 64.4 58.375 64.6 58.075 64.6C42.775 65.5 36.575 75.6 36.575 75.7C36.575 75.8 36.375 75.9001 36.275 75.9001Z" fill="#ECF0F1" fill-opacity="0.4"/>
<path d="M50.575 43.3H50.4749C50.2749 43.2 50.1749 43 50.2749 42.8C50.2749 42.7 54.275 30.9 66.375 30.4C66.575 30.4 66.7749 30.6 66.7749 30.8C66.7749 31 66.575 31.2 66.375 31.2C54.775 31.7 50.975 43 50.875 43.1C50.875 43.2 50.775 43.3 50.575 43.3Z" fill="#ECF0F1" fill-opacity="0.4"/>
<path d="M53.275 46.3H53.175C52.975 46.2 52.875 46 52.975 45.8C52.975 45.7 57.575 34.3 69.575 34.3C69.675 34.3 69.675 34.3 69.775 34.3C69.975 34.3 70.175 34.5 70.175 34.7C70.175 34.9 69.975 35.1 69.775 35.1C58.175 34.9 53.775 46.1 53.675 46.2C53.575 46.2 53.475 46.3 53.275 46.3Z" fill="#ECF0F1" fill-opacity="0.4"/>
<path d="M54.775 50H54.675C54.475 49.9 54.375 49.7 54.475 49.5C54.475 49.4 59.075 37.8 71.275 38C71.475 38 71.675 38.2 71.675 38.4C71.675 38.6 71.475 38.8 71.275 38.8C71.175 38.8 71.175 38.8 71.075 38.8C59.575 38.8 55.275 49.8 55.175 49.9C55.075 49.9 54.975 50 54.775 50Z" fill="#ECF0F1" fill-opacity="0.4"/>
<path d="M57.775 53.6H57.675C57.475 53.5 57.375 53.3 57.475 53.1C57.475 53 62.075 41.6 74.075 41.6C74.175 41.6 74.175 41.6 74.275 41.6C74.475 41.6 74.675 41.8 74.675 42C74.675 42.2 74.475 42.4 74.275 42.4C74.175 42.4 74.175 42.4 74.075 42.4C62.575 42.4 58.275 53.4 58.175 53.5C58.075 53.5 57.975 53.6 57.775 53.6Z" fill="#ECF0F1" fill-opacity="0.4"/>
<path d="M60.875 57.2C60.775 57.2 60.775 57.2 60.675 57.2C60.475 57.1 60.375 56.9 60.475 56.7C60.575 56.6 65.775 45.7 77.775 45.7C77.875 45.7 77.875 45.7 77.975 45.7C78.175 45.7 78.375 45.9 78.375 46.1C78.375 46.3 78.175 46.5 77.975 46.5C77.875 46.5 77.875 46.5 77.775 46.5C66.275 46.5 61.275 57 61.175 57.1C61.075 57.1 60.975 57.2 60.875 57.2Z" fill="#ECF0F1" fill-opacity="0.4"/>
<path d="M63.275 61.2C63.175 61.2 63.175 61.2 63.175 61.2C62.975 61.1 62.875 60.9 62.975 60.7C62.975 60.6 67.775 50.1 79.675 50.1C79.775 50.1 79.875 50.1 79.875 50.1C80.075 50.1 80.275 50.3 80.275 50.5C80.275 50.7 80.075 50.9 79.875 50.9C79.775 50.9 79.775 50.9 79.675 50.9C68.175 50.9 63.675 61 63.575 61.1C63.575 61.2 63.375 61.2 63.275 61.2Z" fill="#ECF0F1" fill-opacity="0.4"/>
<mask id="mask0_122_412" style="mask-type:alpha" maskUnits="userSpaceOnUse" x="127" y="0" width="168" height="198">
<rect x="127" width="168" height="198" rx="25" fill="#1ABC9C"/>
</mask>
<g mask="url(#mask0_122_412)">
<path d="M149.252 97.3286C149.352 97.3185 149.441 97.2089 149.53 97.0993C149.61 96.8902 149.589 96.6912 149.38 96.612C148.842 96.2647 146.614 91.1641 146.321 88.279C146.26 87.6821 146.329 87.3735 146.319 87.274C147.145 87.4914 150.064 89.5062 152.675 91.4518C152.784 91.5412 152.983 91.5209 153.083 91.5108C153.172 91.4012 153.262 91.2916 153.241 91.0926C152.548 87.243 152.023 83.0748 152.1 81.8607C152.967 82.4761 155.669 85.3171 157.952 87.9996C158.072 88.1885 158.37 88.1581 158.46 88.0485C158.649 87.9287 158.618 87.6303 158.509 87.5409C152.706 80.8944 152.019 81.0648 151.721 81.0952C151.333 81.2352 150.746 81.3954 152.265 90.3879C146.396 86.0599 145.939 86.5085 145.761 86.7277C145.393 87.0667 145.365 87.7732 145.586 88.9569C146.068 91.7223 148.097 96.8431 149.053 97.3489C149.153 97.3388 149.252 97.3286 149.252 97.3286Z" fill="#26192A"/>
<path d="M278.207 174.265C278.406 174.245 278.605 174.224 278.793 174.105C280.056 173.674 280.621 172.31 280.329 170.43C280.068 168.849 279.25 167.726 277.975 167.051C277.337 166.714 276.611 166.486 275.795 166.369C276.747 164.864 278.376 163.09 281.188 161.095C281.377 160.975 281.357 160.776 281.237 160.588C281.117 160.399 280.918 160.419 280.73 160.539C277.629 162.664 275.921 164.647 274.989 166.35C270.331 166.02 264.266 168.648 263.978 168.778C263.789 168.897 263.71 169.106 263.829 169.295C263.949 169.484 264.158 169.563 264.347 169.444C264.447 169.434 270.223 166.936 274.651 166.987C273.581 169.308 274.151 170.959 274.541 171.824C275.21 173.464 276.814 174.407 278.207 174.265ZM275.368 167.116C276.184 167.234 276.901 167.362 277.548 167.798C278.614 168.393 279.312 169.328 279.543 170.611C279.795 172.093 279.399 173.138 278.524 173.428C277.449 173.739 275.876 173.095 275.117 171.564C274.857 170.987 274.297 169.436 275.368 167.116Z" fill="#26192A"/>
<path d="M229.358 83.4449C229.358 83.4449 245.86 68.7984 261.201 84.2241C271.268 94.2562 289.93 130.452 269.723 137.334C249.506 144.116 223.716 100.102 229.358 83.4449Z" fill="#6AB0A0"/>
<path d="M268.958 160.43C268.958 160.43 263.942 58.8159 204.653 51.0804C186.928 48.7636 172.944 80.2416 178.518 81.6844C183.994 83.1374 192.535 85.0824 192.535 85.0824C192.535 85.0824 178.335 157.895 184.895 181.854C191.256 205.833 276.322 211.045 268.958 160.43Z" fill="#F4DAC6"/>
<path d="M210.739 54.582C210.739 54.582 214.12 30.516 237.94 35.429C237.94 35.429 247.118 60.4279 215.63 57.2002L210.739 54.582Z" fill="#F4DAC6"/>
<path d="M217.064 52.5309C217.164 52.5208 217.253 52.4112 217.342 52.3016C224.098 40.6576 231.135 41.6501 231.234 41.64C231.443 41.7192 231.622 41.5 231.701 41.2909C231.78 41.0818 231.561 40.9031 231.352 40.8238C231.043 40.7547 223.708 39.7926 216.685 51.7655C216.605 51.9746 216.626 52.1735 216.835 52.2528C216.865 52.5512 216.965 52.5411 217.064 52.5309Z" fill="#26192A"/>
<path d="M202.016 28.1295C202.016 28.1295 211.677 39.1075 204.709 48.6623L198.529 48.1857C198.539 48.2852 187.972 37.2989 202.016 28.1295Z" fill="#F4DAC6"/>
<path d="M189.745 178.143C189.745 178.143 176.672 218.575 178.119 220.941C179.576 223.406 187.701 226.197 190.764 225.685C193.838 225.271 206.611 189.795 206.611 189.795C206.611 189.795 193.931 176.813 189.745 178.143Z" fill="#F4DAC6"/>
<path d="M236.374 179.026C236.374 179.026 254.84 217.252 257.637 218.073C260.325 218.805 268.796 215.128 270.762 212.716C272.629 210.315 256.657 175.855 256.657 175.855C256.657 175.855 238.397 175.201 236.374 179.026Z" fill="#F4DAC6"/>
<path d="M219.915 49.9288C219.915 49.9288 209.058 38.0673 190.88 44.1395C177.952 48.471 182.21 64.6229 178.216 62.9185C174.223 61.2141 173.956 50.6871 161.93 53.0169C153.455 54.6838 154.152 77.3296 159.948 79.9562C165.744 82.5827 192.554 79.351 191.368 89.4229L244.144 77.6175C244.343 77.5973 231.716 55.2612 219.915 49.9288Z" fill="#F4DAC6"/>
<path d="M189.251 51.5488C187.262 51.7514 184.664 56.8406 184.426 57.4679C184.347 57.677 184.367 57.876 184.576 57.9552C184.785 58.0345 184.984 58.0142 185.063 57.8051C186.065 55.7934 188.039 52.4764 189.332 52.3447C189.531 52.3245 189.631 52.3144 189.86 52.5926C191.476 54.6395 188.986 58.8131 188.986 58.8131C188.906 59.0222 188.927 59.2212 189.136 59.3004C189.345 59.3796 189.544 59.3594 189.623 59.1503C189.702 58.9412 192.361 54.4488 190.506 52.0242C189.958 51.5774 189.55 51.5185 189.251 51.5488Z" fill="#26192A"/>
<path d="M198.779 54.2978C198.58 54.3181 198.48 54.3282 198.292 54.4479C196.153 55.1682 194.27 59.3805 194.191 59.5896C194.112 59.7987 194.232 59.9876 194.341 60.0769C194.55 60.1562 194.739 60.0364 194.829 59.9268C195.314 58.7717 196.921 55.7937 198.472 55.2337C198.86 55.0937 199.168 55.1628 199.487 55.3314C200.234 55.7579 199.622 58.6347 198.661 61.0444C198.582 61.2535 198.702 61.4423 198.911 61.5216C199.12 61.6008 199.309 61.4811 199.388 61.272C199.795 60.326 201.418 55.5369 199.814 54.5945C199.585 54.3163 199.177 54.2573 198.779 54.2978Z" fill="#26192A"/>
<path d="M172.813 57.2365C172.813 57.2365 170.537 81.2906 160.047 79.946C151.697 78.8862 155.396 54.9888 158.708 53.948C162.029 53.0068 170.443 50.7431 172.813 57.2365Z" fill="#E9A295"/>
<path d="M162.835 69.8116C163.034 69.7914 163.124 69.6817 163.203 69.4726C164.145 61.9385 165.893 60.3533 166.768 60.0632C167.743 59.7629 168.541 60.6869 168.541 60.6869C168.66 60.8758 168.959 60.8454 169.048 60.7358C169.138 60.6262 169.207 60.3176 169.097 60.2282C169.087 60.1287 167.96 58.9367 166.499 59.3871C164.549 59.9875 163.182 63.3433 162.387 69.3547C162.417 69.6532 162.636 69.8319 162.835 69.8116Z" fill="#26192A"/>
<path d="M161.014 69.6954C161.213 69.6751 161.303 69.5655 161.382 69.3564C163.067 60.2389 162.199 58.6185 161.462 58.2915C160.934 58.0437 160.367 58.4029 160.089 58.6322C159.9 58.752 159.931 59.0504 160.04 59.1398C160.16 59.3286 160.459 59.2982 160.548 59.1886C160.637 59.079 160.915 58.8497 161.025 58.939C161.234 59.0183 162.251 60.1209 160.566 69.2385C160.486 69.4476 160.706 69.6263 160.915 69.7055L161.014 69.6954Z" fill="#26192A"/>
<path d="M184.68 82.967C186.073 82.8252 187.127 82.3159 187.951 81.5283C190.782 78.7273 189.518 73.2269 189.399 73.0381C189.378 72.8391 189.169 72.7599 188.97 72.7802C188.771 72.8004 188.692 73.0095 188.712 73.2085C188.723 73.308 189.956 78.5098 187.393 80.9821C186.022 82.3278 183.734 82.5607 180.737 81.7601C180.528 81.6808 180.34 81.8006 180.26 82.0097C180.181 82.2188 180.301 82.4076 180.51 82.4869C182.063 82.9319 183.486 83.0885 184.68 82.967Z" fill="#26192A"/>
<path d="M196.834 169.782C196.934 169.772 197.033 169.762 197.023 169.663L203.985 162.018C204.174 161.899 204.143 161.6 203.934 161.521C203.814 161.332 203.516 161.363 203.437 161.572L196.475 169.216C196.286 169.336 196.317 169.634 196.526 169.713C196.635 169.803 196.735 169.793 196.834 169.782Z" fill="#26192A"/>
<path d="M203.4 169.114C203.5 169.104 203.5 169.104 203.599 169.094C203.788 168.974 203.867 168.765 203.748 168.576L199.226 160.694C199.106 160.505 198.897 160.425 198.709 160.545C198.52 160.665 198.44 160.874 198.56 161.063L203.082 168.945C203.102 169.144 203.201 169.134 203.4 169.114Z" fill="#26192A"/>
<path d="M193.823 98.7221C193.823 98.7221 169.113 102.846 158.018 85.6811L148.215 96.027C148.215 96.027 157.281 118.927 189.386 116.362L193.823 98.7221Z" fill="#F4DAC6"/>
<path d="M191.468 89.4128C191.468 89.4128 193.852 93.0902 198.64 93.7085L201.752 103.544L205.725 94.1935C205.725 94.1935 235.672 86.2198 244.243 77.6074C244.243 77.6074 267.78 102.452 267.856 150.591C267.856 150.591 201.687 162.152 183.382 153.159C183.481 153.149 184.037 107.257 191.468 89.4128Z" fill="#E9A295"/>
<path d="M191.468 89.4128C191.468 89.4128 178.932 107.475 184.492 139.376C184.492 139.376 193.659 102.056 191.468 89.4128Z" fill="#6AB0A0"/>
<path d="M252.324 83.9215C252.324 83.9215 234.449 87.0478 236.292 116.01C237.746 139.182 267.562 130.92 267.562 130.92L267.366 137.876C267.366 137.876 235.105 142.868 231.836 122.595C228.566 102.322 233.231 84.9604 244.353 77.6968L252.324 83.9215Z" fill="#6AB0A0"/>
<path d="M251.763 87.2957C251.763 87.2957 279.163 90.8391 281.117 110.04C283.072 129.241 235.95 125.493 235.95 125.493L234.563 111.864C234.563 111.864 258.661 116.547 262.689 109.704C266.716 102.861 244.87 105.487 244.87 105.487L251.763 87.2957Z" fill="#F4DAC6"/>
<path d="M266.179 91.6581C266.179 91.6581 260.075 105.749 259.861 108.585L243.241 107.261L249.074 85.5591C249.173 85.549 254.645 84.992 266.179 91.6581Z" fill="#E9A295"/>
<path d="M235.891 125.902C236.09 125.881 236.18 125.772 236.259 125.563C236.338 125.353 236.119 125.175 235.91 125.096C232.217 124.366 228.085 123.279 227.726 122.712C227.607 122.523 227.596 122.424 227.676 122.215C228.151 120.96 232.537 119.609 235.192 119.037C235.391 119.017 235.481 118.907 235.461 118.708C235.44 118.509 235.43 118.41 235.221 118.33C231.198 116.328 227.83 113.856 228.078 113.328C228.305 112.601 232.295 112.296 235.828 112.439C236.026 112.419 236.215 112.299 236.195 112.1C236.175 111.901 236.055 111.712 235.856 111.732C234.035 111.616 227.995 111.527 227.45 113.09C226.886 114.455 231.378 117.113 234.037 118.551C231.979 119.063 227.583 120.314 226.949 121.987C226.79 122.405 226.831 122.803 227.07 123.181C227.789 124.314 233.841 125.507 235.692 125.922C235.891 125.902 235.891 125.902 235.891 125.902Z" fill="#26192A"/>
<path d="M230.886 63.8896L230.985 63.8795C231.174 63.7598 231.253 63.5507 231.133 63.3618C230.734 62.3974 228.482 61.0182 228.263 60.8395C228.054 60.7603 227.855 60.7805 227.776 60.9896C227.697 61.1987 227.717 61.3977 227.926 61.477C228.783 61.9928 230.297 63.0449 230.557 63.6216C230.577 63.8205 230.687 63.9099 230.886 63.8896Z" fill="#26192A"/>
<path d="M229.997 68.0007C230.286 67.8709 230.365 67.6618 230.345 67.4628C230.044 66.4882 227.882 64.9995 227.663 64.8208C227.454 64.7415 227.255 64.7618 227.166 64.8714C227.087 65.0805 227.107 65.2795 227.216 65.3688C228.083 65.9842 229.508 67.1459 229.668 67.7327C229.589 67.9418 229.798 68.021 229.997 68.0007Z" fill="#26192A"/>
<path d="M236.13 69.9899L236.23 69.9797C236.419 69.86 236.498 69.6509 236.378 69.4621C235.978 68.4976 233.727 67.1185 233.508 66.9397C233.299 66.8605 233.1 66.8808 233.021 67.0899C232.941 67.299 232.962 67.4979 233.171 67.5772C234.027 68.0931 235.552 69.2446 235.801 69.7218C235.722 69.9309 235.931 70.0101 236.13 69.9899Z" fill="#26192A"/>
<path d="M234.278 74.5007C234.477 74.4804 234.655 74.2612 234.635 74.0623C234.434 73.0775 232.63 71.1503 232.411 70.9716C232.291 70.7828 231.992 70.8132 231.903 70.9228C231.714 71.0425 231.745 71.341 231.854 71.4303C232.532 72.1655 233.778 73.5464 233.839 74.1433C233.859 74.3422 234.079 74.521 234.278 74.5007Z" fill="#26192A"/>
<path d="M265.363 158.685C265.462 158.675 265.651 158.556 265.641 158.456C266.047 157.51 265.386 154.964 265.356 154.665C265.335 154.466 265.126 154.387 264.927 154.408C264.728 154.428 264.649 154.637 264.669 154.836C264.87 155.821 265.251 157.591 265.014 158.218C264.935 158.427 265.054 158.616 265.263 158.696C265.263 158.696 265.263 158.696 265.363 158.685Z" fill="#26192A"/>
<path d="M261.852 159.746C261.952 159.736 262.141 159.617 262.13 159.517C262.537 158.571 261.876 156.025 261.845 155.726C261.825 155.528 261.616 155.448 261.417 155.469C261.218 155.489 261.139 155.698 261.159 155.897C261.36 156.882 261.741 158.652 261.503 159.279C261.424 159.488 261.544 159.677 261.753 159.757L261.852 159.746Z" fill="#26192A"/>
<path d="M266.175 167.649C266.274 167.639 266.463 167.519 266.453 167.42C266.859 166.474 266.198 163.928 266.168 163.629C266.147 163.43 265.938 163.351 265.739 163.371C265.54 163.392 265.461 163.601 265.481 163.8C265.682 164.784 266.063 166.555 265.826 167.182C265.746 167.391 265.866 167.58 266.075 167.659C266.075 167.659 266.075 167.659 266.175 167.649Z" fill="#26192A"/>
<path d="M260.222 166.446C260.322 166.436 260.511 166.316 260.501 166.217C260.907 165.271 260.246 162.724 260.215 162.426C260.195 162.227 259.986 162.148 259.787 162.168C259.588 162.188 259.509 162.397 259.529 162.596C259.73 163.581 260.111 165.352 259.873 165.979C259.794 166.188 259.914 166.377 260.123 166.456C260.123 166.456 260.123 166.456 260.222 166.446Z" fill="#26192A"/>
<path d="M262.428 170.343C262.528 170.332 262.627 170.322 262.717 170.213C263.332 169.346 263.367 166.729 263.337 166.43C263.317 166.231 263.197 166.043 262.998 166.063C262.799 166.083 262.61 166.203 262.63 166.402C262.632 167.407 262.416 169.238 262.069 169.776C261.99 169.985 262.01 170.184 262.12 170.273C262.229 170.363 262.329 170.353 262.428 170.343Z" fill="#26192A"/>
<path d="M264.776 175.632C264.876 175.622 264.975 175.612 265.064 175.502C265.68 174.635 265.715 172.018 265.685 171.72C265.664 171.521 265.545 171.332 265.346 171.352C265.147 171.373 264.958 171.492 264.978 171.691C264.98 172.696 264.764 174.528 264.417 175.065C264.338 175.275 264.358 175.474 264.467 175.563C264.577 175.652 264.677 175.642 264.776 175.632Z" fill="#26192A"/>
<path d="M260.471 177.779C260.571 177.769 260.67 177.759 260.76 177.649C261.375 176.782 261.41 174.165 261.38 173.867C261.36 173.668 261.24 173.479 261.041 173.499C260.842 173.52 260.653 173.639 260.673 173.838C260.675 174.843 260.459 176.674 260.112 177.212C260.033 177.422 260.053 177.621 260.163 177.71C260.272 177.799 260.372 177.789 260.471 177.779Z" fill="#26192A"/>
<path d="M263.623 182.082C263.723 182.072 263.822 182.062 263.912 181.952C264.527 181.085 264.562 178.468 264.532 178.17C264.512 177.971 264.392 177.782 264.193 177.802C263.994 177.822 263.805 177.942 263.825 178.141C263.827 179.146 263.611 180.977 263.264 181.515C263.185 181.724 263.205 181.923 263.315 182.013C263.424 182.102 263.524 182.092 263.623 182.082Z" fill="#26192A"/>
<path d="M259.42 185.224C259.519 185.214 259.619 185.204 259.609 185.104C260.344 184.426 260.986 181.848 261.055 181.539C261.134 181.33 261.015 181.141 260.806 181.062C260.596 180.983 260.408 181.103 260.328 181.312C260.131 182.337 259.607 184.099 259.14 184.448C258.951 184.568 258.981 184.866 259.091 184.956C259.221 185.244 259.32 185.234 259.42 185.224Z" fill="#26192A"/>
<path d="M240.262 77.0075C240.461 76.9872 240.64 76.768 240.62 76.569C240.419 75.5843 238.614 73.6571 238.395 73.4784C238.275 73.2896 237.977 73.3199 237.888 73.4296C237.699 73.5493 237.729 73.8477 237.839 73.9371C238.517 74.6722 239.763 76.0531 239.824 76.6501C239.854 76.9485 240.063 77.0277 240.262 77.0075Z" fill="#26192A"/>
<path d="M237.979 80.2554C237.979 80.2554 238.079 80.2453 237.979 80.2554C238.178 80.2352 238.357 80.0159 238.337 79.817C238.136 78.8322 236.332 76.905 236.112 76.7263C235.993 76.5375 235.694 76.5679 235.605 76.6775C235.416 76.7972 235.446 77.0957 235.556 77.185C236.234 77.9202 237.48 79.3011 237.541 79.898C237.661 80.0868 237.78 80.2757 237.979 80.2554Z" fill="#26192A"/>
<path d="M201.849 113.385C203.241 113.243 204.314 111.928 204.172 110.535C204.03 109.142 202.715 108.07 201.322 108.211C199.929 108.353 198.857 109.669 198.999 111.061C199.141 112.454 200.456 113.526 201.849 113.385ZM201.393 108.908C202.388 108.807 203.265 109.521 203.366 110.516C203.467 111.511 202.752 112.388 201.758 112.489C200.763 112.591 199.886 111.876 199.784 110.881C199.683 109.886 200.398 109.009 201.393 108.908Z" fill="#26192A"/>
<path d="M201.25 129.227C202.643 129.085 203.715 127.77 203.573 126.377C203.431 124.984 202.116 123.912 200.723 124.054C199.331 124.195 198.258 125.511 198.4 126.903C198.542 128.296 199.857 129.369 201.25 129.227ZM200.804 124.849C201.799 124.748 202.676 125.463 202.777 126.458C202.879 127.453 202.164 128.33 201.169 128.431C200.174 128.532 199.297 127.817 199.196 126.822C199.095 125.828 199.809 124.951 200.804 124.849Z" fill="#26192A"/>
<path d="M200.398 142.582C201.791 142.44 202.863 141.125 202.721 139.732C202.58 138.339 201.264 137.267 199.871 137.408C198.479 137.55 197.406 138.866 197.548 140.258C197.69 141.651 199.005 142.723 200.398 142.582ZM199.942 138.105C200.937 138.004 201.814 138.718 201.915 139.713C202.017 140.708 201.302 141.585 200.307 141.686C199.312 141.788 198.435 141.073 198.334 140.078C198.143 139.193 198.947 138.206 199.942 138.105Z" fill="#26192A"/>
<path d="M200.983 40.6987C201.083 40.6885 201.182 40.6784 201.172 40.5789C203.635 38.1168 200.52 32.2019 200.391 31.9135C200.271 31.7247 200.062 31.6455 199.873 31.7652C199.684 31.8849 199.605 32.094 199.725 32.2829C199.735 32.3824 202.72 38.009 200.614 40.0327C200.425 40.1524 200.455 40.4509 200.565 40.5402C200.774 40.6194 200.884 40.7088 200.983 40.6987Z" fill="#26192A"/>
</g>
<path d="M123.141 187.5C123.041 187.5 122.941 187.5 122.941 187.4C122.841 187.3 122.741 187.1 122.841 187L127.941 175.5L121.141 169.4C121.041 169.3 120.941 169.1 121.041 169C121.141 168.9 121.241 168.8 121.441 168.8L130.441 169.8L133.841 162.2C133.941 162.1 134.041 162 134.241 162C134.441 162 134.541 162.1 134.541 162.3L136.541 170.5L147.741 171.7C147.941 171.7 148.041 171.8 148.041 172C148.041 172.2 148.041 172.3 147.841 172.4L138.341 178.2L140.141 185.6C140.141 185.8 140.141 185.9 139.941 186C139.841 186.1 139.641 186.1 139.541 186L133.941 180.9L123.341 187.4C123.341 187.5 123.241 187.5 123.141 187.5ZM128.541 176L124.041 186.1L133.441 180.3L128.541 176ZM134.641 180.5L139.241 184.6L137.741 178.6L134.641 180.5ZM128.841 175.3L134.041 180L137.541 177.8L135.941 171.1L130.941 170.6L128.841 175.3ZM136.741 171.2L138.241 177.4L146.541 172.3L136.741 171.2ZM122.541 169.6L128.241 174.7L130.141 170.4L122.541 169.6ZM131.241 169.8L135.741 170.3L134.041 163.5L131.241 169.8Z" fill="#ECF0F1" fill-opacity="0.4"/>
<path d="M114.327 30.6266C114.127 30.6266 114.027 30.5266 113.927 30.3266L110.827 18.5266C110.727 18.3266 110.927 18.1266 111.127 18.0266C111.327 17.9266 111.527 18.1266 111.627 18.3266L114.727 30.1266C114.727 30.4266 114.627 30.6266 114.327 30.6266C114.427 30.6266 114.427 30.6266 114.327 30.6266Z" fill="#ECF0F1" fill-opacity="0.4"/>
<path d="M106.427 26.1266C106.227 26.1266 106.127 26.0266 106.027 25.8266C105.927 25.6266 106.127 25.4266 106.327 25.3266L117.427 22.1266C117.627 22.0266 117.827 22.2266 117.927 22.4266C118.027 22.6266 117.827 22.8266 117.627 22.9266L106.527 26.1266H106.427Z" fill="#ECF0F1" fill-opacity="0.4"/>
<path d="M117.527 27.3266C117.427 27.3266 117.427 27.3266 117.327 27.2266L107.927 21.0266C107.727 20.9266 107.727 20.7266 107.827 20.5266C107.927 20.3266 108.127 20.3266 108.327 20.4266L117.727 26.6266C117.927 26.7266 117.927 26.9266 117.827 27.1266C117.727 27.3266 117.627 27.3266 117.527 27.3266Z" fill="#ECF0F1" fill-opacity="0.4"/>
<path d="M109.827 29.2266C109.727 29.2266 109.727 29.2266 109.627 29.2266C109.427 29.1266 109.427 28.9266 109.527 28.7266L115.127 18.7266C115.227 18.5266 115.427 18.5266 115.627 18.6266C115.827 18.7266 115.827 18.9266 115.727 19.1266L110.127 29.1266C110.127 29.1266 110.027 29.2266 109.827 29.2266Z" fill="#ECF0F1" fill-opacity="0.4"/>
</svg>
