<svg width="40" height="40" viewBox="0 0 40 40" fill="none" xmlns="http://www.w3.org/2000/svg">
<path d="M33.2217 21.735C32.907 24.1349 31.9449 26.4039 30.4386 28.2986C28.9324 30.1933 26.9388 31.6423 24.6716 32.49C22.4045 33.3378 19.9493 33.5525 17.5694 33.111C15.1896 32.6694 12.9748 31.5884 11.1626 29.9838C9.35042 28.3793 8.00921 26.3116 7.28281 24.0027C6.55641 21.6938 6.47222 19.2308 7.03928 16.8776C7.60634 14.5245 8.80325 12.3702 10.5016 10.6456C12.2 8.92102 14.3359 7.6913 16.68 7.08833C23.1784 5.41833 29.905 8.76666 32.3884 15" stroke="#ECF0F1" stroke-width="4" stroke-linecap="round" stroke-linejoin="round"/>
<path d="M33.3333 6.66663V15H25" stroke="#ECF0F1" stroke-width="4" stroke-linecap="round" stroke-linejoin="round"/>
</svg>
