<svg width="26" height="26" viewBox="0 0 26 26" fill="none" xmlns="http://www.w3.org/2000/svg">
<path d="M12.395 0.514714C5.75751 0.827214 0.521256 6.31471 0.541256 12.911C0.544544 14.8526 1.00941 16.7656 1.89751 18.4922L0.575006 24.8685C0.558869 24.9482 0.563095 25.0307 0.58729 25.1083C0.611486 25.186 0.654872 25.2563 0.713435 25.3127C0.771998 25.3692 0.843848 25.41 0.92234 25.4313C1.00083 25.4526 1.08343 25.4538 1.16251 25.4347L7.45501 23.9547C9.12161 24.7783 10.9512 25.219 12.81 25.2447C19.5938 25.3485 25.2488 20.001 25.46 13.2697C25.6875 6.05096 19.6888 0.168464 12.395 0.513464V0.514714ZM19.9038 19.7235C18.9969 20.6271 17.9206 21.3429 16.7365 21.8298C15.5525 22.3167 14.284 22.5652 13.0038 22.561C11.4975 22.5656 10.0109 22.2198 8.66126 21.551L7.78501 21.1172L3.92626 22.0247L4.73876 18.111L4.30626 17.271C3.60513 15.9119 3.24155 14.404 3.24626 12.8747C3.24626 10.2872 4.26126 7.85346 6.10376 6.02471C7.94025 4.20684 10.4197 3.18676 13.0038 3.18596C15.6113 3.18596 18.0613 4.19346 19.9038 6.02346C20.8115 6.91801 21.5319 7.98452 22.0227 9.16067C22.5136 10.3368 22.7651 11.599 22.7625 12.8735C22.7625 15.4385 21.7313 17.911 19.9038 19.7247V19.7235Z" fill="white"/>
<path d="M19.0525 15.5558L16.6388 14.8683C16.483 14.8236 16.3181 14.8215 16.1613 14.8624C16.0045 14.9034 15.8616 14.9857 15.7475 15.1008L15.1575 15.6983C15.0354 15.8219 14.8796 15.9068 14.7095 15.9424C14.5395 15.978 14.3627 15.9626 14.2013 15.8983C13.06 15.4395 10.6575 13.3195 10.0438 12.2583C9.95773 12.1084 9.91843 11.9362 9.9309 11.7638C9.94338 11.5914 10.0071 11.4267 10.1138 11.2908L10.6288 10.6283C10.7279 10.5013 10.7906 10.3498 10.8102 10.1899C10.8298 10.0301 10.8056 9.86788 10.74 9.72076L9.72502 7.44076C9.66761 7.31332 9.58143 7.20094 9.47325 7.11244C9.36507 7.02394 9.23783 6.96174 9.10155 6.93073C8.96526 6.89972 8.82364 6.90074 8.68782 6.93371C8.55199 6.96668 8.42567 7.03071 8.31877 7.12076C7.64502 7.68701 6.84502 8.54576 6.74877 9.49951C6.57752 11.1783 7.30252 13.2945 10.045 15.837C13.2138 18.7733 15.7525 19.162 17.4038 18.7633C18.3413 18.5383 19.0913 17.6345 19.5625 16.8958C19.6379 16.7784 19.6847 16.645 19.6991 16.5063C19.7135 16.3676 19.6952 16.2274 19.6456 16.0971C19.596 15.9668 19.5165 15.8499 19.4135 15.7559C19.3105 15.6618 19.1868 15.5933 19.0525 15.5558V15.5558Z" fill="white"/>
</svg>
