<svg version="1.1" id="Layer_1" xmlns="http://www.w3.org/2000/svg" x="0px" y="0px"
	 width="100%" viewBox="0 0 279 158" enable-background="new 0 0 279 158" xml:space="preserve">
<path fill="#000000" opacity="1.000000" stroke="none" 
	d="
M186.000000,1.000000 
	C217.316986,1.000000 248.633972,1.000000 279.975464,1.000000 
	C279.975464,53.622845 279.975464,106.245705 279.975464,158.934280 
	C187.092361,158.934280 94.184669,158.934280 1.138485,158.934280 
	C1.138485,106.453453 1.138485,53.906418 1.138485,1.000000 
	C50.686985,1.000000 100.374832,1.000000 150.851471,1.338873 
	C151.003983,2.130411 150.428101,2.740534 149.722076,3.011491 
	C142.279648,5.867734 134.295975,7.776231 127.502281,11.732976 
	C120.411003,15.863033 114.460281,21.951401 107.652664,27.102173 
	C105.778427,26.046499 104.262466,25.072296 102.843536,23.662863 
	C102.541298,22.820496 102.143814,22.059393 101.742508,22.057367 
	C87.146950,21.983671 72.550896,21.957035 57.955753,22.053278 
	C57.367783,22.057156 56.788082,23.315645 56.127861,24.453474 
	C56.100132,34.593945 56.149067,44.270527 56.131203,54.357716 
	C55.714211,56.858021 55.364014,58.947720 54.683464,61.162167 
	C52.873676,62.244770 51.484127,63.396774 49.900646,64.129890 
	C36.771225,70.208481 27.761179,80.023376 22.896818,93.640244 
	C21.645023,97.144409 20.256252,100.620880 19.345499,104.215248 
	C18.977236,105.668633 19.720781,107.403717 19.972391,109.382278 
	C19.506296,110.297752 18.586838,110.861893 18.610912,111.382401 
	C19.099815,121.953033 20.992302,132.238846 25.094009,142.468002 
	C24.313541,143.636017 23.678226,144.879654 22.879974,144.994934 
	C20.632063,145.319534 18.317152,145.180145 15.760898,145.157684 
	C15.380423,145.401733 15.267701,145.711761 15.085196,146.336411 
	C15.070781,147.073730 15.126151,147.496460 15.327072,148.322815 
	C35.785076,148.800110 56.097523,148.880432 76.410042,148.911545 
	C76.952797,148.912369 77.496376,148.380096 78.472290,148.042450 
	C81.152000,148.319916 83.398422,148.931366 85.646072,148.935913 
	C97.439056,148.959747 109.232338,148.829987 121.447937,148.807068 
	C123.571663,148.824951 125.272980,148.789337 127.309242,148.854874 
	C128.101593,148.892029 128.559006,148.828018 129.480865,148.820557 
	C141.953232,148.839508 153.961151,148.801895 166.234894,148.844971 
	C166.676788,148.868362 166.852875,148.811050 167.344635,148.805969 
	C168.084030,148.823334 168.507767,148.788437 169.390045,148.857559 
	C173.915329,148.896042 177.982056,148.830505 182.498199,148.822144 
	C186.281876,148.841202 189.616104,148.803101 193.406982,148.858826 
	C197.601059,148.880997 201.338516,148.809341 205.517380,148.793884 
	C208.631622,148.815674 211.304459,148.781296 214.387772,148.853973 
	C216.203430,148.893097 217.608597,148.825180 219.423981,148.812241 
	C221.211258,148.830948 222.588318,148.794662 224.231674,148.842377 
	C224.675491,148.870316 224.853012,148.814285 225.395416,148.812622 
	C226.495255,148.830521 227.230225,148.794052 228.232391,148.840576 
	C228.676590,148.864716 228.853592,148.805878 229.468781,148.799194 
	C232.259811,148.816574 234.612640,148.781815 237.230927,148.835297 
	C237.674484,148.868210 237.852585,148.812881 238.494354,148.812622 
	C247.295303,148.835358 255.632553,148.803009 264.235168,148.832733 
	C264.606537,148.588516 264.712555,148.282211 264.881470,147.588623 
	C263.630127,146.462265 262.315887,145.723190 261.034241,144.597748 
	C261.642578,140.152100 262.218292,136.092804 262.860352,131.759781 
	C262.609772,131.368393 262.292847,131.250732 261.631165,130.944839 
	C257.515167,122.173317 253.743988,113.590019 249.960785,104.732254 
	C249.650940,104.262497 249.353119,104.067207 249.044434,103.904289 
	C249.033554,103.936661 249.097427,103.912384 248.918976,103.548935 
	C248.271011,97.737633 246.281372,91.856529 247.682129,86.941711 
	C249.877380,79.239281 249.378189,71.747986 249.523041,63.751469 
	C248.744476,60.256104 247.788803,57.116798 246.895264,53.606239 
	C245.990356,51.089325 245.023315,48.943657 244.050095,46.588135 
	C244.043915,46.378281 243.880493,45.991497 243.896637,45.719933 
	C243.620560,45.248119 243.328308,45.047867 243.023743,44.626606 
	C243.011444,44.405598 242.855392,43.991310 242.922485,43.627945 
	C241.835449,41.173763 241.045181,38.739880 239.458435,37.056938 
	C234.838852,32.157284 229.900574,27.558119 225.076019,22.894379 
	C225.064774,22.947638 225.173615,22.949512 225.067749,22.687416 
	C224.657867,22.213144 224.353851,22.000967 224.003418,21.571674 
	C223.787338,21.073200 223.538269,20.936008 223.059067,20.636395 
	C221.637161,19.496851 220.365952,18.663895 219.084167,17.873949 
	C219.073563,17.916960 219.160324,17.899008 219.023041,17.604847 
	C217.950119,16.823006 217.014481,16.335323 216.068146,15.889082 
	C216.057465,15.930523 216.141724,15.915535 215.998123,15.601898 
	C213.915802,14.167727 211.977081,13.047193 209.915527,11.587205 
	C202.096085,8.499247 194.390381,5.775298 186.727310,2.936260 
	C186.303879,2.779388 186.234283,1.667413 186.000000,1.000000 
z"/>
<path fill="#EAF1FA" opacity="1.000000" stroke="none" 
	d="
M108.010941,27.183647 
	C114.460281,21.951401 120.411003,15.863033 127.502281,11.732976 
	C134.295975,7.776231 142.279648,5.867734 149.722076,3.011491 
	C150.428101,2.740534 151.003983,2.130411 151.320129,1.338873 
	C152.714355,1.000000 154.428711,1.000000 156.537292,1.224412 
	C157.287689,1.299216 157.643845,1.149608 158.000000,1.000000 
	C163.022095,1.000000 168.044189,1.000000 173.628601,1.175311 
	C174.460617,1.233749 174.730301,1.116876 175.000000,1.000001 
	C178.361282,1.000000 181.722580,1.000000 185.541931,1.000000 
	C186.234283,1.667413 186.303879,2.779388 186.727310,2.936260 
	C194.390381,5.775298 202.096085,8.499247 209.864136,11.960836 
	C209.925232,13.425884 209.914902,14.177847 209.673004,15.237505 
	C209.673859,17.974726 210.136108,20.409006 210.085968,22.832684 
	C210.006729,26.662348 209.792313,30.516520 209.218903,34.297192 
	C208.930099,36.201221 207.581924,37.918842 206.959610,39.802315 
	C203.587784,50.007301 210.317047,59.291759 221.045181,59.008076 
	C224.146240,58.926075 227.227249,57.968521 230.311005,57.378654 
	C234.916321,56.497746 238.984406,56.615364 242.451447,60.766605 
	C243.943695,62.553333 247.000107,63.033684 249.345917,64.107529 
	C249.378189,71.747986 249.877380,79.239281 247.682129,86.941711 
	C246.281372,91.856529 248.271011,97.737633 248.495346,103.575905 
	C246.835785,103.974808 245.421387,103.983299 244.004639,103.524521 
	C244.000977,98.743858 243.884186,94.426308 244.038834,90.118507 
	C244.142258,87.237335 243.264481,86.134453 240.151047,85.881851 
	C235.306793,85.488846 232.889481,87.061363 232.089371,91.997734 
	C231.169312,97.674294 226.972153,99.066872 222.579559,95.674744 
	C221.648636,94.955856 220.194031,94.457428 219.046402,94.564110 
	C215.822922,94.863770 215.086441,93.243225 214.967316,90.465279 
	C214.647430,83.005798 214.580475,83.008667 207.066681,82.660873 
	C205.302872,79.537537 203.658890,76.753242 201.971085,73.670395 
	C200.709549,73.237129 199.491837,73.102432 198.112030,72.631226 
	C193.533188,68.643898 188.737610,66.676109 183.001312,68.646545 
	C182.721619,67.910454 182.432861,67.455605 182.143585,66.665611 
	C182.102463,65.885536 182.061859,65.440605 182.266113,64.760025 
	C182.608109,63.642857 182.705276,62.761337 182.915588,61.536827 
	C183.350983,60.432575 183.990250,59.646935 183.933960,58.914772 
	C183.785767,56.987629 183.774399,53.697327 182.923584,53.427807 
	C180.258530,52.583565 177.198364,52.628109 174.378799,52.997128 
	C173.930145,53.055843 173.932693,56.562183 173.532104,58.883377 
	C173.942169,61.515900 174.546753,63.739666 175.221436,66.179893 
	C175.473160,66.671120 175.728470,66.816711 176.264542,67.052200 
	C176.665543,67.837692 176.859528,68.404129 177.024933,69.345749 
	C176.998688,70.472191 177.001022,71.223450 176.846832,72.277451 
	C173.334213,76.132561 169.078445,79.232086 170.060883,85.182190 
	C169.161789,85.482338 168.576965,85.726746 167.993896,85.560699 
	C168.532379,82.202278 167.131104,80.617294 164.308334,80.683670 
	C160.221924,80.779762 156.024948,80.717796 152.090225,81.640495 
	C146.381058,82.979286 145.288589,82.356224 144.926224,76.263489 
	C144.817596,74.437256 143.828293,72.663399 143.242447,70.865555 
	C142.598984,71.016998 141.955521,71.168449 141.312057,71.319901 
	C141.207230,72.879227 141.102386,74.438545 140.575745,75.998444 
	C136.857422,76.570892 134.983505,75.403198 134.285873,71.927269 
	C134.073456,70.868927 132.228149,69.300858 131.342133,69.428925 
	C130.255051,69.586067 128.637833,71.224136 128.560272,72.315140 
	C128.244141,76.762474 128.428604,81.245399 128.428604,85.833527 
	C126.966591,85.903793 125.990173,85.950722 124.743469,85.800941 
	C122.057495,83.020058 119.641815,80.435875 117.235855,77.501801 
	C117.940094,74.844780 118.634613,72.537674 119.581779,69.967316 
	C122.134552,66.733238 121.208694,65.185860 117.654503,64.992516 
	C112.686844,64.722305 111.393600,66.772804 113.040047,72.490273 
	C112.328094,74.191071 111.611946,75.550186 110.476784,76.918243 
	C104.449074,76.628708 100.183662,78.649933 97.451752,83.936584 
	C93.622742,83.125877 89.191071,80.904121 87.450539,85.215675 
	C85.984222,88.847923 84.090645,89.149261 81.096100,88.509766 
	C80.990112,77.721642 80.927704,67.398254 80.905655,56.732853 
	C80.957779,55.932495 80.969543,55.474159 81.365288,55.009476 
	C83.131516,54.447693 84.513771,53.892258 86.365356,53.272465 
	C90.464165,53.176891 94.100792,52.992214 97.720978,53.160755 
	C100.881607,53.307899 102.230690,52.220631 102.092499,48.925961 
	C101.940887,45.311253 102.210457,41.678875 102.621826,37.949520 
	C104.635086,34.291111 106.323013,30.737379 108.010941,27.183647 
M173.686371,26.759811 
	C169.623718,26.172443 165.559097,25.598209 161.498901,24.994354 
	C156.516220,24.253305 151.516251,23.602758 146.562347,22.701004 
	C141.270844,21.737795 136.177750,21.285633 131.070511,23.860464 
	C128.075302,25.370510 124.596886,25.890659 121.453903,27.150637 
	C119.528290,27.922590 117.826164,29.252028 116.023674,30.331110 
	C116.222649,30.924067 116.421623,31.517021 116.620605,32.109978 
	C138.590820,32.109978 160.561035,32.109978 182.531250,32.109978 
	C182.704514,31.686249 182.877762,31.262520 183.051025,30.838791 
	C180.192474,29.536142 177.333908,28.233494 173.686371,26.759811 
M179.915848,38.801567 
	C174.427017,36.858833 169.473114,38.326008 163.302765,41.528496 
	C173.930267,41.528496 183.119675,41.528496 192.309097,41.528496 
	C192.352203,40.931740 192.395309,40.334984 192.438416,39.738228 
	C188.565826,39.473389 184.693222,39.208549 179.915848,38.801567 
z"/>
<path fill="#D5D7DB" opacity="1.000000" stroke="none" 
	d="
M174.750000,1.000001 
	C174.730301,1.116876 174.460617,1.233749 174.095459,1.175311 
	C174.000000,1.000000 174.500000,1.000000 174.750000,1.000001 
z"/>
<path fill="#D5D7DB" opacity="1.000000" stroke="none" 
	d="
M157.750000,1.000000 
	C157.643845,1.149608 157.287689,1.299216 156.965759,1.224412 
	C157.000000,1.000000 157.500000,1.000000 157.750000,1.000000 
z"/>
<path fill="#D8E5F9" opacity="1.000000" stroke="none" 
	d="
M244.006989,103.991783 
	C245.421387,103.983299 246.835785,103.974808 248.673798,103.939346 
	C249.097427,103.912384 249.033554,103.936661 249.135300,104.139427 
	C249.482300,104.563705 249.727570,104.785210 249.972809,105.006729 
	C253.743988,113.590019 257.515167,122.173317 261.730896,131.127472 
	C262.316437,131.752090 262.522614,131.930496 262.794006,132.033508 
	C262.218292,136.092804 261.642578,140.152100 260.612244,144.616165 
	C252.019440,145.469635 243.881271,145.918320 237.041153,146.295456 
	C235.953186,142.409378 235.235001,139.844131 234.149109,135.965500 
	C232.661743,138.351639 231.439941,139.412079 231.422882,140.491547 
	C231.339798,145.745392 227.997925,146.113129 223.994598,146.027115 
	C218.029892,145.898941 212.061096,145.960632 205.996185,145.663528 
	C205.775177,145.012314 205.652023,144.639099 205.611389,143.861237 
	C203.745987,134.608139 201.798050,125.759666 200.023254,116.651199 
	C200.567459,115.648109 200.938522,114.905006 201.564850,114.093460 
	C201.932587,113.354561 202.045059,112.684097 202.177750,111.707352 
	C202.292542,111.003471 202.387100,110.605888 202.775238,110.058090 
	C203.717361,107.939537 204.365891,105.971199 205.482178,104.001938 
	C218.635620,103.997948 231.321304,103.994865 244.006989,103.991783 
z"/>
<path fill="#ADD3A7" opacity="1.000000" stroke="none" 
	d="
M25.164782,142.028534 
	C20.992302,132.238846 19.099815,121.953033 18.610912,111.382401 
	C18.586838,110.861893 19.506296,110.297752 20.042274,109.007317 
	C22.731430,107.494614 25.364710,106.728523 28.386696,106.010193 
	C35.537846,106.472855 39.659294,110.824707 43.895405,115.492844 
	C45.867329,117.665878 49.198742,118.780060 52.104641,119.861908 
	C53.718540,120.462761 55.735378,119.891785 57.552811,120.051498 
	C64.243782,120.639481 69.383095,123.776566 69.942474,128.188599 
	C70.508598,132.653870 72.894867,135.031708 77.000374,136.595215 
	C76.993629,139.953201 76.911461,142.952301 76.471634,145.961365 
	C75.398827,145.995010 74.683670,146.018692 73.504013,146.027740 
	C67.054253,145.977676 61.068985,145.942261 55.058586,145.505157 
	C54.371342,142.416260 53.709236,139.729080 52.843361,136.214874 
	C48.967751,139.717529 47.713089,142.445877 49.503700,145.975494 
	C42.366486,146.010040 35.695900,146.038437 28.761732,146.047440 
	C28.322947,146.009369 28.147745,145.990662 27.949867,145.638123 
	C27.006388,144.212357 26.085585,143.120453 25.164782,142.028534 
z"/>
<path fill="#E9F0F9" opacity="1.000000" stroke="none" 
	d="
M27.997993,105.962440 
	C25.364710,106.728523 22.731430,107.494614 20.028263,108.635651 
	C19.720781,107.403717 18.977236,105.668633 19.345499,104.215248 
	C20.256252,100.620880 21.645023,97.144409 22.896818,93.640244 
	C27.761179,80.023376 36.771225,70.208481 49.900646,64.129890 
	C51.484127,63.396774 52.873676,62.244770 54.956230,61.429543 
	C57.180950,61.612167 58.884212,61.994965 60.409687,61.631523 
	C66.317375,60.224026 72.168434,58.578838 78.052284,57.488361 
	C78.011688,69.297714 77.959389,80.640877 77.525131,92.005188 
	C76.567047,92.295120 75.505241,92.532974 75.485863,92.837212 
	C75.015259,100.226776 69.428131,97.652100 65.458656,97.922981 
	C63.068832,98.086075 62.142429,96.929100 62.335194,94.170555 
	C62.793449,87.612595 62.857574,81.013924 62.713123,74.439781 
	C62.688606,73.323761 60.835659,72.247910 59.827446,71.153503 
	C59.219688,72.319054 58.140194,73.463722 58.087524,74.653831 
	C57.882065,79.296524 58.221817,83.969376 57.889774,88.597366 
	C57.761166,90.389832 56.385551,92.092827 55.578018,93.836578 
	C54.391094,92.071327 53.103436,90.362129 52.072613,88.510002 
	C51.718250,87.873299 51.923149,86.870590 52.013226,86.050537 
	C52.454475,82.033302 50.496368,80.885368 46.722527,80.944824 
	C34.560612,81.136414 35.919918,80.023064 36.037788,91.072639 
	C36.071926,94.272736 35.212372,95.930016 31.622082,96.211784 
	C30.336876,96.312645 28.700714,98.481667 28.176792,100.029083 
	C27.569897,101.821571 28.011539,103.969063 27.997993,105.962440 
z"/>
<path fill="#ADD2A8" opacity="1.000000" stroke="none" 
	d="
M249.523041,63.751469 
	C247.000107,63.033684 243.943695,62.553333 242.451447,60.766605 
	C238.984406,56.615364 234.916321,56.497746 230.311005,57.378654 
	C227.227249,57.968521 224.146240,58.926075 221.045181,59.008076 
	C210.317047,59.291759 203.587784,50.007301 206.959610,39.802315 
	C207.581924,37.918842 208.930099,36.201221 209.218903,34.297192 
	C209.792313,30.516520 210.006729,26.662348 210.085968,22.832684 
	C210.136108,20.409006 209.673859,17.974726 210.074371,15.267374 
	C212.518768,15.298209 214.330246,15.606872 216.141724,15.915534 
	C216.141724,15.915535 216.057465,15.930523 216.097321,16.255199 
	C217.144897,17.019587 218.152603,17.459297 219.160324,17.899008 
	C219.160324,17.899008 219.073563,17.916960 219.084778,18.252586 
	C220.467239,19.373137 221.838516,20.158058 223.209778,20.942982 
	C223.538269,20.936008 223.787338,21.073200 224.111954,21.832775 
	C224.569153,22.523834 224.871384,22.736675 225.173615,22.949514 
	C225.173615,22.949512 225.064774,22.947638 225.076447,23.250641 
	C230.399597,30.152697 235.696274,36.763855 241.056686,43.322937 
	C241.405960,43.750286 242.244461,43.777809 242.855392,43.991310 
	C242.855392,43.991310 243.011444,44.405598 243.107788,44.857319 
	C243.336105,45.629173 243.561554,45.856659 243.880493,45.991497 
	C243.880493,45.991497 244.043915,46.378281 244.025146,46.989769 
	C244.948624,49.726665 245.890884,51.852077 246.833130,53.977493 
	C247.788803,57.116798 248.744476,60.256104 249.523041,63.751469 
z"/>
<path fill="#B8C3C9" opacity="1.000000" stroke="none" 
	d="
M206.094040,145.941544 
	C212.061096,145.960632 218.029892,145.898941 223.994598,146.027115 
	C227.997925,146.113129 231.339798,145.745392 231.422882,140.491547 
	C231.439941,139.412079 232.661743,138.351639 234.149109,135.965500 
	C235.235001,139.844131 235.953186,142.409378 237.041153,146.295456 
	C243.881271,145.918320 252.019440,145.469635 260.579651,145.002533 
	C262.315887,145.723190 263.630127,146.462265 264.695007,147.668167 
	C264.199524,148.281357 264.040894,148.493256 263.969818,148.770660 
	C255.632553,148.803009 247.295303,148.835358 238.396820,148.660187 
	C237.545578,148.550781 237.255524,148.648911 236.965485,148.747040 
	C234.612640,148.781815 232.259811,148.816574 229.371033,148.645477 
	C228.545151,148.545624 228.255173,148.651596 227.965210,148.757568 
	C227.230225,148.794052 226.495255,148.830521 225.297134,148.660645 
	C224.544464,148.555664 224.254929,148.657028 223.965378,148.758392 
	C222.588318,148.794662 221.211258,148.830948 219.167236,148.589279 
	C216.992615,148.456543 215.484955,148.601746 213.977295,148.746933 
	C211.304459,148.781296 208.631622,148.815674 205.551514,148.494690 
	C205.460831,147.406723 205.777435,146.674133 206.094040,145.941544 
z"/>
<path fill="#F8EDE6" opacity="1.000000" stroke="none" 
	d="
M78.040581,57.022171 
	C72.168434,58.578838 66.317375,60.224026 60.409687,61.631523 
	C58.884212,61.994965 57.180950,61.612167 55.286587,61.304794 
	C55.364014,58.947720 55.714211,56.858021 56.371376,54.243591 
	C57.140228,53.454796 57.602116,53.190735 58.297585,52.960068 
	C58.531162,52.993465 59.001770,52.948029 59.462929,53.017525 
	C64.317650,53.096470 68.711205,53.105919 73.410553,53.124348 
	C74.125771,53.141369 74.535202,53.149414 75.195480,53.386021 
	C76.341492,53.773987 77.236664,53.933392 78.111282,54.465252 
	C78.113663,55.583767 78.136581,56.329823 78.124695,57.073685 
	C78.089897,57.071484 78.040581,57.022175 78.040581,57.022171 
z"/>
<path fill="#B5BBCA" opacity="1.000000" stroke="none" 
	d="
M165.969086,148.764282 
	C153.961151,148.801895 141.953232,148.839508 129.320877,148.629181 
	C128.122406,148.505417 127.548355,148.629562 126.974297,148.753708 
	C125.272980,148.789337 123.571663,148.824951 121.304604,148.550507 
	C120.468925,147.524170 120.198990,146.807922 120.383972,146.064484 
	C123.550255,146.008041 126.261620,145.978790 129.353851,145.965454 
	C130.496628,145.966888 131.258560,145.952408 132.487335,145.961349 
	C144.592545,145.959610 156.230927,145.934433 167.991577,146.192078 
	C168.386414,147.234451 168.658951,147.994003 168.931488,148.753540 
	C168.507767,148.788437 168.084030,148.823334 167.245331,148.657303 
	C166.543274,148.559021 166.256180,148.661652 165.969086,148.764282 
z"/>
<path fill="#9CA3A1" opacity="1.000000" stroke="none" 
	d="
M27.972544,145.971954 
	C28.147745,145.990662 28.322947,146.009369 29.068520,146.320404 
	C43.846493,146.721756 58.054043,146.841263 72.261848,146.901291 
	C72.829514,146.903702 73.399567,146.341507 73.968506,146.042374 
	C74.683670,146.018692 75.398827,145.995010 76.770737,146.013397 
	C77.619194,146.116058 77.810890,146.176620 78.005508,146.547119 
	C78.018814,147.270172 78.029190,147.683304 78.039566,148.096420 
	C77.496376,148.380096 76.952797,148.912369 76.410042,148.911545 
	C56.097523,148.880432 35.785076,148.800110 15.687235,148.150757 
	C19.925413,147.040695 23.948978,146.506332 27.972544,145.971954 
z"/>
<path fill="#95969D" opacity="1.000000" stroke="none" 
	d="
M78.472290,148.042450 
	C78.029190,147.683304 78.018814,147.270172 78.410439,146.484192 
	C79.901428,146.060928 80.990410,146.010529 82.512230,145.981934 
	C85.265686,146.036209 87.586304,146.068665 90.167297,146.357147 
	C91.636108,146.738480 92.844536,146.863800 94.440491,146.968079 
	C96.246742,146.611847 97.665474,146.276642 99.445213,146.134949 
	C108.207169,148.262497 110.113289,147.604736 111.703262,142.267181 
	C112.944885,142.199738 113.857010,142.201965 114.949173,142.482864 
	C116.729156,143.871582 118.329102,144.981628 119.929047,146.091660 
	C120.198990,146.807922 120.468925,147.524170 120.882187,148.497009 
	C109.232338,148.829987 97.439056,148.959747 85.646072,148.935913 
	C83.398422,148.931366 81.152000,148.319916 78.472290,148.042450 
z"/>
<path fill="#F4D3B4" opacity="1.000000" stroke="none" 
	d="
M56.204529,23.989588 
	C56.788082,23.315645 57.367783,22.057156 57.955753,22.053278 
	C72.550896,21.957035 87.146950,21.983671 101.742508,22.057367 
	C102.143814,22.059393 102.541298,22.820496 102.687698,23.777857 
	C102.128670,24.568277 101.822487,24.808472 101.209694,24.810694 
	C99.914047,24.441139 98.925018,24.309557 97.475159,24.132156 
	C84.375000,24.107517 71.735687,24.128700 58.837574,24.096214 
	C58.402748,24.034878 58.226715,24.027208 57.743004,24.013515 
	C57.025059,24.001524 56.614796,23.995556 56.204529,23.989588 
z"/>
<path fill="#ECCDB1" opacity="1.000000" stroke="none" 
	d="
M56.127861,24.453474 
	C56.614796,23.995556 57.025059,24.001524 57.830391,24.232632 
	C58.393112,24.743120 58.634464,24.936535 58.943184,25.495846 
	C58.727463,33.939026 58.518063,41.924381 58.240314,50.252819 
	C58.175659,51.061394 58.179352,51.526890 58.140770,52.224358 
	C58.098492,52.456337 58.064003,52.926674 58.064003,52.926674 
	C57.602116,53.190735 57.140228,53.454796 56.438171,53.832985 
	C56.149067,44.270527 56.100132,34.593945 56.127861,24.453474 
z"/>
<path fill="#C5D7C2" opacity="1.000000" stroke="none" 
	d="
M242.922485,43.627949 
	C242.244461,43.777809 241.405960,43.750286 241.056686,43.322937 
	C235.696274,36.763855 230.399597,30.152697 225.087677,23.197382 
	C229.900574,27.558119 234.838852,32.157284 239.458435,37.056938 
	C241.045181,38.739880 241.835449,41.173763 242.922485,43.627949 
z"/>
<path fill="#F6EADF" opacity="1.000000" stroke="none" 
	d="
M101.516312,25.048666 
	C101.822487,24.808472 102.128670,24.568277 102.590675,24.213087 
	C104.262466,25.072296 105.778427,26.046499 107.652664,27.102177 
	C106.323013,30.737379 104.635086,34.291111 102.516701,37.505043 
	C101.896263,33.126381 101.706291,29.087524 101.516312,25.048666 
z"/>
<path fill="#95969D" opacity="1.000000" stroke="none" 
	d="
M169.390045,148.857559 
	C168.658951,147.994003 168.386414,147.234451 168.166138,146.154282 
	C168.218414,145.833664 168.573822,145.824738 168.976624,145.988678 
	C173.087738,145.704224 176.796051,145.255814 180.736191,144.893127 
	C181.298431,145.337585 181.628860,145.696320 181.957901,146.394196 
	C181.987259,147.410538 182.018021,148.087753 182.048782,148.764969 
	C177.982056,148.830505 173.915329,148.896042 169.390045,148.857559 
z"/>
<path fill="#95969D" opacity="1.000000" stroke="none" 
	d="
M205.996185,145.663528 
	C205.777435,146.674133 205.460831,147.406723 205.110107,148.438507 
	C201.338516,148.809341 197.601059,148.880997 193.414185,148.544205 
	C192.974121,147.716476 192.983459,147.297195 193.427948,146.910522 
	C197.253647,146.059494 200.644180,145.175842 204.285461,144.266296 
	C204.536224,144.240387 205.033569,144.214142 205.033569,144.214142 
	C205.033569,144.214142 205.528885,144.265884 205.528870,144.265884 
	C205.652023,144.639099 205.775177,145.012314 205.996185,145.663528 
z"/>
<path fill="#B5B5C1" opacity="1.000000" stroke="none" 
	d="
M192.992798,146.877899 
	C192.983459,147.297195 192.974121,147.716476 192.957565,148.450378 
	C189.616104,148.803101 186.281876,148.841202 182.498199,148.822144 
	C182.018021,148.087753 181.987259,147.410538 182.413208,146.380386 
	C186.134171,145.945007 189.398468,145.862564 192.769974,146.047134 
	C192.915726,146.502060 192.954269,146.689987 192.992798,146.877899 
z"/>
<path fill="#CAD3CD" opacity="1.000000" stroke="none" 
	d="
M27.949867,145.638123 
	C23.948978,146.506332 19.925413,147.040695 15.541685,147.747131 
	C15.126151,147.496460 15.070781,147.073730 15.269085,146.247742 
	C15.772441,145.703598 15.941072,145.496658 16.028652,145.223679 
	C18.317152,145.180145 20.632063,145.319534 22.879974,144.994934 
	C23.678226,144.879654 24.313541,143.636017 25.094009,142.468002 
	C26.085585,143.120453 27.006388,144.212357 27.949867,145.638123 
z"/>
<path fill="#C5D7C2" opacity="1.000000" stroke="none" 
	d="
M215.998123,15.601897 
	C214.330246,15.606872 212.518768,15.298209 210.305939,14.959679 
	C209.914902,14.177847 209.925232,13.425884 209.986969,12.300291 
	C211.977081,13.047193 213.915802,14.167727 215.998123,15.601897 
z"/>
<path fill="#C5D7C2" opacity="1.000000" stroke="none" 
	d="
M246.895264,53.606239 
	C245.890884,51.852077 244.948624,49.726665 244.031311,47.199623 
	C245.023315,48.943657 245.990356,51.089325 246.895264,53.606239 
z"/>
<path fill="#C5D7C2" opacity="1.000000" stroke="none" 
	d="
M223.059067,20.636395 
	C221.838516,20.158058 220.467239,19.373137 219.095367,18.209576 
	C220.365952,18.663895 221.637161,19.496851 223.059067,20.636395 
z"/>
<path fill="#95969D" opacity="1.000000" stroke="none" 
	d="
M214.387772,148.853973 
	C215.484955,148.601746 216.992615,148.456543 218.757019,148.534302 
	C217.608597,148.825180 216.203430,148.893097 214.387772,148.853973 
z"/>
<path fill="#C5D7C2" opacity="1.000000" stroke="none" 
	d="
M219.023041,17.604847 
	C218.152603,17.459297 217.144897,17.019587 216.108002,16.213758 
	C217.014481,16.335323 217.950119,16.823006 219.023041,17.604847 
z"/>
<path fill="#95969D" opacity="1.000000" stroke="none" 
	d="
M127.309242,148.854874 
	C127.548355,148.629562 128.122406,148.505417 128.856445,148.572632 
	C128.559006,148.828018 128.101593,148.892029 127.309242,148.854874 
z"/>
<path fill="#95969D" opacity="1.000000" stroke="none" 
	d="
M166.234894,148.844971 
	C166.256180,148.661652 166.543274,148.559021 166.929657,148.605072 
	C166.852875,148.811050 166.676788,148.868362 166.234894,148.844971 
z"/>
<path fill="#95969D" opacity="1.000000" stroke="none" 
	d="
M237.230927,148.835297 
	C237.255524,148.648911 237.545578,148.550781 237.933151,148.605103 
	C237.852585,148.812881 237.674484,148.868210 237.230927,148.835297 
z"/>
<path fill="#95969D" opacity="1.000000" stroke="none" 
	d="
M224.231674,148.842377 
	C224.254929,148.657028 224.544464,148.555664 224.932281,148.606262 
	C224.853012,148.814285 224.675491,148.870316 224.231674,148.842377 
z"/>
<path fill="#95969D" opacity="1.000000" stroke="none" 
	d="
M228.232391,148.840561 
	C228.255173,148.651596 228.545151,148.545624 228.932861,148.593338 
	C228.853592,148.805878 228.676590,148.864716 228.232391,148.840561 
z"/>
<path fill="#95969D" opacity="1.000000" stroke="none" 
	d="
M264.235168,148.832733 
	C264.040894,148.493256 264.199524,148.281357 264.632141,148.055450 
	C264.712555,148.282211 264.606537,148.588516 264.235168,148.832733 
z"/>
<path fill="#A8A9A9" opacity="1.000000" stroke="none" 
	d="
M15.760898,145.157684 
	C15.941072,145.496658 15.772441,145.703598 15.338870,145.933136 
	C15.267701,145.711761 15.380423,145.401733 15.760898,145.157684 
z"/>
<path fill="#B8C3C9" opacity="1.000000" stroke="none" 
	d="
M262.860352,131.759781 
	C262.522614,131.930496 262.316437,131.752090 262.075714,131.315704 
	C262.292847,131.250732 262.609772,131.368393 262.860352,131.759781 
z"/>
<path fill="#EAF1FA" opacity="1.000000" stroke="none" 
	d="
M249.960785,104.732254 
	C249.727570,104.785210 249.482300,104.563705 249.146179,104.107056 
	C249.353119,104.067207 249.650940,104.262497 249.960785,104.732254 
z"/>
<path fill="#C5D7C2" opacity="1.000000" stroke="none" 
	d="
M243.896637,45.719933 
	C243.561554,45.856659 243.336105,45.629173 243.120087,45.078327 
	C243.328308,45.047867 243.620560,45.248119 243.896637,45.719933 
z"/>
<path fill="#C5D7C2" opacity="1.000000" stroke="none" 
	d="
M225.067749,22.687418 
	C224.871384,22.736675 224.569153,22.523834 224.158386,22.049892 
	C224.353851,22.000967 224.657867,22.213144 225.067749,22.687418 
z"/>
<path fill="#DFEAF8" opacity="1.000000" stroke="none" 
	d="
M94.052971,146.989105 
	C92.844536,146.863800 91.636108,146.738480 90.175156,145.999695 
	C87.280174,143.247238 84.637711,141.108261 81.980743,138.538422 
	C81.690720,121.729874 81.415199,105.352188 81.139671,88.974503 
	C84.090645,89.149261 85.984222,88.847923 87.450539,85.215675 
	C89.191071,80.904121 93.622742,83.125877 97.471931,84.161980 
	C97.885742,84.449890 97.901825,84.901909 97.647903,85.134659 
	C93.877884,90.592400 94.183708,91.465729 100.118195,93.206383 
	C101.046211,93.478584 101.961060,93.795647 102.901367,94.511230 
	C102.733604,98.074455 102.546463,101.218430 102.288940,104.720474 
	C101.777916,107.020454 101.337273,108.962349 100.611649,111.069748 
	C100.010338,112.214081 99.694008,113.192909 99.232193,114.511749 
	C98.830132,116.517532 98.573555,118.183304 98.199249,120.246536 
	C97.018234,126.982719 95.954948,133.321442 94.624580,139.895020 
	C94.255989,142.416306 94.154480,144.702698 94.052971,146.989105 
z"/>
<path fill="#000000" opacity="1.000000" stroke="none" 
	d="
M182.992249,68.927780 
	C188.737610,66.676109 193.533188,68.643898 198.010223,73.027145 
	C195.922165,79.373276 196.856857,81.941132 202.937607,87.087219 
	C202.938263,87.045677 202.862000,87.078667 203.003265,87.380951 
	C203.533676,88.661766 203.922806,89.640289 204.266541,90.747833 
	C204.186874,91.065125 204.216812,91.242546 204.218689,91.652130 
	C204.208496,92.223381 204.290558,92.551613 204.292877,93.279228 
	C204.123184,96.114250 204.033218,98.549904 203.543671,101.062866 
	C196.194656,103.719566 190.215027,100.541595 183.960754,97.595299 
	C183.219772,96.661797 182.091354,95.969109 182.177109,95.496956 
	C183.740829,86.887772 177.711105,86.722473 171.763626,86.076401 
	C171.153275,85.685547 170.764221,85.405998 170.375153,85.126450 
	C169.078445,79.232086 173.334213,76.132561 177.184830,72.176773 
	C179.450317,70.824829 181.221283,69.876305 182.992249,68.927780 
z"/>
<path fill="#E1EAF7" opacity="1.000000" stroke="none" 
	d="
M204.310944,91.409119 
	C204.216812,91.242546 204.186874,91.065125 204.498123,90.545219 
	C206.149673,91.678101 207.524246,93.142609 209.102890,94.824562 
	C211.492188,91.972618 211.430527,89.793343 208.260910,87.590027 
	C207.837982,85.820702 207.512238,84.410316 207.186493,82.999931 
	C214.580475,83.008667 214.647430,83.005798 214.967316,90.465279 
	C215.086441,93.243225 215.822922,94.863770 219.046402,94.564110 
	C220.194031,94.457428 221.648636,94.955856 222.579559,95.674744 
	C226.972153,99.066872 231.169312,97.674294 232.089371,91.997734 
	C232.889481,87.061363 235.306793,85.488846 240.151047,85.881851 
	C243.264481,86.134453 244.142258,87.237335 244.038834,90.118507 
	C243.884186,94.426308 244.000977,98.743858 244.004639,103.524521 
	C231.321304,103.994865 218.635620,103.997948 205.337616,103.710907 
	C204.464630,102.609039 204.203949,101.797295 203.943253,100.985550 
	C204.033218,98.549904 204.123184,96.114250 204.446869,93.047600 
	C204.557388,92.080765 204.434174,91.744942 204.310944,91.409119 
z"/>
<path fill="#F7DCC2" opacity="1.000000" stroke="none" 
	d="
M97.901825,84.901909 
	C97.901825,84.901909 97.885742,84.449890 97.865570,84.224495 
	C100.183662,78.649933 104.449074,76.628708 110.554405,77.290543 
	C112.058914,78.752876 113.066788,79.851845 114.074654,80.950821 
	C115.125145,79.917778 116.175636,78.884735 117.226128,77.851700 
	C119.641815,80.435875 122.057495,83.020058 124.744003,86.162430 
	C125.041000,87.443016 125.067184,88.165390 124.742020,88.957428 
	C123.243378,90.363937 122.096085,91.700783 120.614311,93.093651 
	C119.878075,94.105362 119.476311,95.061050 119.056412,96.390717 
	C119.035530,97.513397 119.032776,98.262100 118.753624,99.264259 
	C118.408974,101.016922 118.340729,102.516129 118.221512,104.254639 
	C118.170532,104.493942 118.003807,104.954010 117.561295,104.938034 
	C112.198959,104.735504 107.279137,104.548950 102.359329,104.362396 
	C102.546463,101.218430 102.733604,98.074455 103.280983,94.619156 
	C106.178543,95.015198 108.842209,96.255753 111.005005,92.210625 
	C105.690613,92.111237 100.860512,91.751297 100.164673,85.449951 
	C100.135651,85.187180 98.688370,85.081024 97.901825,84.901909 
z"/>
<path fill="#F5FAFE" opacity="1.000000" stroke="none" 
	d="
M174.080872,26.845329 
	C177.333908,28.233494 180.192474,29.536142 183.051025,30.838791 
	C182.877762,31.262520 182.704514,31.686249 182.531250,32.109978 
	C160.561035,32.109978 138.590820,32.109978 116.620605,32.109978 
	C116.421623,31.517021 116.222649,30.924067 116.023674,30.331110 
	C117.826164,29.252028 119.528290,27.922590 121.453903,27.150637 
	C124.596886,25.890659 128.075302,25.370510 131.070511,23.860464 
	C136.177750,21.285633 141.270844,21.737795 146.562347,22.701004 
	C151.516251,23.602758 156.516220,24.253305 161.498901,24.994354 
	C165.559097,25.598209 169.623718,26.172443 174.080872,26.845329 
z"/>
<path fill="#E3EBF7" opacity="1.000000" stroke="none" 
	d="
M140.997559,75.997864 
	C141.102386,74.438545 141.207230,72.879227 141.312057,71.319901 
	C141.955521,71.168449 142.598984,71.016998 143.242447,70.865555 
	C143.828293,72.663399 144.817596,74.437256 144.926224,76.263489 
	C145.288589,82.356224 146.381058,82.979286 152.090225,81.640495 
	C156.024948,80.717796 160.221924,80.779762 164.308334,80.683670 
	C167.131104,80.617294 168.532379,82.202278 167.707443,85.750076 
	C164.982010,87.727524 162.599915,89.216370 160.095337,90.458122 
	C155.724106,92.625336 151.277481,94.640465 146.651947,96.888489 
	C146.284515,97.369720 146.127579,97.681786 145.705048,98.076736 
	C144.951630,98.415970 144.463791,98.672318 143.758209,98.681763 
	C142.057449,97.950706 140.574432,97.466537 139.037521,96.748627 
	C138.983627,96.514893 138.924927,96.038742 139.273102,95.838661 
	C140.080841,93.989349 140.876511,92.352272 140.936646,90.688599 
	C141.113495,85.797348 140.998367,80.895538 140.997559,75.997864 
z"/>
<path fill="#E6EEFA" opacity="1.000000" stroke="none" 
	d="
M140.575745,75.998444 
	C140.998367,80.895538 141.113495,85.797348 140.936646,90.688599 
	C140.876511,92.352272 140.080841,93.989349 138.850159,95.833923 
	C136.112946,95.939911 134.146866,95.850555 131.977783,95.548233 
	C131.201691,94.828468 130.628601,94.321671 129.982269,93.518181 
	C129.264130,92.824181 128.619263,92.426865 127.987183,92.017410 
	C127.999992,92.005280 127.970131,92.019051 127.975914,91.660805 
	C127.291740,90.548248 126.601791,89.793930 125.705147,89.012863 
	C125.498451,88.986122 125.093369,88.887772 125.093369,88.887772 
	C125.067184,88.165390 125.041000,87.443016 125.014282,86.359146 
	C125.990173,85.950722 126.966591,85.903793 128.428604,85.833527 
	C128.428604,81.245399 128.244141,76.762474 128.560272,72.315140 
	C128.637833,71.224136 130.255051,69.586067 131.342133,69.428925 
	C132.228149,69.300858 134.073456,70.868927 134.285873,71.927269 
	C134.983505,75.403198 136.857422,76.570892 140.575745,75.998444 
z"/>
<path fill="#A6C0ED" opacity="1.000000" stroke="none" 
	d="
M81.096100,88.509766 
	C81.415199,105.352188 81.690720,121.729874 81.721947,138.798340 
	C81.678238,141.646118 81.878815,143.803131 82.079399,145.960129 
	C80.990410,146.010529 79.901428,146.060928 78.407516,146.174255 
	C77.810890,146.176620 77.619194,146.116058 77.128387,146.003433 
	C76.911461,142.952301 76.993629,139.953201 77.284149,136.256409 
	C77.630692,121.033821 77.768890,106.508934 77.907082,91.984039 
	C77.959389,80.640877 78.011688,69.297714 78.052284,57.488365 
	C78.040581,57.022175 78.089897,57.071484 78.461349,57.053947 
	C79.510300,57.049232 80.187798,57.062054 80.865295,57.074875 
	C80.927704,67.398254 80.990112,77.721642 81.096100,88.509766 
z"/>
<path fill="#F2BF9E" opacity="1.000000" stroke="none" 
	d="
M146.862457,96.719330 
	C151.277481,94.640465 155.724106,92.625336 160.095337,90.458122 
	C162.599915,89.216370 164.982010,87.727524 167.705688,86.160538 
	C168.576965,85.726746 169.161789,85.482338 170.060883,85.182190 
	C170.764221,85.405998 171.153275,85.685547 171.836868,86.384460 
	C174.355835,88.833893 173.709229,90.616417 171.343384,91.690865 
	C168.540176,92.963943 165.464478,93.643883 162.682968,94.954613 
	C161.517609,95.503769 160.804810,97.013298 159.520660,98.046211 
	C157.745956,97.625237 156.336823,97.244263 154.524048,96.870911 
	C153.046936,96.993355 151.973495,97.108177 150.589355,97.163452 
	C149.856979,97.100342 149.435272,97.096786 148.653030,97.041451 
	C147.815811,96.899559 147.339142,96.809448 146.862457,96.719330 
z"/>
<path fill="#F3AD71" opacity="1.000000" stroke="none" 
	d="
M101.209702,24.810694 
	C101.706291,29.087524 101.896263,33.126381 102.191376,37.609718 
	C102.210457,41.678875 101.940887,45.311253 102.092499,48.925961 
	C102.230690,52.220631 100.881607,53.307899 97.720978,53.160755 
	C94.100792,52.992214 90.464165,53.176891 86.420242,53.171120 
	C86.005806,53.134132 86.062645,52.915131 86.082756,52.615005 
	C86.372566,51.561043 86.642273,50.807209 87.380112,50.038513 
	C90.486458,50.013927 93.152107,50.221584 95.750153,49.893661 
	C96.880951,49.750935 98.795761,48.496368 98.786186,47.767365 
	C98.682846,39.901867 98.266655,32.040485 97.935989,24.177975 
	C98.925018,24.309557 99.914047,24.441139 101.209702,24.810694 
z"/>
<path fill="#3A5072" opacity="1.000000" stroke="none" 
	d="
M173.726639,58.474625 
	C173.932693,56.562183 173.930145,53.055843 174.378799,52.997128 
	C177.198364,52.628109 180.258530,52.583565 182.923584,53.427807 
	C183.774399,53.697327 183.785767,56.987629 183.933960,58.914772 
	C183.990250,59.646935 183.350983,60.432575 182.662720,61.648972 
	C181.843048,62.679890 181.389359,63.255680 180.573746,63.902195 
	C178.050079,62.140156 175.888367,60.307388 173.726639,58.474625 
z"/>
<path fill="#F4F9FE" opacity="1.000000" stroke="none" 
	d="
M180.368225,38.872643 
	C184.693222,39.208549 188.565826,39.473389 192.438416,39.738228 
	C192.395309,40.334984 192.352203,40.931740 192.309097,41.528496 
	C183.119675,41.528496 173.930267,41.528496 163.302765,41.528496 
	C169.473114,38.326008 174.427017,36.858833 180.368225,38.872643 
z"/>
<path fill="#F4BE9B" opacity="1.000000" stroke="none" 
	d="
M207.066681,82.660873 
	C207.512238,84.410316 207.837982,85.820702 207.847137,87.579155 
	C205.974365,87.644371 204.418182,87.361519 202.862000,87.078667 
	C202.862000,87.078667 202.938263,87.045677 202.969269,86.702454 
	C202.040070,84.309258 201.153854,82.220406 200.101807,80.218727 
	C198.643921,77.444878 198.569427,75.194542 202.014908,73.968948 
	C203.658890,76.753242 205.302872,79.537537 207.066681,82.660873 
z"/>
<path fill="#F1B791" opacity="1.000000" stroke="none" 
	d="
M117.235855,77.501801 
	C116.175636,78.884735 115.125145,79.917778 114.074654,80.950821 
	C113.066788,79.851845 112.058914,78.752876 110.973419,77.281601 
	C111.611946,75.550186 112.328094,74.191071 113.383652,72.364380 
	C115.591751,71.341393 117.460442,70.785973 119.329140,70.230560 
	C118.634613,72.537674 117.940094,74.844780 117.235855,77.501801 
z"/>
<path fill="#67729A" opacity="1.000000" stroke="none" 
	d="
M119.581779,69.967316 
	C117.460442,70.785973 115.591751,71.341393 113.379456,72.022705 
	C111.393600,66.772804 112.686844,64.722305 117.654503,64.992516 
	C121.208694,65.185860 122.134552,66.733238 119.581779,69.967316 
z"/>
<path fill="#DEB096" opacity="1.000000" stroke="none" 
	d="
M173.532104,58.883377 
	C175.888367,60.307388 178.050079,62.140156 180.699951,64.145386 
	C181.465820,64.543793 181.743530,64.769730 182.021255,64.995674 
	C182.061859,65.440605 182.102463,65.885536 181.812912,66.794495 
	C180.006348,67.829208 178.529922,68.399887 177.053513,68.970566 
	C176.859528,68.404129 176.665543,67.837692 176.165497,66.859444 
	C175.679932,66.203575 175.443893,66.042175 175.151321,65.963432 
	C174.546753,63.739666 173.942169,61.515900 173.532104,58.883377 
z"/>
<path fill="#E7DBD2" opacity="1.000000" stroke="none" 
	d="
M201.971085,73.670395 
	C198.569427,75.194542 198.643921,77.444878 200.101807,80.218727 
	C201.153854,82.220406 202.040070,84.309258 202.968597,86.743988 
	C196.856857,81.941132 195.922165,79.373276 198.172333,73.363663 
	C199.491837,73.102432 200.709549,73.237129 201.971085,73.670395 
z"/>
<path fill="#E0CDC3" opacity="1.000000" stroke="none" 
	d="
M177.024933,69.345749 
	C178.529922,68.399887 180.006348,67.829208 181.813431,67.129639 
	C182.432861,67.455605 182.721619,67.910454 183.001312,68.646538 
	C181.221283,69.876305 179.450317,70.824829 177.341354,71.874039 
	C177.001022,71.223450 176.998688,70.472191 177.024933,69.345749 
z"/>
<path fill="#C2D2F0" opacity="1.000000" stroke="none" 
	d="
M80.905655,56.732853 
	C80.187798,57.062054 79.510300,57.049232 78.496155,57.056145 
	C78.136581,56.329823 78.113663,55.583767 78.458855,54.444843 
	C79.527435,54.053070 80.227898,54.054157 80.936859,54.295654 
	C80.945358,54.536060 80.981308,55.015823 80.981308,55.015823 
	C80.969543,55.474159 80.957779,55.932495 80.905655,56.732853 
z"/>
<path fill="#F6EADF" opacity="1.000000" stroke="none" 
	d="
M81.365288,55.009476 
	C80.981308,55.015823 80.945358,54.536060 81.235062,54.156536 
	C82.346245,53.520977 83.167725,53.264946 84.335403,53.012829 
	C85.141953,52.982872 85.602295,52.949001 86.062645,52.915131 
	C86.062645,52.915131 86.005806,53.134132 85.950912,53.235477 
	C84.513771,53.892258 83.131516,54.447693 81.365288,55.009476 
z"/>
<path fill="#E0CDC3" opacity="1.000000" stroke="none" 
	d="
M182.266113,64.760025 
	C181.743530,64.769730 181.465820,64.543793 181.061890,64.074661 
	C181.389359,63.255680 181.843048,62.679890 182.549576,61.991959 
	C182.705276,62.761337 182.608109,63.642857 182.266113,64.760025 
z"/>
<path fill="#E0CDC3" opacity="1.000000" stroke="none" 
	d="
M175.221436,66.179893 
	C175.443893,66.042175 175.679932,66.203575 175.958481,66.640381 
	C175.728470,66.816711 175.473160,66.671120 175.221436,66.179893 
z"/>
<path fill="#F69F58" opacity="1.000000" stroke="none" 
	d="
M202.481659,110.208298 
	C202.387100,110.605888 202.292542,111.003471 201.902252,111.875854 
	C201.507538,112.954399 201.408554,113.558151 201.309586,114.161903 
	C200.938522,114.905006 200.567459,115.648109 199.606537,116.657616 
	C196.102127,116.581490 193.187561,116.238953 190.117310,115.571022 
	C188.590988,115.145920 187.165359,114.761192 185.862442,115.012543 
	C183.852722,115.400253 181.927032,116.223579 179.770325,116.602325 
	C176.138687,114.407356 173.766449,111.730133 173.566345,107.305954 
	C173.806076,106.420586 173.957321,105.829048 174.413010,105.079941 
	C177.458069,103.022980 180.198669,101.123604 183.148071,99.499069 
	C189.698196,101.710075 196.039536,103.646255 202.797043,105.709503 
	C202.728622,106.685577 202.605148,108.446938 202.481659,110.208298 
z"/>
<path fill="#F7BA93" opacity="1.000000" stroke="none" 
	d="
M190.273010,115.896408 
	C193.187561,116.238953 196.102127,116.581490 199.433395,116.917610 
	C201.798050,125.759666 203.745987,134.608139 205.611404,143.861237 
	C205.528885,144.265884 205.033569,144.214142 205.033569,144.214142 
	C205.033569,144.214142 204.536224,144.240387 204.249161,143.847870 
	C202.574249,142.590179 201.186417,141.725037 199.840134,140.494797 
	C198.705475,137.411652 197.447922,134.725372 196.370361,131.968765 
	C194.284348,126.632256 192.299683,121.256126 190.273010,115.896408 
z"/>
<path fill="#E7CDB5" opacity="1.000000" stroke="none" 
	d="
M202.775253,110.058090 
	C202.605148,108.446938 202.728622,106.685577 202.797043,105.709503 
	C196.039536,103.646255 189.698196,101.710075 183.274475,99.222153 
	C183.507568,98.426529 183.823044,98.182655 184.138519,97.938766 
	C190.215027,100.541595 196.194656,103.719566 203.543671,101.062866 
	C204.203949,101.797295 204.464630,102.609039 204.869873,103.711823 
	C204.365891,105.971199 203.717361,107.939537 202.775253,110.058090 
z"/>
<path fill="#E7CDB5" opacity="1.000000" stroke="none" 
	d="
M201.564850,114.093460 
	C201.408554,113.558151 201.507538,112.954399 201.882019,112.182144 
	C202.045059,112.684097 201.932587,113.354561 201.564850,114.093460 
z"/>
<path fill="#DFEBF9" opacity="1.000000" stroke="none" 
	d="
M77.525131,92.005188 
	C77.768890,106.508934 77.630692,121.033821 77.208725,135.897507 
	C72.894867,135.031708 70.508598,132.653870 69.942474,128.188599 
	C69.383095,123.776566 64.243782,120.639481 57.552811,120.051498 
	C55.735378,119.891785 53.718540,120.462761 52.104641,119.861908 
	C49.198742,118.780060 45.867329,117.665878 43.895405,115.492844 
	C39.659294,110.824707 35.537846,106.472855 28.386698,106.010193 
	C28.011539,103.969063 27.569897,101.821571 28.176792,100.029083 
	C28.700714,98.481667 30.336876,96.312645 31.622082,96.211784 
	C35.212372,95.930016 36.071926,94.272736 36.037788,91.072639 
	C35.919918,80.023064 34.560612,81.136414 46.722527,80.944824 
	C50.496368,80.885368 52.454475,82.033302 52.013226,86.050537 
	C51.923149,86.870590 51.718250,87.873299 52.072613,88.510002 
	C53.103436,90.362129 54.391094,92.071327 55.578018,93.836578 
	C56.385551,92.092827 57.761166,90.389832 57.889774,88.597366 
	C58.221817,83.969376 57.882065,79.296524 58.087524,74.653831 
	C58.140194,73.463722 59.219688,72.319054 59.827446,71.153503 
	C60.835659,72.247910 62.688606,73.323761 62.713123,74.439781 
	C62.857574,81.013924 62.793449,87.612595 62.335194,94.170555 
	C62.142429,96.929100 63.068832,98.086075 65.458656,97.922981 
	C69.428131,97.652100 75.015259,100.226776 75.485863,92.837212 
	C75.505241,92.532974 76.567047,92.295120 77.525131,92.005188 
z"/>
<path fill="#98B199" opacity="1.000000" stroke="none" 
	d="
M73.504013,146.027740 
	C73.399567,146.341507 72.829514,146.903702 72.261848,146.901291 
	C58.054043,146.841263 43.846493,146.721756 29.332104,146.339783 
	C35.695900,146.038437 42.366486,146.010040 49.929226,145.985199 
	C52.242161,145.961456 53.662941,145.934158 55.083721,145.906860 
	C61.068985,145.942261 67.054253,145.977676 73.504013,146.027740 
z"/>
<path fill="#9EC895" opacity="1.000000" stroke="none" 
	d="
M55.058586,145.505157 
	C53.662941,145.934158 52.242161,145.961456 50.395859,145.979034 
	C47.713089,142.445877 48.967751,139.717529 52.843361,136.214874 
	C53.709236,139.729080 54.371342,142.416260 55.058586,145.505157 
z"/>
<path fill="#F7AB6B" opacity="1.000000" stroke="none" 
	d="
M58.183044,51.992382 
	C58.179352,51.526890 58.175659,51.061394 58.673183,50.273682 
	C63.770851,49.959431 68.367302,49.967396 72.976379,50.367142 
	C73.027596,51.544403 73.066177,52.329887 73.104767,53.115368 
	C68.711205,53.105919 64.317650,53.096470 59.372009,52.822121 
	C58.658276,52.311836 58.445980,52.123558 58.183044,51.992382 
z"/>
<path fill="#ECCDB1" opacity="1.000000" stroke="none" 
	d="
M83.989212,53.008911 
	C83.167725,53.264946 82.346245,53.520977 81.226562,53.916130 
	C80.227898,54.054157 79.527435,54.053070 78.479401,54.072388 
	C77.236664,53.933392 76.341492,53.773987 75.359703,53.058437 
	C76.574776,52.190994 77.912308,51.980843 79.166855,51.536449 
	C80.172569,51.180199 81.077568,50.539661 82.350830,50.022720 
	C83.106133,50.024029 83.537865,50.027897 83.974815,50.403801 
	C83.983093,51.520191 83.986153,52.264549 83.989212,53.008911 
z"/>
<path fill="#F8C69E" opacity="1.000000" stroke="none" 
	d="
M82.027267,50.025288 
	C81.077568,50.539661 80.172569,51.180199 79.166855,51.536449 
	C77.912308,51.980843 76.574776,52.190994 75.108856,52.829876 
	C74.535202,53.149414 74.125771,53.141369 73.410553,53.124348 
	C73.066177,52.329887 73.027596,51.544403 72.999763,50.379776 
	C73.010513,50.000633 73.055824,50.028431 73.429359,49.970291 
	C76.544350,49.949867 79.285812,49.987576 82.027267,50.025288 
z"/>
<path fill="#F2B37D" opacity="1.000000" stroke="none" 
	d="
M58.140770,52.224358 
	C58.445980,52.123558 58.658276,52.311836 58.910851,52.752625 
	C59.001770,52.948029 58.531162,52.993465 58.297585,52.960068 
	C58.064003,52.926674 58.098492,52.456337 58.140770,52.224358 
z"/>
<path fill="#D8E5FA" opacity="1.000000" stroke="none" 
	d="
M174.108566,105.237518 
	C173.957321,105.829048 173.806076,106.420586 173.289185,107.470001 
	C171.826691,109.926361 170.729828,111.924835 169.353180,114.017136 
	C169.255508,115.100266 169.437607,116.089554 169.699188,117.465424 
	C169.848419,118.901482 169.918152,119.950966 169.758728,121.174332 
	C170.023712,122.232841 170.517868,123.117485 171.143677,124.292740 
	C171.484283,125.396744 171.693222,126.210136 171.679932,127.254440 
	C172.259811,129.336273 173.061890,131.187180 173.963348,133.380249 
	C174.420883,135.093094 174.779022,136.463760 175.060287,138.187408 
	C174.689117,139.453552 174.394806,140.366699 173.927505,141.550629 
	C172.534454,142.564224 171.314407,143.307053 169.868439,144.030106 
	C169.356216,144.308014 169.069946,144.605713 168.746399,145.137207 
	C168.709122,145.370987 168.573822,145.824738 168.573822,145.824738 
	C168.573822,145.824738 168.218414,145.833664 168.043854,145.871460 
	C156.230927,145.934433 144.592545,145.959610 132.479187,145.499390 
	C132.003021,131.668060 132.001816,118.322136 132.255905,104.711899 
	C135.009018,104.631645 137.506851,104.815712 140.042984,105.347076 
	C140.953979,107.134102 141.826660,108.573830 142.866898,110.248810 
	C143.352234,110.686386 143.669983,110.888702 144.110840,111.372070 
	C145.173370,112.724503 146.112823,113.795883 147.073730,115.199226 
	C148.058929,115.699936 149.022659,115.868683 150.410110,115.998039 
	C152.534149,115.920403 154.234467,115.882141 156.102112,116.089584 
	C156.833038,115.867310 157.396606,115.399330 157.981415,114.960678 
	C158.002655,114.990005 157.938705,114.956131 158.320328,114.970901 
	C160.053879,113.472519 161.405792,111.959351 162.722076,110.198471 
	C162.773987,109.630791 162.861526,109.310814 163.328308,108.913673 
	C164.748779,104.253548 166.974899,100.369133 170.895523,97.721413 
	C172.086288,96.917244 173.780380,96.858391 175.243942,96.458176 
	C175.163742,97.806374 175.161606,99.165016 174.983124,100.500084 
	C174.770630,102.089798 174.406815,103.659271 174.108566,105.237518 
z"/>
<path fill="#E1EBF8" opacity="1.000000" stroke="none" 
	d="
M140.004669,104.999771 
	C137.506851,104.815712 135.009018,104.631645 131.864532,104.774872 
	C130.480270,106.919647 129.135345,108.726662 129.103760,110.556343 
	C128.900177,122.351311 128.983688,134.151230 128.972992,145.949524 
	C126.261620,145.978790 123.550255,146.008041 120.383965,146.064484 
	C118.329102,144.981628 116.729156,143.871582 115.025795,142.006561 
	C114.938492,137.496140 114.954613,133.740677 115.233597,129.698273 
	C115.535301,127.536446 115.574135,125.661560 115.851227,123.476257 
	C116.727592,117.095230 117.365700,111.024620 118.003807,104.954010 
	C118.003807,104.954010 118.170532,104.493942 118.537949,104.158737 
	C118.946915,102.219292 118.988472,100.615044 119.030029,99.010803 
	C119.032776,98.262100 119.035530,97.513397 119.384537,96.341988 
	C120.226700,95.495956 120.722603,95.072639 121.521431,94.754845 
	C122.560806,95.291519 123.297256,95.722664 124.229881,96.370667 
	C124.993286,96.705040 125.560532,96.822548 126.345230,96.932281 
	C126.562691,96.924492 126.991852,96.996666 127.042114,97.360565 
	C128.500580,100.769592 130.612152,100.539291 133.336304,98.994827 
	C134.104736,99.034554 134.542923,99.073860 135.037964,99.460472 
	C137.059464,100.874527 139.024078,101.941277 140.881744,103.264618 
	C140.518097,104.014053 140.261383,104.506912 140.004669,104.999771 
z"/>
<path fill="#C5DAF8" opacity="1.000000" stroke="none" 
	d="
M129.353851,145.965454 
	C128.983688,134.151230 128.900177,122.351311 129.103760,110.556343 
	C129.135345,108.726662 130.480270,106.919647 131.609222,105.039185 
	C132.001816,118.322136 132.003021,131.668060 132.012360,145.475952 
	C131.258560,145.952408 130.496628,145.966888 129.353851,145.965454 
z"/>
<path fill="#E3E6F0" opacity="1.000000" stroke="none" 
	d="
M111.373772,142.336853 
	C110.113289,147.604736 108.207169,148.262497 99.245667,145.823547 
	C98.302940,143.667389 97.920761,142.016129 97.698273,139.992630 
	C100.289673,134.128662 102.721375,128.636948 105.340164,123.072052 
	C105.527260,122.998871 105.883690,122.813431 106.276375,122.870674 
	C107.460823,122.933929 108.252579,122.939949 109.116379,123.167046 
	C109.188416,123.388130 109.422264,123.790108 109.302864,124.245285 
	C109.242065,127.803223 109.300667,130.905991 109.289001,134.287033 
	C109.472374,135.046829 109.726013,135.528351 109.971581,136.411011 
	C110.433594,138.653702 110.903679,140.495285 111.373772,142.336853 
z"/>
<path fill="#F3BB96" opacity="1.000000" stroke="none" 
	d="
M109.359268,134.008759 
	C109.300667,130.905991 109.242065,127.803223 109.688828,124.282394 
	C111.807289,123.865318 113.420403,123.866295 114.888596,124.217392 
	C114.819359,126.373421 114.895042,128.179321 114.970726,129.985229 
	C114.954613,133.740677 114.938492,137.496140 114.845764,141.727875 
	C113.857010,142.201965 112.944885,142.199738 111.703262,142.267181 
	C110.903679,140.495285 110.433594,138.653702 110.185196,136.253891 
	C110.057678,135.133347 109.708473,134.571060 109.359268,134.008759 
z"/>
<path fill="#AED0B9" opacity="1.000000" stroke="none" 
	d="
M82.512230,145.981934 
	C81.878815,143.803131 81.678238,141.646118 81.736450,139.229187 
	C84.637711,141.108261 87.280174,143.247238 89.914780,145.743683 
	C87.586304,146.068665 85.265686,146.036209 82.512230,145.981934 
z"/>
<path fill="#66718C" opacity="1.000000" stroke="none" 
	d="
M97.538574,140.364883 
	C97.920761,142.016129 98.302940,143.667389 98.884674,145.630035 
	C97.665474,146.276642 96.246742,146.611847 94.440491,146.968079 
	C94.154480,144.702698 94.255989,142.416306 94.960800,139.975967 
	C96.222252,140.002991 96.880417,140.183929 97.538574,140.364883 
z"/>
<path fill="#F89D53" opacity="1.000000" stroke="none" 
	d="
M72.987137,49.987999 
	C68.367302,49.967396 63.770851,49.959431 58.741531,49.930603 
	C58.518063,41.924381 58.727463,33.939026 58.989128,25.275106 
	C59.041393,24.596544 59.096367,24.149881 59.096367,24.149881 
	C71.735687,24.128700 84.375000,24.107517 97.475159,24.132156 
	C98.266655,32.040485 98.682846,39.901867 98.786186,47.767365 
	C98.795761,48.496368 96.880951,49.750935 95.750153,49.893661 
	C93.152107,50.221584 90.486458,50.013927 87.320969,49.799541 
	C86.793678,49.575428 86.669441,49.099640 86.765572,48.677246 
	C86.898376,46.826912 86.935051,45.398975 86.983322,43.647026 
	C86.989128,42.890480 86.983322,42.457947 87.268585,41.735664 
	C87.708145,39.323578 88.376839,37.057426 87.842293,35.123928 
	C87.406342,33.547070 85.355614,31.091696 84.325775,31.233898 
	C79.925323,31.841536 74.287857,28.221434 71.367638,33.564575 
	C70.232079,35.642319 71.738258,39.163864 72.026955,42.355789 
	C72.018784,43.121780 72.024742,43.559719 72.173721,44.352989 
	C72.563118,46.481693 72.809471,48.255062 73.055824,50.028431 
	C73.055824,50.028431 73.010513,50.000633 72.987137,49.987999 
z"/>
<path fill="#F2B37D" opacity="1.000000" stroke="none" 
	d="
M58.837574,24.096214 
	C59.096367,24.149881 59.041393,24.596544 58.995449,24.817284 
	C58.634464,24.936535 58.393112,24.743120 58.138065,24.238655 
	C58.226715,24.027208 58.402748,24.034878 58.837574,24.096214 
z"/>
<path fill="#DBE3F2" opacity="1.000000" stroke="none" 
	d="
M190.117310,115.571030 
	C192.299683,121.256126 194.284348,126.632256 196.370361,131.968765 
	C197.447922,134.725372 198.705475,137.411652 199.560455,140.666656 
	C197.047043,142.729095 194.854889,144.254608 192.662750,145.780121 
	C189.398468,145.862564 186.134171,145.945007 182.414581,146.041260 
	C181.628860,145.696320 181.298431,145.337585 180.689133,144.503174 
	C180.282440,142.995316 180.154633,141.963135 180.064911,140.520721 
	C180.057220,132.361038 180.011459,124.611588 179.965698,116.862137 
	C181.927032,116.223579 183.852722,115.400253 185.862442,115.012543 
	C187.165359,114.761192 188.590988,115.145920 190.117310,115.571030 
z"/>
<path fill="#D89E72" opacity="1.000000" stroke="none" 
	d="
M180.026825,140.930939 
	C180.154633,141.963135 180.282440,142.995316 180.457321,144.417450 
	C176.796051,145.255814 173.087738,145.704224 168.976624,145.988678 
	C168.573822,145.824738 168.709122,145.370987 169.019043,145.090729 
	C169.584091,144.556931 169.839233,144.303406 170.094376,144.049896 
	C171.314407,143.307053 172.534454,142.564224 174.228333,141.505875 
	C175.098877,141.109787 175.495560,141.029221 176.305374,140.961395 
	C177.821259,140.959732 178.924042,140.945343 180.026825,140.930939 
z"/>
<path fill="#D89C70" opacity="1.000000" stroke="none" 
	d="
M192.769974,146.047134 
	C194.854889,144.254608 197.047043,142.729095 199.518890,141.031738 
	C201.186417,141.725037 202.574249,142.590179 203.998413,143.873764 
	C200.644180,145.175842 197.253647,146.059494 193.427948,146.910522 
	C192.954269,146.689987 192.915726,146.502060 192.769974,146.047134 
z"/>
<path fill="#F69F59" opacity="1.000000" stroke="none" 
	d="
M115.033508,123.867279 
	C113.420403,123.866295 111.807289,123.865318 109.808228,123.827225 
	C109.422264,123.790108 109.188416,123.388130 109.122276,122.832687 
	C108.666595,121.658913 108.277061,121.040581 107.887527,120.422249 
	C107.219582,121.219307 106.551636,122.016373 105.883690,122.813431 
	C105.883690,122.813431 105.527260,122.998871 104.965698,123.007797 
	C102.375076,121.960838 100.346031,120.904961 98.316978,119.849075 
	C98.573555,118.183304 98.830132,116.517532 99.533226,114.387741 
	C100.285370,112.917229 100.591003,111.910736 100.896629,110.904243 
	C101.337273,108.962349 101.777916,107.020454 102.288940,104.720474 
	C107.279137,104.548950 112.198959,104.735504 117.561295,104.938034 
	C117.365700,111.024620 116.727592,117.095230 115.706421,123.488281 
	C115.323349,123.810722 115.033508,123.867279 115.033508,123.867279 
z"/>
<path fill="#F3BC99" opacity="1.000000" stroke="none" 
	d="
M98.199249,120.246536 
	C100.346031,120.904961 102.375076,121.960838 104.778603,123.080978 
	C102.721375,128.636948 100.289673,134.128662 97.698273,139.992630 
	C96.880417,140.183929 96.222252,140.002991 95.227875,139.741089 
	C95.954948,133.321442 97.018234,126.982719 98.199249,120.246536 
z"/>
<path fill="#F6C09C" opacity="1.000000" stroke="none" 
	d="
M97.647903,85.134659 
	C98.688370,85.081024 100.135651,85.187180 100.164673,85.449951 
	C100.860512,91.751297 105.690613,92.111237 111.005005,92.210625 
	C108.842209,96.255753 106.178543,95.015198 103.261612,94.199890 
	C101.961060,93.795647 101.046211,93.478584 100.118195,93.206383 
	C94.183708,91.465729 93.877884,90.592400 97.647903,85.134659 
z"/>
<path fill="#F3BC99" opacity="1.000000" stroke="none" 
	d="
M100.611649,111.069748 
	C100.591003,111.910736 100.285370,112.917229 99.678711,114.047729 
	C99.694008,113.192909 100.010338,112.214081 100.611649,111.069748 
z"/>
<path fill="#E2E4EB" opacity="1.000000" stroke="none" 
	d="
M174.413010,105.079941 
	C174.406815,103.659271 174.770630,102.089798 174.983124,100.500084 
	C175.161606,99.165016 175.163742,97.806374 175.243942,96.458176 
	C173.780380,96.858391 172.086288,96.917244 170.895523,97.721413 
	C166.974899,100.369133 164.748779,104.253548 163.314651,108.517105 
	C162.704575,106.468132 162.487366,104.738556 162.149048,102.683731 
	C161.314041,100.934380 160.600143,99.510292 159.886246,98.086205 
	C160.804810,97.013298 161.517609,95.503769 162.682968,94.954613 
	C165.464478,93.643883 168.540176,92.963943 171.343384,91.690865 
	C173.709229,90.616417 174.355835,88.833893 172.058151,86.495773 
	C177.711105,86.722473 183.740829,86.887772 182.177109,95.496956 
	C182.091354,95.969109 183.219772,96.661797 183.960754,97.595306 
	C183.823044,98.182655 183.507568,98.426529 183.065689,98.947319 
	C180.198669,101.123604 177.458069,103.022980 174.413010,105.079941 
z"/>
<path fill="#E9CCBC" opacity="1.000000" stroke="none" 
	d="
M203.003265,87.380951 
	C204.418182,87.361519 205.974365,87.644371 207.944336,87.938095 
	C211.430527,89.793343 211.492188,91.972618 209.102890,94.824562 
	C207.524246,93.142609 206.149673,91.678101 204.543533,90.416199 
	C203.922806,89.640289 203.533676,88.661766 203.003265,87.380951 
z"/>
<path fill="#E9CCBC" opacity="1.000000" stroke="none" 
	d="
M204.218689,91.652130 
	C204.434174,91.744942 204.557388,92.080765 204.526611,92.648224 
	C204.290558,92.551613 204.208496,92.223381 204.218689,91.652130 
z"/>
<path fill="#F5BC98" opacity="1.000000" stroke="none" 
	d="
M124.033714,96.153809 
	C123.297256,95.722664 122.560806,95.291519 121.476334,94.488945 
	C121.068474,93.757553 121.008629,93.397583 120.948792,93.037628 
	C122.096085,91.700783 123.243378,90.363937 124.742020,88.957428 
	C125.093369,88.887772 125.498451,88.986122 125.755142,89.327782 
	C126.664597,90.452644 127.317368,91.235847 127.970131,92.019051 
	C127.970131,92.019051 127.999992,92.005280 128.033844,92.336220 
	C128.730316,93.049728 129.392914,93.432297 130.055527,93.814865 
	C130.628601,94.321671 131.201691,94.828468 131.917923,95.916901 
	C132.037048,96.990540 132.013000,97.482536 131.625244,97.938889 
	C129.838287,97.601044 128.415070,97.298851 126.991852,96.996658 
	C126.991852,96.996666 126.562691,96.924492 126.146759,96.708191 
	C125.165115,96.379189 124.599419,96.266495 124.033714,96.153809 
z"/>
<path fill="#E9E9EE" opacity="1.000000" stroke="none" 
	d="
M118.753624,99.264259 
	C118.988472,100.615044 118.946915,102.219292 118.588928,103.919434 
	C118.340729,102.516129 118.408974,101.016922 118.753624,99.264259 
z"/>
<path fill="#E9E9EE" opacity="1.000000" stroke="none" 
	d="
M120.614304,93.093643 
	C121.008629,93.397583 121.068474,93.757553 121.173416,94.383415 
	C120.722603,95.072639 120.226700,95.495956 119.402664,95.968010 
	C119.476311,95.061050 119.878075,94.105362 120.614304,93.093643 
z"/>
<path fill="#D28451" opacity="1.000000" stroke="none" 
	d="
M159.520660,98.046211 
	C160.600143,99.510292 161.314041,100.934380 161.772247,102.673500 
	C159.679916,102.989578 157.843262,102.990623 155.668030,102.994675 
	C154.877975,103.006760 154.426498,103.015831 153.738571,103.193558 
	C153.344070,103.907669 153.186005,104.453133 152.626404,104.997681 
	C149.713699,104.378769 147.202545,103.760773 144.510391,103.134232 
	C144.329376,103.125702 143.976898,103.041367 144.003540,102.646652 
	C143.965836,101.464722 143.901474,100.677490 143.917450,99.656456 
	C143.997787,99.422646 143.975952,98.928665 143.975952,98.928665 
	C144.463791,98.672318 144.951630,98.415970 145.739182,98.428345 
	C147.398407,99.654617 148.757935,100.612160 150.117447,101.569710 
	C150.409729,100.711136 150.702011,99.852562 151.341736,99.034225 
	C153.911133,100.010674 155.333908,99.776367 154.927704,96.863281 
	C156.336823,97.244263 157.745956,97.625237 159.520660,98.046211 
z"/>
<path fill="#E9E9EE" opacity="1.000000" stroke="none" 
	d="
M143.758209,98.681770 
	C143.975952,98.928665 143.997787,99.422646 143.600372,99.749405 
	C142.801743,101.050674 142.400497,102.025192 141.746597,103.000275 
	C141.325531,103.003242 141.157104,103.005638 140.988693,103.008034 
	C139.024078,101.941277 137.059464,100.874527 135.417816,99.428055 
	C136.857666,98.359680 137.974533,97.671028 139.091415,96.982376 
	C140.574432,97.466537 142.057449,97.950706 143.758209,98.681770 
z"/>
<path fill="#EEC9B5" opacity="1.000000" stroke="none" 
	d="
M139.037521,96.748634 
	C137.974533,97.671028 136.857666,98.359680 135.360931,99.080750 
	C134.542923,99.073860 134.104736,99.034554 133.215179,98.781937 
	C132.543533,98.321014 132.285263,98.122993 131.988968,97.974541 
	C132.013000,97.482536 132.037048,96.990540 132.120941,96.129868 
	C134.146866,95.850555 136.112946,95.939911 138.501984,96.034004 
	C138.924927,96.038742 138.983627,96.514893 139.037521,96.748634 
z"/>
<path fill="#E5975E" opacity="1.000000" stroke="none" 
	d="
M150.994293,98.993988 
	C150.702011,99.852562 150.409729,100.711136 150.117447,101.569710 
	C148.757935,100.612160 147.398407,99.654617 146.004761,98.345459 
	C146.127579,97.681786 146.284515,97.369720 146.651947,96.888489 
	C147.339142,96.809448 147.815811,96.899559 148.701309,97.348244 
	C149.742050,98.139938 150.373978,98.573059 151.003174,99.003342 
	C151.000473,99.000511 150.994293,98.993988 150.994293,98.993988 
z"/>
<path fill="#E9E9EE" opacity="1.000000" stroke="none" 
	d="
M127.975914,91.660805 
	C127.317368,91.235847 126.664597,90.452644 125.961838,89.354523 
	C126.601791,89.793930 127.291740,90.548248 127.975914,91.660805 
z"/>
<path fill="#E9E9EE" opacity="1.000000" stroke="none" 
	d="
M129.982269,93.518181 
	C129.392914,93.432297 128.730316,93.049728 128.021042,92.348358 
	C128.619263,92.426865 129.264130,92.824181 129.982269,93.518181 
z"/>
<path fill="#E5975E" opacity="1.000000" stroke="none" 
	d="
M154.524048,96.870911 
	C155.333908,99.776367 153.911133,100.010674 151.341736,99.034225 
	C150.994293,98.993988 151.000473,99.000511 150.993622,98.704369 
	C150.957855,98.013153 150.928940,97.618080 150.900040,97.223007 
	C151.973495,97.108177 153.046936,96.993355 154.524048,96.870911 
z"/>
<path fill="#D28451" opacity="1.000000" stroke="none" 
	d="
M150.589355,97.163452 
	C150.928940,97.618080 150.957855,98.013153 150.996323,98.707199 
	C150.373978,98.573059 149.742050,98.139938 149.061844,97.400024 
	C149.435272,97.096786 149.856979,97.100342 150.589355,97.163452 
z"/>
<path fill="#F8C69E" opacity="1.000000" stroke="none" 
	d="
M86.669441,49.099640 
	C86.669441,49.099640 86.793678,49.575428 86.852829,49.814400 
	C86.642273,50.807209 86.372566,51.561043 86.082756,52.615005 
	C85.602295,52.949001 85.141953,52.982872 84.335411,53.012825 
	C83.986153,52.264549 83.983093,51.520191 84.244812,50.281689 
	C85.229538,49.558243 85.949486,49.328941 86.669441,49.099640 
z"/>
<path fill="#F6B992" opacity="1.000000" stroke="none" 
	d="
M180.064896,140.520721 
	C178.924042,140.945343 177.821259,140.959732 176.339111,140.624176 
	C175.685532,139.460968 175.411331,138.647705 175.137146,137.834442 
	C174.779022,136.463760 174.420883,135.093094 173.997955,133.008453 
	C173.256165,130.537521 172.579163,128.780518 171.902145,127.023529 
	C171.693222,126.210136 171.484283,125.396744 171.157715,123.954330 
	C170.689362,122.550354 170.338638,121.775398 169.987885,121.000450 
	C169.918152,119.950966 169.848419,118.901482 169.810196,117.077850 
	C169.772141,115.510231 169.702560,114.716774 169.632965,113.923309 
	C170.729828,111.924835 171.826691,109.926361 173.200714,107.763840 
	C173.766449,111.730133 176.138687,114.407356 179.770325,116.602333 
	C180.011459,124.611588 180.057220,132.361038 180.064896,140.520721 
z"/>
<path fill="#F3BA8E" opacity="1.000000" stroke="none" 
	d="
M86.765572,48.677246 
	C85.949486,49.328941 85.229538,49.558243 84.239594,49.909657 
	C83.537865,50.027897 83.106133,50.024029 82.350830,50.022720 
	C79.285812,49.987576 76.544350,49.949867 73.429359,49.970291 
	C72.809471,48.255062 72.563118,46.481693 72.636383,44.349854 
	C77.627907,43.984604 82.299820,43.977821 86.971725,43.971039 
	C86.935051,45.398975 86.898376,46.826912 86.765572,48.677246 
z"/>
<path fill="#EFA063" opacity="1.000000" stroke="none" 
	d="
M153.027954,104.998589 
	C153.186005,104.453133 153.344070,103.907669 153.903168,103.498436 
	C155.883347,106.783180 157.462463,109.931702 158.932434,113.332268 
	C158.528442,114.041588 158.233566,114.498856 157.938690,114.956131 
	C157.938705,114.956131 158.002655,114.990005 157.688232,114.963844 
	C156.894135,115.239746 156.414444,115.541809 155.934769,115.843872 
	C154.234467,115.882141 152.534149,115.920403 150.204437,115.740120 
	C148.734100,115.303474 147.893188,115.085373 147.052261,114.867264 
	C146.112823,113.795883 145.173370,112.724503 144.457031,111.298355 
	C145.692200,110.130165 146.669556,109.267914 147.725937,108.516808 
	C148.819061,107.739609 149.988846,107.070267 151.125107,106.353745 
	C151.738708,107.653526 152.516541,108.904755 152.919250,110.266891 
	C153.313629,111.600914 153.325943,113.047890 153.505951,114.445290 
	C154.202805,114.278748 154.899658,114.112213 155.596512,113.945679 
	C154.740326,110.963310 153.884140,107.980949 153.027954,104.998589 
z"/>
<path fill="#DF8F54" opacity="1.000000" stroke="none" 
	d="
M152.626404,104.997681 
	C153.884140,107.980949 154.740326,110.963310 155.596512,113.945679 
	C154.899658,114.112213 154.202805,114.278748 153.505951,114.445290 
	C153.325943,113.047890 153.313629,111.600914 152.919250,110.266891 
	C152.516541,108.904755 151.738708,107.653526 151.125107,106.353745 
	C149.988846,107.070267 148.819061,107.739609 147.725937,108.516808 
	C146.669556,109.267914 145.692200,110.130165 144.333939,111.017303 
	C143.669983,110.888702 143.352234,110.686386 142.930084,109.876915 
	C143.447586,107.227432 144.069489,105.185097 144.691406,103.142769 
	C147.202545,103.760773 149.713699,104.378769 152.626404,104.997681 
z"/>
<path fill="#ECA065" opacity="1.000000" stroke="none" 
	d="
M156.006607,102.991676 
	C157.843262,102.990623 159.679916,102.989578 161.893372,102.998756 
	C162.487366,104.738556 162.704575,106.468132 162.935425,108.594269 
	C162.861526,109.310814 162.773987,109.630791 162.418365,110.321472 
	C161.542358,110.932549 160.934448,111.172928 160.205429,111.033371 
	C158.725098,108.099510 157.365845,105.545593 156.006607,102.991676 
z"/>
<path fill="#E2E4EB" opacity="1.000000" stroke="none" 
	d="
M144.510376,103.134232 
	C144.069489,105.185097 143.447586,107.227432 142.762512,109.641663 
	C141.826660,108.573830 140.953979,107.134102 140.042969,105.347076 
	C140.261383,104.506912 140.518097,104.014053 140.881744,103.264618 
	C141.157104,103.005638 141.325531,103.003242 142.076294,103.012238 
	C143.098053,103.029541 143.537476,103.035454 143.976898,103.041367 
	C143.976898,103.041367 144.329376,103.125702 144.510376,103.134232 
z"/>
<path fill="#E2E4EB" opacity="1.000000" stroke="none" 
	d="
M160.326538,111.413315 
	C160.934448,111.172928 161.542358,110.932549 162.453995,110.569183 
	C161.405792,111.959351 160.053879,113.472519 158.320312,114.970901 
	C158.233566,114.498856 158.528442,114.041588 159.188354,113.215988 
	C159.811111,112.369553 160.068832,111.891434 160.326538,111.413315 
z"/>
<path fill="#E3DCE0" opacity="1.000000" stroke="none" 
	d="
M171.679932,127.254440 
	C172.579163,128.780518 173.256165,130.537521 173.898560,132.666306 
	C173.061890,131.187180 172.259811,129.336273 171.679932,127.254440 
z"/>
<path fill="#E3DCE0" opacity="1.000000" stroke="none" 
	d="
M169.353195,114.017143 
	C169.702560,114.716774 169.772141,115.510231 169.730713,116.691269 
	C169.437607,116.089554 169.255508,115.100266 169.353195,114.017143 
z"/>
<path fill="#E2E4EB" opacity="1.000000" stroke="none" 
	d="
M147.073730,115.199234 
	C147.893188,115.085373 148.734100,115.303474 149.780701,115.779503 
	C149.022659,115.868683 148.058929,115.699936 147.073730,115.199234 
z"/>
<path fill="#E3DCE0" opacity="1.000000" stroke="none" 
	d="
M169.758728,121.174332 
	C170.338638,121.775398 170.689362,122.550354 171.026062,123.663719 
	C170.517868,123.117485 170.023712,122.232841 169.758728,121.174332 
z"/>
<path fill="#E2E4EB" opacity="1.000000" stroke="none" 
	d="
M156.102112,116.089584 
	C156.414444,115.541809 156.894135,115.239746 157.666992,114.934509 
	C157.396606,115.399330 156.833038,115.867310 156.102112,116.089584 
z"/>
<path fill="#E3DCE0" opacity="1.000000" stroke="none" 
	d="
M175.060287,138.187408 
	C175.411331,138.647705 175.685532,139.460968 175.925995,140.611450 
	C175.495560,141.029221 175.098877,141.109787 174.401337,141.235107 
	C174.394806,140.366699 174.689117,139.453552 175.060287,138.187408 
z"/>
<path fill="#E3DCE0" opacity="1.000000" stroke="none" 
	d="
M169.868439,144.030106 
	C169.839233,144.303406 169.584091,144.556931 169.056305,144.856934 
	C169.069946,144.605713 169.356216,144.308014 169.868439,144.030106 
z"/>
<path fill="#E9E9EE" opacity="1.000000" stroke="none" 
	d="
M131.625244,97.938889 
	C132.285263,98.122993 132.543533,98.321014 132.884918,98.781509 
	C130.612152,100.539291 128.500580,100.769592 127.042114,97.360565 
	C128.415070,97.298851 129.838287,97.601044 131.625244,97.938889 
z"/>
<path fill="#F3BC99" opacity="1.000000" stroke="none" 
	d="
M114.888596,124.217392 
	C115.033508,123.867279 115.323349,123.810722 115.468163,123.798698 
	C115.574135,125.661560 115.535301,127.536446 115.233597,129.698273 
	C114.895042,128.179321 114.819359,126.373421 114.888596,124.217392 
z"/>
<path fill="#E9E9EE" opacity="1.000000" stroke="none" 
	d="
M124.229881,96.370667 
	C124.599419,96.266495 125.165115,96.379189 125.929291,96.715973 
	C125.560532,96.822548 124.993286,96.705040 124.229881,96.370667 
z"/>
<path fill="#F3BC99" opacity="1.000000" stroke="none" 
	d="
M106.276375,122.870674 
	C106.551636,122.016373 107.219582,121.219307 107.887527,120.422249 
	C108.277061,121.040581 108.666595,121.658913 109.050240,122.611603 
	C108.252579,122.939949 107.460823,122.933929 106.276375,122.870674 
z"/>
<path fill="#F3BC99" opacity="1.000000" stroke="none" 
	d="
M109.289001,134.287033 
	C109.708473,134.571060 110.057678,135.133347 110.193268,135.852753 
	C109.726013,135.528351 109.472374,135.046829 109.289001,134.287033 
z"/>
<path fill="#F9AA69" opacity="1.000000" stroke="none" 
	d="
M72.041092,42.027737 
	C71.738258,39.163864 70.232079,35.642319 71.367638,33.564575 
	C74.287857,28.221434 79.925323,31.841536 84.325775,31.233898 
	C85.355614,31.091696 87.406342,33.547070 87.842293,35.123928 
	C88.376839,37.057426 87.708145,39.323578 86.804955,41.724667 
	C81.380531,42.011524 76.710815,42.019630 72.041092,42.027737 
M80.426544,33.004665 
	C79.437828,33.004993 78.447601,33.040630 77.460686,32.998707 
	C74.981743,32.893398 72.938873,32.944595 72.935257,36.466351 
	C72.931717,39.908661 74.826767,40.154423 77.385284,40.018501 
	C78.699867,39.948669 80.021278,40.014244 81.339493,40.004604 
	C83.631027,39.987850 85.969566,40.443020 86.077713,36.760090 
	C86.188553,32.986046 84.051498,32.829784 80.426544,33.004665 
z"/>
<path fill="#BB8A70" opacity="1.000000" stroke="none" 
	d="
M72.026962,42.355789 
	C76.710815,42.019630 81.380531,42.011524 86.513885,42.014412 
	C86.983322,42.457947 86.989128,42.890480 86.983322,43.647026 
	C82.299820,43.977821 77.627907,43.984604 72.493347,43.994522 
	C72.024742,43.559719 72.018784,43.121780 72.026962,42.355789 
z"/>
<path fill="#DE8D53" opacity="1.000000" stroke="none" 
	d="
M160.205444,111.033371 
	C160.068832,111.891434 159.811111,112.369553 159.297485,112.963943 
	C157.462463,109.931702 155.883347,106.783180 154.139618,103.329788 
	C154.426498,103.015831 154.877975,103.006760 155.668030,102.994675 
	C157.365845,105.545593 158.725098,108.099510 160.205444,111.033371 
z"/>
<path fill="#F2BF9E" opacity="1.000000" stroke="none" 
	d="
M144.003540,102.646652 
	C143.537476,103.035454 143.098053,103.029541 142.328949,103.011673 
	C142.400497,102.025192 142.801743,101.050674 143.520050,99.983215 
	C143.901474,100.677490 143.965836,101.464722 144.003540,102.646652 
z"/>
<path fill="#F89D53" opacity="1.000000" stroke="none" 
	d="
M80.888809,33.004829 
	C84.051498,32.829784 86.188553,32.986046 86.077713,36.760090 
	C85.969566,40.443020 83.631027,39.987850 81.339493,40.004604 
	C80.021278,40.014244 78.699867,39.948669 77.385284,40.018501 
	C74.826767,40.154423 72.931717,39.908661 72.935257,36.466351 
	C72.938873,32.944595 74.981743,32.893398 77.460686,32.998707 
	C78.447601,33.040630 79.437828,33.004993 80.888809,33.004829 
z"/>
</svg>